<mxfile host="app.diagrams.net" modified="2024-07-11T12:09:23.963Z" agent="Mozilla/5.0 (Macintosh; Intel Mac OS X 10_15_7) AppleWebKit/605.1.15 (KHTML, like Gecko) Version/17.5 Safari/605.1.15" etag="uigltkFfrhl33N6Akus1" version="24.6.4" type="github">
  <diagram name="Page-1" id="PMKdJ6SHysu0mCbQxmNa">
    <mxGraphModel dx="2710" dy="2423" grid="1" gridSize="10" guides="1" tooltips="1" connect="1" arrows="1" fold="1" page="1" pageScale="1" pageWidth="827" pageHeight="1169" math="0" shadow="0">
      <root>
        <mxCell id="0" />
        <mxCell id="1" parent="0" />
        <mxCell id="INPc3uI3xBPr1Q4v6FXO-16" style="edgeStyle=orthogonalEdgeStyle;rounded=0;orthogonalLoop=1;jettySize=auto;html=1;entryX=0.535;entryY=-0.031;entryDx=0;entryDy=0;fontSize=18;fontStyle=1;entryPerimeter=0;" edge="1" parent="1" source="INPc3uI3xBPr1Q4v6FXO-2" target="INPc3uI3xBPr1Q4v6FXO-13">
          <mxGeometry relative="1" as="geometry" />
        </mxCell>
        <mxCell id="INPc3uI3xBPr1Q4v6FXO-17" value="Build DOCKERFILE" style="edgeLabel;html=1;align=center;verticalAlign=middle;resizable=0;points=[];fontSize=18;fontStyle=1" vertex="1" connectable="0" parent="INPc3uI3xBPr1Q4v6FXO-16">
          <mxGeometry x="0.0283" y="-4" relative="1" as="geometry">
            <mxPoint x="-1" as="offset" />
          </mxGeometry>
        </mxCell>
        <mxCell id="INPc3uI3xBPr1Q4v6FXO-22" style="edgeStyle=orthogonalEdgeStyle;rounded=0;orthogonalLoop=1;jettySize=auto;html=1;entryX=0;entryY=0.25;entryDx=0;entryDy=0;fontSize=18;fontStyle=1" edge="1" parent="1" source="INPc3uI3xBPr1Q4v6FXO-2" target="INPc3uI3xBPr1Q4v6FXO-3">
          <mxGeometry relative="1" as="geometry" />
        </mxCell>
        <mxCell id="INPc3uI3xBPr1Q4v6FXO-23" value="Update&lt;div style=&quot;font-size: 18px;&quot;&gt;Manifest&lt;/div&gt;" style="edgeLabel;html=1;align=center;verticalAlign=middle;resizable=0;points=[];fontSize=18;fontStyle=1" vertex="1" connectable="0" parent="INPc3uI3xBPr1Q4v6FXO-22">
          <mxGeometry x="-0.2944" y="2" relative="1" as="geometry">
            <mxPoint y="1" as="offset" />
          </mxGeometry>
        </mxCell>
        <mxCell id="INPc3uI3xBPr1Q4v6FXO-2" value="" style="shape=image;verticalLabelPosition=bottom;labelBackgroundColor=default;verticalAlign=top;aspect=fixed;imageAspect=0;image=data:image/webp,UklGRpRfAABXRUJQVlA4IIhfAADQuQGdASogAyADPlEokEajoqGhInN5YHAKCWdu/CPh6XI5c8wAosrLahr/61f/1076/of4f9yvak5P7Z/Zv3f9Z/k58zu0Tsjy2+fv+J/gfxi+d3/C9Yn6w9hz9eP+H+vnxj9On/T9Jn7b/tJ7pf/I/dz4F/1D/b/sB/wPkg/nP9k/7XZTeiL+5Hpt/t58QH9f/3X7M+0h/9dYm9B/3P8j/ex8c/ZP8F/iP24/tH/l8z32H96/LT+7/tT0eOv/Mv+PfcX81/Zf3a/xH7effn+v/4nhD8wf8z/F/kh8hH41/Nv8P+W/+B/abjjrh/9n1Bfen6V/of73/lP/V/c/g5+M/3n5v+6X2W/3P3K/YD+r3+y/O3/K+2R4Wv4j/pftn8Af84/tP/J/wf5M/H1/xf5P/Vfup7qv0T/Cf9//Lf679ufsU/mH9c/4f98/zf/3/0v/////3n//L3X/uT7Mv6+f/MWNkGNchRZWzSgp6B4zSgp6B4zSgp6B4zSgp6B4zSgp6B4zSgp6B4zSgp6B4zSgp6B4zSgp6B4zSgp6B4zSgp6B4zSgp6B4zSgp6B4zSgp6B4zSgp6B4zSgp6B4zSgp6B4zSgp6B4zSgp6B4zSgp6B4zSgp6B4zSgp6B4zSgp6B4zSU7Pq5/BWn33Bt0o46qbcKO7d/jxmlBT0DxmlBT0DxmlBT0Dxmk/qM+EJJ//6U+3FQJMmTuvyCBD/5BOd5hkRiom6QrYgnVqhNEpkLUCs4q1hYxAxrkKLK2aUFPQPGaUFPQO3wGL1oLA4sBCkP7x+pH5zyUT753ADymz27P/8ZJKs6gKSOkS7E/tTGJTZBfrK2aUFPQPGaUFPQPGaUFPFrilgWGEdDn0rvzN1iBSQ0jbuYaFKfpxz+Y6Eiq9j5dpRpp1TxT0sJTv4GAbxbSGkqpiXIUWVs0oKegeM0oKegeM0oJlw964zRjtnlzv6R//8IhaD/uAm/QTdLU1zSc2c8IHLvL/hWTu2Fc31uW0KX3xpKSLRpQU9A8ZpQU9A8ZpQU9A8ZpK+tydIyUwn3q0QRvUGTpnA8hmpWXIhV0wR9npmQabBvQNjqKJD2GrhHmaVs0oKegeM0oKegeM0oKefJ2W1u8+s6yFrffyUsdl5N5htGVoEYpl7V7V2sWX8ekQL07bpIimBnA2yNUtYUxxUO4fCc/qKBOlOM0oKegeM0oKegeM0oKefJE94gGQOpuz33mkJh8k2OQYfnUyKVvfICkX3PmyELMpawricH53UWyi9F40YxnJqrBoU+FxEuq2ZvGC6gryNds3+hD5B5+XINkJxU04N0lp8KLK2aUFPQPGaUFPQPFYCv7ICUQzo7pZ8D3FLDfzZDTfzFVRtBGJeQcV/LY7wsUUSdZlh5bXXQ/azbVGSd8stAFwg+xBHf4xojeLCvLdm9zHifDGuQosrZpQU9A8ZpQU0+jbEeSH9Oohdc/c/ldpFSqszY1M4htjl409QSQN9lRbZFva1OZgMffl+1qK/FWNz7AcFvkFqFJl/oiD4xfjxmlBT0DxmlBT0DxmfYi3WIBUcRUtDDxgg5Nx92vM0GxA4AlHFo8RGxuPIKyMOPG5LCAAQoqTvyCodjQHxSTQnlAUh/kjttJ//8PaVdFS/VEFo1EV51v/KrFeYnAc9A8ZpQU9A8ZpQU9A7hkEOcXVWTJboyyVRyUsa2SBQzb86Pjoo/O2L0KV5HCC/3cv+FAD/HRLO3NkMFJN2yfZMv/iIoLLAMaxDlG54opzzNIQD9g3uxiBjXIUWVs0oKegeMrmrTOL00A6iG0XHBzhn4cBsjVpsEE5HJirsYrT5kp6Bl2W3d1eBib3GB8P596JSm7dd2WpVK9VB7m/Cv1c2qnKlPyxiBjXIUWVs0oKefMMsPT0POwg3GHH76Vp7wv6zUD5zFL1lVompnmOrMGa5kwRvKkmyT46Vhd+Kkyqxkx8zD5Ycv0pI7XybDgnoW1/RVZvLHbBqegeM0oKegeM0oKegeK8aEwkDx+aSkv9zEKEE6hGOLMGQ3tDjZba8vWEwbzUUDdJOphCKx2vyLyVdsOLW5veuf/j+AgR0v+1S9bj+kmjeXqml9VH9Y5HLlB3TO487Om7uUEQ2gwy18Y/yRCL9d0kjGuQosrZpQU9A8ZpQTFOfFOPLD6CGuhU9kEvBAzeN/+fIfaYE3r+HWKESDrspjNMzTmei9jQDgcafABEc4SUoDhrElbFAqkyUm8IwCaw5+vf4doONP2iW0snFRfrK2aUFPQPGaUFPGMQ3nSJ5vSoRWSnr74H6Xu3Pxv7SpD+iFfNg6WMCDwSkbQ+/ASeteBqplFBnTK02Tjf9GDQsYon38IyDXzX8Knp4cvTYKR0YFd+cpQU9A8ZpQU9A8ZpQU8WpShjFXgcl5mi3hRwbOXdNyK5XnJZEGAa8WDnhrrauqbrbk/DoDW5nz97Po3oxwOSrBxje7THjNAQGb205RnFzODHUH2PtONUEjxvCcY1yFFlbNKCnoHjNKCnjXBc3v3txjt+R0rzxlxn+46yPvYcGepOKpkmT5Lr3ayMNNPOm8TWPDKZebMKUqptv8jsxZp0HweHwABWVT15B1+f+ZKytmlBT0DxmlBT0DxmknzFI1iXQ03ZtQhPaIOheVAWwDajN55OtTgNplQrBGpOQJc/Y0a/YLiLXgmZpdcz35M5ROTrN0jDfshNu4mcPr4XO6wDUyrgweiDsudINKCnoHjNKCnoHjNKCnnygcJyDHFQ6HzOVo46M0x/igbwwDNb77Dm3S1P/jSNO76kFPisBeFGB+avszPLS9PTGOvC5VxDbxX9dgFCc7sig8raSlDz1+vhN/9KjgepUGyZe5qnVCg9kGNchRZWzSgp6B4zSf1b/0ZHA2rJyzLT/eAl/IyKaVH4MgmPhnsNaLbpuYgfZep9ik9Xa4Kv7ghENHFLwHIFgEckdROrK2aUFPQPGaUFPQPGaUExERExe9LDhB9/+zyF0Y7lCJpjCyRwtKTfxZW6SK+jJpzwvLffJJ4guQFG3vL9OmCaW+yydG9zXIWb/WVs0oKegeM0oKegeM0n97I72dKsFaJHLWNI8qLuht7uuZAPsDtrj3isTJTKWN9V15zwvsgbNucsH8LeQ20fsoH1kQS5xRtsoAWsrZpQU9A8ZpQU9A8ZpQU021QZULr9RQ5pRH3yiCYuL9RJbvoOoZtFspA4c52GfghOyxgwGNchRZWzSgp6B4zSgp6B41krKi3SFiODfFOITKIrg1W4yFyyjadvUDGuQosrZpQU9A8ZpQU9A8ZpQU0vX6fibisHUPp1h2bDjNi/zbz8Yog4+FjEDGuQosrZpQU9A8ZpQU9A8Zn2QL2yKv+Biyz3D1yiiauQTbiTQl3VH5t6Lfmf35isiytmlBT0DxmlBT0DxmlBT0DxmlHPFApH6tucpBF6lz6Q6uYtmlBT0DxmlBT0DxmlBT0DxmlBTz4ow+CmEiiBvaGH04Lsw+mWHU3ZQyxiBjXIUWVsz/tAist4U0gLcxCnwTHNeUcHoqjoGuQosrZoE3CzsTmVPmnQ9OfHabZEVvAxsrZpQU9A8ZpQTERq0IwNPyxiBjXIUD+wB7xhmWV0Knmr/+W9bv1lbNKCnoHjNJbVFPdgpbibqDhj6V0rnYF5MTsSC81rjfCBRnPeRAoSz5XNg4xJLWZ5j+MFgIdaY5jKlnMfUHJ/rKBOY48y5CH0+gmOVa8v46cDLkMV716MceHNn0keBpPqyRbfL5wpwv6dYG9gxbuE/9MwwKi/GRFIBAnER2Cbub/j4fYvkH+flYX1InhA+byXyKLZVVae8vcNdrIgEtRUFbhvVP1qnhbsF6bM7hVUp666rOqgwCN5Ho9ym9l2sTnFZl/dp7OONyZ9cULHHIRl7PWcmg9grK0LrClhuK1ueRVTb6GDB41yENmLaMJMioIUqBFTyjgSFhmDoT5oTPeliJKs6n46q7aR2UC3ZqOM7hov5X3s3QwDtoCk9hCMyyrKQ5/uMyv0YFjYuzYIDyVnpj9F8zwCXFQKaOpsyDqb6MiObGfyEV6e6hwdo/uQQo+C3Jkx+JcKvbiDho6ixnT4+kCujJQ8zzeOcsl0cfoGJ5I15oZ9nOpIsTzwXur61s+LQ4OH1BatsCDkB4n4Bfu2BG1q/ckgWnLy+0l7/EqhdklfpufFp/I5CB2rWvpir24g4aOorui1ihHRwb3pcjNg00RwQ0H4PTc1bzk2KA8g1+Zn8bn9RfhnCmk8be4t6KrgFfL3ZvkeaCdUebODHj+TBnpF8viZ/xlUWW5sjUwru/+OVsTvhdNFvZX2Xg5p2ZQ33jBAJYdSN58RFgASq3OOczqtvNEGpxqIpFL3NuSEZHrvxHrfeev0Nocl/JLunxGX4t3DbXLKtYupxsAhL9l8tQvjzWT+pAr/U60oskXip24o6yZF92HjGLIBHqlaR2EvztUicnvmCZ7IDcMASPkb2zLKlgjplvuN3/V3oGRwz5dswejxZVWOx0Ag3lZHFcL5a+esvDiMebK5kRrNG4804U0setU9A8ZpQU9A8ZpQU9A8ZpQU9A8ZpQU9A8ZpQU9A8ZpQU9A8ZpQU9A8ZpQU9A8ZpQU9A8ZpQU9A8ZpQU9A8ZpQU9A8ZpQU9A8ZpQU9A8ZpQU9A8ZpQU9A8ZpQU9A8ZpQU9A8ZpQU9A8ZpQU9A8ZpQU9A8ZpQU9A8ZpQU9A8ZpQU9A8ZpQU9A8ZpQU9A8ZpQU9A7YAA/v2o8AAAAAAAAAAAAAAXUTz5FeERIpY3jRMUY0Snc21qX5TAtVces04iOXTbQo3plY8e3HXwFuvHbd8tlm9BqUsnIuGFNo5nlIoyMml2tV18wguNjDusv0BPwOQldGb0bth7LlGVfS/aT+EIFYrqiKIYl6CMJBhCp4+mvO5QS77y7/BHx+OLB3vxTJi3amI1jS+n388IC+pfkkAw5nYAIYV++9xVWtORy8YB2nJv4HHxLsTnQSS35knJudz5baQi0aVXTHDXYnGCGApESNLO6XNxEtzzv7+dgrtlI3gxR9miZk3jMZ8PPMrQ09QHeMdU8/Uiy16P8sJtxyE0fGdpjHWepEAhBYdWOHtQvy5ykzs4S3Ww1THH8d6rub5QuAM8LjOsuXLt9J812yY/+w0auYEL24ZYl2ZZhLCoqcvMOWF63QpRf7KggEeMSEtbp3D+9f7CR9g+wNTO4M2ANfzkntVvN79GUXNVIFBGr1v7y7QJYopqWpNkf2Wp3PpAVBLxqDJSw2k+3ThOL1rtkOF8SwKzobFnpyAAvhl3y/M29Ul3hOLgVXn8Mqwy3dwU/8byNBKR/8CjvhA137qsYsXeznP4c7P7+owLveqSoDiTF7X/B8ShjABESHU5/HqhSe6TyZ2n9DtwVFpV9JiuFtcXnt3j33OzrH4QtcfBAymW1pwyfqezjUQoBWrQ/RiXeWHWs8/k0cErScDaoaU/3cNghylNkd+9GuiQ5mLvkR6E86DCmqR3tIWlYEAl7Ekwwe9bboejvs1O7LIkIMzmqb94xXcMogou85oeqWaYA7ABoB8v07P9WPfuXTp0QxG5wTmL7OE9I7iLwLqx11NMQaJOhPczVw8/3b8K+OQQgCHm94eZ3rr5DIGQqcQDolLKh07W23Vj6OH4KYW5ZGHAct0z2LZZOAPVZhrC1G+dlfcv5IHMtnXNadE7PBFhy8CT2UIlWEk42erskDs9fnHMnYTiPIdI6k7zmMLjqe81ihKVU9WLvi3eWNstgtbwLMo+orpAIAKmP4ksQx4p5XSXPH5uNbB8m5nKeIvv2B6v9mC+j9Z81Ii5EOeam/5ozj9+whlh8+5HW+TTcs70JpZzuObZKkHdGMyR1e5qu7wTuXwbDefoQ+KTLR6LoOZHIPVxxIafAI9ybf07P3fZg0MyY+zj4lKKe3Lt7QCqWGWU9tSTkRkqURSm2IhiCFUH10GrVHnQxorqhyr0NN5QLM5mHO5ErUADEkx1/pnXAQOJcnpwYGO/fK4kGoUfULBVYV1qwHd6gMTrqGW72h1X49IppsKbiznp2vzeo13ggZBzyqRHDH2SOnKK7d8fsRAZF4+ajxxKOjZBZJDF/+uYeICSqomFmANMS9qKiv7wjcSzWVC6nwM7Yu/Wr3oHDyAGRgRaAsVxvABRcbqZeKiHf+8diXppE6bH1Y4fWaDYHCOxU8daamgTTWjCtfsoTBtKlxWiyWjmTg9O2Duz+RJEy7CBKQhKB7R64n1w0SkefMMRHMNQemlch7RMO3MaWrWPTMF9KsL5QQx5PUVWq0h3aHvqCqWUXWhxlxX/krujkI4QcWevVSgfdeAlIuov+6pLsDJc6J9O5zIsvZGm7QsNmZFJ1wWaSl67PnBcEvZB1yTB0DpK2PCeLC5BPLa7MyaheLS8V68g0S/lhSmTwKdRUdjB30CGK+cMR0iQyzDP8APFkD4nUAwG3gVqKO3/WFxJiP3Ouyr/lOPxspwH2LmIceXeBlYdsBT4lb546BT4qogPqCpRVbASJ4b8WnmJ+Zpo/OrN7eT2+qwnk4uqUKepXnYiFEuQH/WenNaz+Zc8bMlQ/KEHDR3QTrQh0i7QTYvxAN+l6RoHbB8KzQV4B89ifzASEGsUulwyB/LJKxDEZqGesWcFgpFuL04laZuIc+MGP8Pj8M+HyuQxcMV6yYVWl5NDwwDGxam5U4EEHe8BLFbIAZ5taD+E0HlIFgI9DPGa1Tb4HMb+7yPAcsNT3GcS8108AsI6UaaPSKNiLyp2yP3yidQtv1oB9LstrRFtcqyc/dBcBjzXewK/B0Tlc5MyLUSFIpaa4zYt8IeNi5EmDeWLHZQ+1qC2zp7i7JBlbd+WF0zOhpMlAKo4qMibCERQkMuZxZ/AZmgwqpQzkcCAsIaaxlbrnX/mdrZK7iDcUJoKItvZjmI6KjDTNW/dcn0fJVtQpxriDuRd5DDVUVSa6YXHfLh26qxkBWqyfL0Yk9IXncVs7t4mH/iOYdwiYLloYgammxAzT6E8ZstWzJ/Oq+2g/yUzT1naLaIjQibF7XMSNGvLLH6CqL8qYjA4psDDNtfHH34eaFhpJMqU3X7vv0LHBjdPw1Vw+tBU3oSc5zYoCihvSPKLKThPKqMveoLcC2gZAXTn9BJzGySkU/DPGUb7ZNdAaRH8R+QnFbg493nF7OPpPqUuweLl4T+pI+c6SRp94b44FkAjqRJMRdeiPRVMVTZ52H4O3orRbsJ0x4iGpvUautMe6BRtGL7AKMO4LytmX5TrZGL3DVQi+BhUrPjvqgsdmu/kRiOx279ezJ/u6dm05kTFDAo5fIMu9YMoBgL5CD8aYaPCZvyxHTMRoD9jEEPRM32gQ1JyVdH3LNos8bL2x8jzxv0/RxEhLOGObILajCt66AAOYZc7D98mOTjnyT7Y2YgYuJFnFdfv7qV4IR/FzyqlcU7Fc3VYt6LyRYh19RSQVvxrtmTXOi+TIQzr1mfNNh0Wdlh0QYsEjtPEufJv/h63qaBQaGDrSu9u12381dcvILBel9u67Jsfx7XD8Vk5ZdlQcvHYu3zAhSTD7yoBk35eScahE8W+/AG8EP/0eBDT/1Llh/abX1ZwY8oxBG/Pnv+Tj+fBuGA2QWWWlPrIO9T8uL6L1K/rYSseHXyhPOlKK5EZs5Lsl+OADYxMsvp51TYho9/NVL4syySpWNHZmvs7I/AmihyhproSfZV8jJRiBT4tD8qFw8f0vt2Qr1X16OrdWOebqzlyIVvT8anOv5Vh8n/ZnQsE8H/15mUjSTOzolpkKiR8ryVl7D6vM4mJ+/VMiVn6xQX3IZGt3lVNcZenhYyLAGkS0bMWAyb9+kmvpY580jfXJ200O3g4zs5Upx++4/iefUyJ0YAmEq2h0xWL7DlsRA8vd7RnqvVT7do0PbyC1rFxEqcecRNIfClbftzqXlA8GK1++G9vzmv/L0SyV2t956C2CaAFE66/h/Yag7jO6VIm31BCkYFKhVe4hFHcJuKWxDmg+vPmZFTBmfgwZ7d9llgQgksKDAhaP/78fAbQQb78+ShFjkfOckRbf52xDc+X99OL7j2HV2g3zUcZr3V3lxadwhXss5yuK+wgurSMwyTsx19j5lKGxEKMGAoRFZQVRMC+IKrNndND/xOpMtL1ZxhKEjSX8fQF1Zu/g05KMqL7ECa6KoqfitdTVmuv+ujX38Oum3Y3ADT5+dkzkKMcJ+qbRFXLZRwUbo2ImSA/HGsKyGRdkfKd6QfEOxul/PBKPCueQNJiT+GO8u/7CMOMFpjgAgmFb2s9EoacqWnP1HpVpgtWovM92Nev/SrOfX782QMVXKLLEX0xjb7gVxUSwYs0xiM8N8ZW6Z6OGhmNQIMC+NM5YngKHQf+/gxLGBTV/nPHATH/YCrkKTaf8Y4DLDfA5K9/iE6mUxgco3kk1PA3Hu4JVjwcpWn5vCOih2KbEXJ00ySkk2zkDKcuijPUwv+bDIlp6IMBE58B7N5MFh6Fb3DpKengypC6mNN9+ciiavRP/0hyrrMQl7widpBKXhWX/XFoBz2IH/gvJ2oF5DFabC1VtXQFdikwqn02CGfA1JXpOZ3hQBAglqaRqkuXeaSiq9lRuYvo60OogIN8BFC5O4vZ0h2XpuRbipHx44h+IrQCR5BgO1lgraKpxt9FitI9i5hOCAoIt/SLhkkWeaiI2IFwG+trSm71oiPVRxyPKcJvsD5WeehyBqP9Ohq/T2hjD/IhIPQr8VI6VWbjnGjPr2fPV8T67EMFEAKyH7CyRcCLDK71ROQWfIlqiyYR04fXvUGObdPcRgGgUgv+SWHyy6M64DWkf9SXChOyOIvOJa+lwqOkQ6FmTPAd2PTtBt5/BLqFKwG2G1FW3PHcLyB1LN3RJwAHwXznjf9+zaA4UgIDAs3mdrKnRy6jk0yiMVQo5uveoioLUBo1Pwfs6uJ0PbAIffTSqmJAg2S00GuSBBCL6nG2Q3fklOrA4acWj2QO0JYpOhN1w3aLw+4WvGhZEhLbvTLO5Ql3vtmVR+5gXm3q/FSUM14KtCOeH2ycU4SYoOZGl7PxsfLrrmFuW4i64t3n7Yn10HlcmY2WrrnDCbZTbOGGa0oEfZWOebdSdJxd9BojEJkhZWvbBNwThzj3KhIP1TLuWc2KIxPCvXcEyDmMjxuyf32kapRwZ1Hxun/jl0fyM6+a+qoLgYxjNf0qymzxjeU2L/T4hrl3tbYAMiGJ6z4eLCvN7zWN7gE/+gOgHkPJnLaLMwcCz5x5Y+GIFkTuoJUM/Ms0Jkt1UXsOFp8Czji42kFDWdruuwdcC17qH9Lcw6xe1tRrEZSD4T/M00Uj1mTjONu/Q7mNwW07XeP7vefwj2fXE8ctqpoznjTOrBpYb9SpkeK/KR32RisBP0ckI4QXYtjaGC/cpsqyIQ802tAyVxn6eDFI3ABvJjQSwecA4SGS+PA+MPv/qr+aB5mbT9Dr++8ftIQgGFEs8eBjoBZJpfzjrZ/xqrRkO9lWQIbv8CWvBG2HIcPgPzOIfaSGWEFG2qTpwJAUBOOFA6/GCuBeAsL80ZzV+eGDxnYcoBWNOEO3erBRdnsjlrIQxRN2jrRsiUeDPH0hzftQF6dL+h8I/u2cpX4vPcAgvvh2l+OB7d3wRr7FYCFXJAyEX74Avs21vT26JawLJZP5RgLcXbJTcH/NRlef0RPc8My8rY2+ReiCIu8l3Mi++gyE1soz0wXB5vtDOtZQLr3xHoQj7HTllItR41WIcgTQbPFnPatzfa7zwpIILmSIGepLwAA7w3xLJeykULVkqoRaI5ACaE732cBZOPccBX5YZ8NqiPnqH7wwmPs/T6hDU7P/B5ubxIwz83GO/728WMV0llisQG8iQZoDQV51wMectiLer1dJPZnX7/tdcUAmePoRQQuaFEhyNeZ5fsMsRBGSde/iYhQV+UkNMH0Y9ZilTQ2PI9vd+4kiHawsP20Q/nWtC7vji+RVGxksB0AJ3O5a8AqT/S1zNn8YZNpmOT5scHr1fnG6MkX/XMYbRD9BiRQShAO+SekHmL48nBoKzBUREivxEbDyt8/kqWhozMtOMBsntTNmXojLl1LZ19zymDVouvOaAHQJXaAHf9OE8nmcQY+Yr+maW1Rs1IQeDbtlFtgWsYwrSJ3gQX83GAmTNv+HIWMP/+r1RS9SwFFY9PMj0XwEQKNAPUdre+8Uc8BMhIgv0uQzK2M/vPnd2XnBcBjBdt7fell3YevC/jGrvXDNiKIR20PscV+duIHkPucMSpmRSwmzKzAW+mdNryHvEHNueJKTlUVtvIkADQI08YtIXIRu4F/1lPF8onEeVNqOkemXP5b5FNBpfgytWb3DF+OtqIgWv0gGmKVLZx0ifw674tcgiZVth9Wkrs5T+3/knSy2pXHmVLevjB0D+YKmwFZRK+RCPxcziK0EEIHvuQMzf0IbBZ+KD7IK06hMvrkne0PUUvTg+djDEantygOTTqze0BOMGyZSylMAsOKE5Unt88PCeE7wAiCQ4D0eUbPF8BqD0+ICrmRJq1wO39agWL0Pa5Reo5POmfSHxkcQX/4RmNpQOmNBYvbKCwC3+j1DPJh0lJeMUI1nY/2hL8uZs3aZEsYiY47RGng3vfnks4gfOCo/VSQ4yVQLC0YRbREYuq6voQOqkgjiQANambhfAY/lGVYYuU8LjdD4GTQVcHEgX3kwaMvfgO9MFyinngtF0PkIMOGHdJjXbM+e+IYCmjtjOmSp5uUue4BMLTPLoTkFmFrsC+ap4gdZSNnIl3N2xvl6XLCnnTS8hkN74ZoTBuQ/AsM+GLiliFL5aujz9WVZbWjfpcj5g3TofHkKo4pNHHUmrNtigMQNyyweXS6PnRV2CJMZjQBxdblW+QndGNI/Ze64184Dtf3VtFxvj6oq+yD3X8LhpyRq+ugkk6NQXTz99HpIEzP92Evd5lyyp4A8lCc028KBnK800+dDOxSgKq+2gbnm0I6QADAFxuMmABl8mHau64o065V/gxhQasF4u1VTBD7zQ0gMA9XBLYLxPpSxgXE8iBZ5wKdPW+RmlOpzIoCi+o65JMdno1/ScrwfaF0F1Vx9cv1JEEcRx4T1xUPt8e6iLF7OJDK9ZF3d1Po8EUZDMRPeeCMoexn23eB2uD3+gS5ASJfyW3vUl+/SRa/IDlKLdkAhgNVWD4mJ8b8N4Z9VSYjIH1zAxLDtkHz5L8RES8gNyhWAVYNS5h8juQnnFReARyonPi/+smp7vcpJKHtRUH1G2A257E5WiG32Zf3jHfR03nYZDndks6BtdEazM9onq/DwDLg6cqTBEzAp/zNKYSufM9X/YDlupXOIbXOB9Po3ysOOmyU3zp+L5yogXyZa+7rXA6hrm4WU//ClwQp1iTwMcMaEfb6GFQlFTXds/3rM8Q8fGWaqGBhrr79RSJJdPBcacuzptu95XdM6EZ+LddS99upBPRZDKgO9AZI/tUceuWWFooC0bENNvBlnqPnsTGBnc7enGFYm9SAx+Iv4OBqsnOnLNRMCG/ggxhpHIpL+CEamlbvb249hP4ANuzNaPsciC5Ue5n/FCacWAnVhLpjyhpRxd/pNSHH1xTGON0jwRoDEdVUppedTccx0+Kc1zq6Zc1HmdUkTAXNtlCJ0iWa2/U1Ak5VhrXCYnv2bYeglu4WoDEvSvmPRJ7vMrJaEX5/NuRYPUeSTWeRBBdiWsemyCxxDM+D4bAQF7ywtTVNqc95t0KhRcManDkImZNbNlhy1Gc7GoCRfBSDu3zScx6GNoyBwfREVq60WSYmePMaGtrCPS/uuxdFOo/x+keFYubBWobIfEg98TQsTHNWkKVIxV+dCMtc6wD7X08XXygJq+y76WGc2SAZNmlzEAxJJY0tP57SZrZDxrEnLSeMZNI8HiRkQp/voOYoYkyLZWIJsKYFATyPG0GE37CLmI76g+UAB5oy8rlu4AIxYnDFlj1HAT1yANlNqso3XHK7B2vLpxvFShhuSp7ETuKFfWmo5KRMWEzfVaTa+c0fz2ypBiSyzfe0ruheY70c9U3JW3fsAWpUnMY3eOGuApc/ar3pz7bpmpOfMATgcYDjzgtZuL5+T73bNrMdpwQl1cYIKmTC62NM9Rj6COWvpqetwMLxodqlnsQDR8UoORiEMCbVmCjjt9YR0VlRK5/8wM3wGb2gid6719B76+TQyzYGI3HhXtrN6u9pY4m7Ti/id7wmT1kS9lOOyv3hAjwZaimjS7PVFkeH4xoIbEzoE1V5xjb+sTR/49wFsPyfHY/BYwtpz46tTS55sEZWcI+CR68bH9tydJGE5Zi2qWQiCeUSxNgbdVoGAUF3U3WMUFU/hTY0pKXwY5iD7BY49sJcuWdqwcaiv2edNElECDaEMwhafqlg35AzuVoBYhZY7CO9izUB0EBHaV8jIRnXRZfksMWqqLCnPSTAWFQMP621TbsTITpP6M1pKBgmZEfphhxsWorBwxeviFil6Srp3rSBEbMLP4jbzsFer5t91HiAYKHJI91ErPbvr2EJ1sXVZKj7fLWniWv0QmnbI6vbXtYR0D0UtlXGwfy6cWIBbeaNGpoLh9OLS1yoUdrjyIpDzb1HsUXvoMDJE7sVgyGfzsaE10FQAB+VxDor9ZF1J99LzXNQY3fv/Sl3jtP73GnviZACYkltYTuckdhqORpO89bOng2hgxz9QI/xLH8qqFS4PvXvkgNDsJa3bpHaDYtqD+IstzAo2L4G8QCMi6pVVqkhs5Z4i0mgkhGsrReTFGP+eAGpROvCz/o/VjeDlRAz36XYLE7QQ5SJkvrNG1Reg9Gik1MsWFSSk+sdj/FjX2UGzuNMX+eBavvqG0+iYBnSPJgtsXFMtPIX6t7aJYrO/ywhaPdD4O9RlrbNtm0qZbXzU0N9sk2Ojg6Mnp9A2xeqT9dx7pVhm/22ahL2ugQACqlo37w5m3n/nn0iJwMO/Go1nk1+y3MWhNPzWwzrbLbYqh6zDvJxim7pmUz0Fxp8OUocaGuChnu0DCMeSD/7/A7aUEIoV6RPperLqJcw8FGiFA0WK8zNz2Z3bC2NpqCCtVuN8mMmnKt/cD4JPfSos18Q8eSkCDNZQqsW3XRnrYDhcTNfuUYnZnrcTWKn/QQ8eViiiXdA9TUw3sMz0om6WV2TVntDL1yqmo6gQpmFl0xTdt0aJRzsQwhoWhEJmScriLbU6KvG/9yqPAyUYye7lB6kNk1XG8cichXA5z9HRk05cH8MBagemmem+eeSJFngXkvOsPiA9NjUPbMUXfhKX2SPw+eTFEgZbCxRy1dyd3pNM8CQ49Qs6lTDfhfZvV8FV4efjf1Ep3qM45Fi5C6gzeH8vHdf3l/VaH5KQ3nBOmmJ4K5uWoI9tNCeNagcxC36Vt9SA3l4HO9c/6jY8ouUeeUfxwTb4kt56xvadF0tUArpbslOalu3oHuirBsao8g6FSYcgYNJv651RezmwbEmcWSZiRaE55Yd9K1UuFIpV2TNtB4wKASYBnM+rnQeea3dPiToGGFmxzh4wVhav18iinZVTP5dN39473YhzwMfzJkz2RGoH1pr8jmFnMlTOaKnY6h5qxqmlYCJR0VYB7AVpMQi4if9BX2FFWpRDq4omJ7GNe/iWjTJ3XTlPF+dHg9vLbicEA7Wezve0ykxzqcjKkw8lP7KAL6t2RdaDEJFtN9YfTKGy8AET1mpJ5uM6Ic2rc2tE1zTCX8Hw/hUXhurJVcirIqaQ3dTvRzCIT/z2urb/+u23nv7pxwIyUFYsMEJOGwbcdg8PkJqSzFhdyVWSHgsolPoV9pkl4S4JdmmoYU0qQ/2h5H85xWWoezpEyNkNHnxs/CJbr/AayY1bS7HTJ4h5ihX4nNSgr02cD+L2fSOxfMdrDm3V+AQfiSaafXHEEwzsubI7Ze2usHkdrWSjIbjlUh2N+UP1fQB55L56Q4PI7OWZ1msY6rExyWDfaX4+XdZkL4Xpl4oLBeWfVEWZECwdHQw6mIw5m9fosTB0u6wcNK4g8qOVrq53u6FzsRGXHmFY8PN+aeCfcyzORWKqOaz/mPpcBwrGKG9pqxUoxcJTqcSp0lwETX+v9d7F5uVvIzeizcLLnKhI5HaQzZjIx6BNUAOFozjE0rOs7AkkClOCMWNVmnWFHbJ0nQWzIP0E2NevsQ3MDCgO8lZMhdx4HGRJNirj7+JpoyJo7caArWgBGFvC6Y0ngiCCuIU/RunkH1rJFxAXlLblyz8QxlaKmjHgAc978Kp/vEnzCKURC/nJLoJlLCn5MdvEn6Y70vuxudG2tMV6pCz5NMl7Rdj1CfZtbWF9Wmotm8pFpgWc8YUpnugkTGUCN0QveHdaCxXcWrCTkfmtF3BiEEcO3mGM0BmJjWIQSsgIPj6HBciBVw0ojIictm/iWqS7LYRU5ZAl+4lgbMWihLAyRbb+0/P0o7PGIgA2Mk4jAd4t5DeLEC7PlRgcgafv7chLqCzEnl1d+pgKypvaU1Oni4AdzqMjrtZrU+G76W/pWOEURHWjel15kflBRZ29Xzr71hgqWqx2JHcTq9iehb76oxwjUgIwb6e1zeaD3kz77GGGkZCeqGvq8R/HKtP7Y+chwG8oNc9afh2Iykvuc8TTGf2wy9M8jNMxS6BpMUo7RdC5zSVELoUT3FTfSIYF4lkc3Kb9GRficAxFq9xWPqFBaWjVnY2OhS7/Ckq3u1sv74G61rEi62HdK9O7yBB8ExOK+Vje2RfU2QI9sn8Dkk9m4qNK8JzbP0Wt9Me249lpm7ELHtBj4lCgEunvpGISAFOzSJng1t0KP0lkh8rvd/lybxbD8fAdWX0fLOV0QOf198l7dUwvd43qSq9RzHBjvYbIJPpkFTqJeve8BGDuyhTyTPXjyaVPg+TzmZELbQWHEvRTwUFNtncP7DhdNh1itUTXAk9Lw+tj5m/EHvpnV82fjtNB60APZSvn5L3zNO1w+KH4dDiFbHSp/TxtlpJUGZAr5dW0IwOS5MyXMrMABJTnGlMVRBra9Ekv7Wfm2wUywY0k6euKCGrdizWJJNScW++fTmmSba7+4NEdDJhH+Z270feSwsEYdhY3VNhoZxmK5M0SvZ40/bEiMgMLhHTwATbyzQZ1Yxsf45LhDnmYQ409ibJYa3Ghk/H45fBpaWu9RlwNB3zn0EzW8JL7qQ2z1DjMcd6krHlMe6x1KZrLBIQk4TxfeX9R9iV5aclza2p83CYWyeMH4hkWZ9RfoODTq7pEZErHIr20+DskPgcRleDDqS8fhJLR/akCzKS6k87qzHIdA1b2OhyhR8gCh6iItxntGrk1sTd3gdTsnMmowDcSRLfIqM257RBkUKHGs0SWFXchtALiBs6xOjIrGccp7qEF+tXTZ/ZKXsKg+aTOHOImSqEGkAJ4gX43iZ8KPUuTK1C7TSQDQbGorgr7B/4rU4VzJ0/lHlK07ECvuCJCEc817QRFbPAqGrwzoKOVCgQZf7Nl4EAZ2i7L+dum8+JdXzpzKD4yK8iULpnGs06Cs5qRACIDb8csNXBT03njgHrk8RMCJHlCCKFFNLsD5MoRWOJZzC1jXVGJGPAfBuo+27Om1fj+PGwT9Mkenh2ZH5KRmzkAf58ZF9GQ8nfREhIgy1t38+JKYD/+Evwjupbln9hbkhfu7y0JDRJNEkRe5fuQRT9CGuKtTRLgfr/qrkOOB+7EB6NtLQsE/WANSnEu7iBNGT3kYwW98SzsW4g/dpTe/IZoek9KCw8hZ8MlnnAyrvmsccmpIOHlNXQwrNGDBNKVZczplZSEuAN8cUVz+w/Y8RZ+ezSAoyMLq1bVr1duAp6THrckqb9XybBpWkgdx6zPASPaH96eLNlRDrvNP7AI4sNtxfq5cnBO1LHrjF9kkAQkdQz/c34bypCD0rYKWyJke2+QBYaDA0B6dZcXEke1YTTvPBZ4f9ikNHupFAeIqgBiy3hv9zk2i2lYKGukTsTRnyKavO6O0Xv4UyP2zLvsxZ7K4kktLrPelIp0BWvetTz5dYyd9/ZRygO+xVNKhZuTZb3wbghub2qVpvPWSGC3TPsoAq4v+gyhVfTd9Ikj5bpS886eLe9FxsNJLk7l2iMGtY8tQUqOn6bgz67Je4YBT2UNHrnB+hA59Kq2laGldDNoMbRha47G/ylmbwEOOEParrUVGKE4Y7arXnaKvKhlFnI0kus1o9jU/OBDQLMuLK3i3lvpHxfGWycJKKk0GEMBbaeB+JbNTcYoBZB0ZTzkoTT/mSZSnhWcARhyKN2wTfsLMM+8XGZtLYFLIED5mKeDZ3+W3uQ2ZjwGChq9p4aBa3SQCGmuon2kSTRcOYmlznSclETY7ew7zvde71BIoGnY3xj/K9xmGoQ148cA6AWxkyKj6sHhTTv9YkQE664bboHvfd6THsmG0H9u50tbmYV9UUMCNUCd6xmjDZE8Rwon6Mp50dz8IiMCGR1m47P+GVbGZH2lnvx2I7uvTFUYfSxanDxqAJx38Lnqo/JyW3IolgKfEziBkdpqIRy5auWziu0hokERLTxtTNJBPVRuAMz3GfWUWEagAeRZ33YXc6imWlojHqaTE2WFpGGl63mkor66HV96jvR1aJYY/889frxCva8mtBnaXFak84l45vHKS1+R1YYSZ8fvJA84QDNe41V79KHm1MrXhLmliYWcOHwgLIvrmvKy9HdkKc6WP1rjT/yOTSoCK15xuSgeQV73v9wKiBpXEYUBs1AwH0s9UdaG5QyAUdB7cUBQG2wZQBNnwIDAit+JFACI/vckH6LHcQ5x76IllRNPFJnhZNOT63MunjniSiKk0dHmt5obb0EHr0TC5hB/qbCKWGpvtWwTMygovExB7yvYfXjYLpmVch08KQNM1Fu8teqiXf4dab4b2eOreFWdKcuZDW3dMpgSkwN/nvxiZ1jpU871bmQ45YmQ4ydQjthp/PNubvCmYcK/ZCnYezwxF+XTViwvzLSCmgZnNWxnTfQe6QMp6+IZECyAjKlaonZmIqAoZ1DKYbPkDSS2JQ8EH3jVVN8C+QqfIBEPhQ2UpLfN0FRdVsTIOniSDjZH8k6BsifW2SsjJFAIzf5AdUi5hmghdU5K14cTXoRagxI5DJVAsD+oEL7NAp8TqeRd0MZOkVfXeYDmm9aM0lkbTDdjdXIZQkXIX3lMM/nL+c0DRya1TrTuo14OTC7UDeRqUXSO6FMn6Q6t4ikscFa03LLoeZv+g1soq4XbO9b4tRDmas7g6+M6SG7I+Hj0Fd3FK9KoigZ+F08/+ZUmczp8rdYh1eI3W8+mBcWIpFAjQO9cpJf8MDtPCdsb9UMUxDudC31NEZJNqJGYIUEZWCPn1HRyE/G/ZQJYA1cSsYB4IMvVm5h4I37wafnD4dRK2DYMnNLq+59+fgzyd70IuXi37dq0SB3o+yuJP691LF2ajqHPc+ETPv/tzi/Jkst3eQc+Ed7SN4/bOPUIzeQTbzXW9qVBygYgWgraaZCKoHhKZbCnFMLpCbHqf7UxU0+yvfTpb88v0cDT246v3FrZ1ZWekPQZeWa4XwyzRosvI4LoXX6wgoNcg1spHiqeTMLNMzimuKg+BqeVz/Am1S3NwRQHyjJ0Bbl/wYBr1C8YwaxH1ZS8pn/JAgaxTH1y3ZE9Obes6HCMvtbMAgarE1kJBzM5eadL82pFaWus1ASupBzKpr6wj4ijtOdStVpG/9eLHh3YK1xtpwoRvAwXwpmPYyHWYZNwkpyYs/WVpzThLS5afUYLmlDDkquiADW8a1LEPTKnce9clN4iqhnh/VdFAATG1DjFkmdr3mTgZC3DverqLgZeyOSK2ug39UcHxjsR5EIkBktLDlIiyAhh9Lk+t1w3Vfxbs+WWP630yzWTzxEd/2+9aL1+9WqjDtiAilHJ6vlgUGdRqTKLq9ysn34HScS2OPKIvZ/y+FB2mwJwZLKoUQAcOddcueEwcz49VCsxWN3mHvsEPRYrvIG9jKK6bUlaqRVfeLmyAC+1wJ2Ani3LrEvKcKCbaNXkkW0U1R5t277B6IOrKhIYaaTG+O6/hbSXNscozn1r2WehRLAPbGIu5/XEY0VeVQ1ATA7XxO11IvXJ9W7ye0cE8q9pw93dZSwhlnme7pCIi6ZWI/7gkpXGfAKNB8nnaEp5d8QEmXLty8aWBlF3OQVdXyBJkr0Q15VTrASl8+3hZQuxTaYaZqE8rfHGQXDA1EW6XUbcJat72VoybWQdsWvldUadRw+AKmQzMyZwOBWuAfKCi0EMMpynHjVnWb3bY50ke6XPky8Z172tJhIJQBaHl9Dd63gQWH2C9ccj/MgBVRTGnL673tCWxNrFgkGqehOGvhYxmZX/dGMFsetKjOrfOmPFqIBclvdvk9AhEKBde1DmsXi/03c+NnZJC8SSIf2+OAGfKsFVIaB2zzutJvXjaZTtzbkFiOASkpdXMnT4AhVEuj6Wb54GL5Gs8dLzZeTh9rpX/6W9ILKGP69TndPDHX8w4FDp66HEi/nxOlaqUOlVdryfs9fqow/0DiO+zWa7ZCGLPoep63ztproWg118r+xjpD2/G0qrc4v7oSl5h49bbmKkhAEbdFn86jxJ3spebXYLzIh7stXK4EVHY58r8zutLjyeTUkKv3ui4qJatRc5L1ivqgttcRVJ+vw2WF/NmFsR4aOuNJ9OYWxRN+HIRjJ6eTy8DEExtK3E8u0dRyqrMaW8J8jzcXm4OKCCukYrAXzbsU51QLuO7u33fDOULVT+Piidy7HITI3rrUmB69HcZS4keff9avpeglcNLxXXf1eo+ZZfGOwGVoQnAANzX5zU4efGwaj/IXiW5YVxm7C+cYcxjr7mOmFUJv1VzjYc8yCG4nWUMz8+69m33VzUlMsZiGlMBP5zWzmSj05O9+K+D7CpLCUThHKCylDa6Oq2ncAOEw/QFB9Fra06Um/1CEaZaSgwdZq9N6eVsbv/Nc4OBpngDXKIUuNGoMnV3fWmXNzCT7RdDvJoiO13/eq3EClutxvtGfS53K41pK4xkfrYjDRhxPq5oBORAvDMrMqzFD3Qv64kkXoWq2klD/xUpOPqYXL5q4jzotyeD/tJyJYCjzd2EpduKEw4SsJxHUrDJEMP2qXwBpFlOkFM0dDEc3UpSuBrYgTLHGomLVal7cGgcNBzXz13SZD8HJ6/EfEca51tF/iYbfa090nKE8gHRB7AEU/uPVqJOozEeleN5ZmU+mH4SwjQKiCK088FFfuPCuwuTBRh/MTK5bqAfnLbGg0q+nPIxxx4ZBePTt+G934v+SfVTQGykelX+nSnIqgZB7rWIoOLxllVQBWSWW89H8OrZt48gh+KizrBsnBlsImgNI/FriMxzGBvGx+vD5O+Ztfou8VBSJYR9OfUzt5LNzAQYq5mxcNcyOXtB12A2f1wLbaTUrKN98zTxhUDvuX+Ih9D+G2i2PjTwWSfYllwWOz8NtCvtD1G2Pidcpd18cQC8KhBy+9RRFbRLpz4qn1rqccjzZu8LNJk9CrxxLO69yicPctYcvBoP0MobdIsQjk5PsjKtXIK0ZNi3CxNh9oPVpZrCAJroRoKBW1r0L0NFMtm2OwM1q+e8mJHzZweHnLBiLXVEdjg0v9Yb1ZKfAXjJtaN/c8SasjYhlJ6dRj7/0uafKkH/QhF2pRd9ieVmirD5Gqa+Q130xfaEMnwMIM8nxiZRpZ6i8GfBG5CkV0CBPIXmKBxQDCoAesENv3720UGrGQblwTiCf7cxygb66dOBO8sajYxqdUn4a87VAXirTw1QMXk42TlFXHCg4eksfnp8BqWAeZ5DFMIoAAAgWU402vhLQBIuwnOIY3wcFv0olxQSrMABLB6N3uZWsyM0OsGFF9r5GELujQI0c3VnsZ4ZTCFfY8BCtug6S9CUzpeTCWw1evIqva724nwBWJ4M7PpL4IaBpc/Nk0AfNKBV6PemjW5OQRn9b7IXyRQLErOUYjIk6/oICRhMq36s05Fcpc5iMRLDsmz52KXUJZ+B5/jQxAwu2OMvlnFitJ8MslKsH/tKEehURQGqGX4iaQRjM77Qa9QAuq4IUYzb15D85jtBgG5pIayZcjdTc2PSedtW12ptStpO9ErI2yZK3qN8LVYkubOOz2PoEDB3bmIOEwhwESDMBtNfw9uWcevrJGpnVwFVIj8rNocTBSBEzrPnHPFeQ6tMv0G7wbhqoNT8sbfhiWZHOg7MiOrhgSE3go+PnF9GvxzCulu3cGRwl+WODtLH8P2s/oiYgAc0pM8uIEZcpNelI3l/8NDQqRRbCNXWpNffKZUflqCNSC4PuarMI5IOrYFbDE74+8+PEZBTgQ7mH/N4BMDJEmzaFUWeseTJ57+i9TUMR9LYsFmY8aWpWSQP4fCfJd7YrI6h3hYzVXwsNzIuTWfJ4k7F994jrRWeF+i2LA6DweDY+5VqPYCsHcYeFj7ul+XaxgorlFZrpWLNPA5by3XNLy3fiWtXJ85K3lBsnnZeTjdr8SOiuNYGcnA6FOzgX9CEAkiA5YFEUJwCXOIpz7TM/3xFp1jubxwOiTrs33rCln/0NxJuHw2ZNJhB2b9GV3W4MnVbbEUbDhV5OC0L2lYVutDxKU7a20ozpbjRVjyOkR/hFF0uOEtrXU708IHj32THSY+xa9wk0mOIIrDIJnf7RX0CN1mWLvVC6ELszJZVcwkCCBWo/jFyylDXbYUDflbemRhQvFMDj7JYMT5so0HG7Kl7AB9rlDJEH4e5Q6F64PlNBljHhQXpoGAh3EL/D5QoSrwMKwo+YPUbc83eERtf4JokcziAPXchjXVNDz7r/nnu4pF4AtopsEOJSOJW+LFZz159qsATnZjFiGH79rSS/W2XUECGRHkAGB2G3eFEnaiPvBSicCmeNZaYJD+lNeT19532Lby0n18hz1esr1mm2rTsEZUlB50jr2KituhJj60DQZ6wL3WUIuGgtAeudQSzeIr34E8kaVXpCHzx/2xKM6NgdxJxxpeW8CyGE6/aeW4Z3i+dvWojucDLsBdSM0TgkQB6OJEPcjRpBRwPp+PjIAp3p6Vx8rWHa2NN2g1QXBKrOQimOGBWLhhzL0RxnsRrK4PQ1LhWEzeJHyn0o/j46iwWj1PFsExUi8Z+xG180FSbsgcIc1Ibqxe+4p6L4an3k2Uhu5kiJfqxW7TKhEdun+/olMPfvb8oAUkE3FDlbujOeZ4DW5o83fDXlz4x9y0dPX8BRfKVFVX+17wFMQQNgvP9y6jNGLGY/Lf+kVVRMBJeWgyK9VZ5Ett/sqhztsvSOl+luz27E0GOGWa5kcOZIfT5yLv5/MzoDugoujkXnMyYQAtDiQ2/+AL2rDsZKMe6cwkbSQeXVPxXHzi8GYr2CusnVNs3uxmgGvHrpr0zvfK4rGoS1tFaUi9myRqmwADTM/iEfnoDhg69pTxvNvN5ydFePWFN6RgTlGf+B9HoQsw40P2uxitATtxAbLtvqFSIj8HcTsgT6GAK5Qq9V3O6/U07OKUewuHqEnCbpl+dX+Lio8Sh1gqtuBlgbJ7fVzUg/fkbQooOUKovamzmSFevjJyuCy+vessKODeVjsPi2UgVgbgbrmcLxEAjkgjwb9FtIKR7WhGt5v4apJMK2YSVxGSpp6UcymYRbeXAwNmlXS2o/qyrnQ/WAQuETykUj+yoM6SumahACyiuC5cY5XACOaxX1NvADl6iifgUaHYJz6R4TAHTZWBiS4P0AqlhX3rk6+R+mCt9SzNL519WyrtFhx/0nn2OHsUJ9ZgiP9dkqIepU2EHiY0bryXc13M7dMmi9dNi0sTWNU+PCYEw3J2rJzYKxjYZFNGQAu4BPVjWXfi+h/Y+ju4jBISaOA3hHn73AnV8xtWwKcP6HgxAC6PjtXsO6ZVafqHCUq1xRy6u+aisOXlglKARCigqSRkvb4KzHtjSs19aZ5RDXk/uv3pSpEd6Ga9pR2suubtu876xcmcWCilvdcPek0IA9I0OfXUmQ+lDhbitD0smS3XZHqz+6qvDNIJEtNYi2Q2I0Vjeniagr+Xoqi/S/iRPzjw02o5REBSUe/t95gVUAd0c+1kheIwooBnD7+tszd8HNMSErotAYMDLqRVlTeufTQjuQGUJt+d096aK8QqFGTuVZ5keKXyWTGqWjJ1yNdu73j8nam1pHKp6bJITAedO6N7fOQwA3Yir9gJoxFMKbsCbK17EVKwcvKiLaKvRLV87rTy1anzr6WfmsqDZSy2WEy5jowOko10SsbsC9OHSxG0ANArggjai/kAyKg0nKBiNNiJI5/8t73fKmwCpZxmf9Ju39WqWEMfHZJajZQQTn0Ga8MtGnItPqMyppHGgEFYpEoHvXkRrEkMtoQZL0B4bpY+FAj4T8P1GH69vGSx1kxn6mK92b0r8jQSxgCp4jaBkZRVGI5PjrVyAi6JO4oDNw06B1LUZkkwkMPYACuXU06Zf6HXhT98P0TckGcJUmCnIAFwwqKAP7xAkDp5XD7naLZA+xBXvXnW27Cy/mLJJGFvdWGiYj0Vhd2261XlfA4FC5Hcr5SQhYpUdQ7IGtV/9AakVAaRgMBbpYWeSJrP2hTdPOwhGWK+3kRW8e9E3BAftmVO9DM82MQuKlYYBa/8/opRBVALNhbVYNGcMaE6hI5amNyq9uuzfLcTXyG6+g/jFszzcbAn9uQRh7eJ4eZQEtHWtxH3qLsCRhitftlMXFCtEnwZQnzug+nhD2Wa+U5pPagc+v932mZACb8vg5vFoQBupU3cb/AlXTT+OzWgs7XzJaGk7D+86GJJ611BA5FrNqOHXLTolrPgVY2LAiSFt4gUhCB8uTgGhTuJl1bzgCe0swz25iRi7CBxkqZtx1DlhZ7+afTVc4pxJ1tOemd5yV+Hj3nSaL0m7C1l1Ruvy59Pj+0r+VhQhiVJKch7mfqIVQvWFljwGxP5E07YvkSOKcWGjsxWhuR1Zn5iJSwxFNjJEdGIbrLC4tvO078mgR02fj5PDuOe1Tgy8PIzlvYpsVTyvyKgKxYCEl5HAC8r65gxjxOZahDvP6zthqdQEViE3pQvK+gVo6xHV6AvSvcp0H0eERMVyAxbMMCPueqcZGY6LQ1Xr3regqyyVvwgy5w+tF22fJR1dZWSYnFzenQcm4Mz79/VDjpvbeFT5NynL2q1xMZVyF16HJ0PWdYeBkTlAdezJ29XtVBl4glD3TeoIu97UBl9zPO6INShcUMhFvPedAfJ5J/DkZLGeWn+fJfRGwe4kiG/gQWidp53t++FCO+RbwDPTjXjEnVXiHoSsQ7rEEsCuP4Ggy2exyGD3Y6bpgCVHyqXO0URczJ+snaHCyU2gv60DKBjNuMTouPsbbqMitlWNOBBI2eV9+UMq0DsKPMHzpsQHOxHJWc7becst5I3ANHT+YkCAeCCuMmWwqodfmKO0eeQcmID2aLbEonvGn7AWT1dFc+Rj+Bs048wh9qhCYQfyi1UTme7oXDge4eYHBur8ZpNdu6qFtjVyM4F2wSkle4/33V2SahdUf3NORJQ4A0Rcv71yWFEJoZmATdX3ZTcgMgADnmp4TK1TDKG4dghf8ha7R3LlYoSeuq3nHLiA5D0pHr68fKbWyARkJmVoTySp66a5/6jbYb36HUevE5F6qzUw+XrIBlkgLtzKrJYZQeDZbmF6uWE8vOTHP3GlDrQRq7SoHHbWZ5YPb4B8gOeU7VIjXXFpzfWf7LHZWnnzmoBCHqgrKISunjuIXOe0PK8GxBx8SbvtqXMV4MDyAkIz4W2v2WHt9YC7fUJDVnCxTwBa3hDhkApY5kB/DtKoo9Yr1siQ/ysUiU2XV/itzgkkufWCq+WccbEpO7cobA0o2ycs+jdZMrbwBduNmJx10vhoOaRcArfcgPiadye18FaoWCZpUef/HJGJdWq0WW/CCUGQw15LKYQcS+gX09fYm7HpprmpawVi076Zzl99e4nUvbCeQIEJ711GgLvgE3StosPMAHIfjzcTFPqyCmeC0IcsTrYrbPlQW+jEen/5HX5pt6UwsVMdk6Y0hsWGS+VSsIe/HEO2FojWXwZTn9k8sVQM5yfwunL2KYIry3MO1miW53sUtFsLsLDiUV2XdiN2d2gvGZa3sgKxGWhu267CxrxhOk69Lt48FdUjGgKqda+i1/jNJyK2Vux6xbGhmgP/12wj7ouPQrtqhJxlcfgX6tYaT5sJXN9wCjJdKZ2YD2mGRETxisYC183+/HpgiXLi5iWw0UAnDrIl64lwsWc+hDuGYmoYBsOiaxnoo+e2FuoD+ka18QZ66G0YWkiKC3tPkmuv5aTPyTNZRehbfwfmjTkhcRlv3+cCIXxoHy9V89iwTVlZvYmKUMvTbgcYQnP4dQ5fCcpbtRPUM+cSdQ76dhIBVBjhPL4RAPzHjckIgUwAI2Qyeu7VU8FxZ7HRsG2uH4ifnCx8iTVydn1pufp1CDR3JMRjXz3h3J0X0KeUBSHVcXcShsYSclxcnLGg/xkVURffc6qMm3thYAOjG/Ofr+/VD34Wihss/fKCX1epiYr4QIQ4e9vaaMzQhAEieq42VKNkZiR9h76FBBGbNSdNAQl6dQSPLx8BnPR9SD9hPQZHLN03d1fh7GMMJ+ZPeouJevtdh5iKMpSTKWZKNLhfAbiwXRhyC2FnTvv9yTiFsMekOhUrt5dU2zudpYXSbCyekRdkxL8oMa1w9+BW9otEZ5wnhZYYY1oPU/hnBwqTBcszEnVTsXl1w9WZazn5NwbyHOHQln8CQR/8DhbbNurqWxex5o6c5141CDvtHnGO7P4ZBaAr8/YnDt3fPiu2B3cm9U60xjCWoot7GIJKBf/7cYIsvFANiw/o1z6m7wM3Q0SRUtcXe0mfINZng+a6i6l92VwbXqXgvnp6ztOllF1Tyym7l/vwzWV6Z1Y72TIxf4UbA1s3eWAAALnUs6P/GX9t0UBosrLjkpedSwPYnyUcQFThEF6bwghBRx16W3ObVgUjDioJyIawXg8PnyN2o3bcHV+wZbMY4HyeZxQFIqXO2DBvhjjB5WTiQhzwyJzblH0R8J6PgeuRacMC4OMQKt/wcaA7Ixm6UcdUi5cezq2L0PodXMAJsHR7Dq5w9Wtc9ozbxGU9A/YJBNyQ3UQ0ly+FWKkMEpVShBbL/YUiNpFv6vfSIHpmtsgADPMEDrwh2XmZQmNyqb/Ii8a0Pxu/pZHtuOj4prTE9etRvMiAagE/0/WiDgzCK3O4SaZuIkeeRzm0lk9b7cqcFcf5Ks6JrHDEoJszIevOnVQ4TDGirctKKdpk9RnJEjA+YgqtFO91orHp4YhX50/xsmhO+dYtIVqJOncBwR71o89eNd+KTKAtfT/cAjOw4BE4qfkoGWBo4Nj05BV4i36qOt0vlX9OgqYO2hV3j9sQ7G+cncCfDYHlWDSbsz99ZwW4BPgQAr0wL0wWLcIEq6emcg8UU+khrk3X19nzycsXqxL5N/idnkcGFVvwIyvIZBMKOd/lM3sZuqcy6oswn3wQ64PmfnOPlqbiWmGVTXKEPvepritIsisWXFRoDk2atl1yqjOO91bPekJHBrK0WBQf+GdjjJdeUjDEIxBFgRlol7XyscqYx7Ql6AbvUYw0hKA6MeJUuLJ4BdeM/u4uUGQtpWsoykIPvG1tcX/l0NIyTw1FOytIrLSM747B1QIooXwpLVNbo57pt8Q6QBK8J2Alv4pJj5tkuWyQWHMu7hCMZNP5awegOqx4X3MNjb4oWW62hElvgo8eteSBTz1AodhEukumkMEtoB8DvaqVRL7gAAlR4Y42QpEyT5HHjFq/f8cMoDKPegc9CX9HX+0HXyACuJU+f6fpzC0bpI3YQNII57q4FOftUi9ZkHYDPkeNXeAAAa4bac3ozhOr/Qarc3QgIGko9CLprU4RC6h3OSsyJF/KpLlddiWE0qKuxcLKZLj7yQHJEIAYqX0gDv6OoLblZbFl/VPCF2HWR0GAh10I3VrPW/FiTE5Z1GUhrr3AXrM8TZ/mQGQYmhIrv80/k7AwwqWxXoWVBN/nKY82pswqzP+kQjs7YP8Mc4NqQJqEj4RcFMOt2s6xnEeyXafSuFj29G1iE1J7i04eJwFqyoY9rmqi386DGMNAOu5FgP+CpyZg6fWvwnZC6NxV4yP7+GEsBfRxYRH1a++77/qHda9CntO34Pc4YVa7Gr7Gv1oI0bwJWdhd+tQYNUHGvykm1X61KIOml3f5BLl+zk05IPuxIJJ0WuXZin+ogoQjVDlyjebLgvKEcRWiw2yzMBcs6m1FVHM5Io7OL5YyO9mCxLYsDZNiNwXH2ypt1tcH+5DsnYKymcyMFbh9tprSJx7sTDia/La5d/DY57cCqZ0NJd854eEQsNpTyyiflv0rjOTJmMZS2yJpPfKBx5CdEWwiM0I6sAGwDGhPkmgbjFpdVa4f14vjXY2UXjWheLXcACbTcp217L2Tq3JdgEw20jauuEdYI8Ms2Jm47bRRMJ+kclm8MtUdWJ5bdSJtL611difdh53OL6xfq3UvUwSEwB9rB1VfiR9zy9diUXOAVIJ3LkmrpKfiPqKJjy5i/KRUWNVNO+aFAjcJwJ2Kj7wZtNUFPOeFQPE5p/HpwxzXaSqr73G9gqLy/p6uZd3EAfLHILxxnAht6+oKETsH7RhQQyGk0T1uH5hmjcouIGNSjRaurmPq/ai9UyRBxXsL6fFsaL9BrSwVRc9mZ7szZ2xbg3go1aKHetULcEDl3F1gcE76jMRvV/KcHQ6azczSk+OeO/D9+buzuyRKOxZ2Ldg2KXan3MI6MzNGGZIrwBNQoF0xViytiHYdhWAzro/wt9ZTygmT/gwayyWwLOyAP29SR0BLhUHgLZn1PBj5KE12j9QVpmbVEDxk5Z7o2wIktJbhMIWaVsiUr96LS3MDq0YqxUx2I7dRnusRDvLiAEx8Nk2QwNVSpoiPNkiq+/Y/k0xG3QJ2AwMZLsct2lOvCdWWunQ4NS+Wu+JQ0lweF+gpZZLOmPg/bY8jOT0kSWOxyR2//4r5dd2aICrRUIxX3708pQ3QNH0P//HjC/PeD4s1M+w10W12P0f1JPDABVM1cEmTQaCiKja0pihK3spOCJ1VEfc+V9wTNLBUroylnzy7USGlz/4SIqnd1o/MEFytWg4fDE85m/Y5pzECQzsvNveQe0jEjl5479CDT2lB+tEP98CGOOmEakz/ahS4+8fWa8l9Hn/lxw1jztIJowd3pLyT4PN/cE1/4Rl1T60g9TChOjP6WjbMKEpCHV74JQJcOwt3ZE4ZykDND1CxvbUpgT2+jYnCA6oJa3QqAUrXi5YdgBLvY1S4OmI0IM4cHiSo9C6voXwNNaXQYq9hgq1xiJuFLVKDyTv8BgOADThAM7gmnHbkylzdwEUXAWDfo+91Ublo0eCy5vRN/d/VDuPiZAkZCpmacwdD7/q1uSFsBqyXZEZtS7+oFrWXNQo2sPvdHn2mIgaUdSXQPeFGvXa0NF+I9hKlH0G+l1hJHCk3myxzNe1yjVCmocXxZ/Fq5oJl5nx/Vh3T2gQeI2HuMI8h61sN2ZhWGOp1pa0Z3I6MKZ5kdEzOguLwY0LxhjRd2YLYjNXMl4551VYqYWKwbdFcNvP9QZo2LjkamxerpMMTEo4vgYOj1TV/2Pq7jhPKHPi4Uoql5+CnD3/pfGHpHVbUiWCPaSqLl17vFHSKoV7XkcdmzZzShYtS1uTr41lo6yeNgIUuFUMfKxOtKbloNpz/iLql/gWqsgBSMuOTXY0oeN7wRFfEJ2BKd4/iFh8mQmKIkqO10TmxzHAJF/zmZpjTZ73W9g+03G3R7ICkafO7f2O37aePyYHeAXlwWZcmRq8OZIX5Wo30hZTMeXA9nxTrfvwDKKSED89OEz0O+DjX8rpKSv+wzs6+JWcks5aXgu2zcT8fA5tnlhGaWoad27tmwpSFWiBsBZJecd8pVYUrrWlBibWx5YfkyvWMG3AxoaUR7maP2BGRc07w/00bK0aYHJ9Y3jxs+r/inv4PHy0Imvu7YdOX0/OtetAjLUEH9xOxC2d7WwHvDJ1HmjCg2+yWucHPnkOHZgoINO62FFA2PWUV/GMucJLGCUTjpJkg0FNU4A7hUR0mA6EK2LD95dz+6mj2BYvwoHH+sMylpy3qABr4gLu+gs9lMm7T6Y4luYr9Bl1ZK6i821CCQHT+oCKBLsLU/iYrIOStZ2D474By003BXIpzhtbzKX6UfVu/B1O5SgqhvOwtiRFw7cfyCs+AdR6y3lRB8H/Z42gvGBZJbrvhnguRda1DMhqhHN6I+4X2+QsAomRkfNtiQV7q7oXIqLMP4QedGYcWzGZmwok0cbENoExQmjbmjb6bziuI6wAXTAMpm4tUD5uOkvm+KwcC4qWbJnu5MqWPS+u8J/Kpjldpj/gyzB4EYTKFHifVpAxBfUC6KhdDM8SiVkCZ0+IqhlKiHgKz246thIly6tc1zt7ec+4/WGMAfxYwP5fp+U1JzRETrZgib3n46YOEaEFzjUoEKGuIjxPVuqIfm4niSGG4Ar73nSF9fB6asvhFyYcyehw/zQjWPc0TYCXhk2cxOj8yFW6l1REDyk+vuyNicc4h0hRepT9LPmcpGQFCQGZrfZ7oTvQ6ptqCyMLS9C9vJDhehBxLgLL3N4jUysp30uiRHJIsWFv5ewOQeTm37DaW4U9viAGnNDDqq1OGUaLJH4+z9NxD0ji3D34cBy3W+EDMKWD3Xy0JF8xXA6+1aKtAmJ6Af55G+tPMaiWOS+iouHhBICU1p2Ao81/pOlOxr4mmLqmsvIJ06Ik/KXJl7pmQ0u6AB1V09i1S5A1QTD++OmsNxOTyq29pYx9PG70XQp24qiCAVO8YzQ5nWbe+E80ZOipcrnUG2KenNtw4dhihD561m1hUJLmX8pplDUFU2Ww22ucYK8yQI0FRuZI+ngJaelNfz4vlAs0OuBWVTJNH4HkVSIeC57aUr2BO+/vZPUjUAziQPMCrawG7XhDgXi6M83Oe8Z61+mUQ0O5pq0UXH5irTUJ4nqfLcj2alz6qPIP8L8MI5WKloTKQcyEvRqT/zxEcwmTK4/IfiTMmBz4krOScgQZLTCvAB8mFuwin1WegfEY0IS0nvEeR7JgbvORVXcQ/hHrQ4oG4NPMLGalzQ/GiTbYCyP/rOHOHrPSi0gaLq5sFURrK23Pui9vQLpJnFJA7J95YVwbpecDsRPkghjuV3CIdZzzlfLsMsHRHOAQdnM9iaqQ68U5d686lS6Fh4tICRmmBJsD0J6DngeqIB62QdIDXTItzRiUuWR8TmLOqSFC835lqTShnCjjQ6QRz6lnFj0NiZIZOgD2iSX8bqkIulAc8hK0qeTyBsFjYq9YHVu7ly8hL61FClQmFiZ/AtEkjemlnAY7QV0TboXUut0bSXCc167Oy1DrP2CLMPQLyo2QCqwfOk+JjuiFQCz+4PHwjbBbPqWohyiD/HsEh/guaSt5knSKSBn9Wh0t0tDVsIzoOzQ4FrYQ8CkdCNpg5X72L1aO6I/eN/fdum8LV5hnm57QYlBgA7NWSdQBry35WhdEYy3VElAdI2QrEMYCQLhcmlRBIKzhqIGn/RFizQWf/t2Zw8z2XKmKP3HAs5JyTAt40cWF4vAdXWeG91+qj13To+DwomFe4isLm0QLJfeMPFO/oW8ueOzYZrhGWtATAbItuOdTnIVL5nrwgmk2wde8YR8F1+3XRQcB+AnpH8YcAnfES8BrC3SrebSmZQGsJc2PjZdn1CaPHOX9FLGdQruwOWnDdSTGVQnqMw9dI2Uc7BW380u51jPvAyg5atERHE5m3mQtfIB2LsaI7uz7XahijiWHxwFCDwPZNLC+OXBrBNBuAwHzAlJFzlX/zOaOSHMK1ebdrnNTDMX+mPGeEPFUr4H85jUtDFpFN5R5ctpD6KQ2mKEnmY5g4PoWHwIT2qSKBSEJmx0tC4RdcEKUyM5gB3xpH4Jnn/9w2zweSgks5d9cfG1ZBVaidkSulf3aXgmBbteMN6T8s/DJ3nW9WSn15e3V5hPwxEIF2TVkeDD2jesfX6kco7rZtVUJ6U8uc5YqRZv4YSxiCx38oTcP9mKdFyjEQqPotRWyJOH33TobRhyaBCQs2+zUDvm+Xqz4fQTQ5Wsk4itnTQxmvglihVp9v5604oyoMpYRE2T4GUnCYwuVFPUPVEJJUnCuQ4h320eK6zAJsum6p/jgHQ3axtIG4GtFqplVw1L1sML6RMYRSyvm7OC7IjUhk3z2R6fu6cTtZaA2LrFO9NKeatBOa6waBsk7m9yTHl8Vi19DDYZWd5jVMzmnFK7IdGm+j0T57IhXzfJKrCPHnFHwC+8vUifs5Ja4AA7JYHl58p6X6z8FTg+ZrRhjkCFJvH+DAHtDXyYETOb90Vpi2PTI7VbhXJV5OFQVqiBIlQy29FbcsXpUxBeQfe8oXQTH4dsAg8WLd7LMToU9AkCPZfIJ+Icrk81rAZX2zKJVi3lGWuWMiFTzDnivxJnz27nsj0wCin091x6y53LdaRCOVXiEtoLkhh5VYqXT+kfA9LhfmtMinDRQ4oNoeYi5JC7UtwQ79MFtFraL8gP0aAWt89uoVdgjE1qmTCYZkQGXufudeBCi1tWTd3RudAejqhvGeboJ944FvAuiJUWJzRcW9h+NWuZn+uDiUJRV1yzsbgvOQ47BoPIaDoGP8CgVhE6BZ0+fPkdRLUNxmxQxmgrhQzsJlKFjMcGIXjD6VUlVkcFM6/U9E8d6tlWdxiJcORmi8KYfW7HHOWX0ukORpSRR7q4BoG/Hy0ZNAqCiJ2YAIYW0jaZIrUzMpBN3pa9y4POT6utqc7i8dj9A16UL3MVH59XSmwt0UFxJlcWgZv47SkxL695PwHBYhAxYv2SzD/CZ2ikGWXdONV66dHVRzbH/ShmX4XT1oVqkdeRQyxRDbQrZXTMrf/kzzDE9L6cQHV0VpYU9iaijWkbEbeLHagYViXGMJk7zMC/fagr3YKByciwt7PEDI9bGeOCkJ951beqSyBLhw/pI8YZKnpKLaNUrkT2WbF/uRfcxPJBbQrgJL/P5z6gYpE3Ni3upcTnmHRX7XmZFmhshWalpNtVGE1kRD4yWUF5QOOeWMxqOVADz53IPPQU/zBZDg4u8ByuyX1Xgk3BBA542B5+aucsMUjre3F34kbOXfJK4bNr0Du/GHnbJhSe4x/e0jYv5zyuil3QqUck1f435gLbcjgGLPru2tVMkG+DoBLTa4/IlKQ8xVmUUgNDW0QBKKMAEAeh2m3IyqxUc1jIApa13LoFZWhmDqlG8aN5DXb4z3+WEjgY88MwKgnf4f3j6csTEhXaSNnBP/geVtuedjcOP2ZYnkQ3ahGUbcAnO1nELy/xW88lnR+QVncQJtDDdZ2fwe11rfYNUmdNsTnqtcPsuWvxfnvxgocP2/90vSmL4Y/R8mqwh4pxvVVO6mWsXDBvJQ1XgTKt4H52xDKP3gG+vcaxhKywQU7//9tuCZlO0L4Y5Kt+KAoJYgV1GUz9lSHLdAjCJYkaGXc6XH1zU7WTRFVODvth47RwKudnNwmeL6CuPjC7/aDDmYl5N4ZRORvje3Dod3z///zI+FwmKIM75DgBY1ipR+tizGlKap8uCmMebdSkc8hEV9OJoXdY1/MRWyiX5uzcqzZiM2ukk1QLanuU7CcOkXBY0J5SsTwZMUtbQthGJD3OggiwBo3OvsfnmcV7nqkXsjhJ+2sAw3kf//HV/U/AA9WFEQlo8lT0V9og4iInyVEap6J+nkXfUblzAjZWTBrxVgP/tttKevtok9eJhevjFIDzHW1OG2dZn/5QMz2cWydCpk6EukHK1dCKAd0GYbcD7jH/Z8egqNz9qG0VrE7i96Fq5Ts3gM55GI2oaTFzcRoeJPoBtb8ze+tnbIvaBVv04BCYi72b5qcbiiV0o2NFIC9Y0nB1Fqq4KnL+eC4vSp7gI+1XAeojsvotImdDjkyu+Z/ZJzg3U4ZDZwTRA9TJvySammm6gYdWHN0ZVMwiWKJGXqBtgc/MDOt2C0Lvhw1/Cg8t3v7isdm4/l+CkwxOlp+Xj8TrkxpRuDAiM3zUzv2KGgClKZ4vicc0NUxEoLNPT/vtNdkLJYih/8dX9T8ANjDjudX1tqbNLr7FHACMoocx3ZUUU/csLxxcpAxtl/er1FsspzjX5LoND6RtSXRCLDT6RHnJyCicFNNJsMe5ngCdo0Ehw7V+xqCr3pdrIRmj8TSiglf8drtSdnRhfbF8SS8/PtufN2nS8Pvbpgq/KAdJrUq4rX3fNQh7elDvs4q+I5b2O7tvuNuUpl+W+KHPKtzpFuPxkJMGStg0cEO5fJPVP/Ntp5PdgpLisvDTNKagSHdOLfbaNsPQltRaEMhTf6ypSuUNRKgKQtsuqtqTu6jLobb6ZF+0rnCYvKLQPk7aZ+ROY/P1FnPXEOajM2n6hxAqMM0yzmjOtFf+kX4a8FVSMsGFfZUJTZ3qhVobLXQNqEgUNsUp3pYerVsRFrnEjgApJpf5xVvaLcFE587I15RIl33wPNzyXXxDTQJki36NfuYp/AXFBKgvo5I3xl2v+6Q4VSZBJzwgpQk0NlLNrgnuUg9dzAB50jqKBivwBEZie7ok1GFgqtDLYxqzUEM4gAAAJknC8eAONcqR12kejFUZSWN1WkOCu00Q7AlKA2EAAAAAAAAAAAAAAAAAAAAA=;fontSize=18;fontStyle=1" vertex="1" parent="1">
          <mxGeometry x="-55" y="60" width="120" height="120" as="geometry" />
        </mxCell>
        <mxCell id="INPc3uI3xBPr1Q4v6FXO-3" value="Kubernetes" style="rounded=1;whiteSpace=wrap;html=1;spacingTop=-375;fontSize=18;fontStyle=1;strokeWidth=2;" vertex="1" parent="1">
          <mxGeometry x="220" y="60" width="620" height="480" as="geometry" />
        </mxCell>
        <mxCell id="INPc3uI3xBPr1Q4v6FXO-4" value="Addons" style="rounded=1;whiteSpace=wrap;html=1;spacingTop=-350;fontSize=18;fontStyle=1;strokeWidth=2;" vertex="1" parent="1">
          <mxGeometry x="270" y="120" width="240" height="390" as="geometry" />
        </mxCell>
        <mxCell id="INPc3uI3xBPr1Q4v6FXO-5" value="DNS" style="rounded=1;whiteSpace=wrap;html=1;fontSize=18;fontStyle=1;strokeWidth=2;" vertex="1" parent="1">
          <mxGeometry x="330" y="250" width="120" height="60" as="geometry" />
        </mxCell>
        <mxCell id="INPc3uI3xBPr1Q4v6FXO-26" style="edgeStyle=orthogonalEdgeStyle;rounded=0;orthogonalLoop=1;jettySize=auto;html=1;entryX=0.5;entryY=0;entryDx=0;entryDy=0;fontSize=18;fontStyle=1" edge="1" parent="1" source="INPc3uI3xBPr1Q4v6FXO-6" target="INPc3uI3xBPr1Q4v6FXO-25">
          <mxGeometry relative="1" as="geometry" />
        </mxCell>
        <mxCell id="INPc3uI3xBPr1Q4v6FXO-6" value="INGRESS" style="rounded=1;whiteSpace=wrap;html=1;fontSize=18;fontStyle=1;strokeWidth=2;" vertex="1" parent="1">
          <mxGeometry x="330" y="420" width="120" height="60" as="geometry" />
        </mxCell>
        <mxCell id="INPc3uI3xBPr1Q4v6FXO-7" value="REPOSITORY" style="rounded=1;whiteSpace=wrap;html=1;fontSize=18;fontStyle=1;strokeWidth=2;" vertex="1" parent="1">
          <mxGeometry x="330" y="180" width="120" height="60" as="geometry" />
        </mxCell>
        <mxCell id="INPc3uI3xBPr1Q4v6FXO-27" style="edgeStyle=orthogonalEdgeStyle;rounded=0;orthogonalLoop=1;jettySize=auto;html=1;entryX=0.5;entryY=0;entryDx=0;entryDy=0;fontSize=18;fontStyle=1" edge="1" parent="1" source="INPc3uI3xBPr1Q4v6FXO-8" target="INPc3uI3xBPr1Q4v6FXO-6">
          <mxGeometry relative="1" as="geometry" />
        </mxCell>
        <mxCell id="INPc3uI3xBPr1Q4v6FXO-8" value="DASHBOARD" style="rounded=1;whiteSpace=wrap;html=1;fontSize=18;fontStyle=1;strokeWidth=2;" vertex="1" parent="1">
          <mxGeometry x="330" y="320" width="120" height="60" as="geometry" />
        </mxCell>
        <mxCell id="INPc3uI3xBPr1Q4v6FXO-14" style="edgeStyle=orthogonalEdgeStyle;rounded=0;orthogonalLoop=1;jettySize=auto;html=1;entryX=0.5;entryY=0;entryDx=0;entryDy=0;fontSize=18;fontStyle=1" edge="1" parent="1" source="INPc3uI3xBPr1Q4v6FXO-10" target="INPc3uI3xBPr1Q4v6FXO-2">
          <mxGeometry relative="1" as="geometry" />
        </mxCell>
        <mxCell id="INPc3uI3xBPr1Q4v6FXO-15" value="Clone repo" style="edgeLabel;html=1;align=center;verticalAlign=middle;resizable=0;points=[];fontSize=18;fontStyle=1" vertex="1" connectable="0" parent="INPc3uI3xBPr1Q4v6FXO-14">
          <mxGeometry x="0.1138" y="-2" relative="1" as="geometry">
            <mxPoint x="-1" as="offset" />
          </mxGeometry>
        </mxCell>
        <mxCell id="INPc3uI3xBPr1Q4v6FXO-10" value="" style="rounded=1;whiteSpace=wrap;html=1;fontSize=18;fontStyle=1;strokeWidth=2;" vertex="1" parent="1">
          <mxGeometry x="-255" y="-400" width="610" height="340" as="geometry" />
        </mxCell>
        <mxCell id="INPc3uI3xBPr1Q4v6FXO-9" value="" style="shape=image;verticalLabelPosition=bottom;labelBackgroundColor=default;verticalAlign=top;aspect=fixed;imageAspect=0;image=data:image/jpeg,/9j/4AAQSkZJRgABAgEASABIAAD/7QAsUGhvdG9zaG9wIDMuMAA4QklNA+0AAAAAABAASAAAAAEAAQBIAAAAAQAB/+FJI2h0dHA6Ly9ucy5hZG9iZS5jb20veGFwLzEuMC8APD94cGFja2V0IGJlZ2luPSLvu78iIGlkPSJXNU0wTXBDZWhpSHpyZVN6TlRjemtjOWQiPz4KPHg6eG1wbWV0YSB4bWxuczp4PSJhZG9iZTpuczptZXRhLyIgeDp4bXB0az0iQWRvYmUgWE1QIENvcmUgNy4xLWMwMDAgNzkuYTg3MzFiOSwgMjAyMS8wOS8wOS0wMDozNzozOCAgICAgICAgIj4KICAgPHJkZjpSREYgeG1sbnM6cmRmPSJodHRwOi8vd3d3LnczLm9yZy8xOTk5LzAyLzIyLXJkZi1zeW50YXgtbnMjIj4KICAgICAgPHJkZjpEZXNjcmlwdGlvbiByZGY6YWJvdXQ9IiIKICAgICAgICAgICAgeG1sbnM6eG1wPSJodHRwOi8vbnMuYWRvYmUuY29tL3hhcC8xLjAvIgogICAgICAgICAgICB4bWxuczp4bXBHSW1nPSJodHRwOi8vbnMuYWRvYmUuY29tL3hhcC8xLjAvZy9pbWcvIgogICAgICAgICAgICB4bWxuczppbGx1c3RyYXRvcj0iaHR0cDovL25zLmFkb2JlLmNvbS9pbGx1c3RyYXRvci8xLjAvIgogICAgICAgICAgICB4bWxuczpkYz0iaHR0cDovL3B1cmwub3JnL2RjL2VsZW1lbnRzLzEuMS8iCiAgICAgICAgICAgIHhtbG5zOnhtcE1NPSJodHRwOi8vbnMuYWRvYmUuY29tL3hhcC8xLjAvbW0vIgogICAgICAgICAgICB4bWxuczpzdFJlZj0iaHR0cDovL25zLmFkb2JlLmNvbS94YXAvMS4wL3NUeXBlL1Jlc291cmNlUmVmIyIKICAgICAgICAgICAgeG1sbnM6c3RFdnQ9Imh0dHA6Ly9ucy5hZG9iZS5jb20veGFwLzEuMC9zVHlwZS9SZXNvdXJjZUV2ZW50IyIKICAgICAgICAgICAgeG1sbnM6cGRmPSJodHRwOi8vbnMuYWRvYmUuY29tL3BkZi8xLjMvIj4KICAgICAgICAgPHhtcDpDcmVhdG9yVG9vbD5BZG9iZSBJbGx1c3RyYXRvciAyNi4wIChNYWNpbnRvc2gpPC94bXA6Q3JlYXRvclRvb2w+CiAgICAgICAgIDx4bXA6Q3JlYXRlRGF0ZT4yMDIyLTA0LTA1VDA5OjU1OjQ3LTA0OjAwPC94bXA6Q3JlYXRlRGF0ZT4KICAgICAgICAgPHhtcDpNb2RpZnlEYXRlPjIwMjItMDQtMDVUMTM6NTU6NDdaPC94bXA6TW9kaWZ5RGF0ZT4KICAgICAgICAgPHhtcDpNZXRhZGF0YURhdGU+MjAyMi0wNC0wNVQwOTo1NTo0Ny0wNDowMDwveG1wOk1ldGFkYXRhRGF0ZT4KICAgICAgICAgPHhtcDpUaHVtYm5haWxzPgogICAgICAgICAgICA8cmRmOkFsdD4KICAgICAgICAgICAgICAgPHJkZjpsaSByZGY6cGFyc2VUeXBlPSJSZXNvdXJjZSI+CiAgICAgICAgICAgICAgICAgIDx4bXBHSW1nOndpZHRoPjI1NjwveG1wR0ltZzp3aWR0aD4KICAgICAgICAgICAgICAgICAgPHhtcEdJbWc6aGVpZ2h0PjE5MjwveG1wR0ltZzpoZWlnaHQ+CiAgICAgICAgICAgICAgICAgIDx4bXBHSW1nOmZvcm1hdD5KUEVHPC94bXBHSW1nOmZvcm1hdD4KICAgICAgICAgICAgICAgICAgPHhtcEdJbWc6aW1hZ2U+LzlqLzRBQVFTa1pKUmdBQkFnRUFTQUJJQUFELzdRQXNVR2h2ZEc5emFHOXdJRE11TUFBNFFrbE5BKzBBQUFBQUFCQUFTQUFBQUFFQSYjeEE7QVFCSUFBQUFBUUFCLys0QURrRmtiMkpsQUdUQUFBQUFBZi9iQUlRQUJnUUVCQVVFQmdVRkJna0dCUVlKQ3dnR0JnZ0xEQW9LQ3dvSyYjeEE7REJBTURBd01EQXdRREE0UEVBOE9EQk1URkJRVEV4d2JHeHNjSHg4Zkh4OGZIeDhmSHdFSEJ3Y05EQTBZRUJBWUdoVVJGUm9mSHg4ZiYjeEE7SHg4Zkh4OGZIeDhmSHg4Zkh4OGZIeDhmSHg4Zkh4OGZIeDhmSHg4Zkh4OGZIeDhmSHg4Zkh4OGZIeDhmLzhBQUVRZ0F3QUVBQXdFUiYjeEE7QUFJUkFRTVJBZi9FQWFJQUFBQUhBUUVCQVFFQUFBQUFBQUFBQUFRRkF3SUdBUUFIQ0FrS0N3RUFBZ0lEQVFFQkFRRUFBQUFBQUFBQSYjeEE7QVFBQ0F3UUZCZ2NJQ1FvTEVBQUNBUU1EQWdRQ0JnY0RCQUlHQW5NQkFnTVJCQUFGSVJJeFFWRUdFMkVpY1lFVU1wR2hCeFd4UWlQQiYjeEE7VXRIaE14Wmk4Q1J5Z3ZFbFF6UlRrcUt5WTNQQ05VUW5rNk96TmhkVVpIVEQwdUlJSm9NSkNoZ1poSlJGUnFTMFZ0TlZLQnJ5NC9QRSYjeEE7MU9UMFpYV0ZsYVcxeGRYbDlXWjJocGFtdHNiVzV2WTNSMWRuZDRlWHA3ZkgxK2YzT0VoWWFIaUltS2k0eU5qbytDazVTVmxwZVltWiYjeEE7cWJuSjJlbjVLanBLV21wNmlwcXF1c3JhNnZvUkFBSUNBUUlEQlFVRUJRWUVDQU1EYlFFQUFoRURCQ0VTTVVFRlVSTmhJZ1p4Z1pFeSYjeEE7b2JId0ZNSFI0U05DRlZKaWN2RXpKRFJEZ2hhU1V5V2lZN0xDQjNQU05lSkVneGRVa3dnSkNoZ1pKalpGR2lka2RGVTM4cU96d3lncCYjeEE7MCtQemhKU2t0TVRVNVBSbGRZV1ZwYlhGMWVYMVJsWm1kb2FXcHJiRzF1YjJSMWRuZDRlWHA3ZkgxK2YzT0VoWWFIaUltS2k0eU5qbyYjeEE7K0RsSldXbDVpWm1wdWNuWjZma3FPa3BhYW5xS21xcTZ5dHJxK3YvYUFBd0RBUUFDRVFNUkFEOEE5VTRxN0ZYWXE3RlhZcTdGWFlxNyYjeEE7RlhZcTdGWFlxa1g2Q3V4cmIzNnlnUlNTaDNqNVNFMEFBMkhMZ1BzL3kvamdFUUNUM3NwWkNRQWVVZng4ZmluY2trY2E4cEhDTC9NeCYjeEE7QUg0NFdLbjlkcy85L3dBZi9Cci9BRnhWMzE2eS93Q1dpUDhBNE5mNjRxNzY3Wi83L2ovNE5mNjRxNzY5WlVyOVlqcDQ4MS9yaXJ2ciYjeEE7dG4vditQOEE0TmY2NHE3NjlaZjh0RWYvQUFhLzF4VmZIUEJMWDA1RmVuWGlRZjFZcXZ4VjJLdXhWMkt1eFYyS3V4VjJLdXhWMkt1eCYjeEE7VjJLdXhWMkt1eFYyS3V4VjJLdXhWMkt1eFYyS3V4VjJLcFo1aHArampYK1llSGdmSEZXTkQwNm41aitUK1k0cTBQVDRuL1ZQOG5ndSYjeEE7S3RqMDZuNWorVCtZNHFzajlQMEYrUS9rL2t4VmVmVHFQbWY1UDVoaXJYN3YwLzhBcmorVEZVODh0Y2ZVbnA0ZjVQOEFNZkRGS2U0byYjeEE7ZGlyc1ZkaXJzVmRpcnNWZGlyc1ZkaXJzVmRpcnNWZGlyc1ZkaXJzVmRpcnNWZGlxMlV5Q0p6RW9hUUtTaWswQmFtd0p3SGttTldMNSYjeEE7TUF1L012NXJ4MkVOeGErWFlKWmx1RWl1YmRuK05vd2hFanA4Y2ZFRnhVSDRxRFlCdXVZK2x5VG1EeHg0WFlkbzROUGpJR0dmSGZQeSYjeEE7N3ZzNW9XOTgrZm1kYmFOZE5GNVFlNjFvWFVrTnRGR0hXQllCRFdPWjJKUHFjcDFLa0tWb3BCK2VWVHJub09sWE4xZGFaYVhOM2JHeSYjeEE7dXA0WTVMaXpaZzVpa1pRV2pMRFk4VHRYQXFHOHhHbW10L3JlL2dmREZYbjE1NXcwZXl1cDdhNmtramtnWW1VbFhJVkVRek5KVUQ3SSYjeEE7RzNqWHRUZk1mODFEajRMOVYwN0lkbFpqaDhhaDRkWHo4NnIzOWZkNTdKUFlmbXg1VXZaTGVDS1djVFhYcElrWmpjbEhublMyVkplUCYjeEE7SVJzSkhXdktuWHVhZ1pOT3RUUzE4OWVXYm5YcE5DZ3YxZlVvMktORDhZL2VJN2NvcWtENHdFTGNmNWR4alNwdEZjMXRvMitJQmxERCYjeEE7N1hlUDVZRlhtN2o1S09aclU3ZkgvTUQ0WXF0RjNHVTJZbjJIUCtXbmg3NHF5UHl3U1dtclg2U2Y1ajQ0cW4yS3V4VjJLdXhWMkt1eCYjeEE7VjJLdXhWMkt1eFYyS3V4VjJLdXhWMkt1eFYyS3V4VjJLdXhWMktwZGVXT3J5M1RTVytvZWhBVlVMYittcmZFSzhtNUhmZW8rVk1pQSYjeEE7ZUs3MjdtWmxIZ3F2VmZQeTdxYmhpdnJXUVMzZDJaNG1LeHJHa1IyWjJDZ25oeU5OOXlkaDFPU1lKaGlxV2VZcWZvMXVuMmgxK1I4UyYjeEE7TVZZZzJuMmJ6dE84TVRTa2NTNVZTU0NTRFdwOE52bGxmZ3c0dU92VjN0MzVqSndlSHhIZzd1aVZqeVQ1UytySmJqU0xKWVlWQWlSWSYjeEE7WTFDOEc5UmVOQ0tVZGkzejN5MjJsVnNmS0hsaXh2bXY3UFM3TzN2U3hQMW1PR05aS3V4RG5rRFdyZDhiVk1ZNFVGdWdvbEFvQTJYcCYjeEE7NmZ6d0txZWtsUnNuVWo3Sy93QXc5OFZVYmlLYzJ6ZlZqQ2srM0ZwRURMOWtFMUN1cDZlK0tzZzhwbzZldXJzck4xcUFCdHlQZ1RpciYjeEE7SXNWZGlyc1ZkaXJzVmRpcnNWZGlyc1ZkaXJzVmRpcnNWZGlyc1ZkaXJzVmRpcnNWZGlyc1ZkaXJzVmRpcVg2N0hMSllGWWxaMjVEWiYjeEE7UVNlaDhBY1ZZK0xTL3dCLzNFdlVmc04vTVQvSmlyUXM5UTRuOXhMOWtqN0RlQS95TVZiRnBmNy9BTGlYcVAyRy9tSi9reFZaSFphZyYjeEE7SVZIb1RWcDA0Ti9KVCtURlY1dEwvYjl4TDFQN0RmekEvd0FtS3RmVTlRNFU5Q1gvQUlCdjVLZnlZcW5HZ1EzRWJ6ZXJHNkFqYm1wSCYjeEE7N1I4UXVLcHppcnNWZGlyc1ZkaXJzVmRpcnNWZGlyc1ZkaXJzVmRpcnNWVTU3aTN0NC9VbmxTS09vWG5Jd1Zhc2VLaXA3a21neFZVeCYjeEE7VjJLdXhWUyt0V3YxcjZwNnlmV3VIcS9WK1E5VDA2OGVmQ3ZMankycmlxcmlyc1ZkaXJzVmRpcnNWZGlyc1ZkaXJzVmRpcnNWZGlycyYjeEE7VmRpcnNWZGlyc1ZkaXJzVmRpcnNWZGlyc1ZkaXJzVmRpcmlBd29SVWVCeFZpT3MrYi9NVm5xT28yVmw1ZW12amFRU1QyOGl0eFdZTCYjeEE7RHpSUWVMYnRMVk5xbndCTzJZbzFCT1h3K0UrL283T1doeGpURE40ZzR2NXZXNy9WdWt0bCtiR3MrcE1kVDhyWDFyREZaL1cwTWNjOCYjeEE7c2tzdkJuOUNOUFJYNHZnMnFRZHhVS2RzeTZkWXlMeUQ1eW04MmFWY1g4dWtYdWplbGN5UXh3MzhSaGVTTlRXT1FLMi94SVJYd1BjNCYjeEE7a0tqL0FEUnFsM3BHa3k2bFoyWDF5YUpvL1ZqR3planpIcUVVMzJVbW5nZHp0WE1mVVpUamh4QVhUbTluNmFHZktJU2x3M2UvblczMiYjeEE7L3E1dThyYXZmYXZwQzMxNWFHeWVXU1Qwb2pXcGg1SDAyMzdsYVZQUW5jYlk2Yk1ja09JaXIrNVBhR21oZ3k4RVpjVkFXZlByOXFWZSYjeEE7WmZOV3Y2WHJNVmhaYVNiMks1U0l3VGdrRG42cEV3UGorN3B4cDBPNTJ6SUFjRmxtQlhZcTdGV09lZnJtVzMwQXlSc3lONjhRTEkzRSYjeEE7MExlUEpQMTRxODFmVnRSK0tselArMVQ5OGY4QWl6L2k3Q2hlK3JhaDZwLzBpZjdRL3dCM2U2ZjhYWXF0T3E2aHdCTjFNdjdzR3BtUCYjeEE7OGorRTJLc3owYTd1WmZJdC9LSlhlVVRPRWs1a3RUa3ZROHlmeHdKWWc5NXF2eGY2UlA4QXRmN3NmL2l6L2kzMndvWHZlYXI2eEgxaSYjeEE7ZjdRLzNZL2pIL3hiNzRxNUx6VmZXQStzVC9hUCs3SDhaUDhBaTMyeFZtZjVielhVc045OVlrZVNoaDQrb3hhbFVOYVZaOGoxWmRHRiYjeEE7YWxxY3FYTW8rc3k3MXBSNC9CL2ZKTVZKOVdmMVQvcE0xT1EvYWo4WS9mRlZqNnZKOFgra3pmdGZ0cC94Wjc0cXlMeVhmU1RlWjRGOSYjeEE7YVIxSWwrRm1RamFJSG9Ea1QwWkI2YmhRN0ZYWXE3RlhZcTdGWFlxN0ZYWXFrSG4zemxZK1RQS2Q5NWx2NEpibTBzUFM5U0dEajZqZSYjeEE7dE1rSTQ4eXE3TklEMXdnSzhoLzZIRjhrVXIrZzlVcDFyUzM2VnAvdjNEd3A0UzEvME9QNUcvNnNtcWI5TnJmL0FLcTQ4S0VabzMvTyYjeEE7V3ZrdlZkWHNkTGgwZlVrbXY3aUsyamR4QnhWcG5DQXRTUW1nTFk4S3NrL00zOCt2THY1ZmVZSU5FMUhUYjI5dUxpMFcrV1MxRVJVUiYjeEE7dEpJbER6ZFRVZWlTZHVtQ2tnRThuZmxsK2ZYbDM4d2ZNRStpYWRwdDdaWEZ2YU5mTkpkQ0lLWTFralNnNE94cWZXQkczVEdsSUk1cyYjeEE7UnVmK2NzdkphM3dZNkpyRE5idkxDdnBtTVJ1VnB6cWdsNHNWRys0cU1QQ2g2eitYM25qVC9PL2xhMjh4YWZCTGJXdHk4cUpEY2NmVSYjeEE7QmljeG12QXNOeXZqZ0lWa2VCWFlxeFA4elpuaThzODBiaWZyRVc5YWR6L2xKK3ZGWGkycWVZWnJhenVHRk9oWDRDVDlzc3RSKzlicCYjeEE7eXJoUWxJODN6L29yNnQ4SlQwL1M5YmsvS2xBT2xhVm91QkthNlo1aG11YkNFbW53b0kvanFBZUFaUWY3MWFuNk1LSHFQbHFacC95NyYjeEE7MUZuWlNmckRnc1NLZmFRNzFhUVlwWVJOZFFxemhtaEIzMkxKM01nSDdIaWNVTDN2SUJNMzd5RDRYbzM3eVBZZ3gxQitIdGlxOVpRSiYjeEE7bHI2VzdHbnhKdnZKL2tZcXp6OHJDRGIzNUhIY3cvWklQN0I4QXVSNnN1akNkWkordFNmQzM3WDdVbmcvdGttS1Z6YXBaeDZtYldaeCYjeEE7Q1FvY3lQSTRVRXNudzdnYjBGY1ZXMitvMjkxSmRKQ2VZZ2NxR1YzSVlGWFBJVUhTdUtzeThoay80bWcrRWorKzNKa1ArNmwvbUFHUiYjeEE7bDBaRHE5VXdvZGlyc1ZkaXJzVmRpcnNWZGlyc1ZZQitmT2hhdnJ2NVQ2NXBXajJyM3VvM1AxWDBMYUlBdTNDOGhrYWxhZEVVbkNPYSYjeEE7dm1uUnZKUDUxNlJiYWVscDVMayt0NmJjUnp3M2J4S1haWXBmV1dOcU1QMi8yZ1FhZUIzeWdhWWVMNG5FZmQwdms3S1hhVWpwaGc0WSYjeEE7MTMxdlYzWHpUMjhzZnpxdi9RVFVQeThXNWdndlJmOEFvc2pGWkdEcTNDWGxJM3FMOEcvTHJVazF6SjJkYWg3cnlYK2FubUg4d3ZMZSYjeEE7dFhYa1JkQ3RkT25zWXBFc1lSRkVzTnRNdEdZRjIreEd0UGtNYkNzei93Q2NnUEozbnJVUHpTMHZYTkE4dnk2MVlRYVZIYlhJUURnUyYjeEE7WjdneVI4aWZoYmhJRFduZnYweWpQaEdTQmpkT1pvZFlkUGxHUUFIeVBjVjM1QStVUFBOaCthV3A2NXJ2bDZYUk5PbTBtUzF0ZzRIQSYjeEE7RVhGdXlSOGg5cHVDSGVuYkJndytGQVJ2aVBlblg2dzZqSnhrQ1BTaDNCNWpCK1dYNXIyc2x6R1BKOXpLeXp5eld0d2FLcHEzSlJLZyYjeEE7NUNVYmZDRy9tUHRUSnNPRStrditjZlBMK3RlWC93QXJ0TzB2V2JTU3gxQ0tXNWFTMmxBRHFIbmRsSnBYcURYSVNWNlBnVjJLc1UvTSYjeEE7MEtmTEJCWmtIMWlMZFZaajE4RktuRlhqRW9oRWNrVGwzQjVCbGFPVGlSOGYycXZoUWxaOHJhZUppd0QraVhCOUwwWHIxRzMydVZQaSYjeEE7OGE0cW1ZRUhvUnd4bDBBUUJVV09UaUFGYjdQeDRxOU84cnJUOHU5UVZHWno5WWZkbFpUMVQrWnEvamlsNTdxWGx5Tzl1VnVKNDNMeCYjeEE7Y2hRTnN3RE93RGZIMHFPMktGU2J5K0dsY0dOL2lja2ZGV25Oa0pBcTU4Y1ZXeTZMTUxoWjJqbXVKUklob3BTdFVMZ0g3YWRQYkZYcCYjeEE7ZjVWcE10cGZDVlNyVmgySnIrd2Y4cHNqMVpkR0RhejZIMXVUL1pmNzY4SHlURmkzbUh5NTlhdld2Yktiak94Q3pRc1l3R0FDcUNwQiYjeEE7b0R2aWxXMFBRWU5OamtsbWxNMTVLQ0hJS2NWVUIvaEZTYTlPdUtIb0hrSDB2OFR3Y2V2NzZuOTMvdm9meTc1R1hSa09yMWJDaDJLdSYjeEE7eFYyS3V4VjJLdXhWMkt1eFYyS3ZQZFcvTkhYTFB6aHFubHUyOG8zOTZkT3RwTHlLK2oyZ25pVzJXU1BnM0Z2aWVmbEZRVk8xUlUvQyYjeEE7RFNxTmwrY2JOSk4ra2ZMMTVaUXhXZjF3T09janl1RVp6RERHMGNSWnZnTkswMm9TQldtTkt5THlENTRoODQ2VmNhakRwMTVwcVEzTSYjeEE7bHVrZDdHWTJrUkQrN2xVSHM2RUVnN3FkdDlpVWhWMzVpZWE3enlwNVV1ZGV0ZE9rMVA2bkpDMXpiUTd1TGRwbFdlUUFkMGlMSDhUdCYjeEE7WEVLdC9MbnpkZWViZktzR3ZYT25TYVlMdVdjMnR2TUNIYTJFckNDUWcveng4VDRIcU5xWWtLcCtZL051bzZYcVVsbERaZXF6d285ayYjeEE7Q3JuMTVDeDVJakw4Sk8xQ0RUalZUdnlWY0NzcXhWMkt1eFZpSDVwZ0h5c2FsUVByRVAyaUIzUFRrR0dLdkhURkZ2Vm90cTBISlA4QSYjeEE7TC80cjN3b1ZHU0wxRDhjUFVmdFIrS2Y4VjRxcHZGRnhGR2kzUVZIS1ArVnYrSyt1S3ZTUEthci9BTXE0MUVWU24xaCtoV2czajZrTCYjeEE7VDhNVXNXZFkvaitLUDlyOXBQOEFpei9JeFF2ZFkvV1B4Ui9hSDdTZU1mOEFrWXE1Rmo5WWZGSDlvL3RKNHlmNUdLczMvTEFLSWRRbyYjeEE7Vk84SDJTRCt3ZkFMa2VyTG93clZJMmU1azJiYXZlWHdmL0p5VEZRZTNiMWpzMzJoM2w4WS9iRlZqMjdmSHMzN1hlWC9BSXM5c1ZaTCYjeEE7NUhRcDVvZ1VnLzd1TlNaUDk5RCtZQVpHWFJrT3IxTENoMkt1eFYyS3V4VjJLdXhWMkt1eFZJdlBIbkhUUEp2bGU5OHlhcEZOTlkySCYjeEE7cGV0SGJLalNuMXBraFhpSGFOZnRTQ3RXNllnSzhwLzZIQi9MV2xmMFhyZE90ZlF0YWRhZjh0V1M0VmEvNkhEL0FDei9BT3JaclgvSSYjeEE7aTAvN0tzZUZVWHBIL09XUDVkYXBxdGxwbHZwMnJyUGZUeFcwTFNRMm9RUE00UlN4Rnl4cFZ0NkRIaFZrWDVqZm50NVQ4ZzY5Qm9tciYjeEE7V09vM1Y1UGFDK1ZyR0tHUkJFWGtRMU1rMFRWSG9zVHRTbmZBQmF1L0xuODl2S2ZuN1hwOUUwbXgxRzF2SUxRM3pOZlJReG9ZZzhhQyYjeEE7aGptbGFwOVpTTnFVNzRrVXIwVjBEcUFTUlFodmhKQitFZzl1MjIrQlYyS3V4VjJLb1hVMHNIdHVOOUVzMEhJZkE2aGh5N0doeFZLUCYjeEE7cW5sQTEvM0hRZEtuOTBuK2Y3V0t0L1ZQS0pOZjBmQld2KytrOGFmd3hWcjZuNVFwL3dBYzZDbEtmM1NkS2YwT0tveU45RGdzakRGYiYjeEE7b2xwSzdjb1ZSUXBZRVZKSFR3eFZEbVB5dDNzb2R4WCs2VHZYKzNGWEdQeXhXcHNvYWs5ZlRUc1FQNERGWGNQSzQzK3BSVjYxOU5QYyYjeEE7L3dCY1ZSY0V1ajJDQTI4S3dMTUFUNmFxdGFmQ0swOE1WUUQydmxGeVdhd2dKUFVtSk45aWY0NHE0MmZsR3RUcDhGU2Y5OUo0Z2Z3eCYjeEE7Vm8yZmsvdnA4RzRyL2RKM3IvYmlxS1MzOHUyRnhIUEZaeFF6bFBVU1JJMURCV0ZPbzhRTVZSWDZac3ZFL2NQR25qaXJ2MDFZMHJVLyYjeEE7Y1BDdmppcnYwelkrSis0ZU5QSEZWU2ZVcldCd2prMUlEQ25nY1ZVdjAxWTByVS9jUEN2amlyZjZac2ZFL2NQR25qaXJ2MDFZK0o2ViYjeEE7NkQrdUtvN0ZYWXE4Ky9QN1I5VjFuOHBOZTAzU2JTVysxQ2Y2cDZOckFwZVIrRjdDN2NWRzVvcWs0UnpWOCthVi93QXJqMDN5anBXZyYjeEE7US9seXp6NlhjeHlwcXIyRG00bHQ0YmxydExkenhyeDlaMk5RZm81Vll5MlZkZVFmbVhmaTNqdmZ5d25rZ3Q3MFhwaFMya0FsbzZ0NiYjeEE7VXhlT1JwRVBFMXFkeVNjVlVManl0K1lPdmZtSDVhMVlmbDlQNWVzN0M0c1lwVXRiYVZZeEZiekxSNUdLajdFYTBxZDZEclNnQ3IwaiYjeEE7ODVMUHp2WWZuVm92bW5Rdks4M21UVDdYUnhaM2tBZ2FXR1JacGJwSm9Td1ZncmVuTDRIcnVDTnNBNUt2L0o2Mjg3YWorZE9zZVo5YiYjeEE7OHJUZVd0Tm0wWTJOakEwRFJReHBETmJMREVHS29HYjA0ejBBMkd3QUdKNUs5K3lLdXhWMkt1eFZBNnovQUx4ai9YWHg4ZmJGV0tOZCYjeEE7ekFzQjBBSS9hOEI3WXE0WGsyL3pIODM4eDlzVmErdVRjUDhBcnIrWDVZcW1zcElzVU5EdEpKM2IvSjlzVlNvM2sxQi9xaitid1B0aSYjeEE7clp2SnR2bWY1djVoN1lxMmwxS3pJcDZFQUg3WGdmYkZVMXYySzIwTEFHb2pxTjIvblB0Z0NTbEgxeWJoL3dCZGZ5L0xDaHMzazIzeiYjeEE7UDgzOHc5c1ZYUTNNcnVxdDBLLzVYOHJlMktwbnJEc2dpWURjV3llUGljUXBTb1hrMi96SDgzOHg5c1ZhK3VUY1ArdXY1ZmxpcXJCYyYjeEE7U3ZLRmJwdi9BRGZ6RDJ4Vk05Y2Rra1ZsRzRSS2RmRVloU2svMXliaC93QmRmeS9MRld6ZVRiZk0vd0EzOHc5c1ZWSUxpUjI0c051SCYjeEE7K1Y0SDJ4Vm11S3V4VlF2YjIzc3JWN200SldHT25JZ0VuNGlGR3c5emlxVHA1NDh2T3hWWm5xQUNmM2JkeVI0ZjVPS3J4NTAwSGY4QSYjeEE7ZXZ0L2tOL1RGVnIrZC9MNmZhbWYva1czZ1Q0ZTJLcG5wdXEyV3BSUEphc1dSRzRzU0N1OUs5OFZSZUt1eFYyS3V4VjJLb0RXaUJaYiYjeEE7MCsydlg1KzlNVllmeVQxVFhqMVBoN2UrS3NJdmI3em1tcTNXbFF4eGxacnoxNFp1QjVoQktHUlVibHg5TDRkL2F0YzFFOVJsRXpqQSYjeEE7M0oyOTM2bnE4T20wWnhSeWs4b1VSdHpyZS82WDRETjVtakRzQnhBcjAyL2wrZWJkNVJONW5YNmduMlNQVWs4UDhuM3hWSjRtRE1BbyYjeEE7VGtWUEhrRklyeGFsZml4S1JWN3NSOHZONXhmV2JPenYxWDZyWU8vMWgyVmVUaGdSKzhibFJ0ejhGUG4welY2ZkxtbE1SSStubitPciYjeEE7MG11eDZPT0tVNGZWT3EvWjNlZnlaZEhJdnFwc3ZiK1h3UDhBbFp0SG1rNjFGMCtwdzE0N3g5NmZ6bjN3QkpZbHJ2bWpTdkx0Z3Q5cSYjeEE7RWJ5d3ZLa0NyQkdKRzV5RFlrY2dBTnU1OWhVa0RKSVk3cFA1amVUYlNmOEEwblU1cDU5U25NVnRhVFFneVEwZFRSbGpMY2ZpdUZHKyYjeEE7L2dLRGFqRGhuRWt5bHhYeThuTzFlcWhsakVSZ0ljSTNycnkvVXppMmRQV1Q3UDJmYitWdmZMbkJUYlhIVUpIc043WlBEeFBpY1FwWSYjeEE7anIvbS9TUExWcXQ1cVVNMDBVcittb3Q0aE1RUUdjay9FQUJSRDMvQ3BCQVZqZmxqOHhmS2dqdFlKOVZrdkx6Vnp3c3JlU0VlcEVFWSYjeEE7d3I2b2pMQ05tWmwrMGE3ZysrWStudzVJWHh5NG5ZYS9WWXNwSGg0eGpybjVrczl0SkY5WWJMMy9BSmY1aC9sWmU2OU52TURxR0ZRUCYjeEE7N3RPdFA1aDRuRUtVcHRERzNMa3FuYnVGUDdQenhWRGFUcFVtbTJjMGR4ZHRmT3pGa2tsQ1ZWVjRxb0h4SHN1LytaeW5EamxFZW84VCYjeEE7bDZ2VVF5eUJqQVE5eUp0SkY5VG92MlA4bndQK1ZsemlNOHhWMkt2T05OL01peTg2ZVc5WmEyMCs1c1dzRGJCMHVURVN3bWsySytrNyYjeEE7ai9kWjY1azZqU3l4VmZWSkZNYnRDZldrK0UvWlh3L25rOTh4MktJVmpWdmhQWDI4Qjc0cW8zUk5Qc25vZkQrUnZmRlhvUGtBMTArNSYjeEE7MnArOS93Q05SZ1N5akZYWXE3RlhZcTdGVUJyVmZxZTNYbXZqNCsyS3NLdklaSjRMaUVTUENaVWRCTkVXV1JPUzA1SWQ2TU9vd3F4ZSYjeEE7THlUcXNFRTBOdDVpdm8vV1JJM2tKWm1IR1JUVmR3cTFDY1RRZHpqYXNpMDIwdUxUVG9MYVc1a3ZKSVVDTmN6Vk1qMFhxMUtZcXlPWSYjeEE7TWJCUCtNa244MytUZ1ZpdXU2VEpxdWxUV0MzYzlpWmxVZldyVjJTVmFHdndzUWFkTUtzYS93Q1ZlYXVsakZaUWVhTlFoaVNaWmk2bCYjeEE7dlVZb2ZzczNMN0lhaFVBQ2xNTnF6YUJYRHhnc1dJQXF4TFZPeDMyb01pcWRhankrcHcwLzMzdjlyK2M0QWtwTkZKSkg4UUZkcWI4diYjeEE7NWNLRlpyeVlpbkViMS9uL0FKaGlxbmJjL1dUL0FGZjhyK1ZzVlRiWEF4U1AvbUdUK2J4UGhpRktVUXlTUnN4RzlhRGN2L05pcTlycSYjeEE7Vm9pcEd4Rk9yL3kvUEZYV2l0Nnc2OSs3L3dBd3hWTnZNQVBJVS8zMm5kdjVoNFloU3d2ekY1ZWsxbTJnaUdvWFZnSVhMazJzanB6QiYjeEE7aUs4WDhSdmhWTExIeVhyVnRQcHpQNWx2cExld2xNZ3R4VUxMV1YzWVNsaTVibDZ4VW53cDNGY2JWbUZvcmVwMyt4NHY0SEFyUE1WZCYjeEE7aXJ6L0FQd0RvbmsveXhxNDA2V2VYNjZiY3pOY3VwSTlLVWNRREdpVSsyY3lkUnFwWnE0cTJTUzgxdk5kV3d1Z3Bqa2w5WWNVOUptYiYjeEE7NGc3VVU3ZCtXWTdGRUhXK01ySTZ1djd3b1dMc0FLZnRFbnRRWXBXTnJNTTF6SmJvekV4aHF1V2JpYUJnYUhGWHJQNWRNcmFkZFVOZiYjeEE7M3c2TVcvWkhqZ1ZsbUt1eFYyS3V4VjJLb1RWSVpaclhoR3ZOdVNtbTNRZk1qRlVsL1E5MVExdFZyUTlrNjBIdmlydjBQYzcvQU9pciYjeEE7MUg3S2Z6RStPS3Rmb2U1NDArcXJYNUovTFR4eFZFdHA5MmJWRTlHckNSeVYrSG9lUHY3WXFoam85elFmNkt2UURvbmdmZkZXL3dCRCYjeEE7M08zK2lyMVA3S2Z6QStPS3UvUkYwS1V0UUNBT3k5YUgzeFZGWE5oZFBGQ29oNWNWb3dvdTN4RStPQUpLRS9ROXp4cDlWV3Z5VCtXbiYjeEE7amhRMytoN25iL1JWNm45bFA1Z2ZIRlhmb2k2RkNMWUFnVXFBdmdmZkZVVmYyRnpLMFhHSG1CQXFOWGo5b1YyM09JVW9YOUQzTy84QSYjeEE7b3E5Uit5bjh4UGppclg2SHVlTlBxcTErU2Z5MDhjVlhEU2JvRUZiWUExTzRDL3pBL3dBMktvdlVyQzVtbVFyRHpVSW9OUXZVRWVKeCYjeEE7Q2xCZm9lNTQwK3FyWDVKL0xUeHhWdjhBUTl6dC9vcTlUK3luOHdQamlyaHBOMktjYllBMHBzRjhEL2xZcXlYRlhZcWszbkQvQUpSeSYjeEE7NzM0LzNlKzMrL1Y4Y1ZlVFcwRWJUeUV5dFhpUDVmNTM5c0tFUUxhS3Jmdlc2K0srQTlzVlFsN3A5dTdySTAwbFZWZ0ZEMFUxVmp1byYjeEE7MlBURlhwZjVmZjhBSFB1Zmo1L3Z1cHAvS1BBREFsbFdLdXhWMkt1eFYyS3V4VjJLc0hsL052eTVINnNiQnZyY1Y3OVYrclViazBJayYjeEE7Q0c0QjQwNDhLdHgrak1BOW9ZL3RyOXIwRWZaek9hUDhKaHhYNTE5UFB2MnRuR1o3ejdzVldUelJ3UVNUU0drY1NsM0lGZGxGVHNNQiYjeEE7TkMyVUltUkFITXNRMEw4MGREMW0vd0JOMCsyamsrdTNvZjZ6Q1ZmL0FFWmtRc0ZaaWdWK1ZEUXFmbm1IaTE4Sm1JSE9UdTlYMkJtdyYjeEE7UW5PVmNNS283ZXF6Nzl2aXpMTTEwVHNWZGlxWGFUNWcwalYzblRUN2dUdGJFQ2NBRWNTeFlBR28vd0FnNVZqelFuZkNicHl0VG9zdSYjeEE7RUE1Qnc4WEw4ZkZNY3RjVjJLdUpBRlRzQjFPS3Bib3ZtTFI5YWprazB5NEZ3c1hIMUtBamlYWGtBYTkvSEtzV2FHVDZUYmxhclJaYyYjeEE7QkF5UjRiL1FtV1d1SzdGWFlxN0ZYWXE3RlhZcWxubVcxdUxyUmJtQzNReVRQdzRvS1ZOSkZKNit3eFY1OWJlVlBNS3l1V3NuQUtnRCYjeEE7ZGY1M1BqNzRVSzQ4cjY5VnY5RGZyNHI0ZlBGVks0OHErWUdIdzJUblk5MS9sWWVQdmlyTS9KMm4zdGpaVHBkUkdKMms1S0RUY2NRTyYjeEE7MkJLZjRxN0ZYWXE3RlhZcTdGVVBxVnhjMjJuM054YTJ6WGx6REU3d1dxc3F0SzZxU3FCbW9CeU8xVGlyeWlPTzhlOGwxeSs4ajNpNiYjeEE7aTVpbmdzSW5NaXZMSkpSbWxvbkJQVEo1TXZxRU5TdE8yWVI3T3hISjRuWHU2WDN1MWoyMXFCaDhJSDAxWG5YNCtMMVBScjI1dnRLdCYjeEE7THk2dEpMQzR1SWtrbXM1YWM0bllWS05Ud1A4QW1NelhWSXpGVXI4emFscW1tNlBMZDZYcGI2eGVLMGFwWVJ1a2JPSGNLeDVPUXZ3cSYjeEE7U2Y3TjhWZWNhTHFXb2FYeTFWZnkvdlk5WWU0ZU5MU0JnNlF3QkVKbFYzVkVCbHE0Q0FualNsUXB6RnhhSEZqbVp4RzUrejNPdzFIYSYjeEE7bWZOakdPY3JqOS92L0h2M2V0ZzFBSkZDZXg3ZmRtVTY5MktwSDV3cy9OdDNwaVIrVjcrRFRyOFNxMGsxeEg2aXRGeElLajRYb2FrSCYjeEE7N1AzZGNRcVFhZm92NXAyVFdhUjNlamNST1pOV3VQUmRaTGtOSXRTRWlqaVZUNmZNOWE4cWZGU3VDTUl4dWhWczU1WlNyaUpOZDdPOCYjeEE7TEIyS3BGNXNzdk45M2JRSjVhMUMzMCtaV2MzRDNFZnFjbE1iQkF1elUvZVVydDcxMjRzUXJHdEg4djhBNXA2ZGRhUkREUG9rT21STyYjeEE7c212R0tPUVQzVE16K3A2WVdLT09OUWpyd0hXcTllTlZ5dkhpaEFIaEZOMmJVWk1wdWNqS3U5NkZrMmwyS3V4VjJLdXhWUitzSCtYSyYjeEE7dkZiT0J2MXp4QnAxSkdQaUx3S2lOeVVOMHJsa1RZWUVVVzhLSFlxN0ZYWXE3RlhZcTdGWFlxN0ZYWXE3RlhZcTdGVVBkM3NkdHc1cSYjeEE7emM2MDQwN1U4U1BIRlVQK203YWxmVGs2VjZMOC93Q2IyeFYzNmF0djk5eWZjdmpUK2JGWGZwdTJwWDA1T2xlaS9QOEFtOXNWUnNNcSYjeEE7eXhMSW9JRGRBZXY0WXF2eFYyS3V4VjJLdXhWMkt1eFYyS3V4VjJLdXhWM0ZmQVlLVzNVSGhqUzI3Q3JzVmRpcnNWZGlyc1ZkaXJzViYjeEE7ZGlyc1ZkaXJzVmRpcnNWU256QjlpRTdDbktsYWVLK0lPS3NZTnpOUWZHdjJSL0w0SC9KeFZkOVptMitOZXAvbC9tSCtUaXJjYzhyTyYjeEE7Z0xyUWdWK3o0SC9KeFZtV25mN3hSZkk5UG1jQVNVUmhRN0ZYWXE3RlhZcTdGWFlxN0ZYWXE3RlhZcTdGWFlxN0ZYWXE3RlhZcTdGWCYjeEE7WXE3RlhZcTdGWFlxN0ZYWXE3RlhZcWxIbUd2Q0tsZjJ1bGY4bndJeFZpeXlNbEdBSmJqUlFRYUZpcENqcjQ1S0lzcXhyUlpmT3cxTyYjeEE7MWkxSktXVmlaVGN5MGJsSXJkNUR5bzNFbjRlT2FqU1pzODhvaElVQmRuN3Z3SHFlMGNYWjhjRXA0amM1OFBDTzczYldOdWRzbmpKOSYjeEE7Vk5tN2RqNEgzemF2TE0yMDcvZUtMNUhyOHpnQ1NpTUtIWXE3RlhZcTdGWFlxN0ZYWXE3RlhZcTdGWFlxN0ZYWXE3RlhZcTdGWFlxNyYjeEE7RlhZcTdGWFlxN0ZYWXE3RlhZcTdGVW44eEtDa05hZnRkYWY1UGlEaXJCTmQwSzExalRtc2JpWjRvSDRzN1FNRWY0ZHdPWEU3YmJpbSYjeEE7U0JwV08vOEFLcTlOVFQ0OVBnMXZWYmEwU1gxdUVOekVwTWlrZ0ZtOUhrZHp5QXJRRUFpbU5xeksxZ0Nla2hjTVZDamtlTlRRSHJ0MSYjeEE7d0VxenJUUUJZeEFlQjZmTStGTWlFbEU0VU94VjJLdXhWMkt1eFYyS3V4VjJLdXhWMkt1eFYyS3V4VjJLdUpvQ2V0T3d4VkJoREtPWCYjeEE7N3N1RkRNemdtdFJYNFRVY1Y5OFZjSm1BQXF3aklQRUg0cERUc25Xby93QW8vd0MwcTJJZ0NqMFQ5NGFLeWZiRmR3ZVpQeGROOXNWUiYjeEE7RUxsNFVjOVdVRTA5eFhGVitLdXhWMkt1eFYyS3V4VjJLb0RWYlNlNEVYcEN2R3ZMZW5VajNIaGlxV25SYnlnK0JlbE9vOEQ3NHEzKyYjeEE7aGJ6YjRGNm52NzE4Y1ZhL1F0N1FVUVZwNCt4OThWVHV6aWVLMlNOL3RLTi92d0JTcllWZGlyc1ZkaXJzVmRpcnNWZGlyc1ZkaXJzViYjeEE7ZGlyc1ZkaXJzVmRpcWcxcldnSEFxdjJBNmNpdnlOUmlxLzZ1bEtra3lmNzgvYStpbjZzVldMYkVPV3FnSisweXB4YzEvd0FxdmY1WSYjeEE7cXJxQW9DZ1VBMkE5c1ZkaXJzVmRpcnNWZGlyc1ZZMTV1ODdXM2xxNHNCZHhNOXJkdklKcFVVczBheG9DRHhCRmF1eWo1VnpHMUdxaiYjeEE7aUk0dXJ0T3pleTU2c1Q0RDZvMThiUDZyUlBsRHpNdm1MVFh2a2hNS0NlV0pWWVVKVkdIQnY5a2pDdnZrdFBuR1dQRU85cTdSMEIwdSYjeEE7UVFKdjBnL3IrMU9aWkJHaFk3S0FTeG9Uc0JYb012Y0VDMkk2RCtabWo2MXFOaHAxc3JpN3UxbE04Yks0OUJvaHlWV1lnSzNOUVNPSiYjeEE7ekN4YTdIa0lBNWwzV3M3Q3pZSVNuS3VHTmZHL2owWmdwcW9QaU16WFNONHE3RlhZcTdGWFlxN0ZYWXE3RlhZcTdGWFlxN0ZYWXE3RiYjeEE7WFlxN0ZYWXE3RlhZcTdGWFlxN0ZYWXE3RlhZcTdGWFlxd0x6ai9qSzd2cnUwZzh0VytwNlZGNkwyazd5cXNyT3dJZGtxOGZBb2FiRyYjeEE7Z3ArMGVWRnF6YWVHV1BETVdISTAycXlZWmNVRFJUTHlsZCtZanFOellYWGxrYUhvbHJHUnA4d3VJWldrSWxkZmlTTXRRc2lySlUveiYjeEE7VU5Udms0WTR3aUl4MkFhOHVhV1NSbE0zSXBwNXFtOHlRNlBKSjVjdElMM1ZRNmVsQmRTR0tJcVdBY3N3OEZyL0FHOURJTmJ6MkZQeiYjeEE7STBqbGRhZDVEczU5WWx1d0huanVvSUxlTzBZUnRJeUs4OGorb3plb0tBQUw4UDJoVVpSaTBlS0VqS0lvbjhmQnpjL2FHZkxBUW5JbSYjeEE7SS9HL2U5WWpyd1hrS0dncVBmTDNDYnhWMkt1eFYyS3V4VjJLdXhWMkt1eFYyS3V4VjJLdi85az08L3htcEdJbWc6aW1hZ2U+CiAgICAgICAgICAgICAgIDwvcmRmOmxpPgogICAgICAgICAgICA8L3JkZjpBbHQ+CiAgICAgICAgIDwveG1wOlRodW1ibmFpbHM+CiAgICAgICAgIDxpbGx1c3RyYXRvcjpDcmVhdG9yU3ViVG9vbD5BZG9iZSBJbGx1c3RyYXRvcjwvaWxsdXN0cmF0b3I6Q3JlYXRvclN1YlRvb2w+CiAgICAgICAgIDxkYzpmb3JtYXQ+aW1hZ2UvanBlZzwvZGM6Zm9ybWF0PgogICAgICAgICA8ZGM6dGl0bGU+CiAgICAgICAgICAgIDxyZGY6QWx0PgogICAgICAgICAgICAgICA8cmRmOmxpIHhtbDpsYW5nPSJ4LWRlZmF1bHQiPmdpdGxhYi1sb2dvLXJnYjwvcmRmOmxpPgogICAgICAgICAgICA8L3JkZjpBbHQ+CiAgICAgICAgIDwvZGM6dGl0bGU+CiAgICAgICAgIDx4bXBNTTpSZW5kaXRpb25DbGFzcz5kZWZhdWx0PC94bXBNTTpSZW5kaXRpb25DbGFzcz4KICAgICAgICAgPHhtcE1NOkluc3RhbmNlSUQ+eG1wLmlpZDplYzA5ZGY2NS01NGZiLTQ1NzgtYWFiYy1iZDUxYWUyNWYwODc8L3htcE1NOkluc3RhbmNlSUQ+CiAgICAgICAgIDx4bXBNTTpEb2N1bWVudElEPnhtcC5kaWQ6ZWMwOWRmNjUtNTRmYi00NTc4LWFhYmMtYmQ1MWFlMjVmMDg3PC94bXBNTTpEb2N1bWVudElEPgogICAgICAgICA8eG1wTU06T3JpZ2luYWxEb2N1bWVudElEPnV1aWQ6ZDk4NDRhMWItY2M5Mi03NTRkLTkzNWQtMzk1OGM3YTMwZTc5PC94bXBNTTpPcmlnaW5hbERvY3VtZW50SUQ+CiAgICAgICAgIDx4bXBNTTpEZXJpdmVkRnJvbSByZGY6cGFyc2VUeXBlPSJSZXNvdXJjZSI+CiAgICAgICAgICAgIDxzdFJlZjppbnN0YW5jZUlEPnhtcC5paWQ6NzhkZmIxNjgtMjVjOC00YjJiLTliNWItNDg5ODk5MTk3MjdmPC9zdFJlZjppbnN0YW5jZUlEPgogICAgICAgICAgICA8c3RSZWY6ZG9jdW1lbnRJRD54bXAuZGlkOjc4ZGZiMTY4LTI1YzgtNGIyYi05YjViLTQ4OTg5OTE5NzI3Zjwvc3RSZWY6ZG9jdW1lbnRJRD4KICAgICAgICAgICAgPHN0UmVmOm9yaWdpbmFsRG9jdW1lbnRJRD51dWlkOmQ5ODQ0YTFiLWNjOTItNzU0ZC05MzVkLTM5NThjN2EzMGU3OTwvc3RSZWY6b3JpZ2luYWxEb2N1bWVudElEPgogICAgICAgICAgICA8c3RSZWY6cmVuZGl0aW9uQ2xhc3M+ZGVmYXVsdDwvc3RSZWY6cmVuZGl0aW9uQ2xhc3M+CiAgICAgICAgIDwveG1wTU06RGVyaXZlZEZyb20+CiAgICAgICAgIDx4bXBNTTpIaXN0b3J5PgogICAgICAgICAgICA8cmRmOlNlcT4KICAgICAgICAgICAgICAgPHJkZjpsaSByZGY6cGFyc2VUeXBlPSJSZXNvdXJjZSI+CiAgICAgICAgICAgICAgICAgIDxzdEV2dDphY3Rpb24+c2F2ZWQ8L3N0RXZ0OmFjdGlvbj4KICAgICAgICAgICAgICAgICAgPHN0RXZ0Omluc3RhbmNlSUQ+eG1wLmlpZDplOGZkNTI5Yy03ODRmLTRhMzItYTVkMS03YzZhYTBjN2YwODM8L3N0RXZ0Omluc3RhbmNlSUQ+CiAgICAgICAgICAgICAgICAgIDxzdEV2dDp3aGVuPjIwMjItMDEtMTRUMTE6NTU6NTAtMDU6MDA8L3N0RXZ0OndoZW4+CiAgICAgICAgICAgICAgICAgIDxzdEV2dDpzb2Z0d2FyZUFnZW50PkFkb2JlIElsbHVzdHJhdG9yIDI2LjAgKE1hY2ludG9zaCk8L3N0RXZ0OnNvZnR3YXJlQWdlbnQ+CiAgICAgICAgICAgICAgICAgIDxzdEV2dDpjaGFuZ2VkPi88L3N0RXZ0OmNoYW5nZWQ+CiAgICAgICAgICAgICAgIDwvcmRmOmxpPgogICAgICAgICAgICAgICA8cmRmOmxpIHJkZjpwYXJzZVR5cGU9IlJlc291cmNlIj4KICAgICAgICAgICAgICAgICAgPHN0RXZ0OmFjdGlvbj5zYXZlZDwvc3RFdnQ6YWN0aW9uPgogICAgICAgICAgICAgICAgICA8c3RFdnQ6aW5zdGFuY2VJRD54bXAuaWlkOmVjMDlkZjY1LTU0ZmItNDU3OC1hYWJjLWJkNTFhZTI1ZjA4Nzwvc3RFdnQ6aW5zdGFuY2VJRD4KICAgICAgICAgICAgICAgICAgPHN0RXZ0OndoZW4+MjAyMi0wNC0wNVQwOTo1NTo0Ny0wNDowMDwvc3RFdnQ6d2hlbj4KICAgICAgICAgICAgICAgICAgPHN0RXZ0OnNvZnR3YXJlQWdlbnQ+QWRvYmUgSWxsdXN0cmF0b3IgMjYuMCAoTWFjaW50b3NoKTwvc3RFdnQ6c29mdHdhcmVBZ2VudD4KICAgICAgICAgICAgICAgICAgPHN0RXZ0OmNoYW5nZWQ+Lzwvc3RFdnQ6Y2hhbmdlZD4KICAgICAgICAgICAgICAgPC9yZGY6bGk+CiAgICAgICAgICAgIDwvcmRmOlNlcT4KICAgICAgICAgPC94bXBNTTpIaXN0b3J5PgogICAgICAgICA8cGRmOlByb2R1Y2VyPkFkb2JlIFBERiBsaWJyYXJ5IDE2LjAzPC9wZGY6UHJvZHVjZXI+CiAgICAgIDwvcmRmOkRlc2NyaXB0aW9uPgogICA8L3JkZjpSREY+CjwveDp4bXBtZXRhPgogICAgICAgICAgICAgICAgICAgICAgICAgICAgICAgICAgICAgICAgICAgICAgICAgICAgICAgICAgICAgICAgICAgICAgICAgICAgICAgICAgICAgICAgICAgICAgICAgICAgCiAgICAgICAgICAgICAgICAgICAgICAgICAgICAgICAgICAgICAgICAgICAgICAgICAgICAgICAgICAgICAgICAgICAgICAgICAgICAgICAgICAgICAgICAgICAgICAgICAgICAKICAgICAgICAgICAgICAgICAgICAgICAgICAgICAgICAgICAgICAgICAgICAgICAgICAgICAgICAgICAgICAgICAgICAgICAgICAgICAgICAgICAgICAgICAgICAgICAgICAgIAogICAgICAgICAgICAgICAgICAgICAgICAgICAgICAgICAgICAgICAgICAgICAgICAgICAgICAgICAgICAgICAgICAgICAgICAgICAgICAgICAgICAgICAgICAgICAgICAgICAgCiAgICAgICAgICAgICAgICAgICAgICAgICAgICAgICAgICAgICAgICAgICAgICAgICAgICAgICAgICAgICAgICAgICAgICAgICAgICAgICAgICAgICAgICAgICAgICAgICAgICAKICAgICAgICAgICAgICAgICAgICAgICAgICAgICAgICAgICAgICAgICAgICAgICAgICAgICAgICAgICAgICAgICAgICAgICAgICAgICAgICAgICAgICAgICAgICAgICAgICAgIAogICAgICAgICAgICAgICAgICAgICAgICAgICAgICAgICAgICAgICAgICAgICAgICAgICAgICAgICAgICAgICAgICAgICAgICAgICAgICAgICAgICAgICAgICAgICAgICAgICAgCiAgICAgICAgICAgICAgICAgICAgICAgICAgICAgICAgICAgICAgICAgICAgICAgICAgICAgICAgICAgICAgICAgICAgICAgICAgICAgICAgICAgICAgICAgICAgICAgICAgICAKICAgICAgICAgICAgICAgICAgICAgICAgICAgICAgICAgICAgICAgICAgICAgICAgICAgICAgICAgICAgICAgICAgICAgICAgICAgICAgICAgICAgICAgICAgICAgICAgICAgIAogICAgICAgICAgICAgICAgICAgICAgICAgICAgICAgICAgICAgICAgICAgICAgICAgICAgICAgICAgICAgICAgICAgICAgICAgICAgICAgICAgICAgICAgICAgICAgICAgICAgCiAgICAgICAgICAgICAgICAgICAgICAgICAgICAgICAgICAgICAgICAgICAgICAgICAgICAgICAgICAgICAgICAgICAgICAgICAgICAgICAgICAgICAgICAgICAgICAgICAgICAKICAgICAgICAgICAgICAgICAgICAgICAgICAgICAgICAgICAgICAgICAgICAgICAgICAgICAgICAgICAgICAgICAgICAgICAgICAgICAgICAgICAgICAgICAgICAgICAgICAgIAogICAgICAgICAgICAgICAgICAgICAgICAgICAgICAgICAgICAgICAgICAgICAgICAgICAgICAgICAgICAgICAgICAgICAgICAgICAgICAgICAgICAgICAgICAgICAgICAgICAgCiAgICAgICAgICAgICAgICAgICAgICAgICAgICAgICAgICAgICAgICAgICAgICAgICAgICAgICAgICAgICAgICAgICAgICAgICAgICAgICAgICAgICAgICAgICAgICAgICAgICAKICAgICAgICAgICAgICAgICAgICAgICAgICAgICAgICAgICAgICAgICAgICAgICAgICAgICAgICAgICAgICAgICAgICAgICAgICAgICAgICAgICAgICAgICAgICAgICAgICAgIAogICAgICAgICAgICAgICAgICAgICAgICAgICAgICAgICAgICAgICAgICAgICAgICAgICAgICAgICAgICAgICAgICAgICAgICAgICAgICAgICAgICAgICAgICAgICAgICAgICAgCiAgICAgICAgICAgICAgICAgICAgICAgICAgICAgICAgICAgICAgICAgICAgICAgICAgICAgICAgICAgICAgICAgICAgICAgICAgICAgICAgICAgICAgICAgICAgICAgICAgICAKICAgICAgICAgICAgICAgICAgICAgICAgICAgICAgICAgICAgICAgICAgICAgICAgICAgICAgICAgICAgICAgICAgICAgICAgICAgICAgICAgICAgICAgICAgICAgICAgICAgIAogICAgICAgICAgICAgICAgICAgICAgICAgICAgICAgICAgICAgICAgICAgICAgICAgICAgICAgICAgICAgICAgICAgICAgICAgICAgICAgICAgICAgICAgICAgICAgICAgICAgCiAgICAgICAgICAgICAgICAgICAgICAgICAgICAgICAgICAgICAgICAgICAgICAgICAgICAgICAgICAgICAgICAgICAgICAgICAgICAgICAgICAgICAgICAgICAgICAgICAgICAKICAgICAgICAgICAgICAgICAgICAgICAgICAgCjw/eHBhY2tldCBlbmQ9InciPz7/4gxYSUNDX1BST0ZJTEUAAQEAAAxITGlubwIQAABtbnRyUkdCIFhZWiAHzgACAAkABgAxAABhY3NwTVNGVAAAAABJRUMgc1JHQgAAAAAAAAAAAAAAAAAA9tYAAQAAAADTLUhQICAAAAAAAAAAAAAAAAAAAAAAAAAAAAAAAAAAAAAAAAAAAAAAAAAAAAAAAAAAAAAAABFjcHJ0AAABUAAAADNkZXNjAAABhAAAAGx3dHB0AAAB8AAAABRia3B0AAACBAAAABRyWFlaAAACGAAAABRnWFlaAAACLAAAABRiWFlaAAACQAAAABRkbW5kAAACVAAAAHBkbWRkAAACxAAAAIh2dWVkAAADTAAAAIZ2aWV3AAAD1AAAACRsdW1pAAAD+AAAABRtZWFzAAAEDAAAACR0ZWNoAAAEMAAAAAxyVFJDAAAEPAAACAxnVFJDAAAEPAAACAxiVFJDAAAEPAAACAx0ZXh0AAAAAENvcHlyaWdodCAoYykgMTk5OCBIZXdsZXR0LVBhY2thcmQgQ29tcGFueQAAZGVzYwAAAAAAAAASc1JHQiBJRUM2MTk2Ni0yLjEAAAAAAAAAAAAAABJzUkdCIElFQzYxOTY2LTIuMQAAAAAAAAAAAAAAAAAAAAAAAAAAAAAAAAAAAAAAAAAAAAAAAAAAAAAAAAAAAAAAAAAAWFlaIAAAAAAAAPNRAAEAAAABFsxYWVogAAAAAAAAAAAAAAAAAAAAAFhZWiAAAAAAAABvogAAOPUAAAOQWFlaIAAAAAAAAGKZAAC3hQAAGNpYWVogAAAAAAAAJKAAAA+EAAC2z2Rlc2MAAAAAAAAAFklFQyBodHRwOi8vd3d3LmllYy5jaAAAAAAAAAAAAAAAFklFQyBodHRwOi8vd3d3LmllYy5jaAAAAAAAAAAAAAAAAAAAAAAAAAAAAAAAAAAAAAAAAAAAAAAAAAAAAAAAAAAAAABkZXNjAAAAAAAAAC5JRUMgNjE5NjYtMi4xIERlZmF1bHQgUkdCIGNvbG91ciBzcGFjZSAtIHNSR0IAAAAAAAAAAAAAAC5JRUMgNjE5NjYtMi4xIERlZmF1bHQgUkdCIGNvbG91ciBzcGFjZSAtIHNSR0IAAAAAAAAAAAAAAAAAAAAAAAAAAAAAZGVzYwAAAAAAAAAsUmVmZXJlbmNlIFZpZXdpbmcgQ29uZGl0aW9uIGluIElFQzYxOTY2LTIuMQAAAAAAAAAAAAAALFJlZmVyZW5jZSBWaWV3aW5nIENvbmRpdGlvbiBpbiBJRUM2MTk2Ni0yLjEAAAAAAAAAAAAAAAAAAAAAAAAAAAAAAAAAAHZpZXcAAAAAABOk/gAUXy4AEM8UAAPtzAAEEwsAA1yeAAAAAVhZWiAAAAAAAEwJVgBQAAAAVx/nbWVhcwAAAAAAAAABAAAAAAAAAAAAAAAAAAAAAAAAAo8AAAACc2lnIAAAAABDUlQgY3VydgAAAAAAAAQAAAAABQAKAA8AFAAZAB4AIwAoAC0AMgA3ADsAQABFAEoATwBUAFkAXgBjAGgAbQByAHcAfACBAIYAiwCQAJUAmgCfAKQAqQCuALIAtwC8AMEAxgDLANAA1QDbAOAA5QDrAPAA9gD7AQEBBwENARMBGQEfASUBKwEyATgBPgFFAUwBUgFZAWABZwFuAXUBfAGDAYsBkgGaAaEBqQGxAbkBwQHJAdEB2QHhAekB8gH6AgMCDAIUAh0CJgIvAjgCQQJLAlQCXQJnAnECegKEAo4CmAKiAqwCtgLBAssC1QLgAusC9QMAAwsDFgMhAy0DOANDA08DWgNmA3IDfgOKA5YDogOuA7oDxwPTA+AD7AP5BAYEEwQgBC0EOwRIBFUEYwRxBH4EjASaBKgEtgTEBNME4QTwBP4FDQUcBSsFOgVJBVgFZwV3BYYFlgWmBbUFxQXVBeUF9gYGBhYGJwY3BkgGWQZqBnsGjAadBq8GwAbRBuMG9QcHBxkHKwc9B08HYQd0B4YHmQesB78H0gflB/gICwgfCDIIRghaCG4IggiWCKoIvgjSCOcI+wkQCSUJOglPCWQJeQmPCaQJugnPCeUJ+woRCicKPQpUCmoKgQqYCq4KxQrcCvMLCwsiCzkLUQtpC4ALmAuwC8gL4Qv5DBIMKgxDDFwMdQyODKcMwAzZDPMNDQ0mDUANWg10DY4NqQ3DDd4N+A4TDi4OSQ5kDn8Omw62DtIO7g8JDyUPQQ9eD3oPlg+zD88P7BAJECYQQxBhEH4QmxC5ENcQ9RETETERTxFtEYwRqhHJEegSBxImEkUSZBKEEqMSwxLjEwMTIxNDE2MTgxOkE8UT5RQGFCcUSRRqFIsUrRTOFPAVEhU0FVYVeBWbFb0V4BYDFiYWSRZsFo8WshbWFvoXHRdBF2UXiReuF9IX9xgbGEAYZRiKGK8Y1Rj6GSAZRRlrGZEZtxndGgQaKhpRGncanhrFGuwbFBs7G2MbihuyG9ocAhwqHFIcexyjHMwc9R0eHUcdcB2ZHcMd7B4WHkAeah6UHr4e6R8THz4faR+UH78f6iAVIEEgbCCYIMQg8CEcIUghdSGhIc4h+yInIlUigiKvIt0jCiM4I2YjlCPCI/AkHyRNJHwkqyTaJQklOCVoJZclxyX3JicmVyaHJrcm6CcYJ0kneierJ9woDSg/KHEooijUKQYpOClrKZ0p0CoCKjUqaCqbKs8rAis2K2krnSvRLAUsOSxuLKIs1y0MLUEtdi2rLeEuFi5MLoIuty7uLyQvWi+RL8cv/jA1MGwwpDDbMRIxSjGCMbox8jIqMmMymzLUMw0zRjN/M7gz8TQrNGU0njTYNRM1TTWHNcI1/TY3NnI2rjbpNyQ3YDecN9c4FDhQOIw4yDkFOUI5fzm8Ofk6Njp0OrI67zstO2s7qjvoPCc8ZTykPOM9Ij1hPaE94D4gPmA+oD7gPyE/YT+iP+JAI0BkQKZA50EpQWpBrEHuQjBCckK1QvdDOkN9Q8BEA0RHRIpEzkUSRVVFmkXeRiJGZ0arRvBHNUd7R8BIBUhLSJFI10kdSWNJqUnwSjdKfUrESwxLU0uaS+JMKkxyTLpNAk1KTZNN3E4lTm5Ot08AT0lPk0/dUCdQcVC7UQZRUFGbUeZSMVJ8UsdTE1NfU6pT9lRCVI9U21UoVXVVwlYPVlxWqVb3V0RXklfgWC9YfVjLWRpZaVm4WgdaVlqmWvVbRVuVW+VcNVyGXNZdJ114XcleGl5sXr1fD19hX7NgBWBXYKpg/GFPYaJh9WJJYpxi8GNDY5dj62RAZJRk6WU9ZZJl52Y9ZpJm6Gc9Z5Nn6Wg/aJZo7GlDaZpp8WpIap9q92tPa6dr/2xXbK9tCG1gbbluEm5rbsRvHm94b9FwK3CGcOBxOnGVcfByS3KmcwFzXXO4dBR0cHTMdSh1hXXhdj52m3b4d1Z3s3gReG54zHkqeYl553pGeqV7BHtje8J8IXyBfOF9QX2hfgF+Yn7CfyN/hH/lgEeAqIEKgWuBzYIwgpKC9INXg7qEHYSAhOOFR4Wrhg6GcobXhzuHn4gEiGmIzokziZmJ/opkisqLMIuWi/yMY4zKjTGNmI3/jmaOzo82j56QBpBukNaRP5GokhGSepLjk02TtpQglIqU9JVflcmWNJaflwqXdZfgmEyYuJkkmZCZ/JpomtWbQpuvnByciZz3nWSd0p5Anq6fHZ+Ln/qgaaDYoUehtqImopajBqN2o+akVqTHpTilqaYapoum/adup+CoUqjEqTepqaocqo+rAqt1q+msXKzQrUStuK4trqGvFq+LsACwdbDqsWCx1rJLssKzOLOutCW0nLUTtYq2AbZ5tvC3aLfguFm40blKucK6O7q1uy67p7whvJu9Fb2Pvgq+hL7/v3q/9cBwwOzBZ8Hjwl/C28NYw9TEUcTOxUvFyMZGxsPHQce/yD3IvMk6ybnKOMq3yzbLtsw1zLXNNc21zjbOts83z7jQOdC60TzRvtI/0sHTRNPG1EnUy9VO1dHWVdbY11zX4Nhk2OjZbNnx2nba+9uA3AXcit0Q3ZbeHN6i3ynfr+A24L3hROHM4lPi2+Nj4+vkc+T85YTmDeaW5x/nqegy6LzpRunQ6lvq5etw6/vshu0R7ZzuKO6070DvzPBY8OXxcvH/8ozzGfOn9DT0wvVQ9d72bfb794r4Gfio+Tj5x/pX+uf7d/wH/Jj9Kf26/kv+3P9t////7gAOQWRvYmUAZMAAAAAB/9sAhAABAQEBAQEBAQEBAQEBAQEBAQEBAQEBAQEBAQEBAQEBAQEBAQEBAQEBAQEBAgICAgICAgICAgIDAwMDAwMDAwMDAQEBAQEBAQIBAQICAgECAgMDAwMDAwMDAwMDAwMDAwMDAwMDAwMDAwMDAwMDAwMDAwMDAwMDAwMDAwMDAwMDAwP/wAARCAF8A94DAREAAhEBAxEB/8QA0wABAAIDAAMBAQEAAAAAAAAAAAoLBwgJBAUGAwIBAQEAAQQDAQEAAAAAAAAAAAAAAwECBQYECAkHChAAAQMEAQIDAgkFCgwHAQEAAAIDBAEFBgcIEQkSEwohFDEiFRZ2F7d4OdWWtjcaQTIjV5fXGDhYGVFhQjOTJFXWqOhZaXFSQ1O1VneYJREBAAIBAgIFBgoGBgkFAQEAAAECAxEEIQUxURIGB0FhcbEiE4GRocHRMnIUNAjhQlIjMxXwYqJTFwnx4mOT05TUFhmCkkNzJLNF/9oADAMBAAIRAxEAPwCfwAAAAAAAAAAAAAAAAAAAAAAAAAAAAAAAAAAAAAAAAAAAAAAAAAAAAAAAAAAAAAAAAAAAAAAAAAAAAAAAAAAAAAAAAAAAAAAAAAAAAAAAAAAAAAAAAAAAAAAAAAAAAAAAAAAAAAAAAAAAAAAAAAAAAAAAAAAAAAAAAAAAAAAAAAAAAAAAAAAAAAAAAAAAAAAAAAAAAAAAAAAAAAAAAAAAAAAAAAAAAAAAAAAAAAAAAAAAAAAAAAAAAAAAAAAAAAAAAAAAAAAAAAAAAAAAAAAAAAAAAAAAAAAAAAAAAAAAAAAAAAAAAAAAAAAAAAAAAAAAAAAAAAAAAAAAAAAAAAAAAAAAAAAAAAAAAAAAAAAAAAAAAAAAAAAAAAAAAAAAAAAAAAAAAAAAAAAAAAAAAAAAAAAAAAAAAAAAAAAAAAAAAAAAAAAAAAAAAAAAAAAAAAAAAAAAAAAAAAAAAAAAAAAAAAAAAAAAAAAAAAAAAAAAAAAAAAAAAAAAAAAAAAAAAAAAAAAAAAAAAAAAAAAAAAAAAAAAAAAAAAAAAAAAAAAAAAAAAAAAAAAAAAAAAAAAAAAAAAAAAAAAAAAAAAAAAAAAAAAAAAAAAAAAAAAAAAAAAAAAAAAAAAAAAAAAAAAAAAAAAAAAAAAAAAAAAAAAAAAAAAAAAAAAAAAAAAAAAAAAAAAAAAAAAAAAAAAAAAAAAAAAAAAAAAAAAAAAAAAAAAAAAAAAAAAAAAAAAAAAAAAAAAAAAAAAAAAAAAAAAAAAAAAAAAAAAAAAAAAAAAAAAAAAAAAAAAAAAAAAAAAAAAAAAAAAAAAAAAAAAAAAAAAAAAAAAAAAAAAAAAAAAAAAAAAAAAAAAAAAAAAAAAAAAAAAAAAAAAAAAAAAAAAAAAAAAAAAAAAAAAAAAAAAAAAAAAAAAAAAAAAAAAAAAAAAAAAAAAAAAAAAAAAAAAAAAAAAAAAAAAAAAAAAAAAAAAAAAAAAAAAAAAAAAAAAAAAAAAAAAAAAAAAAAAAAAAAAAAAAAAAAAAAAAAAAAAAAAAAAAAAAAAAAAAAAAAAAAAAAAAAAAAAAAAAAAAAAAAAAAAAAAAAAAAAAAAAAAAAAAAAAAAAAAAAAAAAAAAAAAAAAAAAAAAAAAAAAAAAAAAAAAAAAAAAAAAAAAAAAAAAAAAAAAAAAAAAAAAAAAAAAAAAAAAAAAAAAAAAAAAAAAAAAAAAAAAAAAAAAAAAAAAAAAAAAAAAAAAAAAAAAAAAAAAAAAAAAAAAAAAAAAAAAAAAAAAAAAAAAAAAAAAAAAAAAAAAAAAAAAAAAAAAAAAAAAAAAAAAAAAAAAAAAAAAAAAAAAAAAAAAAAAAAAAAAAAAAAAAAAAAAAAAAAAAAAAAAAAAAAAAAAAAAAAAAAAAAAAAAAAAAAAAAAAAAAAAAAAAAAAAAAAAAAAAAAAAAAAAAAAAAAAAAAAAAAAAAAAAAAAAAAAAAAAAAAAAAAAAAAAAAAAAAAAAAAAAAAAAAAAAAAAAAAAAAAAAAAAAAAAAAAAAAAAAAAAAAAAAAAAAAAAAAAAAAAAAAAAAAAAAAAAAAAAAAAAAAAAAAAAAAAAAAAAAAAAAAAAAAAAAAAAAAAAAAAAAAAAAAAAAAAAAAAAAAAAAAAAAAAAAAAAAAAAAAAAAAAAAAAAAAAAAAAAAAAAAAAAAAAAAAAAAAAAAAAAAAAAAAAAAAAAAAAAAAAAAAAAAAAAAAAAAAAAAAAAAAAAAAAAAAAAAAAAAAAAAAAAAAAAAAAAAAAAAAAAAAAAAAAAAAAAAAAAAAAAAAAAAAAAAAAAAAAAAAAAAAAAAAAAAAAAAAAAAAAAAAAAAAAAAAAAAAAAAAAAAAAAAAAAAAAAAAAAAAAAAAAAAAAAAAAAAAAAAAAAAAAAAAAAAAAAAAAAAAAAAAAAAAAAAAAAAAAAAAAAAAAAAAAAAAAAAAAAAAAAAAAAAAAAAAAAAAAAAAAAAAAAAAAAAAAAAAAAAAAAAAAAAAAAAAAAAAAAAAAAAAAAAAAAAAAAAAAAAAAAAAAAAAAAAAAAAAAAGj3PXmhZOFOoYmarsbOW5vlt3XjWA4o/MXBiTLk3Cemz71eJDSHJKbDYWEt1kJZpR1519llKm/Nq83oHiJ36wdxOS13844zb/NfsYcczpE20mZtaensUjTXTjMzWusa9qOwH5c/Anf+PXfW/Ia7i2y5BssEZ95uIrF7VpNorTFjiZivvs06xSbezWtMmSYv2Ipbktxo74mwst23iuG8gdda2tuEZferdjico13HyeyXDEpt3mNQoV5u8XJsqyuLerKxIeQmUlpUJ1llSnkVdq3Rhz433V8fuZbznOHY95NrtabDPkrT3mGMlJxzadItaL5MkWrEz7WnZmI1tGunZnud4rf5f3dnk3cvec88Nuac1y94Nlgvn+7722DLTc1x1m1sWO2Db7e2LLNYmcc2jLW1ojHMUi3vKySjtG8sQAAAAAAAAAAwVyU39iPGLS+a7pzRmTOtWJQmKxbNBcaauGQXy5zGLZYrFCce8SGnLjc5baXHapXSOxRx6qVJbrSuv8AenvHsu6nIs/Pd9E2w4axpWNNb3tMVpSNf2rTGs8ezGttJiH0Lwr8OOdeLPfvYdw+Q2pj3m9yT2st4maYcWOs5M2a8RxmKY62mK6x279mkTE2iUeLFe/Vu1GeRJObad1bJ1k7c6Un2bFk5ZCzmFZXJHTxwsju2UzrDcbrDir8VaOWuMzKWiiaVjUVVaetGz/MRz6OY1vv9jtJ5VN+NcfvIyxXXyXtkmlrRHXjrFpj9XXV6ac4/wAujuDbu7fFyDnnN697Ixexl3H3e20tliOi2DHt6ZqY7W4axnyWxxMz+9mIiZNuGZdYM/xDF86xWci54zmWPWfKMfuDfTwTbNfbfHudtk0pStfBV2JJRWqa+1Na1pX20O1ux3u35lssPMNnbt7XPirkpPXW8Ras/FLye57yXmPdvne77vc4xzi5rsdzl2+ak/q5cN5x3r59LVmNfL0vpTlMUAAAAAAAAAAAAAAAAAAAAAAAAAAAAAAAAAAAAAAAAAAAAAAAAAAAAAAAAAAAAAAAAAAAAAAAAAAAAAAAAAAAAAAAAAAAAAAAAAAAAAAAAAAAAAAAAAAAAAAAAAAAAAAh595jftNucsJOAWmcmViuh7MnCI6WVpcjOZlcls3fO5aVU6qTJjy/dbU+ivSiXLVX2da1rXpN4494/wCdd8Z5bhtrs+XU91GnR722ls0+mJ7OOfPje3n5F/Dj/svwbp3k3mOac47xZ/vVtY0tG1prj2lfszX3m4pPlruPRpyQPjLuinm8Ht205CcVdMbOkS6TL7ccRiWTL3aqrV6uZ4m47jGTvvoXWrjNbjdrU5LbSqta1YkIVSqqKoqvof3B59/3L3Q2PNrW7W4thiuTr97j/d5Jnq7VqzaPNMTx6X51fzAdwf8ADTxh573SxU7HLsW9tl20eT7ruIjPgiJjhPYx5K45mP16WjSJiYja43B8cAAAAAAAAAEd7v1brpEx7THHq2yuj95uE/bOVx01SlxFutSJuLYYhfStXHI0+fMvC1Jr0R5kFtXxq0p4OtH5iOfdjbbHu1in2slp3GSP6tdceL4Jmck+mkdPk9Nv8ujuFObmXPfEzdU/d4MdOXbe3k7eSa7jdeaLUpXbRE8Z7OW0cInjGlOq71XS5uydvymzOMdy1LdZlX8l0PkCrSwh1SlvuYLmDtwvuLPKcX7V0iXNq6QUJp1ozHiMp9lKpodz/AfvF/Ne6luTZra7rl2Xsx1+6yTN8c/BaMlfNWtfM8WPz7eHP/anizi757PH2eVd4tt7yZjhEbvbRTFuI0jo7WOdvlmf1r5Lz0xMuyp9wdGQAAAAAAAAAAAAAAAAAAAAAAAAx3tjbestE67yvbW486xnWutcHtbl5yvNMwusWzWGzQG1oaQqRMlLQlyTLkutsRo7dFyJcl1tllDjriEKurS17RWkTNpEX7d/q9+AOA5VOxzT+oOQO+LbbprsVecxbZjGt8RvDLfjoifjTOW3lzNZUZ1VKdKXGzWpzpXr4fZ7cjTlWe0a3mtflX9iW3/Bb1J/bm5s5pYtUyb1m/GzbWSy49qxzGd82+w2jGMuvktXhjWfFNjY5f7/AIuudLcUhmMxeFWSVNlLoxGZecUii4s3L9xhjtcLVjq+j/SpNZhIGOCtAAAAAAAAAAAAAAAAAAAAAAAAAAAAAAAAAAAAAAAAAAAAAAAAAAAAAAAAAAAAAAAAAAAAAAAAAAAAAAAAAAAAAAAAAAAAAAABh7kDt6z6D0ps7cV8qwqFr/ELtfmIshzym7reG2fd8dsSXPEjwv3/ACCRFhNfGT/CSE+2nwmE7yc6wd3eQ7vne4093tsFrxE/rW00pT03vNaR55hu/ht3K33iN395T3H5f2oz8y3uPDNqxrOPFM9rNl048MOGuTLbhPs0nhKv9yLILxlmQX3Kchnv3S/5LebnkF8uclXik3G8Xma/cbnPkKpSnifmTZK3F1/dUqp5xbnc595ucm83Npvuct7Xvaem1rTNrTPnmZmZfpI5Zy3Y8m5bt+T8sx1w8t2mDHhxY6/VpixUimOlfNWtYrHmh6cgc5JZ7Cm6kysf3Rx7uMqtZFouMDbeKR1rotarfdWoOKZmhvxV8bMWBOhWdaUJ6oq7OcV0SpVar7T/AJd+e9vbb7u1ln2qWjcY481tMeX0RExjnTo1vM9PT5U/5i/cOcPMuQ+Je1p+7z4r8u3FojSO3jm+42sz5Jtel9zEzPHs4qxxiI7MiI7MPMgAAAAAAAAAQZe45uhW8+ZG6MqjTETLBYMjc13ii2HKuw/m/gNPm4iVBcrVXji3q6Q5VxpWlelVTK1p0TWlKef/AIn89/7g7777eUt2ttjy+5x6dHYw+xrHmtaLX/8AU/Qb+V3uJHh74Hch5PlpNOZbnaxvdxExpb328/fzW8eS2LHbHh9GKNeOstHjQHYB0t7Tu/vqL5h4TEuc2kXEdvtOamyPznFJjNSsjlRHsPnqRWlWUvR8whQmKvK8PkxZT9fFRNVdfqng73j/AO3++23pltpst7H3e+vRE3mJxz1cMkVjXyVtbjpq6qfnK8OP8QvBDmGbaY+3zrklo5jg0j2prgraNzTr0nbWy37Ma9rJjx8JmI0mnHet4OgAAAAAAAAAB6TJMmxvDLDdsqzDILJimL2GE9cr5kmSXaBYrDZrdHp4n592vF0kRbfboTCfat15xCE0+GtCsRMzpHGRHf5eeqK7ZPGmXdMZ1rkuY8ts7t6pEWsPRdriV13FuTKq+Fu5bYyyXY8cuNrfQnqmbjbWSNVqpNOn7+qOdi5buMnG0RWvn6fi+nRdFZlwK3N6yHlhf35LOguJug9Y2933plqRtLIc+3HemWXEKbjyo72Nz9M2piexWtHKUeiy2PHSlFIWmlfFzqcpxR9e1p9GkfSu7EeVoxknqoe73fX6vWvZun8Mb95lP+643o3CpTFGpC6KahUVmDOVyfdoKaeFqvmedWlf4RxyvtJo5btY6YmfhlXsw8vFvVVd3XH1oVds90pnNESXH1N5TpDGIiHWlsIZTCXXCX8OcpGZcTV1NUqS9VxVaKcUjoiieW7WeiJj4fp1OxDfnSXrJ+RtmlQWORXEDTOwrf7GZ0/TmX5rqa5oRVytKTmoOYubhgzH2mOlVMebFQ85SvhcZSqlEwX5Tjn+HeY9PH6FOx1JA/EH1Mfa95US7PjOTbHv/FzYN1dYhNY5yItUTGsYkT3attr9y2rY7hftcxLd5zlEtvXifZnnKe3yU+2lODl5ducXGI7VfN9HStmsw7+Wm72q/wBrt18sVzt96st3hRrlabxaZsa5Wu6W6Y0iRDn264Q3Xok2FKYcStt1pakLQqlU1rSvU4MxMTpPStewAAAAFcr6tHnXnmzOYlq4LWS8z7VqHjbjeG5VmGORpa0RMu3JsfFYWZxL/eWWvLRLYxbXWT2yLbGnaLrFemz3E1/1mlEZ/leGtcXvp+tb1R+lJSOGqI+ZReAWmnpo+c+dc0+3XBtm2r69ku0+M+eTtF3fI7jLVLyDK8Kt+O4/kmuMlv7q61dfuLdjvblkVIc6vTFWNUh5S3nXFq1rmGGuHP7HCto1+n6fhRWjSUhY4K0AAAAAAAAAcD+8/wB8H+6HybQWOf0Yf6Qn15WLYN698+un6p/mv8xLhicH3b3f6ptl/Lfyr86PH4/HE8jyOnhc8fVHN2mz+9Rae12ezp5Nen4YXVrq4lftpv8A21v+Mb/lXOZ/KP8Aaf2f9ZXsec/bTf8Atrf8Y3/KuP5R/tP7P+sdjzpT/a953f3knDfX/LX6rPqZ+fV9z6y/V/8APj6xPkr5j5necR95+dXzQwX375U+SPePB8ms+R5nl+Jzw+NWN3OH7vlnFrrppx6OmPhWzGk6OgxAoAAAAAAAAAAAAAAAAAAAAAjcd4b1CH907yYwbjr/AERvr8+eeisZ3V88Pr8+qz5N+cWf7Owb5tfN/wCpbY3vnuf1c+9e+e/NeZ755fkJ8rzHchtNj96xzk7fZ0tp0a+SJ64610V1jVyh/bTf+2t/xjf8q5yf5R/tP7P+sr2POftpv/bW/wCMb/lXH8o/2n9n/WOx50xPh3yE/pZcV+P3Jj5o/MH69dUYZs/5lfL/AM6vmt87rNGu/wAh/OT5Fxz5b+T/AHjy/efcIfm9PF5SOvhpistPdZLY9dezMwtmNJ0bJEagAAAAAAAAAAAAAAAAAAAAAAAAAAAAAAAAAAAAAAAAAAAAAAAAAAAAcAO+5v2th1/rPjjZpym7hnlyXsTNY7K1IV81MZkOQcXgy0+xL0S9ZRV+Smnt8L1mTWvT2deuP5hO8f3flu17sYLaZNxb32WI/u8c6Y4nri2TW3pxPSP/AC8PDj+Y95ebeKO+xxO25di+5bWZjX/9GeIvuL16rYtv2KT113Ux16Rgzqc9agDeDtyboVormPpbKpEpMWwX/JGtdZYp5yjMSmP5/wBMbclznKqRRESx3ObFuSq9elKwqVrStOtK7/4Yc9nu/wB99jvLTptsmX3OTXhHYzexrPmpaa3/APS+Afmh7iR4heB3PuT4qTfmW22s73b6Rrb32z/fxWkcdbZcdcmCP/tno6YnNnoA/PiAAAAAAAAa0cxt1J49cZNy7abkUjXbGsNnx8Wc+JWvzzyFbWN4f0bX/nW28ku0Zx1NKVrRlC6/BSpqvffnsd2u6m+5zE6ZsWCYx/8A239jH/btWZ80S+reB3cOfEzxZ5F3MtXt7Ldb6ltxHH8Lh1z7nj5JnBjyRWf2prHlQHVrW4tbji1OOOKUta1qqpa1qrVSlrUqtVKUpVeta19tannXMzM6z0v0bVrWtYrWIisRpER0RD+Sir94kuTAlRp0KQ9FmQ5DMuJKjuKafjSY7iXmJDDqK0W28y6iikqpWlaKpStC+l747xkxzMXrMTEx0xMcYmPPCPNhxbjDfb561vgvWa2rMaxato0mJieExMTpMT0wnx8Q95ReR/G/U232nWV3LJ8WiNZSyzVvpDzSyKcseXxfKbVWrDNMgt0hbCVUSpUZba+lKKoeincvvBTvR3X2fO4mPe5cMe8jqy09jJHmjt1mY/qzE+V+cjxr8Ps3hd4pc57k3i0bXaby07eZ19ra5dMu2trPTPub0i8xrEXi1deEtkTaHy0AAAAAAAA4791/vQcZ+1fg7cbL3E7S5GZVZ3bjrXj3jV3iw77cIy1SI8TK8+u1Wp9MA1/WdHW0mc7GkS5zrbjcGLJqzIUxy9rtMm5nhwxx0z9HXKsVmfQrYO4F3XuaXcmy1+78htnS28BiXJ+fiOjsIVMxrT+GoU7VcWkHFm5khzILtDb+Im63l+5XTw1qmkhLdaIpsGDbYdvGmOPa656UsREdDm4chUAAAAADqt25u8hzY7aWSQkac2A/l+nHp7b+Ucedjy7jf9WXmM5Jq9cXrBAVKTM15kktK1V+U7K5Fcddo3WW3MZR5CuLuNph3Ee3Gl+uOn9KkxErKjte92/jD3TdZSMk1HcHMM23ikCM/tbQGU3GK/nOBuPuIjUusCQ0zCZzXBJUxaW4t7hMoaqpxDUpmHKV7snX9ztcm2tpbjSeifJP6fMimJh1MOMoAAKz/wBWBxMzvUvcbl8n5FpmydYcr8HwWfaMobQ67bIef6owfG9W5Nhcl2rSUQ7pGxzFbPdG0VrVMhi4VU2pSmn0tbDyzLW2393+tWZ+KZ1SUnhoi6mSXgFm96VLiVm3HXtz3XZ+xLJOx6/8qtoSts4vbbih6NL+qW24zYsY1/dJEB1dVR/nLJhXS6xXaoRWVa50R2nVCkKrrvM8sZNx2a9FY0+HyorzxSbDHLQDgd3K/UF8ae2LyJhcb9taW3nn+UztcY1stu+66awFdgRasnumR2qJAXXJcxsVx+UI72NOqc6MVb8LiPCqtetKc3b7HJucfvKTWI1046/QuiszGrn1+2O8G/7MHK//AEGoP5yif+U5/wBqvy/Qr2JP2x3g3/Zg5X/6DUH85Q/lOf8Aar8v0HYlKv05su07o1FqvcVhgXG1WPbGuMH2XZrXd6RqXa22nO8YteU26Bc6Q35UOlxhw7qht7ynXG/MSrwqUnpWuNvWaXmk9MTMfEsZHLQAAQIPWe/rM4CfQXkF+kGqDN8o+rk9MfOkohKGYXgFp76Xv8HDj99Ot+fbNmRrXMfxdvRHqhFbpSDTgrQAAAAAAAAAAAAAAAAAAAAFbj6w38THRv3FtZ/b9ybNg5V+Ht9ufVCSnQihmTXgFxN2d/wr+3791DTP6G201Tdficn2p9aG3S6SHHUAAAAAAAAAAAAAAAAAAAAAAAAAAAAAAAAAAAAAAAAAAAAAAAAAAAACCPz335Tkjys2zseDNrMxZF8riWCKSpSo3zLxBPyHZpkRKvjNM35UZ26KRX4Hpy/g+Cnnv4i94v8AujvhvOaY7drae893i6vdY/YrMfb0nJp13l+h78ufhx/hb4O8m7rbjH2Obzt/vO7/AGvvW5/e5a265w9qu3ifLXFX0tPDSH28A/pC1trQ42tTbjakrQtCqpWhaa0UlaFJrRSVJVTrStPbSpWJmJ1jpUtWtqzW0RNZjSYnomE+LhzupPIXjJprbTkikm7ZLhsCPlLnxKV+eePLdxvMOraP8025klpkuNJrSlasrRX4K0PRTuRz2O8vdTY85mdc2XBEZP8A7aexk/t1tMeaYfnJ8ce4c+Gfizz3uZWvY2W1317beOP4XNpn23HyzGDJji0/tRaPI2XNqfKQAAAAAAEfPvz7pRbcF07oC3SqUm5Tfp2zsnZae8DzNlxqNJx/GY8lqlerkO8Xe8TnU9fZR21Ur8NKHW78w/PYxcv2PdzFP7zNknPkjXjFaRNKRMdVrWvPpxvSr/Lq7h23XeHnniRuqf8A59ntqbDBMxwnLntXNnms+S2LHixVn+ruJjyoyB1ResYAAkc9hzf3gc2xxpvU34rvlbZwNl1X/qJTBx3O4DTji+vx202mUyw3TpTwy3a061VU7Pfl57x6TvO6ue3Cf/0YY+KmWP8A+doiP689by7/AMxPw37VOTeK2wx8a68u3cx1e3n2l5iI8k/eMdrz14aeSISQjtC8tgAAAAAAHFTvY93fCO1hx7RLsabNl/KLbMS62nReuJsmi2IK2GvdrltPNIjNFyEYRh0iQ3VLFatLvM+qIbK0I96kxeZs9rbc348McdM/N6V1Y19Cqn27t/Z++9k5fuDc2c5HsjZue3h++5bmeVXB25Xm8XF+iUUU4850ajQocdtEeJFYQ1FhRWm2GG22W0Np2WlK0rFKRpWErHBcAHn2y13O93CHabNbp13utwfbiwLZbIkifcJ0p2vhajQ4UVt2TJfcV7EoQlSq1+ChTXTjPQN8sC7Uncv2bDhXLDOB3K25Wq4utswLvO0hn2PWeZ5i1NUfjXfJLJaLa9CQ4hSVyEu1YbUmtFrpWlSG2529em9fjhTWDOe1J3Mdbw51yy/gXyxt9rtjslq4XaDozYWQWmFSIurb0qTdcdsV2t7Nvqv95KU5SM71pVC1UrTqjc7e3Revxwaw0NudrudkuEy03m3TrRdbe+5Fn2y5xJEC4QZTVfC7GmQpTbUmM+2r2KQtKVUr8NCbXXjHQq8AqAGZuPvIPcXFnb+E730LnV611tHX92au+OZLZHqJWhSfiTLXdITyXIF8x68xFLjXC3S23oc6I4tl9tba1JrZelMlJpeNaydPStlO0b3RNa907jDC23j0OBiG3MJfgYpv3VUeYuUrB81eivPRLnaFSVqnScEzaPDemWWQ7Va6JbfiOOOSIchRrG621ttk7M8aT0T1/phDMaS6oHGUANb+VvEjj7zZ03f9D8ldc2fZGu78pMtEOfR2Ld8cv0ePJjW7LMPv8NbN2xfKrS3MdpHmxHW3aNuuNL8bLrrS5MWXJhv28c6WVidOhDt3j6M9D2ST7hxt5sfJ+JSX/FbcT3Zq+tzv9oj9U9W5ee4NkFsgX9z2qrSqcdt3hpSlK+LrVVMrTm3D95Tj5p+b9K/t9bczgp6S3ivx8zqzbO5Xbau3Lm843col3x/WyMMa1rpxM6C/7xFXmtkVkmYZDsWOxIZadpDdnW61P08bE2HNYWpFYs3NMuSvZxR2Iny66z8HUpN5noS0Y8diIwzFistRo0ZpuPHjx20MsR2GUJbZZZZbSltppptNEpSmlKJpSlKU6GLWP1AAVm/q3/xUMe+6hqP9MtrGw8r/AA0/an1Qlp0IvpklwBdNcC/6jPDD7p/HX7IMPNRz/wAe/wBqfWhnpbYESgAAgQes9/WZwE+gvIL9INUGb5R9XJ6Y+dJRCUMwvALT30vf4OHH76db8+2bMjWuY/i7eiPVCK3SkGnBWgAAAAAAAAAAAAAAAAAAAAK3H1hv4mOjfuLaz+37k2bByr8Pb7c+qElOhFDMmvALibs7/hX9v37qGmf0Ntpqm6/E5PtT60Nul0kOOoAAAAAAAAAAAAAAAAAAAAAAAAAAAAAAAAAAAAAAAAAAAAAAAAAAANCu5Zv2nHriDs/IoM33PLM0hU1fhCkOpZkJyDNo0uFKnQ11WlaZdixlm4XFqqaKrRyInrTpWtafO/FPvH/213K3e6x27O8z19xi8k9vLExMx56Y4vePPWHYv8qnhxPiZ42cp5XuMfb5NsMn3/daxrX3O1tW1aWjo7OXPOHDbXT2ck+XhMHk6CP0BAAABJu7C+6EXLB9x6BuMvrNxa+wNm4xHddopx2y5JHj2DJmYrVfjNxLRd7RBdX/AJPm3StfZWteva38vHPYy8v33dzLb95hyRnxxr+reIpkiPNW1aTPnyPJ3/MV7iW2veDkfiPtafuN5t77DPaI4RlwWnNgm0+W2THky1jy9nBp0RGkg07JPNQAAAAAABB77mm6l7x5nbgvUeVWTj+E3j6q8WpRaXGW7TgC3rPcHYjqFKQ7DuuVUuM9pVK9Kol06ew6C+K3PZ5/353ues67bb3+74+rs4dazpPli2Tt3jzWfoA/Kh3Dr4f+BXJNhlp2OZb/AAfzDccNJnJvIjLSLRPGLY9v7jDaPJONoQfOnY0AAbF8Sd4yuOHIzU+4mXHk2/E8qi0yZlnzFLmYbeW3bHl8NLTaXKuvO45cZNWaeBfhfohVE1Umhs/czvBfuv3n2fO6zPu8OaPeRHlxW9jJHnnsWtpwnjpPkfL/ABn8PsPij4X857j3iv3nebO3uJnT2dzimMu2trOmkRnpTtcY1pNo1iJlPnhTIlxhxLhAksTIM6MxMhTIzqHo0uJKaS/Gkx3m6qbdYfZWlSFJrWik1pWnsPRal6ZaRkxzFsdoiYmOMTE8YmJ8sTD84+fBm2ue+23NLY9xjvNbVtExatqzpatonjExMTExPGJeSXIgAAAAYv3ZuPX3HnUOyd5bWvrGNa51Rhl/zvMby+prxRrJjtufuEpqEy66z79dp3k0jwoiFedMmOtMNUU44lNbqUtktFK8bTOgp3O4Xze2b3DOWO0uT2zZMtlzLrs7bsCxJ2Y5Lga31dZ5MpvB8AtFKq8huPZLa/VyW4yhpE66yJc1SKOyXOu14MNcGKMdfJ0+efLKaI0jRpQTKgElnsyenb2v3FrdZuQvIC9ZDoviG7OV8i3C2woze0d4NQn1sT0a3avMaVbcbxNmQ2ppeSTok1h19CmYcSVVL7sbHbvf12/7untZfkj0/QttbThHSsHOIHbr4X8EMZi45xf0BgeuZiIVIV0ztNsRftp5OlSU+erKNm3+tyzW8svveJykVybSBGU4pMdhlutEUweXPmzTrktM+byfEjmZnpbqkKgBpXy+7d3DHndi0vGeUGgsF2NJdiUi2zOK21Nh2hjXlIcpFcxjZePqtuaWduK655nuqJlYMiqaJkMPN9UVmxZ82Gdcdpj1fErEzHQrwe8/6fTbnbY+Ut76Xud93bw5k3KLGkZTMiMObD0zKukisa3WrakS0xmIE/HpcpbceJkkRiNDdlOojSo8R5yN71ndpvq7j2L8MvyT6PoSVtrw8qOOZBcAdYOzH3E7922ucWt9uSrrNa0tms2DrPkTYW1SX4dx1XkdziNzslTbGFdJd/1zOo3e7fVKaPLVFdiJWlqW/RXF3eCNxhmv68cY9P6ehS0awt34E+DdYMK6WubEuVsuUSNPt1xgSWZkGfBmMokRJsKXHW5HlRJUdxK23EKUhaFUUmtaVpU1boQvLAAAAAAAArN/Vv8A4qGPfdQ1H+mW1jYeV/hp+1PqhLToRfTJLgC6a4F/1GeGH3T+Ov2QYeajn/j3+1PrQz0tsCJQAAQIPWe/rM4CfQXkF+kGqDN8o+rk9MfOkohKGYXgFp76Xv8ABw4/fTrfn2zZka1zH8Xb0R6oRW6Ug04K0AAAAAAAAAAAAAAAAAAAABW4+sN/Ex0b9xbWf2/cmzYOVfh7fbn1Qkp0IoZk14BcTdnf8K/t+/dQ0z+httNU3X4nJ9qfWht0ukhx1AAAAAAAAAAAAAAAAAAAAAAAAAAAAAAAAAAAAAAAAAAAAAAAAAAABFT75u/aZlu/CdCWaZ5lm0/YPl3J2mnU1Q5nWcsRZrUWS2ha0rVZsRYhLZUrwrQq5Pp8NKe1XUH8wHeP79z/AAd3cFtcGyx9vJH+1yxE6T9nHFJjq7doewv+Xz4cfyLuBv8AxG32PTfc73PucEzHGNptJtWbVmdNPe7mcsWiNYmMGOdfJHDA6/PQgAAAM/8AGrkrszilstvauqnrMnI6WK7Y3KiZDAfudluVnvHuzkmJPhRZ1ufdS1Mgx5DfheR4X2EKr1pSqa7J3W70817n81jm/J5p9693akxeJtW1baaxMRNZ6Yi0cY4xD5t4q+FXdTxj7qT3P741zzyv7xjz1thvGPLTLi7UVtS1qXiNa3vS2tZ1pe0cJnWOhf8Aficz/wDZek/zGv8A/vqfSv8AH3v1+xsP91f/AIrrR/4/vAn++5//AM3h/wClP78Tmf8A7L0n+Y1//wB9R/j736/Y2H+6v/xT/wAf3gT/AH3P/wDm8P8A0p/ficz/APZek/zGv/8AvqP8fe/X7Gw/3V/+Kf8Aj+8Cf77n/wDzeH/pT+/E5n/7L0n+Y1//AN9R/j736/Y2H+6v/wAU/wDH94E/33P/APm8P/Sn9+JzP/2XpP8AMa//AO+o/wAfe/X7Gw/3V/8Ain/j+8Cf77n/APzeH/pT+/E5n/7L0n+Y1/8A99R/j736/Y2H+6v/AMU/8f3gT/fc/wD+bw/9K/GR3v8Ami+w+yiDpmMp5lxpMmPg968+OpxCkUfY87MXmfOarXxJ8aFp8VKdaVp7C23j536tWaxXYxMx0xitrHnjXJMfIvx/kB8CMeSuScnPbxW0T2Z3eLSdJ6J020TpPROkxOnRMOQEiQ/LfflSn3pMmS85IkSJDi3n5D7y1OPPvvOKU46864qqlKVWtVVrWta9T4ra1r2m95mbzOszPGZmemZnrd2sePHhx1w4a1pipWIrWIiIiIjSIiI4RERwiI4RD8i1eAAAE0TtKb+rvDh7htruk2srLtNSHNU5B5riVSHrbY48eRhU/wAvpRz3deITIkTzFVVV6TBfV169aU70+DXeP+f9ycGLLbXe7Gfu9+ua0iJxT6PdzWuvltSzwj/Of4cR4f8Ajdvt3s8fY5Lz2scww6R7MXy2tXdU16NY3NcmTsxp2aZccaaaTPTc+rOpwAAAAIanq+ebsnX+idL8EsPuqWL1vu6V25t5iO6mkpvVmvLu0xgtkmMqpWvydmWyo7k5DiOiqO4nVFa+BxSVZblWHtXnNPRXhHpnp+T1r6R5VfAZ1IASAPT5dp5vuT8ppOV7Ys8l7ilx1dsmT7aoqrkVjYmT3ByS/hOoYcrwVU7Gvz1tdmX1TPx2LNGWzVyO/OhunB326+749K/xbdHm86206R51pxZrNZ8cs9px7HrTbbDYLDbYNmsdjs0GLa7PZrPa4rUG2Wm02yC0xCt1tt0JhDLDDKENMtIShCaJpShrczMzrPSieyKAAAAfL5vhOIbKw/J9fbAxqy5jg+a2K6YxluKZFb491sWRY9eobsC62e7W6WhyNMgT4b623G1prRSVFYmazFq8JgVF3eQ7d8/tpc49i6JtqbpM1FkLUfZugsgulVvyrpqjKpU1NttM+errSfe8GvEGZYpr9fAuW7bqS/LaRJbRTaNpn+8YYvP1+ifT+npTVnWHK45SoBa6+nH5WSeVPan0U5fLg7cs14+yb1xnzCS+4lxxf1Ys2x/Aa1VVSn1qTqPIseQ4458dyQh1XWvXqazv8XutzbTotx+Pp+XVFaNJd1ThLUXT1EHeH5Z9rjMuLVh41W7UU+DuPGdq3fLa7Ow695S+3Lwy64NDtFLO5acuxlMNpTORSPOotL1V1oitKp6V65HYbTFuYtOTXhp0efVdWInpRwv2t/uof/XuKH8keZfzrGQ/le267fHH0L+xB+1v91D/AOvcUP5I8y/nWH8r23Xb44+g7EJ3naj5Q7K5o9vnjXye3AxjMbZG2cZyi75Sxhtrl2XGm5Vn2JmOLRKWq1zrneZcRqtssTFV0XJdrV2qlUrSlaJphd1irhz2x017MfQjmNJ0YM74nObdPbv4HZByR0HFwiZsK2bN1xiMZnYNiuGRY7W1ZXcZkW5qdtttvePylS0tMJ8pdJNEor16pUX7PDTPm93fXs6T0FY1nRC2/a3+6h/9e4ofyR5l/OsZf+V7brt8cfQk7EOLXP3n7vTuRb0icheQsTA4WewsDx/XTLOusfuON4/838buN+uluWu3XS/ZFJVcFScikeY57xRKk0RSiKdK1ry8GCm3p7vHr2ddeKsRo0iJ1QCSLqv1TXcx0/rDXGpMTsXGFzFtXYHh+usacu+rMtmXZzH8Jx63YzZl3OWxs6IzKuKrdbG6vOIaaStzxKohNK9KY+3Ldve03mbazOvTHl+Bb2Yfe/tb/dQ/+vcUP5I8y/nWLf5Xtuu3xx9B2IS/fT/dxTf3c04b7L3xyNh69g5viXJnMtR2trW2O3PGbErFbDqzTOZQXJcC65Bkkh67Vu+ezqOPJfQhTNGk0bpVFVKxW+29NvlimPXSa68fTP0LLRpPB3LOGtQIPWe/rM4CfQXkF+kGqDN8o+rk9MfOkohKGYXgFp76Xv8ABw4/fTrfn2zZka1zH8Xb0R6oRW6Ug04K0AAAAAAAAAYR5A8ktDcVNb3bbvIva2Gag11ZuiJWS5ndmrczJlrSpTFqssBNHrrkd9mUTWke329iVOkVp0aaXX2F+PHfLbsY4mbGmqJfy89YZpHDp1xxjhVx1ybc0iOpyO1tHc10d1phDjyOim51jwS0sXfOMjtbya9P/wDQk4zKQulerVU0pVWUxcqvPHNbTzRxn4+j1r4p1uEm1vVPd3nYk1+RiOztSaMiPOLqi2au0jhN2jsNLV1oyiVuaNtq5/FR8Xx+f4/b1pWlelacyvLdrXpibemfo0XdiGrcj1AneJlOw3necuxUrgvqksUj4nqeG0txTLrFUzGImvmGLix4Ha1o1IS61RdEronxpSqkv3HafsR8v0nZhkXCfUmd5XC5aHlcuPnfB8+kh+z5tprRV7iSlUo2mra57WtoORRmKob6eCNOYT8aqqU8VfEWzy/aT+pp8M/SdmHV7jb6xnkZjk23Wzldxe1XtKw0cbjzcm0xeMh1XmEeNVafMuT1lyeZsPGMgntJ8XSOyqxsueynmN9KqVxcnKcc/wAK0xPn4/Qp2I8iWL2/+83wK7j6Y1i0TtRVg24q3quE/Q+04bGFbWjNMRkyZ67RbFzZ9hzeNbW/EqQ9YLhdG46E+J7yqVp1xmfaZ9vxvHsdcdH6PhWTEw6qnGUAAFbj6w38THRv3FtZ/b9ybNg5V+Ht9ufVCSnQihmTXgFxN2d/wr+3791DTP6G201Tdficn2p9aG3S1r7nvfl4Y9sxczAshm3DeXJD3JEmHoTWlwgInWL3lisiBJ2nmkpEuza3t8xHgqlpTNxva23m3m7a5HVV5Mm22Wbce1Hs4+ufm6/V51YrM+hDe5CerC7oO1bnPTp17TfGHG1PKTaYuD68tWw8rZheJxSUXvJdvt5pZLncKpc8Kn4dltbfhQnwsoV4lKy2Plm2rHt62nzzp6l/Yho7X1A3eKVMbnV5y7E85qM9ESimIalTDq0+7HeWty3J17S3vSUrjJoh5bSnm01WlCkpWuipvuO0/Yj45+k7MNpNK+qc7t+rJsNeabI1VyDtMVLDCrPtvT2J2yq4jSG2appetOtapvjs3ykVrSRJkSVqdr43aO+2lYr8t2tuiJrPmn6dTswk18BfVb8NeR0+0YByyxmbw62LcXWIMTK7peF5noe7zHXKMN1k5yxbLXedfqkLr41VvNvpaojfWrt09nWuPz8szY/axT26/L8Xl/pwWzSY6Ep213S2Xy2W69WW4wLxZrxAiXS03a1y49wtl0tlwjty4Fxt0+I49FmwJsV5DrLzS1NuNqopNa0rSpjJiYnSelY88AAAAAAAAAAAAAAAAAAAAAAAAAAAAAAAAAAAAAAAAAAAB8vm+X2bX2G5VnWROrYsWH49eMluzjSaOP8AuFlgP3CSiM11pV+U61HqhpunxnHFJTT21oYznXN9jyDlG655zK3Y5fs9vkzZLdOlMdZvbSOmZ0idIjjM6RHGWb7t8g5j3r7w7HuxyesX5pzDd4tviiZ0icma9cde1P6tYm0Ta08K1iZnhCAxu+6bI2Vs7YO181s01N5z7Lb7llyVGrW5QoS7zcH5jVvjyo3mIRAtkdxEeOlVEeBlpKaUp06Hmbve+3Le9XNtxza25xzu91mvkmsz2ZibTM9mIvFZmKx7MaR0RGnB+kbuT3d5R3K7pct7n8nmP5fy3ZYtvSZjszaMVIrN7R+3kmJveeOtrTOs66sJkzbAAAAAAAAAAAAAAAAAA/ViO/KdQxGZdkPOV6NssNrddXX/AAIbbSpaq/8AhQsyZceGk5Mtq1xx0zMxER6ZngpMxEazwh2t7MW0Mk03yJueCZTHkWnBt42SNj1FTltRksbAskl6ZhDzkd19MlPv7U24W1CaM1UuTPY61olNT6r4D+JHI+Wd947tW3VLU5pX3VYjWa+/prbFraI7PtRN8ccdZvesOjn57vDmvfXwpp3r5ZT3nO+7me2edOMzs8sRTdxGkfqTXDntMzEVx4cnTMpZJ3teKwAAAAKlb1BXJB/kt3ZOVl6ZuKp+M6lyqLx5w9mjy349ut2mYicUyaNDWpa0e7Tdks32fTy+iKrmKrTr1qquz7HH7va1jyzGvx/o0S1jSHF45i4At6OyVwrhcFO3Bx81TLtPyZsbM8bi7q3Op+MiNc3dobRt9vv10tV2olllS5eD2OtvxxNVUrXybOjrWteqq6tvM3vtxa36scI9EfT0oZnWXWI4qgAAAAAHF/vBdmTWXdwsek2sm2pdtJ5ppK7Zc5Z83sWFwM0k3jGM2h2hN6xW5W6XkOM0qwi647BlxX1SHPdlIfShv/WXFHL2m7ttZnSO1E/ArE6OGn7GFrT+35nP/wDPlg/nZOb/ADe393Hx/oXds/Ywtaf2/M5//nywfzsj+b2/u4+P9B23ejtAdpiF2l9ebj1tZOQeQbzx/bGZ49nDDN7wSDgrWJ3i02ORYbq7DjwcqyhNwcyCEiFR1alM1RSAinRXX4vC3W6+9Wi017MxGnTqtmdXYM4iiBB6z39ZnAT6C8gv0g1QZvlH1cnpj50lEJQzC8AtsfT2/g38HfoNnv2z7KNX3/4u/pj1Qht0tUfVY/hH5h/+66T/APmrkS8s/FR9mVadKr8NjSgAAAAAWR3o8vwzt5ffp2Z9gPGQ1/mv4iv2I9co79KV4YxYgQes9/WZwE+gvIL9INUGb5R9XJ6Y+dJRCUMwvALT30vf4OHH76db8+2bMjWuY/i7eiPVCK3SkGnBWgAAAAAAAHLzuvd0jTnaw46P7YzqOzmWz8wdn49o3Tka5tW677Fy2LHZdlypkny5D9nwbFG5bMi9XOjLnu7brLDaVypUZpzk7bbX3OTs14Vjpnq/SrEayqvubfPPk33B9x3TdHJjYdwy28vOymsVxOI5Jga+1rYHnUrZxbXmJe8vwcds7CG0UcXTzJs91HvE1+TJW48rZMODHgp2McaR8s+lLERHCGnJMqAAAAD21hv18xa92jJsYvV2xzI8fuUK82HILDcZlovdkvFtktzLddbRdbe9Hn225W+Wyh1h9lxDrTiaKSqiqUqUmImNJ4wLEP08HfwvXLyTZ+D/ADMyNqbySttnlL0zuG4VjRHd62SwwnJk7EMvQy0xH+tnH7LFdlNTkppTIbfGdW/0uLC3bjgt/soxfvsP8Pyx1fo9XqjtXTjHQl4mKWAFbj6w38THRv3FtZ/b9ybNg5V+Ht9ufVCSnQihmTXgFgTyF7wz/bR7Gvbl1ppS4W5zl9v7iBqprXr0lmNcWdS4DExK3W/Idv3O1SGpEWbdKTK1t2ORZSaRZNyo/KcpIZtkiHIwWPafeN5ktf8AhVvOvnnXo+n9KPTW09SAjkuS5FmeRX3L8vvt4yjK8ovFyyDJclyC5S7xfsgv14lvXC7Xm83a4PSJ1zulznSHHn33nFuuurUpSq1rWpnIiIjSOEQkekKgAAASNux535Nn9ufNrDo3e95yPY/CTJ7omHPx55128ZBoSfdZdFP5xrRMhSpKsZpJeU/eccQukeQlTkuGhudV1MzH7zZV3EdunDNHy+afpW2rr6VnniWW4xnuK43nGFX+05Vh2Y2K05PiuT2GdHudkyHHb7BYudmvVouMVbkadbbnbpTbzDzalIcbXRVK9KmuzE1nSeEwifQlAAAAAAAAAAAAAAAAAAAAAAAAAAAAAAAAAAAAAAAAAABzk7peZzcV4qzbTDT8XYOeYlhk16lVpcjwmU3TNnFNqQtHTz3cMQwulfElTTqk1p7fZ1t/NZzzNyfwjzbXDwtzHe7fbTMdMV9vcW/90beaz11tMeV3C/I53b2/PvHbDv8Acf8A+TyzdbyscNLXn3ezjWJifq/e5vHRMWrWYngjPnlo9qHyV9wfGciotU+2tIlL6/6/DomLNoqtOnjU82no/Wn7lHUuJp/gM5y3vFzflUxG2zWnDH6lvap6NJ+r/wCmYnzpsefLi+rPDq8jAuUalvVmS7LtK63qAjqpSGm6ouLCKe348ZNVUkpTT2eJqtVV+HwJofS+Td9+X8wmMG+j7vuZ8szrjmfNb9X0W4eTtTLI4t5jv7N/Zt8jE1aVpWtK06Vp7K0r7K0rT9ypu/S5gAAAAAAAAAAAAHm262z7tLbg22I9Nlu9fAywjxK6U6eJa6+xLbaOvxlKrRKafDWhx93u9tscE7nd3rjwV6ZmfkjrmfJEcZ8i21q0jtWnSGeMa0wylLcrKJSnHPYr5MgOeFpNPZXwSplKeY5XpXopLXg6Vp7F1ofNeb+IGSZnDyakRXo95eNZ9NadEeaba6+WsMfl309GKOHXP0M0WyzWmzM+RarfEgt9KUV7uyhC3OnwVed6VdfV/jWpVf8AGfP95zDe8wye83uW+S/9aZmI9EdEeiIiHBve951vMzL63G8gumJ5FYMqsclUO94ze7VkNnlorWi4t1ss9i5W+SitPbRbEuMhdP8AHQl5PzTdck5ttec7KezvNpuMebHPVfFeL1n46wxHO+UbHvByXecg5nSMnLd9tcu3y1notjzUtjvX4a2mE06yXi35DZrRf7RITLtV8tkC8WyUmlaJk2+5xWpsKQmlfbRL0Z9Kqf8Aie4m03WDfbTFvdrbtbbNjreluut4i1Z+GJiX5teY7Dd8q5hn5Xv6Tj322zXxZKz01yY7TS9fgtEw9mchwwAB6TJshteI43kGV3yQmLZcYsl1yG8SlrZbTGtdlgSLlcJCnJDrDCEsxIy1VqtaEU6daqpTrUrETM6R0ij+z/M7zsfO812Hkb6pOQ57luSZnfpK1UUqRecovMy+XR9SqJRRSnZ05xVa+GnXr8FDcKxFaxWOiITvkS4bkdvHR8Pknzs4h6KukZEuwbM5D6pxzLI7iarS5hLmYWqXm/RvwOUdcTiUWapKFUohaqUopSU1qqkOe/u8N7x0xWf0KTwjVdBGpIQAAAAAAAAAAAAIEHrPf1mcBPoLyC/SDVBm+UfVyemPnSUQlDMLwC2x9Pb+Dfwd+g2e/bPso1ff/i7+mPVCG3Szr3We3v8A3nHEe8cWPrd+pH5WzrCc1+ffzB+sn3f5nTZMz5M+bHz1wHzflH3jw+d8op8np18tfXpSzbZ/u+X3umvDo10+kidJ1Rfv2LL/ALlP/Bz/AM1Bkf5v/s/7X+qu7fmRm+7h23P7rLlRb+M/1zfXr7/qjEdn/PX6u/qx8r51XnK7R8h/Nv59bC8fuHzY8z3n3+nm+f4fKR4PEvI7XcfecfvNOzx06dfmhfE6xq5fHJVAJpuhfSA/XfozTG6P7w35sfW9qfXW0Pm1/RL+Wvm98/8AD7PlfyH8sf0mbT8rfJPyt7v7z7rG8/y/H5Tfi8FMRfmvYvNPd66TMfW6vgWdvzMsfsWX/cp/4Of+ags/m/8As/7X+qp2/Mkj9nnthf3TvGfOeOv13/X588965Nur54fVr9Vnyb84sA1jg3za+b/z/wBje+e5/Vz71757815nvnl+QnyvMdx+73P3rJGTs9nSunTr5ZnqjrWzOs6urxxlECD1nv6zOAn0F5BfpBqgzfKPq5PTHzpKIShmF4Bae+l7/Bw4/fTrfn2zZka1zH8Xb0R6oRW6Ug04K0AAAAAAB6u+Xu0YzZbxkeQ3KFZrBj9ruF7vl4uUhuJbrTaLVEen3K5T5TyktRoUGEwt11xVaJQhFa1r0oViJmdI6RT6d2XuC5b3Jeaezt/3OZcmtcxJ8jBtD4pOW6hvENO45PmN4ux7iv4sK85Kp5283alPFX5TuDyKKq0hqidq2uCNvhikfW6Z9KaI0hzUOQq9pZLHesmvNqx3G7RdMgyC+3CHaLJYrJb5d1vN5utwkNxbfbLVbIDUibcLhOlOpbZZZQtx1xVEpTWtaUKTMRGs9Al98DPSOb73DjVi2Nzf21/RptF3QxcGNN4TZ7Zm231WqQ2y60jKL/KuScL17dnmnKq92Szf5DHSiJLMd6i2m8Vn5pSk9nDHanrno/T8iyb9TuRjPpLO1TY7UuBd5nJ3M5q2ENfLmQ7escK4NOpQ4lcliPiWvsZtFHHFOUV4XIziKVQmlKdPF4uHPNNzM8OzHwfpW9uWkHKv0dGmbpjdzu3C3kxsHD82YYckW7DORLdizPCb1LpTo3bfnngOK4pkmHxFfD7w5a8gcpWnSrfRXVM2Lmt4nTNWJjzfp/QrF+tB65I8bd1cR9zZroDkFgt013tPAbgmBfsfudWX23GX2kSrberLdIbki2X7Hb5AdRJgz4jrsWXHcSttdaV9mZx5KZaRfHOtZXxOvFgwvVfYa+z3L9V53huzNfX6fi2da+yixZnh2SWx3ybhYsmxq5xrxZLrDcrSqaPwbjDbcTStKprVPStK0rWhbasWrNbcazAuYOBHKa0c2eG3HTlNaGIkKu49Z2TIcgtUBxT0Gw53Bq/j2x8bhPLW449ExrP7NcoDa11o4tEalVpSqtU01PPjnDltjnyT8nk+RDMaTo26IlFbj6w38THRv3FtZ/b9ybNg5V+Ht9ufVCSnQihmTXgGRdk7Y2Btydilw2DkcvIX8G11gep8RQ+hhiLj+v8AW2PQ8ZxHHLZDitMxosSBbofmOVSmi5Ux5+S8pch91xdtaVpr2Y6ZmfhkdDO3t2a+dfcpfpd9Ca2jWHUse4PWy7b62nNl4fqWDNiLq3NgWy6t22633NLpCcp4JEaw2+5uRHFJpK8hK6KOPn3eHb8Lz7XVHT/T0qTMQkqYF6MGq7QxI2fz+oxfnmGqybTgXHn3u0W6TRS/OQxkOQ7dhTL0wtNU+FSrZAUmtK9U1606Y+3N+Ps04eef0LO21m5J+jx5W4Bj11yDjJyV1fyJmW5h2Wxg2ZYrcNE5deqJT1Ra8enSsn2HhEm7KcrRKVXO62WItNKrU81XoismPmuK06ZKzXz9P0KxePKik7r0buDjjsnI9P731xl2qdmYnJpGv2G5pZ5Nmu8Tx0qqLNYRITRm5We5M9Hoc6Kt6FNjqS8w640pK65Ol6ZKxekxNZXsUl4ATz/SW9zO7ZPbMp7aW276qa/iFnvez+MVzuUjxSqY0icmZsnUzK19KyGrNMuKshtLfx3URnromqqMR4zaMJzTbxExuK+XhPzT83xI7x5U3sw6wAAAAAAAAAAAAAAAAAAAAAAAAAAAAAAAAAAAAAAAAABx97wbjlNY6gZo4ujS88vLi2qKVRtbjWPqS04pHXwqW2l5dE1rTrSi69PhqdN/znWtHc3lFdZ7M8ztOnk1jBfSfg1nT0y9Cf8ALzpSe/XeDJMR245TjiJ04xE7iszET1TpGseXSOqHAY86nrCAAMZ5rra2ZOl2dC8u23utKq95SjpGmq6exM5tFOvjr8Hmpp46fu0XSlKG393u9u75PMbfca5uXfs/rU+xM+T+rPDq7PGXKwbq+L2bccfq9DV672e5WKa5b7pFciSm/b4V06ocbrWtEvMOJ6tvMrrSvRSa1p1pWnw0rQ+ybHf7TmW3jdbK8Xwz1dMT1THTEx1T6mWpeuSvapOsPWHLXgAAAAAAAAD7nD8Cu+WvUcbTWFaW1+GRcnkVqitaV+M1EbrVNZT9P3elaIT/AJSqV6UrrnPu82x5Hj7Fp95vpj2ccTx9Np/Vj5Z8kTxmOPn3FMMaTxv1fS2ox7GbPjEOkO1Rkt9aJ8+S54Vy5a6f5cl/wpquvXrWiadEJ6/FTSh8X5pzff8AOM/v97fXqrHCtY6qx5PTxmfLMsRky3y27V5+h78xiMAATFOOKn18edDLlUVSSvTGrlSKLRRtdH1YPY6vUU3RKaIV5la9aUpTpX9w9rvD2ctu4PI7Z9ffTyfZ9rWNJ7X3bHrw8nHyPzs+L1cNfFjvRXb6fd47xcyiuk6x2fvmbs6Tx14acdeLM5t752AANRe4Fk6sJ4Gc28yQ5LZXiXEXklk6HYCWlTmlWHTWZ3VLkJLzjTKpaKxOrdFrSmq6U61pT2kuCNc9I67x61Y6VLebcmAO7XpqsUbynvN8R1yEMOw8ZY3llclp5+Sw4ty2cfNpMWpcWsWlKuPxb9OiP1QtSGltNLorxU/g18LmE6bS/wAHrhbb6q1wNZRAAABpvuzuHcGON2cyNZb85Y6H1BsKLbbdeJOGbB2NjuM5Exaru2t62XBy13OaxKREntNqU0uqfCulK9CWmDNkr2qVtNfNCukyxH/fEdq//qBcUP5ZsN/KRf8Addz/AHdvik7Mn98R2r/+oFxQ/lmw38pD7ruf7u3xSdmT++I7V/8A1AuKH8s2G/lIfddz/d2+KTsyf3xHav8A+oFxQ/lmw38pD7ruf7u3xSdmT++I7V//AFAuKH8s2G/lIfddz/d2+KTsyzvoLnTw35T5JecP438mdL7uynHrJXJb7j+tM9sOWXa04+mfDtarxPhWqXIejW6lxuDDHmqpRPmOpT161oWXw5cca5KzWPPBpMdLa0iUQIPWe/rM4CfQXkF+kGqDN8o+rk9MfOkohKGYXgFtj6e38G/g79Bs9+2fZRq+/wDxd/THqhDbpdmTiKAFZv6t/wDFQx77qGo/0y2sbDyv8NP2p9UJadCL6ZJcAXTXAv8AqM8MPun8dfsgw81HP/Hv9qfWhnpbYESgAAgQes9/WZwE+gvIL9INUGb5R9XJ6Y+dJRCUMwvALT30vf4OHH76db8+2bMjWuY/i7eiPVCK3SkGnBWgAAAAAANceXvH9/lZxi3hxtZ2HfdVNbu17fNb3PPMat8S63my2DKGU27JGYtunPxYstu94+7Jt7yFON1qxKX0VRXSpJiv7rJXJprpOuhHCdULHZnox9kQkvv6c524RkqldVRrZszSd+wdLPxH/Cy/fcWz7YVZP8IlqlXE25r4q1V8HVFKOZevNq/r0mPROvzQk7bnrs30nPddwXz14lF467oQ35imEa83C7ZZUhCfJq2mre28U1jGZfco9WlU1eqhKml08daeBS568z21untR6Y+jVXtw7jenH7Fm0OJGxdmcrOd+m42G7xxC6VwHj7hN9vWCZu1ikR62R5OYbft1zwrIcusFbxdUz6WS0yG5KH4sdq4qomqJTDlOHv8Ae1y1jFhnWk8Z6Y+D51tra8ITIDErAABCv9Y5xhxW4aS4u8xrbaI0bOsU2dK465Vd4kWnv99wzN8XyvYeIs3qShlSl2/DL/gt0TCqpaEtvZC8noqrqfDl+U5J7dsX6sxr8XD5/kX0nyIApnEgBZcekZ2XLzPthZhhU+UpxzUPKbZmK2mIpxTnuuN5Jh+ttiR3G6e7tIZZk5Ll126N+N1XjQpda0otKaa9zSum5ieusfPCK/SlJGNWq3H1hv4mOjfuLaz+37k2bByr8Pb7c+qElOhFDMmvAOznY47Xcvug8woOE5c3doPHHUECFsLkNkFrcfhypFgXKej4tre03Njwqt+Q7NvEN2Mh1LjT0a0xLjLZUp6KhtfD3m5+7YtY/iTwj6fgW2nSFr3rrXWC6jwXE9Y6xxOxYJr7BLFb8Zw/D8Zt7FqsOPWG1MJjQLbbYEZKGmGGGkf41LVWqlVUpVa11m1rWtNrTraUT7MoAHGzvQ9pvXHdB40Xy0QrNZLJyj1vZ5984+7PVGt8O5fLUJiXLpq7Kr44zSW7rjOH3lsvtLdo3bp7jNwQlSmHGn+XtN1bbZNf/jnpj5/SurOk+ZUvX6xXrFr5esZyS1z7HkWOXa42K/WS6RnYVzs96tEx633S13GG+lD8Sfb50dxl5pdKLbcRVNaUrQ2eJiY1joSvUlRtBwq5LZJw55ZcfeTuKuy03HTO0MYy+fDhOVbevuKszUwc5xRa6ONV90zDCptwtUilFoqpiYulFJ69aRZscZcVsc+WP9CkxrGi6Sx6/wBmyywWPKccuMa8Y9ktntl/sN3hLq5DulmvMJi42u4xHK0TVcadBktut16U6pVSpqUxMTpPShe4KAAAAAAAAAAAAAAAAAAAAAAAAAAAAAAAAAAAAAAAAAHNXur4lcMi4uIvUFtlTOB7IxPJ7utam0OotU6Le8KTRjx1otxS7zlsPxIR1r4aVVWnRNa06yfm05Nm5p4TW3uGImOX8x2+4v19i0ZNtw6/a3FJmOqJnoh3N/Ilz/a8n8cv5buZtF+a8n3W2xRGuk5KWw7zj5I/dbXLpM+WYrHG2kxrjy9ezoAAAehyHGrTk8KsK6x6OJp4qsSG+iJURxVOnmRnuiqor7KdU1pVCulPFStDJ8r5vvuT7j7xsr6T+tWeNbR1Wjy+nhMeSYSY8t8Vu1Sf0tVswwO7Yk9VxylZlpcX4Y9yaRWiKVrX4rMtvqqsZ+tPgpWtUK/yVVr1pT7RyHvLseeY+xT93vYj2sczx9NZ/Wj5Y8sRwmcvg3FM0aRwv1PhjY3IAAAAAAUpWtaUpSta1rSlKUp1rWtfZSlKU9ta1qJmIjWegZywjUz0vybplDa48X4rjFo61RJkU9iqKnVp0VGZrT/06Vo5X93wdOlfnPeLvvjwdrZcmmL5uicvTWv2P2p/rfVjydryY/PvIr7GLjPX9DYlhhmMy3HjtNsMMoS2yyyhLbTTaadEobbRSiEITT4KUp0ofKsmTJmyTly2m2S06zMzrMz1zM8ZljZmZnWeMv1LFAAB7C1WuffLpbbLaors26XifDtdthMpqp6XPuEhuJDitJpStVOyJDyUJpT21rU5fL9juOZ7/By3Z1m273GamKlY6ZvktFax8NpiHD5jv9pyrl+fmm/vGPY7bDfLkvPCK48dZve0z1VrEzPoTTcWx6DiOMY5ils8fybjFhtGPW/zPD5nuNlt8e2xPH4aJT4/d4yevSlKdT3F5dscPK+X4OW7bX7vt8NMVfs46xSvyRD82nOua7nnvOd3zzeaffN5ucufJp0dvNe2S2mvHTtWl745rGAADR3udRZM7tsdwqFCjvzJkzg7yyixIkVlyRJlSZGhc+aYjx2GkrdfffdXRKEJpVSlVpSlK1qTbb8Rj+3X1wrHSplzbUwBIB9MLOiRO8txujyX22XrpiG/4NvbXWvilS29E7Aua2GulK9XEwLc+77enxW6nB5j+Et6Y9cLbdC1JNaRAAABV+eqx/FwzD/8K0n/APC3I2Pln4WPtSlp0I3BkFwAAAAJevo4v683J/7p8j7X9ZmK5t/Ar9r5pWX6FiqYFGgQes9/WZwE+gvIL9INUGb5R9XJ6Y+dJRCUMwvALbH09v4N/B36DZ79s+yjV9/+Lv6Y9UIbdLsycRQArN/Vv/ioY991DUf6ZbWNh5X+Gn7U+qEtOhF9MkuALprgX/UZ4YfdP46/ZBh5qOf+Pf7U+tDPS2wIlAABAg9Z7+szgJ9BeQX6QaoM3yj6uT0x86SiEoZheAWnvpe/wcOP306359s2ZGtcx/F29EeqEVulINOCtAAAAAAAAAAAAAAYb2vyL4/6HgPXTd28dRagt7EZ2Y7L2bsfD8GZpGYbQ666hWTXi2VdSlDia/F61r4k0p1rWnW+uPJfhSsz6I1NJQR/Uy95/jBzH1Zr3hlxIy5O2LHjW1oO1dr7btlrmxMKcn4vjmS45jOD4TcbxHiycnS9JyyTPuNxix0QUe6RG4sqSl6UhrNcu2mTFac2WNJmNIj50lazHGUNEyy8AsVPRxf1G+T/AN69/wCyDWpgObfx6/Z+eUd+lL2MWsVuPrDfxMdG/cW1n9v3Js2DlX4e3259UJKdCKGZNeAWe3pWeL9s0d2wLDt+TbWmM25W7EzHZt5nuMpRc6YdiN4nay1/Y3nk/wCctbDGLz7xETXrVNb87Xr8bwp1zmWSb7nseSsafPP9PMitPFJUMetAAACrS9T3xetfHLupbCybG7cm24xycwfFeRMaPHbaRCaynIpl8w/YlW6stN/67eM3wqbeJVF1U5V661XWvhWmhsnLsk5NtET01nT6PWlrOsI8Rz1wBb2djTcMnefaV4L5xOl+/TbZpWHq2VJUhxt5xzRmQX7SiayvNpR12XVnX6auPK61kLrV3qqi6Krq29p2N1ePPr8fH50Nul1eOKoAAAAAAAAAAAAAAAAAAAAAAAAAAAAAAAAAAAAAAAABj7a+u7TtrWuca1va0s2/NMaulhXMVFRNVbJUyMtNuvLEVxxlD8uyXGjUtlNVpp5zKfbT4TAd6u72z7292993a3/Da77a5MMzp2ppN6zFbxEzGtsdtL14x7VY4ts7id7t/wBwu+XLO+XLIm285bvcWeK9qaRkrS0TfFa0RMxTNTtYrzpPsXnhKHLleL3zCcnyDDsmgrtuQ4vebjYL3AWpDlYtztUt2FMZS63VTT7aX2VeBxFVIcR0UmtU1pU8Ved8n5h3e5xuuRc1pOPmO0z3xZK9V6Wms6T5YnTWsxwtExMTMTD9E/d/nvK+9HI9n3j5LljNyjfbbHnw3jh2seWsXrMxPGs6T7VZ0ms61mImJh8+YtlwAAA/J9hiUy7HkstyI7yFNvMvIS406hVOikLQulUqTWn7laF+PLkw5Iy4bTXLWdYmJ0mJ64mOhWJmJ1jhLXbN9TOw/OumLoXIi08Tj9p6qckx0/vqqhKVWq5LKaf+nWtXafuePr7Pqvd3vvTP2dlzmYrm6K5eitvt+Ss/1o9mfL2fLksG8i3sZeE9f0sG1pWla0rStK0rWlaVp0rStPZWlaV9tK0qfRomJjWOhkAAAA9ha7Tcb1MagWyK7LlO1+K23T2JT7PE46uvRDTSOvtUqtE0OLvd7teX7e263l4phr5Z8vmiOmZnyRHFbe9cde1edIbQYRrS341Rq4XHyrje+lFJcqnxRYCvh6Q0Lp1U8n/3VUor/wAtE+3r8c7xd7t1zebbXa64uX9X61/tTHk/qxw65nyYnPurZfZrwx+v0/Qygac4gAAAAOgnbY0pJ2ryNseTzISncT0/RjO7zJW2/wC71yBlxxvBbaiQ0mqGbi5f2vlFpDnRLse1SKdetKUr2S/K73Gy96/EnFzrPTXlHJYjc3tMT2Zz8Y21NfJf3muaNemMFvM6j/nP8SsPcXwe3PItvkivP+8MzssVYmO193mIne5JrPGcfuZ+72mONb7nHPRqk7nqW8TQAAAwzyOwR7aXHnfGso7Tj0jYumdoYIwy1V2jrr2XYRfMfaabqw26/RxxdwpSngSpfWvspWvsL8duzkrbqmJ+UUjZuCcA6wdjHaLGn+7fwQy6S+qMzc93wNZqeSpCOit12C/6aaQtTjjaaMuu56lC/b+8VXpStfZXi72vb2t482vxcfmUt0Leo1ZCAAAFX56rH8XDMP8A8K0n/wDC3I2Pln4WPtSlp0I3BkFwAAAAJevo4v683J/7p8j7X9ZmK5t/Ar9r5pWX6FiqYFGgQes9/WZwE+gvIL9INUGb5R9XJ6Y+dJRCUMwvALbH09v4N/B36DZ79s+yjV9/+Lv6Y9UIbdLsycRQArN/Vv8A4qGPfdQ1H+mW1jYeV/hp+1PqhLToRfTJLgC6a4F/1GeGH3T+Ov2QYeajn/j3+1PrQz0tsCJQAAQIPWe/rM4CfQXkF+kGqDN8o+rk9MfOkohKGYXgFp76Xv8ABw4/fTrfn2zZka1zH8Xb0R6oRW6Ug04K0AAAAAAAA9Tfr9YsWst0yTJ71accx2xwJN0vd+v1xh2iy2e2QmlPzLjdLpcHo8G3wIjCKrdeecQ22ilaqrSlCsRMzpHSI0nM31Vfby44TrpiWiYeY8x88tynmVv63cjYdqBiax40rhydsZNDlPXRLivBVuVYLHfre4iqq0keJPgVkMPLc+TjfSlfP0/F9Oi6KSjo719XT3GNgypMfS+v+P3HywVUusF2Ji142hm7VF19iJ2QZveFYhNS0lNPB5WNxa9aqqqqqVTRHPpyvb1+vNrT8UfJ9K7sQ5fbB77fd22a84/kfO/dFtW4qilJ185iupWaVp5vSjcfVWNYYw0n+Gr1olNKV6J/8qenJrstrXopHw8fWu7MNLM75o8xdpedTZvLHkvsaklPgkUzve+0sv8APRVliPVL3zgyq4eanyIrSOiutPA2mnwJpSktcOKv1a1j0RBpDW599+U+9KlPOyZMl1x+RIfcW8+++8urjrzzrlVOOuuuKqpSlVrVVa9a+0kVfiVAABYqeji/qN8n/vXv/ZBrUwHNv49fs/PKO/Sl7GLWK3H1hv4mOjfuLaz+37k2bByr8Pb7c+qElOhFDMmvALl3td4XH1722+BWJR2GI67bxB48P3FEVVFx13276rxe9ZFJZXRpmriJl+uMl2iqpopXj619tampbme1uLz/AF59aGelvaQqAAABBI9aBg7bV47feyY0bq9PtnI/B7xM6xU+Bu0ytMX7G43h6pmveYq9XVfXotpvw/5Cl/HzXKJ4ZK+j519EGwzKQAtAfSmZPW/9pDErVWWqR8yd77rxijNY6WKQKS7va8z90Q6lpusxK65d5/mKq5WlXqt+LoiiU65zONN1M9dY+hFfpSSTHrQAAAAAAAAAAAAAAAAAAAAAAAAAAAAAAAAAAAAAAAAAHGbue8R5mSsSOSevba9Mu9otsePtazwWKvyJ9jtUZEaBnDLTdKvuO49bWERrj0ouibcy0/0bbivrX0r/ADT+DefnWGfEru1im/MsGKI32Osa2yYaRpXcREcZthpEUy9OuGK24Rit2vRn8kv5gNvyPNXwb73564+WbnNa3LM17aVx58tptfZ2meEV3GS05MHR/wDotfH7Vs+OK8HTz2eqIAAAAAGLs21nbsko7Pt3lW69VpVSnKJ8MWer/BLQinVDqv8A3U08X/mor2dNy7vd791yma7Xd65eX9Gn61PszPTH9WeHVMeXl4N1bF7NuOP1ej6GsF0tVwss1233OK5Els1+M25T2KTXr4XG106odaX0+KpNapr/AIT7Fst7teYbeu62d4vgt5Y9Ux0xMeWJ4wy1L1yV7VJ1h685S59piODXfLX6VjorEtja/DJubyK1ZR06eJqOjqmsqR0/yU1pRPs8Sk9addf553j2PI8emWe3u5j2ccTxnz2n9WvnnjPkidJQZtxTDHHjfqbV45i9oxeFSHa2PCpVE1ky3fCuXLXT/LfdolPWlOvsTSlEJ/cpT2nxXm3ON9znce/3ltYj6tY4VrHVEeuZ1mfLLEZct8tu1f8ARD6ExaIAAAAH0mH4hk2f5RY8Lw2zTMgyfJLgxa7NaIKUqkTJb9a9KVW4ptiNHYbSpx591bbEdlC3XVobQpVMtyLkfNe8vN9vyHkeG+45ruskUx469NrT1zOkVrWIm17WmK0rE2tMViZYXvH3i5J3S5Huu8vePcY9pyTZ4pyZst9ezWseaIm1rWmYrSlYtfJea0pW17REyveJvHGzcZdSWvB464dxyq4OfLufZFEo+pq9ZPKZbbeRCclJbkUstnjNoiQk1bYoptur6mkPvvdfXnwk8Ndh4Xdz8Pd/BNcnMrz73dZo1/e57REWmuuk+7pERjxxpX2a9qaxe15nwY8evGHmXjV3/wA/ejPGTDyTFHuNjt7aa4dtWZmvbiszX32W0zlzT2r6Wt7ut7Y8ePTZo+nPiwAAAAKXruE6OXxr50cuNF0hOW+3a15B7TsGNsOIo2pzC/nddJ2CzaNpolKG7nh0yDJRSlOlEu06G24L+8w1v11j9KaOMNOiZV9RhGY3/XeaYhsDFJnydlOC5RYMxxq4eCjnuN/xi7RL3Z5nlq+K57tcYLa/DX2V8PQpaItE1nomBdccb944nyZ0BpjkJgzzbuJ7o1lhmybK2h5L7kGPlthg3hy0TFUSirdyskmUuHKbUlDjMlhxC0pWmqaahkpOO847dMTognhOjNRYAADF+V6Q0tnl3XkGcah1fmd+cYYiuXvK8AxTIru5FjJqmNGXcrvaZkxTEdKq0Qiq/CilfZShdF71jSszEekfNf0XeM/9nbRX8keAf7vlfeZP2rfHJrJ/Rd4z/wBnbRX8keAf7vj3mT9q3xyay5p95DWnG7Sna151Z/D0jpfG7k1x3zrELLfLbqzA4dyt1/2bEb1nj79tmtWJqRBuFb1l7CWH2lJeYdUlbaqOJTWnI2lsl9zSvan60eWfJxVjXVUrG0JgCZZ6NPDZU7k9zK2EhD9YWL6GwfDZDiat+6olZ3sGt7hoeTVPnVfca1y/Vuqa0TRKV+Kla1T0xPNrfu6V67a/FH6Vl+hYPGCRoEHrPf1mcBPoLyC/SDVBm+UfVyemPnSUQlDMLwC2x9Pb+Dfwd+g2e/bPso1ff/i7+mPVCG3S7MnEUAKzf1b/AOKhj33UNR/pltY2Hlf4aftT6oS06EX0yS4AumuBf9Rnhh90/jr9kGHmo5/49/tT60M9LbAiUAAECD1nv6zOAn0F5BfpBqgzfKPq5PTHzpKIShmF4Bae+l7/AAcOP306359s2ZGtcx/F29EeqEVulINOCtAAAAAAAfB7S2dgeldb51t3aOS2/Dtda1xW95rmuUXVa0wbHjeO29+53We8lpDsh9TMWOry2WkOPvuVS22hbikprdWtr2ileNpkVXXeI73W/u51si+YnY7zf9YcPcbvb6Nb6UttwdhUyqPAkUTAz3b64K20ZVl1yqymTHgvVdt1gQujERK3veZsvZNps6baus8cvln5o/pxS1rp6XDY5q4AAfWYhgec7BuVLNgWGZXm94r06WnEMdu+S3KvVt52nSDZoc2VXq1HcV+8/eoVX4E16WzaKxraYiB0E1L2a+6fu12IjA+CHIxtmc75US5Z9gU7UNjkfwdHKPtX/ba8HsiodaK6Uke8eRVdKp8fipWlILbvbU+tevwTr6tVO1DovkvpjOcGmuLG/uVfJ3NdSacsej9O51tBOtLJento7HyG4Yhj0u8xsemvY3SLr6wwLlIYSyucxfbm6zTxqpFcpRPjgjmOG+SuLHEzNpiNeiPp+RTtRrojcGQXAFip6OL+o3yf+9e/9kGtTAc2/j1+z88o79KXsYtYrcfWG/iY6N+4trP7fuTZsHKvw9vtz6oSU6EUMya8Auhe3beYWRdv7gzf7dVysC9cPeNF0iebRCXkx52mMLktIfQhbiG320ueFaaKV4V0rTr7DUdxGme8f159aGeluKRKAAABB19aHkMNrHO3pilPC5PnXvk1kKvC81VUWHa4Oi7ajz4/XzkpnvXhXlL6UTWsZyntrT2ZnlEcck+j519ED8zSQAs3vSY2aVbO1GubIcYW1kXJrcV5hJZU4pxqKxacBx9bcqi2m0ofrNsTyqURVafKUivi8VVJTrvNJ13PorHzor9KTYY5aAAAAAAAAAAAAAAAAAAAAAAAAAAAAAAAAAAAAAAAAAAAcT+ZHbO+UHr5tLjdAjsSXnHbpf8AULNG4sZ5biquTpeu1fEjRFeNVXvkZyrbNE+NMJaekeCrpB42fldjmGTP3s8NKUpu7TN82wjStLzPG1tpPCtLTPGcFtKTx91aulcVvSj8un5052OLbdxvGPLe+1rEYsHNZ1tesRwpTfxxteNPZ+917V9ezO4rbXJuK8Pp0GbbJsy23KHKt9xt0qRBuFvnR3ok2DNiPLjy4cyJIQ2/FlRX21IcbWlK0LTVKqUrStDoRudtudluL7TeY74t3ivNL0vWa3pas6Wratoia2iYmJiYiYnhL072m72u/wBrj32xyY82yzY63x5KWi9L0tEWrel6zNbVtWYmtqzMTExMTo8UgTgAAAA+dyPF7RlMOsS6R/EpFFVjS2vCiXEWqntWw7VKvZXpTxIVSqFdKdaV6U6ZXlPOd9ybce/2dtIn61Z41tHVMeqY0mPJKXFlvit2qT8HkljuBx3vNrcZvOUIdXjT6/FbFsNvMLuSOvVHvta9F25txPtSmlaqeT1qhXh6Krte68UtjvMdtjyfSObVj95rMTGOfL2PJeY8s6aVnhaNeERYu8vLd5uMmw2eWlt9i+vWJ1069PJbTotpr2Z4W0ngzBGjR4bDUWKw1GjMIo2ywwhLbTSE/AlCEUolKaf4jQ8uXLnyWzZrWvltOszM6zM9czKszNp1njL9iNQAAAAGUtQ6Z2NvTMImE60xyXf7w/4XZr6aVYtFit3joh275BdVp91tNsY69PG5XxOuVS0ylx5bbatw7k9xO8/iDzmvJO6+2tn3M6Te/Riw0145M2TopWPP7Vp9mlbWmKzoviH4k9zfC3u9k7y99N5Ta7CusUr9bNnyaaxiwYo9rLknqj2axrfJamOtrxJR4i8KMD4wWZF2eWzl22brDUxkObvMKbjwGJFULcx/EITvVVssrPlpo6+vrMnuUU47VtqrUWP6f+D3gf3d8Kdj94rpvO9mammbdWjTSJ0mcWCs/wAPFExGszrfJPtXmK9jHTxi/MB+ZTvV438ynZVi3L+4eDJ2tvsq21m9q6xGfdXj+LmnWezWP3WCsxSkWv7zNl3YPtzrYAAAAABW/wDq5+Jj2quc2uuVNktbjWKcqNZQoGSXFtp1TSts6Yj23D7qmQ6lNY8X33WsnGPd0VrRby4spdKV8Cq0z/K8vawzinprPyT+nVJSeGiJqZReAT/vSUdyK0ZZq3KO25sy/tRs21pJyPZnHNNwebZ+ceub7cHb5sXA7Yt1aPebxhmWXGTfGmE+OQ/brrLWhNGLc5VOD5pt5i0bivRPCfT5J+b/AEo7x5U0wxCwAAAAACHB6vTm5aMF466n4I4xdG3M53nklr25s2Aw9Wq7VqLXtylUxSLc2EPN1p889mxW5ENSkuo6YzJ8SUqq0oy3K8M2yTmn6tY0j0z+j1r6R5VeoZ1IAWL/AKPbQUjB+E/ILkFcoHuczfm9YmM2eQtiqHLrhelMapCt1wbkVpTz4jeZ59kMVKadaIdjO/uqrQwHNb9rNXH+zX1/6IR3nil1mLWIEHrPf1mcBPoLyC/SDVBm+UfVyemPnSUQlDMLwC2x9Pb+Dfwd+g2e/bPso1ff/i7+mPVCG3S7MnEUAKzf1b/4qGPfdQ1H+mW1jYeV/hp+1PqhLToRfTJLgC6a4F/1GeGH3T+Ov2QYeajn/j3+1PrQz0tsCJQAAQIPWe/rM4CfQXkF+kGqDN8o+rk9MfOkohKGYXgFp76Xv8HDj99Ot+fbNmRrXMfxdvRHqhFbpSDTgrQAAAAAAEQP1fXLi86w4oaM4k4rdJNvl8ms8vGW7D9yeon33WelfkC4RsauTfTxUhZBsTKLRPbUmtKqXj6kV6pqqlcryrFFstss/qxw9M/o9a+kcdVdiZ5IAdiO0D2d90d1/bF6tlhvSdX6B1o7bl7h3TNtlLx8lP3NDr9pwrC7CuZb/nLnN9YjOOUSp5qHbIiayZTniVFjTOJut3Ta148bz0QtmdPSsNOJ3YR7W3EW126mMcYsQ27mcRhlEzZXIuJB3PlVxls9apubFrymC7gOLT6delF2Oy2v2fD1r1rXBZd7ucs8bTEdUcP0/Gsm0y66Y/jmPYnaotixaw2XGrJBbS1Cs2P2uDZrVDaQhDaG4tvtzEaJHbQ22lNKIRSlEppT4KHFmZmdZ6Vr3RQc2+8R+Ff3Avuobm/Q25HI2v4nH9qPWrXpU7JtaYAsVPRxf1G+T/3r3/sg1qYDm38ev2fnlHfpS9jFrFbj6w38THRv3FtZ/b9ybNg5V+Ht9ufVCSnQihmTXgFsb6dPetv3r2ieKz7U1iTfdSWrKdFZXEYdo6q03DWmUXS343Ckfwji235WuZdjm1Srw9Ey09KeHw1rrG/p2N1bqnj8f6dUVul29OGtAAACty9XlvqLsLuDas0fapqZMLj1oGyIvsajyV1t2d7XvlxzG5xlsprWjKncEjYy/wBVdFro7T2eGiaq2DldOzgm8/rW+SP06pKdCKEZNeAWwXpwNZu6y7OfElmax5F1zmJtDZlxpSjNEutZpt3OZ+OPpU0wy4vzcMRbKqq6pxdFdaUV4KIQnWOYW7W7v1RpHyQit0u5Bw1oAAAAAAAAAAAAAAAAAAAAAAAAAAAAAAAAAAAAAAAAAAAA0d5ZcGdb8mIUzIYtGMJ24zGaTbs4gxkqj3qsNlDEa2Ztb2qIreYXujSWGpSapnQ0oa8C3GGqxXfhni74Ed1/FLb232kbLvdWkRj3VK/X7MaVpuaRp72mkRWLaxkx6R2bTSJx27NeAv5ne+fgrusfKss25l3BteZybK9uOLtTNrZNnknX3N+1M3tjmJw5Zm/arXJeM1I3u49J7J0NmMvCNmY7Isl1Z8TtvmIr71ZMht3ipRm747dm00jXS3PJVTrVPheYcrVl9tl9DjSPMfvx3B70eHfObck70ba2HccZx3j2sWan95hyaaXrPDWOF6TPZyVpeJrHsl4c+JvczxW7u07y9y93Xc7KdIyUn2c+3yeXFuMUz2seSNJ011pkj28V8mO1b2xQaa34AAeTEiSp8lmHCjuypT6/AywwhTjriula1olCaVrXomla1r8FKUrWvsoRZs2Hb4rZ89q0w1jWZmdIhDuNxg2mG243N648FI1m1p0iI9Pq654Q2QwjVca01YuuRJam3OlKOM2/4rsKAuvtop6vtRMlN0/8WkK61T460Suny7n/AHvy7ztbPlkzj2vRN+i1483lrWf/AHTHTpEzV8Y7z9/M/MItseTzbFsuicnRfJHm8tKz/wC60dPZiZqy7Kixpsd6JLYakxn0VbeYeQlxpxFfhStCqVpX2+3/ABV9ppWHNl2+WubDaaZazrExOkxL55gz5ttlrn29rUzUnWLVnSYnzTDXPN9UyLb510xtDkq3popx+21qpyZETT2qVHrXquXHTT9z2upp/wCb21p9P5B3wx7rs7TmkxTczwi/RW32v2Z/sz5uh9k7sd/cW87Ox51MY93PCuTopf7Xkpbz/Vn+rwicLG+Ppj/AAADeTibwY2PyXmRchm0kYRqViUtNwzWdFVWVfKRXatSrbhMB6iE3aZ5yFMuS11pBiKS54lOvN+7L7A+D/wCX/vJ4m5ac03vb2Hc6Le1uLV9vNETxptqT9edeE5bfu6Tr9e1Zxz1d8fPzR9zvBjb5OT7Pscz7/wBqextKW9jB2o1rk3l6/wAOukxauGv77LE10jHjv76skLT2lNb6Iw+LhOtMdjWK1NeB6fLr/rN5v9xojwO3fILq5T3m6XF72+1VaNso6NMoaZQhtPpl3P7ld2u4fJqci7sbam32VeNpjjfJfTjky3n2sl565nSI0rWK1iKx44eIXiR3x8Ue8OTvL303l91zC2sUr9XFgx66xiwYo9nFjr1R7Vp1vktfJa15yqbU0YAAAAAAByF74Xb9r3Fe37tHVOM2xM/dGvFI3RoPweFMmZsrCLbc6fNFtalNJUnYmK3G5WJtLriI7U2dGku+yMnpytnn+754tP1J4T6J+jpVrOkqjeVFkwZMiFNjvw5kN96LLiSmXI8mLJjuKafjyGHUodYfYdRVK0KpRSVUrStKVobQmeOVGS9Obh2Xx+2lgm6tO5ddMD2frXI4GVYXllmU1SdZ7zbnKqac8mS1IhToUlpS2JUSS09FmRXXGH23GXFoVZelclZpeNayLSzs8d8fj/3O8Ds2FZBcLLqbmHj9mbTn2mLnOZhxczft0RCrlnWmJEySt7JsUmUSp9+3VUq7WNVHGpCHoyGLhL1zd7O+3trHHF5J+af6cUVq6eh3TOEtAAADmr3MO6Vxq7YWl7lsPcN/hX3ZN2tctWo9EWa7RGdgbSviVKjRUxYqkyncfw2HN9t0vslhUSEyhaW0yZamIj/I2+2ybm/Zp9Xyz5I/p1KxEyqduYHLHb/N7kVszkzvG9Ju+fbKvarg9Fiec3Y8WsURtEHGsLxaG868u34zillYZhw21LW6tDXmvLdkOOur2fFiphxxjp9WEsRp0NaCRV9dgGCZbtHOsM1pgNjm5NnOwsqx/CcOxy3Io5Pv2UZTdYlksNnhoVVKVSbjdJzTKOtaU8S6da0p7S21orWbW4ViBcy8DeLNj4TcOuPHFmwvsTWtOa2s+PXu6RW/Ki33Npy5GQ7DySMz4G1MsZLnl5uU9CFUqtCZNKKqpVKqrqefJObLbJPln/R8iGZ1nVtuRKIEHrPf1mcBPoLyC/SDVBm+UfVyemPnSUQlDMLwC2x9Pb+Dfwd+g2e/bPso1ff/AIu/pj1Qht0uzJxFACs39W/+Khj33UNR/pltY2Hlf4aftT6oS06EX0yS4Auhu3hebdkPALg9fbRITLtl24h8bZ8J9NKp8bEjTmGuI8aFUotp5HXwrQqlFtrpVKqUrStDUdxGme8T+3PrQz0txCJQAAQIPWe/rM4CfQXkF+kGqDN8o+rk9MfOkohKGYXgFp76Xv8ABw4/fTrfn2zZka1zH8Xb0R6oRW6Ug04K0AAAAAABXa+sgnzHOa/Fi2LkOKgROLTs+NFrWnlMzLjtnPI86QinTrRySza46Ve34Gkme5T/AAbT/W+aElOhD/MqvALT/wBL7hWKYr2b+Pl9x2PGZu+ys537mueOMLbU7KyuBujNNcw5E1KK1U3JTg+AWZqlF9FeS23X97VNa61zGZnd2ieiIjT4tfnRW+skFnBWgACOx6nrlnj3HXte7E1jS5RG9jcrr1ZNNYTaV1Q7Lcx6Nd7Xle0L97nX4y7bbcPtSrc4/StKR5t5h19tVJpXn8uxTk3MW/Vrx+hdWOKrcNkSgFip6OL+o3yf+9e/9kGtTAc2/j1+z88o79KXsYtYrcfWG/iY6N+4trP7fuTZsHKvw9vtz6oSU6EUMya8Al0+k/7jlh4+cgs54PbWv7NnwDlNdLTkGpLlc5NI9qse/bJb3LUuwKcXRuPGd25izUaE268vq5c7JbojKfMl+3Fcz285KRmr9avT6P0LLxw1WMJgUYAAwNye5H6u4i6B2pyR3Pe27DrjUmJzsov0nxs0m3F1qrcSy43ZGX3WW5uS5ZfZUa2WyN4k1kz5bLVK08XUvx47Zbxjp9aZIjWdFNry05H5py95L7v5NbBr4Mq3TsXI85l29L6pUfH7dc5ik47idvkOIbddtOHY4zEtUOq6eOsWG34q1V1rXbMWOMWOuOvREaJojSNGvBIq+owjDMk2NmmIa9w22P3vL87yiwYZitmipquVd8kyi7RLJY7ZGRSlaqfn3Oc00ilPhUuhbaYrE2noiBdccbdM2jjnx50Xx/sLrciz6S1BrjVFultt1b9/ja/xC0Ysm5OUX1cU/cq2ur7q11q4txxSl1qqta11HJecmS156ZmZ+NAzUWAAAAAAAAAAAAAAAAAAAAAAAAAAAAAAAAAAAAAAAAAAAAAAYv27prXW88Om4PsrHIl/s0n+GiPLTRm7WK4pTWjF4x+6oT73aLox1rTzGlUS60pbLqXGHHG16x3u7m93O/XJsnIe8+1pudhfjGvC+O/kyYrx7WPJHktWY1iZrbWlrVndu4HiJ3v8Me8WLvP3M3mTacyx8LRHHFmxz9bFnxT7GXFbp7Nons2iuSk1yUpescLlpwR2NxslzsmtFJmd6gXJb90zKJDrS4Y4iW4hqLb85t8ai0Wx1Mlykdu4N/6hLWpv2x3n0xEeZ3jF+XzvJ4Z5MnN+W+85h3M7XDPWv7zBEzwruaV4V0mezGav7q86a+7veMb2M8AfzT90PGXBi5HzP3fKvEKKT2tpa/7vczWJm19lktpOSJrE3tt7fv8AFEX/AI2PHbPOiJ16dqH0mNYreMqme62xj+DbrSsqa94kQ4iK/BV52ia9XFf5LaaVWrpWtKdKVrTF815xsuUYPe7u3tT9WscbWnzR1dczpEdesxE4XnfP+Xch2/vt7b95P1aRxvefNHV12nSI69ZiJ2qxLCrRiUfwxE+83B1uiJdzeRSj73topTbSaVVSLGqunWjaa169KeJSq0pU+P8AOefb3nWXXNPZ20TrXHE8I88/tW08s+fSIidHwbn/AHl5h3gzdrcT2NpWdaY6z7NfPP7VtP1p8+kVidH2BhGugADFGbaxg3/zrjaPKt14rSq1oomiIVwX8NfPSin8BIXX/wBVNK+Kv76levipuPIe9m45b2drvdcux6InptSPN1x/Vno8kx0TvvdnvvuuUdnZ8w7WblvRHlvjj+rM9NY/Zno/VmOidZbhbp1qlvQbjGdiS2FeFxl1PStP8Ck1p1S42qntSpNapVT20qfV9tutvvMNdxtrxfDbomP6cJ64njD7fs97teYbeu72d65NvaOEx6p8sTHlidJjyw/iDBm3ObDttthyrhcbjKjwbfb4Md6XNnTZbyI8SHDiR0OPypUp9xKG20JUta1USmla1pQ5222253u4ptNnjvl3eW8UpSlZte9rTpWta1iZtaZmIiIiZmeELt3u9rsNrk32+yY8Oyw47XyZL2ilKUrE2te97TFa1rWJm1rTERETMzo7Y8Qu2IqqrXsbkvB8CU1bn2TUaH0qqvpWi4srP5cZaqURX/OUtLC+tfiJmOU/h4de93g1+VeuGcXeXxQxxbLwti5frE1jyxbdWrMxbr9xWdOiMtp9rFHmf+YP87XajP3P8F8vszrTNzWazE9Vq7GtoiY/Z+9Xj9qcFP4e4dt4UKHbYcS3W6JGgW+BGYhQIEJhqLDhQ4rSGIsSJFYQ2xGjRmG0obbQlKEITSlKUpQ7yYcOLb4q4MFa0wUrFa1rERWtYjSK1iNIiIiNIiOERwh5pbjcbjebjJu93kvl3WW9r3ve02ve9pm1rWtaZm1rTMza0zMzMzMzq8kkQgAAAAAAAACvC9T52dbnpDZt+7ifHXEZMjSm3L+qbyNxyww1Ps6r25fZPV/YqosVqrkLBtrXN2rs2Q5SrMHJnlpW6lNzhsN53l277dfcZJ9uOjzx1fB6vQkrOvDyoeRll4B7jH8hv+J3y0ZPit8vGM5LYLhEu9iyHH7nNs18st1gPIkwbnaLtbno0+23CFIbS408y4hxtaaKSqladSkxExpPGBJe4beqv7hvHO32fEd627CeYmC2ptmNSXsVcvDdw0gx6NIZiNbWxmNKiXRyraV+ZMvthvlxecVRS5FelaKx+XlmDJxprS3m6Pi+iYWzWJdyte+sj4a3KHHXtbihybwu4Ka8UuNr246r2dDYf8pFfLjzsky7Ub0przqqT41R2a+GlFeDrWqacK3Kc36tqzHn1j6VvYl7vMfWN8EYMF1zX/GXltk9yox4mYmY2/TmCwXJXnITRl24WTamxH2mPIqpXmUjLV46UT4OlarpSOU5v1rViPhn5oOxLkTyt9XtzK2na7rjfFrSmtOLtvuDLsVrM75c3d4bOt6VNVZTNssy92HFNeW2S4qtXPBKx26eVXwpS4qqauL5WLlWKs65Jm3yR9PyqxSPKix7b3FtffefX7ae69jZntXY2TvpkX7Nc9yG55PkVxq2mjcZh25XWRJfbgwGKJZjRm6ojxWEJaZQhtKU0ydaVpXs0iIrHUvY2LgAmv8ApVO03c8qzOP3Nd6405GwvDXL5YOKlivEWQ1XKc16SLDlO5EMPUbjysew6OuZaLOuqXkP3pyVIR5TtsYW5h+Z7rSPu9Omfrejq/p86y8+RPrMIjAIEHrPf1mcBPoLyC/SDVBm+UfVyemPnSUQlDMLwC2x9Pb+Dfwd+g2e/bPso1ff/i7+mPVCG3S7MnEUAK4X1g+trjj3cG0Xs3ypPyDsjirj1njyXulWVZJr/ZeyGr7Dh1Sy3RLUayZPZ3VJUpxdHJCq1rRKkJpn+VWicFq+WLeuISU6ES8yi8Amx9ij1H+iuMfHXDeGnOxeX4xj+rHJtr1JvnH8cuucWaHgU+5O3GLhmwscxxm5Zqw/iMme+1bZtrgXJD1qo1FcYYXFS7Lw+95ffJknNh0mZ6Y6OPmWWrMzrCRZkXqN+zNjdrrc3eZ1ou9VJV7vbsd1Fvy93SS7RpTyGKRYWrFphqconw0XKXHZSutEqWmtaHAjl+7n9T5Y+lb2bOrXH7emu+Tek9YcgdS3OTd9b7dw6z5xh8+dDVbrg5Z71Ho+yxc7c4txy33SE54mJMdSqqYfbWiteqanGvS2O80t9aJ0W9DMJYIEHrPf1mcBPoLyC/SDVBm+UfVyemPnSUQlDMLwCY52gfUe8W+3ZwS1nxU2fozf2b5jhGR7KvNwyLA2tdrxqWxmue37LIDUNWQ5rZbp50SHdkNveOOlPmpV4aqT0rXE7rl+XPnnLW1YidOnXq9CyazM6unH7Y7wb/swcr/9BqD+co438pz/ALVfl+hTsSftjvBv+zByv/0GoP5yh/Kc/wC1X5foOxJ+2O8G/wCzByv/ANBqD+cofynP+1X5foOxJ+2O8G/7MHK//Qag/nKH8pz/ALVfl+g7En7Y7wb/ALMHK/8A0GoP5yh/Kc/7Vfl+g7En7Y7wb/swcr/9BqD+cofynP8AtV+X6DsSlj69zKDsXAcH2Da4suDbM7xDGsyt0Kf5NJ0ODk9lhXuJFm0juvR/e48eclDngWtHjpXwqrTpUxlo7NprPklYgzesy0pcWcu4S8jIcF1603LHNoaUyO5oRTyLdcbJc7FnWFQX3fYqrt6jZBf3Gk+2lKQHK+zr7czym/C+Py8J+afmSUQfTMrwCYZ6aHvXan4i2y+cGuXGVsYHqDMczmZppjcV/loYw/W+W3+PEj5LhWdTHEeHHcMyiZCanRLq4tMK2XJyTWZVtiVWRGxXMNnbL++xRreI4x1+jzrLV14wsKLDfrFlNlteSYxerTkeO3yBGulkv1huMO72W8Wya0l+HcbXdLe9Ig3CBLYXRbTzLi23EVpVNa0qYKYmJ0npRvbFBzS58923g725cYuk7fu3bPL2Qzb1y8e0JgMqBle6Mpkrao7BjtYlFmN0xW3z6V6t3S/P2q1VolVEyFOUS2rkYNrm3E+xHs9c9H9PQrETPQq+e513KN190HkldN77XaZxjHLXC+bOotS2m4O3HHNV4M07R5FnhTnY0J2+X+8zfFNvF1eZadnzHOiG48RmJEjbHttvTbY+xXjPlnrlLEaOdByFQCxU9HF/Ub5P/evf+yDWpgObfx6/Z+eUd+lL2MWsVuPrDfxMdG/cW1n9v3Js2DlX4e3259UJKdCKGZNeAeXAnzrVOhXS1zZdtudtlxp9uuMCS9DnQJ0N5EiJNhS4625EWXFkNpW24hSVoWmik1pWlKlOkTm+1R6rnHLDhmM6O7mkXJnLljkKFZLDysw6yTcrkXy1xG2mI727cMtfn5JJv8WO3Wjt9sUa4P3OtUe8W5L9H5j+G3PLJme3t9NP2fo+iUc06kpHDu7r2uM6skbILJ3B+IEGBKSlTTGY791xru9potFF0pJxrYF/xjI4aqUV7aPREVTX2V6VpWhjZ2u5rOk47/FM+pbpLW/kz6grtQcZbBOuU3lThm7siZYectWDca5MbdN6vz7VelYkXIsXlOa2tDivhou6323tKT+9UqvSlZMex3OSfqzWOueH6fkVisygCd37vX777q+bW6zTbc7qHjJgl0fn660dary9cUzrr/rEZrPtm3ZtuHHyvOVwH1MxkpZbgWaM4tmIirjsuXMzm12dNtXXpyT0z80eZfFdPS4pnMXAEnX0tfACfyg52xeTeX2R17TPDVMPOUTJcVdbZkO87s1Lj6qx+K+tLaXpOJOtyModWwtS4km1QEPI8uajxY7mWf3eH3cfXvw+Dy/QtvOkaLNU11EAAAAAAAAAAAAAAAAAAAAAAAAAAAAAAAAAAAAAAAAAAAAAAAB48uJEuESVAnxY82DNjvRJsKWy3JiS4kltTMiLKjvJWzIjyGV1QtC6VStNa0rStKlmXFjz47Yc1a3w3rNbVtETFomNJiYnhMTHCYnhMJcGfPtc9Nztr3x7nHeLUvWZratqzrW1bRpNbVmImJiYmJjWOLjVyg7X9jnXWbsTRCXbZAW4u4ZFqiLSikrrXpWU/gEqQ4qkJKl1q8q1u+NCaeNMJSaUjwjoh48flc3WTZ7nvV4PYMf8yiJvfl1rdmlvLa20meEW8v3a9q0njGK9NKYbei3gj+d7m2y5fj7oeKMxuNxERj2/NLdMfs131ax+80j2Y3NdLTPZncRbXLuGi8WysY62qyx7dW00trr0N63rYcjyIsqM4piUzMafpSSma0+2pL3m/wAL5lK+P43U8lubV5pi5lmwc6rmx81x5LUy0y1mmSl6zMWpaloiaTWYmJpMR2dNNI0dn83M8nOLRzPJmjce+rF4yRaLVtW0a1mk19maTExNez7PZmOzw0eQY5EAAAAD2Fk0ded93qJhuN2F+63t2niRcY6fJax+JVdEu3W7XGqFMQLQwqtPHV3rR1dUttJW8ttCvq3hD3J8QO//AHnpyDuHtrbjNaYnNa2sbbDjmdJy7jJpMY6xx0mNclpjs463tMUnhcz8UOXeFHLr94ucbquDl8cPdTxncW01jFix6xN8s+Ts6dmNbXtXHF7R2M4ncGdbcZ4cTIZNGc2229GeTcM4nxUpj2X3xpxiTbMKt7tF1s0L3R1TDspVVTplFu+JbbDtIrXtF4QeBHdnwt2tN9aK73vhemmTdWjhTtRpbHtqz/Cx6TNZt/FyRM9q0VmMdfPHx6/M73z8atzflWObct7hVvE49ljtOuXszFq5N5kjT31+1EXrjiIw4pinZrbJSc194T7o6ygAAAAAAAAAAA+azLDcT2JiWTYFneOWXMMKzOxXXGMsxXI7dFu9gyPHb5Cet14st5tc1t6JcLbcoEhbTzLiVIW2utK06VKxM1ntV4TArfO9f6crZ/C+55XyS4b2TIds8SHnLhf8lw2H73ftk8eGFSH5UmNc4vheumZartkZafdr23WRPt7Da03VNEs0uMrP7Pf1zRGPLwy/JP6f6QkrbXhPSiumTXgAAAAAAAEn/sheno2dzpv2J8keVtgv+sOGVumxLxarNPpNx/O+SCGK+8M2vEWv4C64/rGSpKKXDI6+S5OYXWPaFLdU9Nt+N3m+rhiceLjm+SP0+b41lracI6VlViWJYxgWK43g+FWC04rh2HWK04xiuMWGDHtlkx7HbFBYtlmstot0VDcaDbbZborbLDLaUobbRRNKdKGvzM2nWeMyjfQlAAgQes9/WZwE+gvIL9INUGb5R9XJ6Y+dJRCUMwvALbH09v4N/B36DZ79s+yjV9/+Lv6Y9UIbdLsycRQAjrepZ7d2Q85eCSc81Zj83Jd6cTbxd9p4ZYLVG98vGW4Bd4MKDt7DrPFTSr8m6P2a0Qb3GYZouRMkWBERlC3ZCEnP5fnjDm7NuFLcPh8n0fCurOkqt42RKAAAFoZ6VzedNt9pzCsJkz0zLtx127tbUEpt1xSpzVtuN3i7esKnkuqq6uE1bto0iRXKU8qjcOrKa9WV0TrnMqdndTPktET83zIr9KR8Y9agQes9/WZwE+gvIL9INUGb5R9XJ6Y+dJRCUMwvAAAAAAAAAF2rxd/qz8dv/wAK1H+gGPmn5P4lvtT60E9LT7u98A4Xck4KbX45xHYEDY7HuOydH3u5VQiFZ9wYQ1OexpuZIc6ogW3LLbPn4/OleFxUSBeH3kIWttKay7XP93zRk/V6J9H9OKsTpKoVznB8w1nmWU682Bjd4w/OcIv91xbLsVyCE9br3j2RWOa9brtaLpBkJS7GmwJsdba01p7Kp9nWntNqiYtEWrxiUz5UqAGwumuW/Knjo25H0ByU31pOI9JpMlQNUbdz7X9tmyKOJcUu4WzFr/a4FxS6pFPMS+24lynsVStPYR3xYsn161n0xEqaRLM2b90DuP7Htz1mzXnfy4vtllRnIc2yO8gtoxLJcIzteq2rnZ7fk0S23NKvg/1hpytKez4PYWRttvXjFKa+iDSGjkqVJnSZE2bIfmTJj70qXLlPOSJMqTIcU6/IkPuqW6+++6uqlrVWqlKrWta1rUmVdIdIdubP9ldu/mj3FspReMX1HxzZ1TiGsH/KaYa2ptfPt76o1/ksJj3qG+qXiWAYPmUx2c8yuOut6lwGmnXUsT2UQX3Fa56beONra6+aIiZ+WVNeOjmschUAsVPRxf1G+T/3r3/sg1qYDm38ev2fnlHfpS9jFrFbj6w38THRv3FtZ/b9ybNg5V+Ht9ufVCSnQihmTXgEn7vSdo1rT/FDhZ3FeOeAW+0aj2Fxc4zWXkxjWHWVi32zBtp3LVeHxbPth202aExAttg2k+81Fu8uqG01ymqH33HZV59mN2m67eW+3yT7UWnTzxr0fB6vQtrPHRGBMkuAAAABsvxD4k7u5wb+wPjhx/xd3Jc/zq4Ia891uYjHcRx9h1ml8zjNrpDiTlWHDsZjPUemy1NrV7UNModkOssuRZctMNJyXn2Y/popM6cVuj26+COqu3LxU15xk1Ylu4px1h29Z/nDsBuBdtmbLvTcdeWZ1eWkOyFtOXB9huPCjree9wtUWLES4tDCVV1fcZrbjLOS3wR1R1IpnWdW8RCoAAAAAAAAAAAAAAAAAAAAAAAAAAAAAAAAAAAAAAAAAAAAAAAAAAap8huKuJbsYkX62rYxbYzTCKR8iZj0rCvnuzKGY0HKozNKOS2qR2UstTEdZUVCUf55pukdXWjx7/LL3O8a9pbmVezy7v3jx6Yt7SkT7zsxpXHu6RpObHERFa31jLijTsWmkTjt9z8JfHPvB4a5a8s3MW33dG1p7W3tb2sPamZtfbWnhSe1M3tin93kmba9i9vexxjz/XeY6wyOTi2bWWTZrrH6uM1cp5kG5wqqqlq52eeilY9ytz9adKON1r4F0U25RDqFtp8afEfww75+FPeC/dzvntL7fdxrOPJGtsG4pE6RkwZdOzkpPl6LUn2claXiax6Od0u+Pd3vxyenO+7W5puNlbhaI4ZMV9OOPLSfax3jqnhaNL0m1LVtPxRoDZgABs1oLi/m275ce6Vo5jWvmpDqLhlstiqlTvdXfJkW/GIa/B8qzqvpU0t+taQ4qkOeNanW6R3e1HgD+Vnvf4y7jHzvmUZOWeH0X9rdWr+83EVnS2PZ0tHtzr7Ns9o9zjmLccmSk4p+JeK/jh3b8NMF9hTs73vbasdja1twx9qNa33N4/h000tFI/e5ImvZrWlpy07Ra11dhOpccZxnCLO1bIafC7OmLrR+7XqdRPhcuV5uKk0enTHOtenXwtMo6NsobaShtPsf3B8PO6Hhl3fx92u5mzx7TltONpjjky300nLmyT7WXJby2tPCNK0itIrWPOLvj327yd/OcW513l3Fs+6nWKV6MeKmvDHhxxwpSPNra063va95tacgm6tUAAAAAAAAAAAAAAAI2Hcj9Mrwq5qzch2fo9f9ELft3cmXOdeMCsMW46fza9SVKkvy8z1UiRao1ruVwk/5y42CVa1Vceckyo096tKVyG35jmw+zf26efp+P6V0WmPQhl8uvTs903iXPuUn6gp/IfAonnOxdh8aFzNoxZMVlNXnFzMEiwIG1rMuNGrRT65FiTDSrxUakPUQpRlsW/22X9bs26p4fL0fKvi0OKeR4zkeH3mdjmW4/e8WyG1vVj3Ow5Hap9kvNufpSlasTrXc2Is6I9Slf3riEq/xHMiYmNY4wuekKgB7Kz2a8ZDdIVksFquV8vNzfRFttos8GVc7pcJTnXwRoUCE0/Llvr6exDaFKr/gKTMRGs9A7G8TPT/90zlzNtb9g42ZDpfCLi4152yOSKZmncdhRHlJo3cW8evtve2ZkEB1utVodtNguDa0U60r0qmteJl322xdNtbdUcf0fKtm0QmU9t/0ufD3iNcLLs/k7cmOYm6bW/GuVrt+T4+mzaJw64MVW40u2a1kTLorOp0ZblU1lZE/KhOVbbeatkV5PiMTuOZZcvs4/Yp8vx+T4Fk2mehJ+aaaYabYYbbZZZbQ0yy0hLbTTTaaIbbbbRSiENoRSlKUpSlKUp0oY5a/QAAAgfeskxXKMj2VwMXj2N3+/IiYNv5Epdms9xuiYynb/qqrSZCoMd+jKnaNqqmiuni8NenwGa5TMRW+vXHzpKIWH1X7L/i8zn80r/8Ak8y/ar1wvPqv2X/F5nP5pX/8njtV64FsJ6f223G0dnzhJbrtAm2y4RcHztMmBcIr8KZHUvcmyHUJfiyW2n2lKbWlVKKTTqmtK/BU1nfcd3fTrj1Qht0uxhxFAABDg7x3pf7RyJyvKuTfb2kYvrzbOTTrpkeyOPmSTVWPXmw8guUqRc7lk2uchd86Fr3LLrNeV59qlJbx+W45Rxt61+W5SVltpzGccRjz6zWOifLHp6/X6V8W04Sg08jOG/KriNkcjFuS3H/ammbmzL9yYk5tiN0t+O3h7wqXReM5g2y/iWVxF0bX4ZFsnS2FVQulF1qlVKZnHlxZY1x2iYXxMT0NaiRUAnqejtj7vwq28xMNzfVG1Mc1NnUTUuydc59kOA5TZNe3TI7I5l2N5hbbJl9ytUaw3i9XW03mzPUjx5DjtI9vW54fDStTCc17E9iazHajWJjXijum7GHWIH3rJMVyjI9lcDF49jd/vyImDb+RKXZrPcbomMp2/wCqqtJkKgx36Mqdo2qqaK6eLw16fAZrlMxFb69cfOkohYfVfsv+LzOfzSv/AOTzL9qvXC8+q/Zf8Xmc/mlf/wAnjtV64D6r9l/xeZz+aV//ACeO1XrgPqv2X/F5nP5pX/8AJ47VeuA+q/Zf8Xmc/mlf/wAnjtV64D6r9l/xeZz+aV//ACeO1XrgPqv2X/F5nP5pX/8AJ47VeuA+q/Zf8Xmc/mlf/wAnjtV64D6r9l/xeZz+aV//ACeO1XrgXT/GJp1jjXx6YfbcZeZ0dqZp5l1Cm3WnW8CsCHG3G10otDiF0rStK0pWladKmo5P4lvtT60E9LOJYI9Pea7A2nO5205uXWl7s+jOYNos7dtYz5+2uO4Htq326OhmzWHcUC0xXrxSbbGWURYGRwUP3CDDr5L8a4sMxGI3P2m+vt/Yt7WLq8sej6F0W09CvE5j9sHnRwMvk628lOPWc4njseS8xb9oWW3OZfqK/NIedbYkWrZOOJuGMNvTGWvOTBmPRLoy0tNX4rKq+EzuLc4c8fu7RM9Xl+JJExLQYnVAPo8Tw/Lc+yG14jguLZFmmWXySiFZMYxOyXPI8hvExz95Etdls8aZcrhJX09jbTS11/wFJmKxradIEq7td+lm5Jcgb7je1OesK9caNEtOQrv9Vrj0Znf2x4nmIdpaJlnpWUnUFpkpSpEt67ppfmunlt25vzEy2sZueZY6R2cHtX6/JH0+pZNo8iTn37NKYVqXsK8mdHaI13AxPBcGsXGvGsF19hFoerEtVntnKvRr9Y8GBFRImTH1JS7JlyHKuyZLynZD7jjq3HFY7ZXtfe1vedbTrrP/AKZW1+sq9fqv2X/F5nP5pX/8nmx9qvXCU+q/Zf8AF5nP5pX/APJ47VeuBYY+j6x+/Y7wi5NRcgsl3sUl/lU++zHvNtm2x95j6o9bt+c01NZYcca8xFU+KlK060rT4aGC5rMTmrp+z88o79KW+YtYrlfV64bl+Q9yfSM2wYrkl8htcHdaxXZdnsdzucZuSjfXJZ1cdb8KK+0h9DT6FVRWviolaa9OlaGf5VMRt51/bn1Qkp0IrP1X7L/i8zn80r/+TzJdqvXC8+q/Zf8AF5nP5pX/APJ47VeuBcf8R8DxjPO3nxc1vsjE7TlOJZTw50XiWaYXltoj3Kz3uz3LTGK229WC/wBluTLkeVElR3HGX2Hm60rStaVoapltMZ7WrOkxefWhnpQk+6/6WPdGochyXdHbktlx3Vpia9Ku8/j7IuSZG59aJc82TIg4S9cnW0baxKJVFUxWUv0ydpK2o/u9zWl2bXL7XmVLxFNxwv1+Sfo9XoXxbrRHM1wXN9a5NdsK2Lh2VYDmVhkrhXzEs1x674rk1mmNKqhyJdrDfYcC626S2pNaKbeaQqlae2hlItFo1rMTC98qXDy4ECddJsW22yFLuNxnPtRYUCBHelzZkp9dG2Y0WLHQ4/IfeWqiUoQmqlVr0pQp0dI71cBfTk9xPmtdbDfsu13cOKujp7rbtx2lvK0S7FkEm2+Ft5TmFailPW7Psnkyo7yVxH5TFqs0hNa9LhSqfDXhZ9/gwxpE9q/VH09C2bRCxC7cnbB4t9sbUqtccf8AGXZWUZC1b39obhymkadsfaF4gtrozIvdyZZaYtdgt7jznyfZoKGbfBS4pdEOSXZEl/A7jc5NxftX6PJHkhHMzLomQKAAAAAAAAAAAAAAAAAAAAAAAAAAAAAAAAAAAAAAAAAAAAAAAAAAAABj3ZercJ23jb+MZtaG7jDV43YE1qtGLvZJ1U+Fu52W40Sp2DNarSnX2KZeR1bebdZUttWk9/8Aw77oeJ3d7L3Z757Om75bk41n6uXDfThlwZI9rFkr5LVnS0a0vFqWtWds7m99u8ncLnFOd92txbDuY0i9Z9rFmp5cebH0XpPwWpOl8dqZIraOL+/uL+a6QlyLolLmS6+ekNIt+WRGKpVA96d8qPb8mho8dbVOo+pLSHuqokqq2/AtLrio7fjh4+/lZ74eDWfJzrl3vOaeH839nd1r+828WnSuPeUr9SddKxnrHuckzX+Fe8Yo9HPCjxv7t+JeCmwyTXZd7a0nt7a08MnZjW19tef4lNNbTSdMuOIv2q2pWMt9aGmnX3WmGG3Hn33W2WWWkKcdeedXRtppptFKrcdccVRKU0pWta16UOr222253u4x7PZ475d3lvWlKUrNr3vaYita1rE2ta0zEVrETMzMREavtWTJjw47Zs1q1xUrNrWmYiIiI1mZmeEREcZmeERxl0r46cIZEytszfdcVyLCqhE6166UpbM2QpVaKiP5k4iqXITKW/4WtsbrR9SlITKU14H4i/TT8vH5J4xzt++fjPiiZ0jJg5VrrEeWtt/McJ6/ulZmOiNxb+Jt3S/xg/Mxjwxm7s+G2SLZtZpl5h01jyWrtIn606+z94tHZiItOCtu1jz16iw4cS3RItvt8WNBgQYzEODBhsNRYkOJFaSxGixYzCUMx40dlCUIQhNEoTSlKUpSh6W7fb4NpgptdrSmPbY6RSlKRFa0rWIita1iIitaxERERERERERGjpHuNxn3ee+63V75dzlvN73vM2te1pmbWtaZmbWtMzMzMzMzMzM6vJJUIAAAAAAAAAAAAAAAAAAMe7A1JqnbNvTaNqay17sy1I/eWzYGF43mdvR7HE/FhZHbblGT7HVU9ifgVX/DUure1J1rMxPmGm997S3a/wAknVuV07ffD6ktTfluLtnH3WVhaerV559T0iLYsctsWRLcdfVVby0KeXTpRSq0SmlJY3W5j/5L/HKusvwtPaM7XNmmJnQ+3xw+eeS2tuiLtx/1rfofhcpSiqqt98x64wFOU6fFXVqqk/uVoPvW5n/5L/HJrLcHW+j9LabjLh6h1Bq/VcRxisVcXW+AYng8ZcVUistUZbGMWm1tKYrKVV2qK08PmV8XTr7SK173+vMz6Z1UZQLQAAAAAAAAAAAAAAA8K4223XiDKtl2gQrpbZzSo8233GKxNgy2F/v2ZUSS27HkNK6e1K01pX/AOjoGp2UdvjgPm79ZWacIOIOXyVPrlKkZRxq0xf31SnEUbXJq9dcLluVfW2miar6+KtKdOpLGfPHRe8fDKusshYPxS4uaxntXXWvG3Qevbmw4y6zccH07rzE57LsdKkR3Gplgx23yG3GELVRFaKpVNK1pTp1LbZcluFrWmPPMmss+FigAAAAAAAAAAAAAAAA/KRHYlsPRZTLUmNJacjyI8htDzEhh5Cm3mXmXEqbdadbVVKkqpWiqVrStOgGiuzO13249wypNx2Nwb4s5Dd5qZKZl/ppPAbPkkustVVvLk5JYbJa76+95i1LQtUiq21qUpFUqUqtZq7ncU+re2nplXWWILX2Ru0xZ5rc+JwI49PPtJcSlF0xN2+Qq0dQptXmW69T7hb3lUSr4tVtKqhXRSelaUqXzvN1P69jtS3v1Nx70HoSBItWi9H6g0vbJaG2pVu1NrTDNcwJLTSqrabkQ8PstnjvIbXWtU0UmtKVr1oQ2yXvxvaZnzzqoy+WAAAAAAAAAAAAMV7T0VpHedqRYt2ac1XuGyNtvNN2baevcR2DakNSEKbkNot+W2i7xEtvtrqldKI6KTWtK9aVLq3vSdaTMT5p0GnUrtCdrWXNenu9vriKh999UlbcXRWv4MJLil+OqWbbCske3R2OvwNNtJapT2UT09hL963P95f45V1ltJqbi7xm0GqqtFcdtFaWVVt9qqtTajwDXKqtSVrdkt1rh+P2atW5DjilLp8C1KrWvWtakdsmS/wBe1p9MzKmrOpYAAAAAAAAAAAAAAAAAAAAAAAAAAAAAAAAAAAAAAAAAAAAAAAAAAAAAAAAPHlxIs+LJgzo0ebBmx3okyHLZbkxZcWS2pmRGkx3krZfjvsrqhaF0qlSa1pWlaVIs+DDucN9tuaVybfJWa2raItW1bRpatqzrE1mJmJiYmJidJS4M+fa56bnbXtj3GO0WpeszW1bVnWtq2jSa2rMRMTExMTGsPhbJqXVmNXNm9Y7rbBLFd4y1riXO04lYbfPhVcjJhuUgS4sBp+C25GT4VJZUhKvEqtaVqpVa6ZyTwy8OO7XMf5v3d5ByXYc246Ztvstthyx2o7Norkx462rFo6YrMROszMazOuz8z7+d9+dbKeXc35xzTdcvtERbHl3WfJS2lu1Hbpa81vMW4xNomY0jSdIjTIRvDUwAAAAAAAAAAAAAAAAAAAAAAAAAAAAAAAAAAAAAAAAAAAAAAAAAAAAAAAAAAAAAAAAAAAAAAAAAAAAAAAAAAAAAAAAAAAAAAAAAAAAAAAAAAAAAAAAAAAAAAAAAAAAAAAAAAAAAAAAAAAAAAAAAAAAAAAAAAAAAAAAAAAAAAAAAAAAAAAAAAAAAAAAAAAAAAAAAAAAAAAAAAAAAAAAAAAAAAAAAAAAAAAAAAAAAAAAAAAAAAAAAAAAAAAAAAAAAAAAAAAAAAAAAAAAAAAAAAAAAAAAAAAAAAAAAAAAAAAAAAAAAAAAAAAAAAAAAAAAAAAAAAAAAAAAAAAAAAAAAAAAAAAAAAAAAAAAAAAAAAAAAAAAAAAAAAAAAAAAAAAAAAAAAAAAAAAAAAAAAAAAAAAAAAAAAAAAAAAAAAAAAAAAAAAAAAAAAAAAAAAAAAAAAAAAAAAAAAAAAAAAAAAAAAAAAAAAAAAAAAAAAAAAAAAAAAAAAAAAAAAAAAAAAAAAAAAAAAAAAAAAAAAAAAAAAAAAAAAAAAAAAAAAAAAAAAAAAAAAAAAAAAAAAAAAAAAAAAAAAAAAAAAAAAAAAAAAAAAAAAAAAAAAAAAAAAAAAAAAAAAAAAAAAAAAAAAAAAAAAAAAAAAAAAAAAAAAAAAAAAAAAAAAAAAAAAAAAAAAAAAAAAAAAAAAAAAAAAAAAAAAAAAAAAAAAAAAAAAAAAAAAAAAAAAAAAAAAAAAAAAAAAAAAAAAAAAAAAAAAAAAAAAAAAAAAAAAAAAAAAAAAAAAAAAAAAAAAAAAAAAAAAAAAAAAAAAAAAAAAAAAAAAAAAAAAAAAAAAAAAAAAAAAAAAAAAAAAAAAAAAAAAAAAAAAAAAAAAAAAAAAAAAAAAAAAAAAAAAAAAAAAAAAAAAAAAAAAAAAAAAAAAAAAAAAAAAAAAAAAAAAAAAAAAAAAAAAAAAAAAAAAAAAAAAAAAAAAAAAAAAAAAAAAAAAAAAAAAAAAAAAAAAAAAAAAAAAAAAAAAAAAAAAAAAAAAAAAAAAAAAAAAAAAAAAAAAAAAAAAAAAAAAAAAAAAAAAAAAAAAAAAAAAAAAAAAAAAAAAAAAAAAAAAAAAAAAAAAAAAAAAAAAAAAAAAAAAAAAAAAAAAAAAAAAAAAAAAAAAAAAAAAAAAAAAAAAAAAAAAAAAAAAAAAAAAAAAAAAAAAAAAAAAAAAAAAAAAAAAAAAAAAAAAAAAAAAAAAAAAAAAAAAAAAAAAAAAAAAAAAAAAAAAAAAAAAAAAAAAAAAAAAAAAAAAAAAAAAAAAAAAAAAAAAAAAAAAAAAAAAAAAAAAAAAAAAAAAAAAAAAAAAAAAAAAAAAAAAAAAAAAAAAAAAAAAAAAAAAAAAAAAAAAAAAAAAAAAAAAAAAAAAAAAAAAAAAAAAAAAAAAAAAAAAAAAAAAAAAAAAAAAAAAAAAAAAAAAAAAAAAAAAAAAAAAAAAAAAAAAAAAAAAAAAAAAAAAAAAAAAAAAAAAAAAAAAAAAAAAAAAAAAAAAAAAAAAAAAAAAAAAAAAAAAAAAAAAAAAAAAAAAAAAAAAAAAAAAAAAAAAAAAAAAAAAAAAAAAAAAAAAAAAAAAAAAAAAAAAAAAAAAAAAAAAAAAAAAAAAAAAAAAAAAAAAAAAAAAAAAAAAAAAAAAAAAAAAAAAAAAAAAAAAAAAAAAAAAAAAAAAAAAAAAAAAAAAAAAAAAAAAAAAAAAAAAAAAAAAAAAAAAAAAAAAAAAAAAAAAAAAAAAAAAAAAAAAAAAAAAAAAAAAAAAAAAAAAAAAAAAAAAAAAAAAAAAAAAAAAAAAAAAAAAAAAAAAAAAAAAAAAAAAAAAAAAAAAAAAAAAAAAAAAAAAAAAAAAAAAAAAAAAAAAAAAAAAAAAAAAAAAAAAAAAAAAAAAAAAAAAAAAAAAAAAAAAAAAAAAAAAAAAAAAAAAAAAAAAAAAAAAAAAAAAAAAAAAAAAAAAAAAAAAAAAAAAAAAAAAAAAAAAAAAAAAAAAAAAAAAAAAAAAAAAAAAAAAAAAAAAAAAAAAAAAAAAAAAAAAAAAAAAAAAAAAAAAAAAAAAAAAAAAAAAAAAAAAAAAAAAAAAAAAAAAAAAAAAAAAAAAAAAAAAAAAAAAAAAH//2Q==;fontSize=18;fontStyle=1" vertex="1" parent="1">
          <mxGeometry x="-55" y="-380" width="190" height="72.93" as="geometry" />
        </mxCell>
        <mxCell id="INPc3uI3xBPr1Q4v6FXO-11" value="MANIFEST REPO" style="rounded=1;whiteSpace=wrap;html=1;fontSize=18;fontStyle=1;strokeWidth=2;" vertex="1" parent="1">
          <mxGeometry x="65" y="-280" width="240" height="170" as="geometry" />
        </mxCell>
        <mxCell id="INPc3uI3xBPr1Q4v6FXO-12" value="CODE REPO&lt;div style=&quot;font-size: 18px;&quot;&gt;./devops:&lt;/div&gt;&lt;div style=&quot;font-size: 18px;&quot;&gt;-JENKINSFILE&lt;/div&gt;&lt;div style=&quot;font-size: 18px;&quot;&gt;-DOCKERFILE&lt;/div&gt;" style="rounded=1;whiteSpace=wrap;html=1;fontSize=18;fontStyle=1;strokeWidth=2;" vertex="1" parent="1">
          <mxGeometry x="-205" y="-280" width="240" height="170" as="geometry" />
        </mxCell>
        <mxCell id="INPc3uI3xBPr1Q4v6FXO-20" style="edgeStyle=orthogonalEdgeStyle;rounded=0;orthogonalLoop=1;jettySize=auto;html=1;entryX=0;entryY=0.5;entryDx=0;entryDy=0;fontSize=18;fontStyle=1" edge="1" parent="1" source="INPc3uI3xBPr1Q4v6FXO-13" target="INPc3uI3xBPr1Q4v6FXO-7">
          <mxGeometry relative="1" as="geometry">
            <Array as="points">
              <mxPoint x="200" y="359" />
              <mxPoint x="200" y="210" />
            </Array>
          </mxGeometry>
        </mxCell>
        <mxCell id="INPc3uI3xBPr1Q4v6FXO-21" value="Upload Image" style="edgeLabel;html=1;align=center;verticalAlign=middle;resizable=0;points=[];fontSize=18;fontStyle=1" vertex="1" connectable="0" parent="INPc3uI3xBPr1Q4v6FXO-20">
          <mxGeometry x="0.353" relative="1" as="geometry">
            <mxPoint y="56" as="offset" />
          </mxGeometry>
        </mxCell>
        <mxCell id="INPc3uI3xBPr1Q4v6FXO-13" value="" style="shape=image;verticalLabelPosition=bottom;labelBackgroundColor=default;verticalAlign=top;aspect=fixed;imageAspect=0;image=data:image/png,iVBORw0KGgoAAAANSUhEUgAABLEAAAE1CAMAAAAveIIPAAAAM1BMVEX///8dY+0dY+0dY+0dY+0dY+0dY+0dY+0dY+0dY+0dY+0dY+0dY+0dY+0dY+0dY+0dY+3Pj5lkAAAAEHRSTlMAECAwQFBgcICQoLDA0ODwVOCoyAAAG5hJREFUeNrtnduinKgSQEVRUfHy/197HnJmksxuBaS4aK/1nOy2q3FZFCU0zfMxRwgNAADGAgDAWACAsQAAMBYAAMYCAIwFAICxAAAwFgBgLAAAjAUAgLEAAGMBAGAsAACMBQAYCwAAYwEAYCwAwFgAABgLADAWxgIAjAUAgLEAAGNhLADAWAAAGAsAMBbGAgCMBQCAsQAAY2EsAMBYAAAYCwAwFsYCAIwFAICxAABjYSwAwFgAABgLADAWxgIAjAUAgLEA4KUMNgTiBQAAAAAAAAAAAAAAAAAAAAAAAACQiHuN6EH/yUR9FAAAxgIAjIWxAABjAQBgLADAWBgLADAWAGAsjAUAGAtjAQDGAgCM9ZXGUooRAICxnmKsZdMMAQCM9Qxj9cdxTKRZABjrCcZS+3Ecx9oxCgAwVv3GWv5zgQCAsao1Vv/vZ5FmAWCsyo31a05ImgWAsZ5grOWvj1tbxgIAxqrWWP1/Pm9nZgiAsWo11l9zwl8MjAYAjFWnsZYPHzkxHAAwVo3G0h8/c2Y8AGCsCo21ff5QSwM8AMaqzlinl7KiLACMVZmxPpTdURYAxqrUWNPF56IsAIxVlbHayw9GWQAYqyZjzQfKAsBYDzHWRRXrFwvDAgBj1WIs93XQlwWAsWox1ub+8JGBAYCxqjBW7/PpPSMDAGPVYKzF59PZyQEAY9VgrNbv41kwBMBYFRhr9Px8NnIAwFjljbX6XgClLACMVdpYrfcF7MwLATBWYWON/ldAIykAxipsrCXgEpgXAmCsssYKuYSNeSEAxippLH3ryp9Lq7XWHGzmESTCgLFqNFbYNezPvtfb6f8vJG0T0joN0vz/F+MXpAX1YYOM9exXov/ct3DnTcmPqD+DZPE61MYRyHPHsFrZjyI0SLybBZXRhRprfsm9iLK8goSyoC6G41uSrOmN6wjpawQ7E0Oo/D5+53KhftcUNw2fuoktYYGqH6rO5cJnftGFrVXdc8KPu2ezYggVsQcb6xgeeTN+/i50xLpLBLybBRURLqxnjuCe145u5qFPTarffzvGtXVm/KigiZy9Ud1x8cTExLy1h1+Sk/3+WS7EWM821oCxvup+oZCFsaoxljm+ZFqIsTAWxvpWYz1xWoixMBbGeoGxplvG6jEWxgKMVcBY9paxJoyFsQBjPcZYK8bCWICxHmOsA2NhLMBYzzGWxlgYCzDWY4w1YiyMBRjrMcYyTdMo3RszW2v/2VJptdYuxgxV7qKOsTAWxvpeY23z9X9cF9O3GAtjAcaqwlhe7MvYYSyMBRjrGcb6lYz1GAtjAcZ6iLGO49irOGgLY2EsjIWxfC9CYyyMBRjrKcY6DtthLIwFGCvWWNORC4OxMBZgrEhjmWzGOtYOY2EswFhRxhqOjIwYC2MBxooxls5prMO2GAtjAca6b6wmq7GOfcRYGAsw1n1jbXmVVSzNwlgYC2O9wVhLZmMde4uxMBZgrJvGMrmNZRuMhbEAY90UhM5tLI2xMBZgrNspzXekWBgLY2Gsdxhr/YoUC2NhLIz1DmOZr0ixMBbGwljvMFaX1Vg9xsJYgLFikpqcHVlbg7EwFmCsGGPNGY01YCyMBRgryljdN6RYGAtjYayXGCvjtHDAWBgLMFakscwXpFgYC2NhrLcYq/2CFAtjYSyM9RZj5aq9rw3GwliAsaKNlSnJ0hgLYwHGEmgyz3KiztJgLIwFGEvAWDkaHPYWY2EswFgSxspRyeL0L4wFGEvIWGp/ddkdY2EseBepT1rdORMaYwEIoZOX3sfSXxFjYSx4CUP6pcKl+JfEWBgL3kA7ZXitcFXSV61HY+1v067WGqO7/MZSejCztf+WATdrJ9MXmAKHRySvsfRk92O3s9AGaUoPZkkV93Zc1uNYl9Fn2OreGGvt9k/U7WRG3SGWRMN8zLJnsmgRS/XGnq4T2GlosxmrG5ct/ELkcUSkb8sbS/8O1Bad1mqTNO7q98L5btTdAbBZoxWGkR3nU65NGzpBxbpnsOvUpTeWGhbn8uo2ZZhO3Y9IPmOpSSzjTh/37q+/v3YRF3LYsUU0IuhhynggxSB2c/pe9P7zFpU0lhqW+xdSJkfevC4kjbH0JlQkyBF3vXvMD/wv5Fh6dBPx+NB6MJPNfHC9kLD6sNOr10ElMlY77zEXIkdwRIoYS01CzXldjrh3u/tdjcABsPXOUQg1ISOsIVyzfxchpIx1oxHEUQ0pFZE8xtKbzIMiT9zV5tTrjQux/0pvwQffIazhXlr455CVMdbNxjV5ZwlEJIex1CTzkmmuuBvXEL53Ifs/adaGECpnF1kYv/8770bSWK0VuJCmcESGjMbqT6+z0rh/nO5tseL8/X0xQuVsAnXnNi6T3rSUsZQRuZDiEVm7TMZSF9e5xedpCeKuL9e6Vcx+AdPF34daWATmQmP0O9qzEjGW3moIh0hEJpXDWP3ldbY1xv1kkIwSce+bpulxQtUIvEvYSrxAtOt4YymJV8X3vpKInKVZgsZSjkRQ1xj35XyQRMd9Y6mwclaBGWEvtAnOFGusbhW7kDoiMiY2lvM6/f5mt2WNuz0dJAJxHzBW1SV3iUqz3BY4axtlrGGXu5BKIvJxqiRlLOWutHn9zeHIG/dTY0nseLlk2p0cbv06Am8nKMnfd18ijCW5Q2vM6qloRD7dw0LG8klIdI1xP4nvLJJh7xirWqzEsliX5T0ik9kTR0SHmnBEPrx/ImIs5bWU2dYY97RGwVhv9tWH1yUKGUutBSyZJSI/C9ISxvKr+OxVxj21sXbsUF/9apZ5Wz2TsNyjuEvQpjzXEhEtbiy1CIWgSNxTGws/1IbYW79DrqeRKWLOuZKI7ErYWN5LarrKuGOs75oNym0GlK832JRJ9eZKIjKLGkt5N+Pbpsq4JzXWjrFqSq6mXvBd326vxFhtsguZK4lIK2gs/56l3TFYSsU9qbEWjFVJajUb4a02Mwrr2lgq4XLlVEdEJjFj+SdYzl20U8Z9LmasAWMVZLfWLsb0KbaybnOuqJhCN05Qk0PCiKxSxgpoCne951cu7imNtaumRRy5GZr0qPWoxFhz2o/WVURExlghCZbzJb/Ece/LGGtk64YCmVWOw0HCtlLZrbVrGmMFvgQWfCHeu9ol3bhSxFiCCVb6l+8u5qQJjWXZbKYAUwZhGW9Vmf73ndTq8d6rFOfG8t4Z5K8LUXr0PvTD84AG7zvYTr8PylP66kiwP1DxxhJNsPzjvi1m0L8urdP9xYlgP/6jkjXWOhutfz1+tO7Nsp791hgrNxmOMvL7UT+fDNMOi5yx/GpHnw+a8j1qZZKMyCcXdMZpz/gcSzTB8q3ZLR+OJVSD55ERi5yxPg6AnwfrWdVgrPxkOIpeeQy5fT5P65XZhIzlkyjN57eyGn0upJeJyNWFdHNaY8kmWH5xv2hU7r2KYKOMsa5GYvvHSNzH6/hC6VJxyiKW87CBsDMbzP2pmOt9pN49/j0Kgz4Rub4QZS6kF7tWKJtg+cX9ujeiNe5LOishBhnLORL7XymfHVWDsUqwpReWu4YxeQz7EGedGKuL9lXTXB3M4J22ikTkYiPPuH4s6QRLJu7K7aw12li3jkdCIllJ39rgnAFZv0pawBkS5t7cZPXMN533Tp8nIqd7/kb1vEsnWO64+35dp0nHSGNNt5bNkUhO9vQplqMGsftvHO+9ldRnY413q1/+qvgncVVREfHfOP7zuQpLxHuF4gmWM+4BX9d1nsXneaGvse6ei4RFcmKSC8uxlBK24fAU8a0cmU3YmWYmIqxaJOP4vztX930bYiz5BMsVdxuS17h8OkcYa77bl4hFcqZY6btHregwGe4baxK5/zxv7fZ2RELb42bnnNTfWAEJ1tbLPGVCH5lj+DqSn7Hul0fY0S8j6btH+xuFh8uZ4X7TWG34wzniQua7EQm/cQbXX/C+uQMSLP+Kz2Xc9/Cvqy8v0t401t6leiaDKOm7Rzfp55qPskxo8ejOhVy/GNjeish+KyLbdTHG01gBh1KHVHxmaU9cDwB9yygxwsJYGZmTC2uQT8Q9lGUCH/X3LuRSWfOtiNys/Q7/XMk2quamscYUCdZ13G964nIA2DtGiRIWxnpVirUmqBy4lWXCHvV358aXNeU2Y0SaRunRjLoNqQzrkNXP20tqcwJPXA4AHW6UOGEJHjcJxVMsnaSG1oUbSyUJw9WtM4VHZEzzI3jc2okSrOu490kGwBxurMhzzjkT+kUp1hJWI5VaMTQho2qNWC/tg5dhl/wPEKexkiVYl3EfEw2ANtRYsU3UGOs9KVYbfEMLlHM/Guu83L23iUbrEBiRVRUyVrIE6zLucW/gTwE/vk18G7B5w3tSrFG8xuy1Tvdz0PYp5iaO22ENi0hkMeW2sRImWFdx3yL9fD4AtjBjxT8oMNZrUqyLJ2xsI1gXZqw50aP+cuenNigiY1PEWCkTrKu463QDoA8yVvyDQuGSt6RYXbInrGOB5oex9jRzwut54RgSkbUpYaykCdZV3ON3ZTPej+LL7zilCzA8LsUyyYqdjs4C4z05EXivcguQkEmWc9wyVtoE6yLue5sw7nuAsUReU9uwyTtSrPNagxX440OAsWbvmodoGaP1j0jK58eZsVInWBdxN0njrv2NJbLZEi2kOchwHkWbNqHY/I21lRmwg39E2vzGmhMnWBdxl3kB33qO7QuhyOxnSQtpBnIc+TWkTLEukyzjWT2SGbDau1gzFJmix46Vu/tGncddZo+j3nM6bhOnWDRk5SD9vlgXcwKhfU933283Jl6f2zwLKucRaSs21nT74TYm/rqnqbPyNJbQfpa0N6Rny3Gq6po0s7l6tBk/UUglmoPvyvmabOUsmbE2Lf/Ikvq6o1/VwaZ+bncIJTlZDq5PXUJrfUfilngupjzDfPrv+mqNNcVIfUv8dZXf72+TVw8RSmrWDMI6z5XFpkCrp7GSi2L2c7NOOzmRv582neKD5b7u4lUotclvgxWlJEbnMNaYXJejn7HSi6L3W2IYS9TdI4w1qSSPLKulmLzqDjZxGdPn+EmIYskhrNM1X7m+itbPWOlFofycOBWZFN42VuybjmO5Ee5nLLFkn8XCtOxtFmPZ9Ane5mUsk76YZ6MWrVSlOVbkQCl4H2ufsMsdLsxiYVpMFmGd6iRD/4Rf5VVQ3MbLzluZqmJEvVOl0HgGep/rSJ9jgwhZOhvObxTJ+3OMMZZkvbv3mu+VKWPFrGTZhxrL+FzHmP7pDOLPn/zNDZL3p/Yy1p7gbvSsqBmfiIz1Givq19orN5ZgeYLS++PL7r42SXMzmvB/lOFCdKGV21IlhIKD3GYuH1J6f3zZ/fz+7F9pLOuRouj09bQE5hhea6wMgx0eU3bPlFFYjy/ZFrwQ6xORpmpj3d6ks63cWLaiGMP56k8uYZ0Wo7vcxsqiztnjruifaay7bVn6m4xF13squmzGMjnuz2qMZTzuipN/s1VurLuLy0VnSrmNxRZZiZgajFWbsWztxrrZlvVVxupxSxJytWJhrFcZ616PQ+3GEm2Do4c0DbrBWBgrk7JqN5bsGhSFrIfPCTHWo+pYu+tUneFZxrLZjUVH1sPnhN+2Vrg8eq1wUc59NPtHGWvJbiw6sh4+J6Qf66exau3H2vumuT5N7bjT41CyH2vMbqyS7yS9FdNUYax39ryvEcYq3PNulde8JvxliYJjvc1vLF4tlGZt6jCW5EDxe7c4R1XP58tW+V7h/jtWs2MAqccYa27yG2tAMbLsXWZjldy7Qfvk6+zdcByHbd239t2AFZsn/ScdzGMs+htSzuyzkCHXG72MVXB/rPzJXpCx9r+vT60hqcvd2l56+qaAsTjLPuHiSR4K7kHqt1mxYP1o8lLnlj7ZCzKW/W8E1C5ZCi11Cw9NEWONWEaQvI0N1wNW55Zihn3ez5KTzisiZYy1f0i7O8m2rDItSj9PLMtkrBbNCKLzC6vgWTrWryaaYZ9vv4iUOUunv9NWFFINLVGL3oxqChmLtndBTAFhFTyvcPa7C+UKWYPfVx3LFLKCnmKCbVmncbdpmMzYBST7JteAh2BsCWEVPBPaeBZyxHKbxa96eBaRrSJjufZNCakvHF5lxlLlCXFjsVr45CLW1YCVSila3znwmnhaqI5IdeqKjCXYlrWmLyDWZCyaSKXoygjrdMBKpRTG9xl+dg/uQiofalGniLEasR6HOXldoC5j0USaZrG3eOld6op23xvidCQJNaltfoX3i4iomowl1pY1JK8L1GUs3i0UYS4lrPN9GW3aJ9rkPX2UyfZOC3ard0RMTcZqWqEeh7aOMZnPWDO6iWctJqyLSqRI3WbzL6hvSbM96+2h04jsqiZjOduy+tifqH2nsTp8E82uyhnrvCAikWSdFw2U//xUIsnSAWJeSyRZNx4bQj0OUxVJVj5j0ZIVL6yuoLAuGlTi+wrOXyhZAuanEpWs00RiD4lIW5WxnMryu9y+xNctaSxq74+tul/XMQQaLqag77yny0FNSAXxPCJLXcYS6nHY05YyqzMWtfdITFOW8yQ5tifromKggu6/WFNcVKn7oIj0dRnLpSw/5cwFvm5RY7Hd+0OXCZ2ToMji+8UC/BJWa4q9dc43KNjCIpKu4njvFxDpcdA1FFhzGovXoWOwpYV19d5C3LxwDp0Ib7ElmfBn6hQYEVuXsZzK8rrjtwpGZ05j0eAQ09egihvr6veLmY5dFDj34Gwvpv/j6ijgNjQipi5jiWw9MwYa/fHGIsl6Zl+Dx2wsYsR24U/+q73q7k+er+7pJTwiQ13GcrYXeSxEX8V9eKOx2Ir0mX0NXr/fkMATp++7TAkWKC637NThEUn0m92vJAq0ZV3FvX+jsTi48NHCuv79Bnlhzbey9XsXclnosXcicvdXa8dlO45jnXtZY7m2fPIoRrYpBmlnrLV2HtsKjUWSdY++qQQrbYrr6kp7ryQ6SAvrwgdW+h5Wf3y1rRc1lkBb1iyurOF3OX9u6zMWSdYdhlqE5fj9RmFhzXdLorPwhdibEdnDHzX97vgmUf0lS2yPQys8UNVfAtqH6oxFkvVoYbl+v1BTDPdXG66b+xYV5YkQHVhRiQ/OkEYZK74ty4h+3W4NHuu5jUWS9WhhuRac1qB2KMeWvuZ2nfw41qAZiqO3eYmISJA71exehI0yVqO2yMHmiHvYo+LDg6KvzVjsRfpoYTktEzAP6hzP+y1u5cv/cd86En9HV6prK3UdGREtaaz4rWcGsa/7MXLONp7sxqIn69HCch7b+fOgz5O/43xnS98bur8vxDPNMq5vZCIjMnvmHcariBZpLNcsx10+d8V9UlFPrLk2Y9H4/mhhXTeG/3/weAzZYXP9FWdJpXW+We+jit55IWt0RHYTdSGtqLGit55xxn33sYc63a6/OmMptnB4srB85vXOO9TtK5/moNHjQhy3X++xEtTliIi2vuXsaGO5qnbOHgd33LdBuTLssE0yihqLLRyeLSxn8fY4jmOfz+/z1nj8Aa870GfheT7/Q2r0uZBRKCLTuTzVsPoX/uONFb31jI37uk037/cn4QWM1Wyo6MHC8l3vXc0nabWjX3+L1wD0S9e36eOFDH5rQItgRD4ecqyGeQ8xiICxXMqZReK+fm5i78Y1KuIljEWHw6OF5X/A976Y/vdN2moz+z6srOxI2q3p9R8XMnpfiOc2OncjMk5raDAkjBW79Yxv3Ld51H8EsNVm2WN/+xLGosPh2cIKXT3ZrbVhebX3dltj8IWEnTbg/eLJnPBC5I0VfSJYUNw3a621dpd5WhUxFsV3wXulSClrreW7z5U8NVJGJIGxnG1ZXbm4VzgrDH00Iqz6lJX0maNrcedYRURMAmO5WjJc4y9h3E2NxuL1QlfVsm5huZ/R2abDKZU11xGRPoWxnL3rqlTc+yqN1TIvvBSWapqvVdZQS7o31xGR/7ytJGUs19tFtlDc6+sgZV7ovlXqF1a6Fd+hFnfOlURkSGQsVy1qLBP3uVJjsV54ztQ8gmGvQlipbp25koj89yUhOWM5Tml3vpOcJO71vQnNemGCe/Y9E8NbX77bqhBWkoj8KIELGstRixpKxN35ocWMRR/pvUWadyvrpq3ly8CmkojsP0wkaKz7O68mi7v7QVHOWLxf+HEO0DYPolsrsbWyVZgzR0QkjeVQVpVxL2gsWhweWnNPNWKjWjokWxp3XUtEPjy/RI113ePQ5Y5739RtLEpZocszFTKJffklztZDLXnulPb5JWusy7DpzHHvmsqN5Tyl9ttKWLp5IP1eia2l6sBT3RERNtZVkqSzxt1zflHUWIJ+fgFWNY+ktdmer46cXWKGsveVR0TaWBd9Rl2NcS9rLLZQzh/yBIx7JV++j37cL6r2iJyU9u/PZM8X/HLG3fv6TeGCCtX3J88I/00q4vqBrVhHh4orIm19/RH5/A23mKCd+GapMu59VD4oMMRWbPXgGeG/6PtP2U20Zba7/wz0OkCieES0fPHtpMdhqDLuStzYoQ8jFgwfuUb4sya5VaCJprk+5OGy4q6eEZFNdlJ4ugS2ZYr7HHjtc+maSvf1ylq75hXcuEM3kyK5vHHvXJ6kUFdEdIL1zU9LYH2WuM/Bcf/UFLVlnaN8u7Im1byFPqx6Y5O9QtmFLelso6ojIqtPRH7WjOJ3J/q5l8qcI+63Hlh9wSrWueC/hk03b6IdfQuT25T0hSTHiVp/Peb1wyIyiwvr59+cK477EFVxQ1kkWP+9Rd2Tg3XK8FT0OeBrm/oHRmQSF9Z//6ZJHfe5FxPGXmC3k4EE61Wo3pwfnWKnPp+mtVlOa0nrPLQPjcgfC5G7VNH5jyqU1ZXH/c+VSVukDPydyjKqeTGtHo21v4fWaq0xusDwUno0yx+nT23WTn8eG/jIiPTzehzHvkhW4DqzWGuXsU0Zd6GHtP515OQ2l3rof6GybNcAwEPRX7ZiuI/85gAP5ruaHGbFLw7wbGVtX+OrVfNzAzydb3nHcB/4rQHeoKyvOBLMMCEEeAnT+wtYLb8ywGsY3l1/txSwAF5Ft+IrAKCYVfyVHAruAG9k3PEVADAzxFcAkIB3nXBve35RgFej39MAT70d4P2ol6RZ9F8BfEk16/lnGe70twN8Dw9fNFwptwN819TwwW/tzGzYB/B1tM+cGqY7TgoAqkY/zlk76RXAF9M/qtNhoXoF8OUMT3HWOtLMAACPmBuiKwD411lz5bqieAUAf9CanewKAJ7DUN/kcF8GOhkA4CTRmmqqwq8TrzkDwCX9XMXscJtJrgDgCdLa5oHKFQAESKvU9HCdsBUAhNOOmU+x2BZD3QoA7qONzSYrylYAIGCtcUk4Q9ztNJJZAYAkSptF+ggeu5iBxAoAkmVbg1niZ4mrnUyPqgAgU77VG2Nt2Exxs3Y2pte8HggAhei07o0xZrafMMYYM2qtKVMBQNP8DxIONLapHuIbAAAAAElFTkSuQmCC;fontSize=18;fontStyle=1" vertex="1" parent="1">
          <mxGeometry x="-316" y="310" width="381" height="98.03" as="geometry" />
        </mxCell>
        <mxCell id="INPc3uI3xBPr1Q4v6FXO-25" value="Internet" style="rounded=0;whiteSpace=wrap;html=1;fontSize=18;fontStyle=1" vertex="1" parent="1">
          <mxGeometry x="330" y="585" width="120" height="60" as="geometry" />
        </mxCell>
        <mxCell id="INPc3uI3xBPr1Q4v6FXO-29" value="Deployments" style="rounded=1;whiteSpace=wrap;html=1;spacingTop=-350;fontSize=18;fontStyle=1;strokeWidth=2;" vertex="1" parent="1">
          <mxGeometry x="560" y="120" width="230" height="390" as="geometry" />
        </mxCell>
        <mxCell id="INPc3uI3xBPr1Q4v6FXO-31" style="edgeStyle=orthogonalEdgeStyle;rounded=0;orthogonalLoop=1;jettySize=auto;html=1;entryX=1;entryY=0.5;entryDx=0;entryDy=0;fontSize=18;fontStyle=1" edge="1" parent="1" source="INPc3uI3xBPr1Q4v6FXO-30" target="INPc3uI3xBPr1Q4v6FXO-6">
          <mxGeometry relative="1" as="geometry" />
        </mxCell>
        <mxCell id="INPc3uI3xBPr1Q4v6FXO-30" value="Prozessstack" style="rounded=1;whiteSpace=wrap;html=1;fontSize=18;fontStyle=1;strokeWidth=2;" vertex="1" parent="1">
          <mxGeometry x="610" y="160" width="120" height="60" as="geometry" />
        </mxCell>
        <mxCell id="INPc3uI3xBPr1Q4v6FXO-33" style="edgeStyle=orthogonalEdgeStyle;rounded=0;orthogonalLoop=1;jettySize=auto;html=1;entryX=1;entryY=0.5;entryDx=0;entryDy=0;fontSize=18;fontStyle=1" edge="1" parent="1" source="INPc3uI3xBPr1Q4v6FXO-32" target="INPc3uI3xBPr1Q4v6FXO-6">
          <mxGeometry relative="1" as="geometry" />
        </mxCell>
        <mxCell id="INPc3uI3xBPr1Q4v6FXO-32" value="Wiki JS" style="rounded=1;whiteSpace=wrap;html=1;fontSize=18;fontStyle=1;strokeWidth=2;" vertex="1" parent="1">
          <mxGeometry x="610" y="230" width="120" height="60" as="geometry" />
        </mxCell>
        <mxCell id="INPc3uI3xBPr1Q4v6FXO-35" style="edgeStyle=orthogonalEdgeStyle;rounded=0;orthogonalLoop=1;jettySize=auto;html=1;entryX=1;entryY=0.5;entryDx=0;entryDy=0;fontSize=18;fontStyle=1" edge="1" parent="1" source="INPc3uI3xBPr1Q4v6FXO-34" target="INPc3uI3xBPr1Q4v6FXO-6">
          <mxGeometry relative="1" as="geometry" />
        </mxCell>
        <mxCell id="INPc3uI3xBPr1Q4v6FXO-34" value="Serice n" style="rounded=1;whiteSpace=wrap;html=1;fontSize=18;fontStyle=1;strokeWidth=2;" vertex="1" parent="1">
          <mxGeometry x="610" y="420" width="120" height="60" as="geometry" />
        </mxCell>
        <mxCell id="INPc3uI3xBPr1Q4v6FXO-36" value="" style="shape=waypoint;sketch=0;fillStyle=solid;size=6;pointerEvents=1;points=[];fillColor=none;resizable=0;rotatable=0;perimeter=centerPerimeter;snapToPoint=1;fontSize=18;fontStyle=1" vertex="1" parent="1">
          <mxGeometry x="660" y="360" width="20" height="20" as="geometry" />
        </mxCell>
        <mxCell id="INPc3uI3xBPr1Q4v6FXO-37" value="" style="shape=waypoint;sketch=0;fillStyle=solid;size=6;pointerEvents=1;points=[];fillColor=none;resizable=0;rotatable=0;perimeter=centerPerimeter;snapToPoint=1;fontSize=18;fontStyle=1" vertex="1" parent="1">
          <mxGeometry x="660" y="380" width="20" height="20" as="geometry" />
        </mxCell>
        <mxCell id="INPc3uI3xBPr1Q4v6FXO-38" value="" style="shape=waypoint;sketch=0;fillStyle=solid;size=6;pointerEvents=1;points=[];fillColor=none;resizable=0;rotatable=0;perimeter=centerPerimeter;snapToPoint=1;fontSize=18;fontStyle=1" vertex="1" parent="1">
          <mxGeometry x="660" y="400" width="20" height="20" as="geometry" />
        </mxCell>
        <mxCell id="INPc3uI3xBPr1Q4v6FXO-40" value="" style="rounded=1;whiteSpace=wrap;html=1;fontSize=18;fontStyle=1;strokeWidth=2;" vertex="1" parent="1">
          <mxGeometry x="490" y="-400" width="570" height="340" as="geometry" />
        </mxCell>
        <mxCell id="INPc3uI3xBPr1Q4v6FXO-48" value="" style="edgeStyle=orthogonalEdgeStyle;rounded=0;orthogonalLoop=1;jettySize=auto;html=1;" edge="1" parent="1" source="INPc3uI3xBPr1Q4v6FXO-39" target="INPc3uI3xBPr1Q4v6FXO-42">
          <mxGeometry relative="1" as="geometry" />
        </mxCell>
        <mxCell id="INPc3uI3xBPr1Q4v6FXO-39" value="" style="shape=image;verticalLabelPosition=bottom;labelBackgroundColor=default;verticalAlign=top;aspect=fixed;imageAspect=0;image=data:image/png,iVBORw0KGgoAAAANSUhEUgAAAmIAAAEYCAYAAAD/B5rcAAAACXBIWXMAAAsTAAALEwEAmpwYAAAgAElEQVR4nOy9d5gcZ5W+fVd17p6cJM1IGkmjaEUr2JJlIds4B4J/LGnJJixgwCSzyy673uVjgWVZwIAXDCzGGAzGYCNn4yArWVaOVhxJozSjybF7uru66vvj7bFGXdWTp2dGPvd19SX7faurq7p7qp4+57zP0SzLQhAEQRAEQcg8+kgfgCAIgiAIwpsVEWKCIAiCIAgjhAgxQRAEQRCEEUKEmCAIgiAIwgghQkwQBEEQBGGEECEmCIIgCIIwQogQEwRBEARBGCFEiAmCIAiCIIwQIsQEQRAEQRBGCBFigiAIgiAII4QIMUEQBEEQhBFChJggCIIgCMIIIUJMEARBEARhhBAhJgiCIAiCMEKIEBMEQRAEQRghRIgJgiAIgiCMECLEBEEQBEEQRggRYoIgCIIgCCOECDFBEARBEIQRQoSYIAiCIAjCCCFCTBAEQRAEYYQQISYIgiAIgjBCiBATBEEQBEEYIUSICYIgCIIgjBAixARBEARBEEYIEWKCIAiCIAgjhAgxQRAEQRCEEUKEmCAIgiAIwgghQkwQBEEQBGGEECEmCIIgCIIwQogQEwRBEARBGCFEiAmCIAiCIIwQIsQEQRAEQRBGCBFigiAIgiAII4QIMUEQBEEQhBFChJggCIIgCMIIoY30AQijDi+QA+QCBUApUA4UAlndHtnJbTtTHlGgGTgGnABqgabkWBSwMnYmg8SyxsyhCoIgCGMU90gfgDBiuIHxQAUwO/nvHKAMKEIJr+AQvE4caADqk4+9wK7k4xhKoAmCIAjCmxKJiI0MGiqqlI+KPAUBH+Dp9m8n0ApEgFjy3yaghYFFlQLAXGAFsDD5mA7kDeI8BoMJnAKOADuBDcBmVARtVCARMUEQBGG4GS1CzA9M4HyEpgQlEIpR0ZkQSqD4UZEcA5XmigEdQA0q2tIE1AHnkv/dBlQn/x0pAsBUYBYwP/koR51f18PTw/NN1HmGUefUhDqnKlRE6XVUCvBUcpsudGAasBy4CliJEl6jOQp6DngNeAp4Fjg5kgcjQkwQBEEYbkZCiGnAJOASYBlwGUogjENFh4ZqAYGBiiLVo4TK68BR4BDqBn+G4UuLTUQJoOuBVcAUlIgcLjqAs6i03yuoaNp7gMtRInYs0gK8DPwBeJoRENMixARBEIThJlNCTEcJrxuAW1BpsYIMvbYTEVT05SCwNfl4HRVlMga4zxzU+X0QFX0ayfO72KgEHgQeQkUBM4IIMUEQBGG4GW4hNh54L/B3wGKGNyo0WFqBw8BuVL3SJpQASPTyvGnAx4F3o9KqYxqPx0N2djb5+flmfn6+Pm7cOPLy8ozs7GwjFArpXq/X4/P5NMuyiMfjlmVZ8UQiETcMw4hEIvFTp06FT5065Y/H4+6amhqjubk5YJqmC/VdCwzy8FqB3wM/REU2hxURYoIgCMJwM1xCbAFKnLwHVe81FgmjUn3rUSmyLag0ZxflwBeAjzJyBe8DxufzUVZWxvTp05k1axYVFRXMmjWLcePGUVBQQHFxsRUMBru+H1byoWH/zlioOrY3/jtJ25kzZ4yamhpPa2tr/fbt2xsPHz7Mli1bQidPnsxta2vLQy1S8A7g8DuA3wHfZRgjZCLEBEEQhOFmqIVYOfCPwEcYuuhX191Q0zQNt9uNx6Nq2w3DIJFIkEj0FrQaEmpQ9VdrUDVtX2Dg6UcD0Nxut15YWBjLy8vTsrKyvIWFhXi93jcebrebSCRCW1sbbW1thMNhOjo6aGxspKWlpV/nnZWVxYIFC7jiiiu49NJLmTt3LtOnTycUylgJmUVy5efhw4dbjh8/3rZly5aWTZs2hTdu3Dipra1tKv1/PxuB7wP3Au1DfLwixARBEIRhZ6iEWBZwF/BFBiZOEoBVUlISnTBhgqe8vDw6c+ZMd2FhYaCkpMQsLS018vPzPW63W+sSYpqmYRjGG4/GxkbOnj1LbW0tjY2NNDQ0UFNTw7lz56iurqampiZTgs2JSDAYbJo5c6a+aNGi6MyZM91LlizxjRs3rrCoqChaWFio+Xw+n6b1/HFYlkV7ezsNDQ00NTXR0tLC3r17qaqq4ujRo5w4cYKzZ89SV1eHpmnMmDGDVatWcdVVV7FixQqmTp2Kro+qZgoGUFtVVXVi27ZtR9esWdO5du3a6SdPnrwUZe3RVw4CX0GtthwyRIgJgiAIw81QCLGlwM+AJf14TgJoqKioiCxbtsxYsmSJtmLFipypU6cGi4uL3R6Pp6umaNCqoUuknTlzhkOHDr3xOHLkCMeOHaOxsXGwL5GO+kmTJp1ZuXJl+IYbbrBWrlxZMnXq1HFut9uLSscNeVo4FotRV1fH4cOHcblcLFmyJJMRr6HgXEtLy56HH35438MPP+zfsGHDlaZpzqPv79XPgH9BGcgOGhFigiAIwnAzGDGgAZ8Hvolqd9Mblsvlqpo3b171Lbfc0n7TTTflLlq0aHJWVlYuKo2ZUSsNwzCorq5m3759bNmyha1bt7J//35OnjyJaZq978CZRFZW1oHVq1cf/vjHP87q1atn5+fnT0ZFDIW+YxqGsX/v3r3rfvGLX9Q/9NBDK9va2lbTs99aF4eBTwFrB3sQIsQEQRCE4Wag4icL+Dnw/j5sG83Pz9+xevXqPXfeeWfeqlWrlnm93okMrEh7WGlpaeHAgQOsW7eOF198kR07dlBfX9/7E5PccMMN5+69996dM2fOXIgyqB0zWBa0RaLUNrXT0NxBQ2uEhtYwdc0dNLd30hmNE4nGCSf/BfB53Hg9LrxuF16Pm+yQj/EFWZTkhSjKC1GUG6I4N0RhXhC9l7RrD5yurKx8/Hvf+97Jhx9++K2tra3X0XukNAr8M6p+bMCIEBMEQRCGm4HcHYtQK9au72U7My8v79k77rhj+5133jlvypQpKxljKyjPnj3L1q1bef7553nuuec4duyY48156dKlfP3rX+e2227D7R7NxvUXUtvUzuPrX+dgVR21TR3Ut7RT3xImGjMwEiZGQkUGNU1D05JfFk274EtjWWAl11NYlhIvuq7hcem43S7ysvyUFeUwa3IxMycVMXtyCVNK88nL6vdajrMHDx787Y9//OPqBx544EPhcHhxH57zW+BOlO1FvxEhJgiCIAw3/RVik4BHUW74adF1fecXvvCFR77whS9MLC8vfx+DMDeNRA3CnTHC0RhxwyRhmsTiCSzA43bh0jU8Lhchv4eg30vA52HgwZf0dHR0sHnzZp566imefPJJjhw5Qn5+Pt/4xjf4zGc+g8/n69f+4kaC2qYOqhtaqW3uoK6pg6a2SFIEJYgZJpZlEfC5Cfi8eD3qHEsKshlfkEVBdoC87AC5oYEvTo3GE6zdWcnDf9vNhj1VJEyTnJAPXdNBG1yuWGkYi4RpEjdMDNNC18DvdVOYE+KSKSVcPncSV8wrZ1ppPr0tVOjGvs2bN//q61//es7LL7/8OdQPg57YgPKyO9P/cxAhJgiCIAwv/bnXFqH6//VUlB9bsWLFvT/72c9OLliw4PMom4c+ETcSnK5r5fDJeo5VN3K6tplT51poCUfpiMTo6IwSiydImFY3Qwt1Al6Pm6yAh1DAR1bQR0FWgIKcAPk5AUqLcpheVsi4/CyK80P4PIOPWLW1tbF27VoqKiq45JJL+vScWDzB0dMNvHbgFK8fP8ex6iaq69toC3eSMC2MhIlpWcqoS0ueHIBlnTfx0pKRJpeO3+umICdIaVEOFWUFTJtQwNypJUwrLSQr2P+s77aDp/n5X7ewcU8VlgYB7/BE9iwLjIRJzDAwTYu8LD8LKiZw7dLpXLOkgnEFfS6n+9P999//+D/90z99pLGx8bpett2LMtw92L9jFSEmCIIgDC99FWJeVCTstnQbeDyeo3fdddf/941vfGNpdnb2pwFXbzttaouw9eBpNu6u4vUT56iqbaa1I4qRMNF1Dbeuo2samqah68kUmcN+LAsSloVlWpiWhWlaWJZFwrJwaRpej4vskJ9x+VmUFeUwpTSfuVNKmDGpiMnj8vC6ez3UAWEBB6tqeXrTITbuq+L42UbaIzF0TcPtduF2dZ1fP/drWeqcTZU+TCRM0CDg81CaTAMumz2J5XMnMrW0oM/1WaZl8crO4/zkz5vYU1mD3+vB4x5euwvTst5IhU4ozOatS6Zz++q5zK8Y35ennz1x4sR3PvrRj+avXbv2ayiD2HScAt4JbO/rsYkQEwRBEIabvkqAnwKf6WF+049+9KPvf/7zn/8ycEVPOzItix2HzvLYuv28uu8kZ+pbMC0Lr8uFO5lq1Dgf9BoKLAtM08QwTRIJlS5z6RrZIT8TS3KZPamY+RXjmD9tPDMmFeEfZDQonjB5cdtRHn15L9sPnaUtEsXnceFxuwZTtJ6WrvfLtFRkLR43MS2TvCw/c8pLuHpxBW9dWsHkcX1rABCJxnnouV386qmtNLZGCAW8GVnSaiRMItE4Qb+Hqy6t4EM3XsqSWWW9P88wfv6tb31r/T333PPv9Nxm6gxwM7CnL8cjQkwQBEEYbvpyf/00cF+6yYkTJz714IMP/vLqq6/+PqrvoiOWZfHSjmM89NxOth08TWfMwOd143G7Mutb0Y1EwiSeLEq3LIuQ30v5+DwunVnG8rmTWDh9AhMK++LMcZ6Xtlfyqye3se3QaQACXg+6PjJnmDAtYnEVbSrMDbFi7iTevmouK+dPxtOHKODx6ia+/du1vLS9koDfg8eVGTNY07QIR+N4PS6uWzaDz75zOdMnFvb4HMuy1r744ov/c8cdd3zh5MmTb+1h0xOoxvOv93YcIsQEQRCE4aY3hXAJqq2PY0F0WVnZE2vWrPnt4sWLf0QPdg17K2v46V82s3bXsWQBumdYIkODJWFaxI0E8UQCl6ZTlBukYmIhd9yylLcsmtrjc6vONfODP27g2c2HVZrQ6+5PAfqwYyRMOmMGLl1jQcUE3n3NfG68fCahQM/1ZEbC5KHndvKTv7xKeyRG0NcXK6+hwTQtOjpj5GX5ef91i/jEbcvICva4KKLqwIEDX77hhhveferUqXf3sN0R4AbgeE87EyEmCIIgDDe9KYU1pKkL0zRt67PPPvtf119//U9JY0sRTyT4+eNb+OUTWwlHY4T83lElTnqjtaOTyePzuf/udzK9LH1E5s9r9/H9P2ygrrmdrIBvWFZtDhWWBZ2xOAnTZHZ5CR+9eQm3rJiN19NzhGzvsRq+/vPnOVhVS3bPYmjIMRImHZ0xFk6fwD/+/Wouu2RST5s3Hjhw4HM33njjFSdPnvxsD9ttRKUp01pbiBATBEEQhpueJMMngPsdn6Rpp379619/7sMf/vA3gflO25w818w9//cC63YfJ+T34hpdPQ57RAPCsTiTSvL4+VffwdQJzu4bkWic7/7uFX7/t91vGJuOJTqTRfKXzijlM7cvZ3UvUb/6lg6+8Yu/8bdtR8kKeDMe1YxE43jcOp942+V8+h2X406fKo3s3r37rmuvvXZufX3953vY5cPABwDHVgoixARBEIThJp1ymAD8BnCq7ra++MUvfuVrX/vaB4GVTk/ef7yWT//34+yprCEn6B+VacieiBkJsvxefvzFtzG73NmDtq65gy/86Ame2HiQ7KC3J1EwanG7dLweF2fqWnj61UOcOtfC7CnF5KTxJgv6vdx4+QzihsnWA6oGzp1Bge1xu7CA9btPcOhUHZfPmZQuteoZP378DcuXL39gzZo1ZyORyNI0u5yPcul/2WnynnvuGZLjFgRBEIR0pFNI/4LqIWljypQp//fSSy81Tp069StO87uOVPP5H66hrrmDoM8zpKsfM4FpWkQNg29/6kbescrZI+zkuWbu+tGT7D1Wk/E03XBhWRbtkRjjCrL40ntW8c63zO0xxfroy/v49m9fpjOewO9xZfxzbgtHmV5WyH995mbmV4xLt1nnzp07P3XDDTdcV1dX94E028RRKcoXUickIiYIgiAMN0632gnAaygX/VQOP/jgg9/74Ac/eC8QsE2erOeO7zxKfUt4TIowgNaOKP/wjsv5yvtWOc6frW/lH773GAdO1pEduDhEWHdiRoJYPMFtK+fw9Q9eRWFuemuuV/dV8cV7n6I1HCXgdWf88w53xsnPCfC9z9zElQumpNusbf/+/R+/+uqr76irq0vXlmsbKrob6z4oQkwQBEEYbpxSk59HGV/auOWWW77/3e9+93YcHPPrmjv43A/WUFXTTMjvHZMirKMzxrLZE/nWJ2/A7WBk2tAS5nM/WMO+47UXpQgDcOk6HrfOnsoaNu45wYKKCZTkO7vdTyrJY8H08by04xgdnbGM2Vt04XG7CEdiPL/lCFNLC9ItqPCVlJQs9/l833z22Wfn47ywpBRlZ7Gv+6CkJgVBEIThJlWI5QM/S/6byo777ruvftq0ae9NnbAsuPt/n+HVfafGbKrOSJiE/B7++86bKSvOsc0nEiZ33/cM6/ecIGeMnmNf0TQNn9fNuaZ2nttyhInFOcyY6NzSsaw4l0UzS3l5ZyXtkREQYy6dWMLk5e2VzJhUxLRSx4UVuZdffvnkYDD43RdeeOFmVKeIVPKBB7sPiBATBEEQhpvUu+Y1pDFlvfXWW9dee+21b3Oa+8OLu3l+y5ExK8JArcj72C3LmD/NubXOvY9u4tktRwbVZHusEfR5CEdifPknT/PjP28iYTouLmTprDJ++qW3U5ATJBIzMmrQawFet4u4YXL3T59h3e4T6Ta94u67775p1apV6cyJVwGLhuMYBUEQBCEdqULs9jTb7fnSl77kw0Gkna5t4b7HNuPzuEe1f1ZPdMYM5leM58M3L3acf3FbJb94YitZvZifXox4krYcP3pkI1+771ki0bjjdpfOKOXeu24jJ+QjGk9k+CjB63HRGYtz90+fZt+xc+k2+/Bdd93VCZx12gXqh4ggCIIgZIzuQmwScJ3TRrfccsvOq6++2rHQ+Sd/eZWa+jZ8vRiCjlYsS61YuPP2FY6u8bVN7Xznd2sBcI1Qq6KRRtc1ckJ+Hlu3n6/e9wyRmLMYWzyzlG9+/Ho0TaV6M43f66alo5Ov3vc01Q1tTpvoN954400zZsw4kGYXVw7j4QmCIAiCje5C7Gag2GGbpne96115wIzUif3Ha3nutcOEAmOzOB8g3Blj1cIpXLPEuVf0j/60keNnmwgMshH4xUBulp9nNh/iqz95Om1k7Lpl0/nq36+mM2ZgZnjVoQUEfB6OnG7gX+5/jphDZC4YDM5/xzveEcDZxHUe4LwyQRAEQRCGgVQhZmPixImVN998s6Pl+sMv7KI9Eh+zkSLTsvD73Nxx6zLH+fW7T/D4+gNkBceu0BxqckN+nn3tCF/+8VOEO53F2IduuJQ7bllKWzia4aNT5AR9rN15jIdf3O007bvmmmsmAh0OcyWk6asqCIIgCMNBlxArIE2roptvvvlMSUlJeer40dMNPL/lCEH/2PQLA+VD9ZaFU1k2Z6JtLhZP8NO/vIppmmOuM8BwkxPy8dzWI9x939PEDOd6sC+/bxU3L581YmLM5/XwyEt7HcXi4sWLS0pLS51WXWQDZcN+cIIgCIKQpEuIzQGcol5NN910Uy6Qmzrx/NYjNLZFcI/RaJhlWbh1jXddNc9x/olNB9h++AwBh7oxQUXGnnntMN/+7VrHebdL518/+lZmTCykM2Zk9uAAn8dFVXUTr5+otc2VlJT4ly1b5vTB6sDkYT84QRAEQUjSJcRWOE2OGzcuunz5cpt5a9xIsHZHJV535lvbDBVqpeQEVjo4soc74/zmmR14XGNzAUKmyAn6eOi5nfxizRbH+eK8EP/84Wtwu/S01hfDhaZpROMG6/ccd5xfvnx5uqfavu+CIAiCMFz0KMSWLl0aGT9+vK1mZk9lDYdO1o/ZlZKgVvW94y2XODbr/tvWIxw8UYdfCvR7RNM0gn4PP3xkI09uOui4zcr55XzybZfREXGuJxtOXLrO3kpnK4tZs2ale5qTmbEgCIIgDAs6EEKlJlMxVqxYYeLgQv7KzmN0RONoY7R2Km4kKB+fz/WX2RaCAvCXV/ahj9GUa6Zx6TqarnHP/73AriNO9lzwqbdfxlsWTqE9Esuo2avbpVPb1E67Q53a+PHj031/33xmcYIgCMKIoaMsK5wafMeWLVvmwm76ys4j1Y6RpLFCZ8zgxstnUphjb2i95fXT7Dh8Fr9PomF9xed20R6O8R+/fon2SMw273G7+OcPX01hbjBtcf9w4NI1GlrDNHd02ubKy8spKXFqO8nYbQ8hCIIgjDl01Coxm3dSQUGBMWvWLFvTxXON7ZyobsLrHptpSdOyCPo9XLPEsZMTf163l86YISsl+4EFBP0e9lRW873fv+K4TUVZIR+/dVlGC/c1XSPcGaO+xe5UEQqFyM7OdnqaCDFBEAQhY+ikKU4uLy8PTpo0ybZa8kBVLQ2t4THrHRaLJ6iYWMQ8h56Sx6ubeGXncVkpOUCygz7++NJentjgbFz/gesXsXT2RMKd9qjZcKChkUiYtIftr+d2u/F6HbOQIsQEQRCEjKEDU5wm5s2bF9V1e/px//FzxI3EmK4Pe8uCKY4RvfW7jtPQEh7TadeRRNM03LrOfz28jhM1zbZ5n9fNl95zJV6Pm4SZgfW2GpgWjis2XS4Xbrdj+jnzvZkEQRCENy06MNNpoqyszI9DfdjRMw1jNm1nWRZ+n4dVC6c4zq/ddRyXg/gU+o7X46KmoY17/7TRcX7ZnIn8v6vmZSQqpqFS0fG4sxDz+RyDX63DfVyCIAiC0IUOTHAYN2fOnBmFCxe5mZZFTX3bmF1RGIsnmFFWyNyp42xzlWcb2XusBp93bNa+jSayAl6e2XyI57cecZz/2C1LGZefTdwY/uCTZVqOCwTcbjeBQMDpKY7dwgVBEARhONAB+9JB0KZMmWIrlGpu76S+NYxrjKbu4okEi2eVOfqDvbq3iua2iETEhgCVtta490+baG63r1icVJLLu986n0g0A7ViGo4/HDRNS5debxn2YxIEQRCEJDpgCwsEAgGtuLjYJsQamjtoHMNiRdd1Fs8sdZx7RdKSQ0rA5+ZAVR0PPLPdcf791y2ifHz+sNpZWBa4XS5Cfvvii1gsRlubY/BLhJggCIKQMRyFWF5eHkVFNkN96ls6iMYMxmJmMmGa5IX8zJtmT0vWNLZx8GQd3jHcKWA0EvR5+OOLe6hyKNwvyg3ygesvJTasdhYWLl0j6LevjozFYkQiEacniRATBEEQMoZjajIUCpGVZbMWoy0SI5GwIKP+6END3DCZUppPaZHNGo1DJ+tpaBm7KdfRisetU9fckTYq9rYr51BWkkt8mKJiKiKmpxVinZ32tClQNywHIwiCIAgO6IA/ddDr9eJ2u23+Ah2RGKZpMhYXTRoJk/lTxztaU+w6Uq0sOUbguC52Qn4Paza8zoGqWttcYW6Qt62cQ2SYomIWFm6XTsChJtAwDOJxW//LKFA9LAcjCIIgCA7ogC0f5/f7cblcNl3SEYmRsDLg/zQM6BrMr7CbuALsOTq2WzaNZly6TmtHlIee2+k4f/vqeRTnhTASQ7+C0rQg6PcSCtgjYtFo1Cki1gHYFaMgCIIgDBOO6iM7O9vR7LI9Eh2TUSPTsvB7PUwrzbfN1TV3cPRMA54x2rJpLBD0e/jb1qNUnm20zZWPz+OqRVPpjNmiU4PGTJgU5QbJDtr9ws6ePUtTU1PqcC1gL2gTBEEQhGHCUYhlZWU5Lu1vC8fGZFoykTApzAk61oedrmuhuT0yZls2jQVcuk5TW4S/rN3nOH/zFbNxu3SsIY62Jkz1uTvZldTW1pJI2GrTzqKiYoIgCIKQERyFmMvlHB1SbWnGnmAxEiZlJTnk59gt046eaiASNcZsy6axgt/r5pnNh2hsDdvmls0qY8akYqLxoS3aNy0oygs5zp0+fdpp+NyQHoAgCIIg9IIO2O5+DkXMAGO2jspImEyZUOAoIY+dbRzySMybFSvZ1zFuJIgbCWJx9ejqTVp1rpm1O4/Znuf3ebhq0dRh8RQrK7ZHQQGOHz/uNHx4yA9AEARBEHrAjUOTY4eUDQAuXRuTokXTYOp4e30YwJEzDf22rbAsi4RpYVkWpgVYFpqmoesauqah6doYjBv2ny7BZVrgcul4XTrZQR8Bvwdd03DpOrquYRgJovEEuqbx7GuHuX31PNu+VsybzP89tQ0r+V4OFZNKch3H00TEDgzZCwuCIAhCH3AUYobhbCcwFn22LFQ7m4kl9shIJBqntrEddw+O+pYFhmkSNwwSCWUQ6vO6yQn58Xvd+L1u3C6daNwgEjXoiERpj8QwEiYetwuvxz0mDXDTYZoWkaSp7/jCbGZPLmbhjAlMGZ/PhMJsinJDhPwe9KQI0zUNI2Em35840biBkTBt0dX508YzqSSXk+dahsRY1zQtgn4P5Q4C3DRNTp48mTocQ4SYIAiCkGHcgC0PmTYiNhaFmGXh97gpzLXXCrWFozS0hm2F+pal+lLG4ga6plOcF2J2eTFzykuYVprP1AkFFOWHCPo8BLxudF0nbiTo6IzRFo5ReaaBrQdPs/3QGQ6frCduJAj6vWNyoUMXFhDpjOH3erh68TRuf8tcls2ZSH62Y+NsB+wrF7sTCnipKCuk8kzjkAixhGlSlBtiQmG2ba6pqYmqqqrU4RrANigIgiAIw4kb1dJlYvfBRCLhmCJyj8HQjmla5IZ8lDgUbdc2dRDujKMlzythWnRG46DB5HH5rJw/mZXzy5k3bbzjDb07Xo+LUMBLST5UlBVw/WUziBsJth48zUPP7eLl7ZW4XDo+j4uxltw1EiaRWJzVC6fxuXetYOH0CcPyOmXFOZhDlPo2EiZlxTkU5doXaBw7doyamprU4cNIeyNBEAQhw7hx8E3q7OzEMAw8ngubJec4+DGNdkzLIhjwUpBjj9ycrW8hZhi4dAe/830AACAASURBVJ2OaIzsoI/rL5vBrSvnsPySSeRm2ZoO9AuP28UV88q5Yl45T796iO8+tJZzzR2E/B7GQqmdBnTGE/g8Lu756LW8960LhjUqahhD96YkTJPycXmO9WaVlZVO6fcjQ/bigiAIgtBH3EBD6mBbW5ujECvMDSX9nhgzaTbLsgj5vHg9di+puuYwDS1hKsoKec9bF/D/Vs9jdnnxsBzHzStmMXNyEV/+8dMcqqolFPSOejEWNRKE/B6+95mbWH3ptGF/vXA0NmT7siyYOdn5s9y7d6/j8JC9uCAIgiD0ETdwJnWwubmZxsZGysrKLhjPzwngcbmwsBgr6wJN0yI76HO03tA0jTtuXcpn3rkirc3BUDK9rJCffultfPK/HuN4dSMBn6f3J40QCdPEret877M3s3rR1F63j8YMaps7aGmP0NgaSRbmJ0iYJiG/h+ygn5Dfg9/noSQ/izyHaKNniKJtlmXh87iYPrHQcf7gwYNOw7uH5MUFQRAEoR+4gaOpg01NTdTW1tqEWF6WH6/HRTxhjhlfV9OyyA45p1RvXz2X9127sF/RPQuoa2rnbEMbzW0RWsNROqMG2UEv+dkBypOrB9MxsSSX7/zDjXzsO48SiydGrTdbpNPgS++9skcRFu6Ms37PCTbsOc7+Y7Wca2qnLRxVfSMt3qj36lo9qesa8USC91yzgHs+dq1tf0MVIEyYFoW5IWZOKrKfVyTC/v37U4erANugIAiCIAw3bhxqY2KxmFMfPopyQxTkBDnb0IpLHxu9GS0LshyaPgOOrW+cONfYzp7Kal57/TSvHz9HdUMbja1h4gkT07IwTWVroesahTlBZkwq4tYrZnPzitn4HFYALpg+nk/ctoz/fni9Yx/EkSYSjbN4VikfvWWJ47xpWazZcIBfPbGVg6fq6Ex2JvC4dFwuHU1TkUiP24Xf606mYC0sIBpJpG3wHRmifpOxeIJppQUUOyzQOHLkCCdOnEgd3oMU6guCIAgjgBuoBIzkf7/B0aNHueaaay7YOD8rQFFekFO1zTBGmmSbppVWiPVEeyTKxr1VPL/lKFsOnKKuqQPTMnG7XLh0DZdLx6Ppb0R/LEu9Vl1zmHONJ1i36zhrNhzgPz91g2OE7O+vX8RTmw5SebYRn0P92khiAR+88VLH44oZCe751Qv86eW9GAmLkN/DkpllLJw+gWml+eSE/MQNk5O1zbyw9ShHT9cn6/NUMtula+RnOVtedEYN9CEoPkyYJvOmjXOc27VrF9FoNHV486BfVBAEQRAGgBuoRtWJlXefOHLEYRGZBmXFuWw7aCsrG7VoGuSG+r76sbq+jcfW7+fJjUokddUbBf3n67k0IBIz8HncTC8roCg3iAW0dnRyrrGd+pYOLBPW7jzGnT/4K/d/9XYKU2wUsgI+3n3NAv79gZcYTaVinTGDWZOLuHpxheP8fz74Mn94YQ8+r4slsybwxXevZOmcibgcTHE/ctMSPvW9x9h5+OwF0cfxaVK3LR2d6IO0SLEs1Ypr/rTxjvOvvfaa0/C2Qb2oIIwQqeUjbx4ssKBw1SfxZI/DMp1NyDNEGTABCKEME0NAVvIRAMKoiHtr8r87gXpUScTQrVAafiYDxUARMAnIB/xAEPAAEdT5RVDndyb5by3Sx7dHuuwrTpMixNL04mPqhLwh83rKBBo4rphMpbqhjd89v5PH1r3OucY2fF43Ib+zQorEDJZfMokvvW8VsyYXv1FkbpoWNY1tHKyqY83GA7y0vZItr5/mf/64gW998nrbfq5dNp37n9hKc1tk1NSKxY0El8+ZRNBBHb6y6zh/eHEPAb+bSSV53HvXbZTkZ6XdV1bAS3FeKNks/rxIckoZdnTGqWvqGLQ9hmmZ5GX5mTOlxDZnWRbbttk0Vy2yYlIQhL6RBSwE5iYfM1CiZCJKgPX2s9pECZU6VDbqMLAL2IdaMNQxLEc9MCYCi4DlyX+nAeNRAqwvJFDnWQMcAl4DtqKut5ksBdEBF0oOxBm6cuQhw406qEpgZfeJw4cPk0gkcLkuTEGWFeeqnpOMlXp9zeac351ozOAPL+7ml09uo7q+laDfS04PETQjYVKUG+TfP34tk0ryLpjTdY3SohxKi3K4ZkkFz285wj//4nkeW7efd101j0tnll6w/fiCbBbPLOWZzYdwu/qfPh1qLMvC43KxfO5kx/k/vrhH1cNpGjlBH3lpUoxdbD90hg17qggko2GWZRHweigpsIu3prYwLeHooFOTsXiCS6aUUFZkXwVbVVXFgQO2LkYHUFFhQRAEJ0LAFcDbgWuBWYPYl57cXwiYAry129xB4K/Ao4xclH4CcAvwNuBywP6Ltu+4UMJtPErIvSc5Xgm8DDye/Dc8iNdwIh94BMjmvAhzJV/nJkZhPXBX+GFf6kRtbS319fW2J0ydUIDf6xk7zb81K22U5cipej7x3b/wzQdeprmtk5yQv0+RKdOiT42pr79sBn939TwaW8P8df3rjtssmVU2avzETMsiK+hl8rg821xNQxt7jlbj97rxed3sO36OXz2Z/lpxvLqJf/vVC4QjsTfSjZZlEfB7GO8QRattbCfSGRt0ajKeMFk8a6Ljfnbv3k1bW1vq8EuDekFBEC5WAsDnUKLoeeCzDE6E9cZs4GuomtV1KNGQKRYAPwB2AL8AbmNwIqwnKoCPA08CW4C7hvi1vMDVKCG5DFiMimIuJqUWfrTQpTr2pE7U1dVx9KjN2YKJxTkU5gZJpFn5NtqwLNVT0onv/O4VXtl9nJyQD4+7bykxt0unrrmDJzb2rT+0162Ey2sHTjkex8LpEwj6PKMi3WuaFjkhH8X59tTh4dP1NLV3vhFd9Hpc3PvoRr5+/3McPnXeE7ijM8aajQf46H8+SuWZBgK+89/7hGmRnx0gz6E/ZX1rmHA0Pih/OssCn9vF5XMmOs5v2LDBafiVAb+gIAgXK5ehfqTdixJImcQFrAKeBh5EpQSHi8nAT1Di7y5U9CqTzEUJwG3A5+k9tdsXLJyjbJ2MwrQknFeHB1GFhG/kc0zT5OjRo6xceUHGkvzsIBMKs6mub8UzBlZOWpbyu3Kiy16hv/i9bu7/61YumTKuR5+t/cfP8aeX95Ad9FFd30ZVTbNtNV9pUQ4FuQHqm8PorpFN9qq+nH5Ho9naxnZicQOfR9lt6JqG3+vh0Zf38bctR5kxqRC/10N1Qysnqptw6zoBn+eCb72RMBlXkOX4ntc0tGGa1qA6NhiJBOMLs5lfYb+WJBIJ1q1blzp8DIcfIYIgvKm5BXgYldrqjXZUHdQxlCfnOc4XrXeJgWzOpyPHA/NRaUlnx+kL+SBwHXAn8Oe+nkAf+TTwDVQ6si9EgFOouraTwFnU+UdQtVddhfvZqLq5cmBmcv+93WgnAT9CpS//EVjfj/MY83S9OTWovO2l3Sdff92eTtM01dR66+unh//ohgINomn8qbL8A2sz5NI14kaCL977JF957yree+3CC1JhlgVrdxzjPx54kaa2TgI+N+2RGEdO1duEWFFukPJx+VTXt414wb4FeN0uXA5qKBy1v4eapgryY4bBzsNnsVDvjd/rdkzdmqZFaaFzB4Pj1Xbfuv4SMxLMnzaefIeI24EDB9i3z5aBfxUY/AsLgnCxcB29i7Ba4G/Ac8AmlDjpz+pHHShARYOuA94JXNLD9uOBPwCfAv6vH6/T0/5+yPmarZ6oAV4EnkGlLY+iRFdfCaHOcymq7uwKen5vr0Clgf8RJczeFHQJsShqVcMFQszhxgWoVj2jNMJnQ0c1rnYimGZVZF/wuF0YCZNv/uYlnnz1IFcumEJJfhYt7RE27Kliy+un0JKixEr6jB2oquWdzLXta1ppARv3Vg34WIYOC03XHBuJ9pQydOk6AV/vItLCony8vf4MoLqhddCF+pYFl13inJbcuHEj4bAtWv23Qb2gIAgjy9Aai08Ffk96odAI/Az4KSoaNFBMlK3DK8nHf6CK9r8OXJnmOe7ka9egUpYDZRFK1PVW6/YqqlbsSVTEb6B0oOrAtgD3oSJkHwA+hrL9cMKPEooLUFG7sWTxMSC6hwv3Au/tPnnw4EEikQiBwIURhoqyQnxJgTHam39rmkY05uwxo1JwAxeU7qST/K4j1Ww9cBqXrpEwLdwu3RYVcukax842Ou5n1mR7K56RQNM0wp1xDCOBKyV9GBqAKW4quq47mtt2xgxqGtpx97FOz4munqJLZjsLsZdestXkt6IuNoIgjDk0LDNGtPoA3llXDZWP2L+hPLKcOAC8C3BedTU4YqiI00uoFOS/oyJJqXiA/0UFTJxvJj2zCvgjPaci96GE4V9Q9hNDzWHgX1Fi9rOourR0wvdjqHKpD6Lquy5aUoXYBVRXV3P06FHmz59/wXhFaQE5IR/tkRgubXT4X6VD09SN3omgzzPoFYsaqmast1ozt0vnRE0zze0Rm+3D1NKCpLC1+rQac7jQNY2OSIyYkcCXcj65IT8et2vA4tuyLPweF0UOHmLN7Z3Ut4QdTWH7SsxIsGhqCdPLCmxz9fX1bN5sM8/fj0N7r6GgrKzsBtSvveLkkJbycBrradxpXkddwBuSj2pU6sC+1FkQLkI0zUW4aivBKUvRXT4sa1ALyK4A3p9mrhKVVrOvXhtaosD3UaLvEZzF2GTgK6joWX+4AmUXYb9AKmLAfyZfv72f+x4I51CC7C+oYv2r0mz3LtT17gNcxGKs+932dZS/Rm7XQCQSobKy0ibEivJClBXnse9YDS7vaBdiGp1pasQGk5rsLy5dp6ktTE1ju02IjcvPIuTzEInFHeuzMoWuabRHYjS2hm09MKeVFZAd9NEZMwZ0jKaljHVzs+weba0dnUTjxqBEaNxIsGrBFEcxt2vXLk6ePJk6/CLDl1//APAW1EUzk1SjVh/9BnWBGxv1A4IwEHQXic5W4s1n8JfMxDIGlcH6OM4r9iyUhcVwi7DuPA18CJUmdWpGfCfwO9SPyb4wA1X3lk6EHUfVn41EqcYu4EaUGPt0mm3+H+rH5qcydVCZpvtd6wRK+V+AgxM5bpfO7ElFaZs3jyY0TSMSNRx9z/xed8buVLqu0n5n61ptc3lZgaQlyMjeN3Vdo6Wjk6qaZtvcuIIs5ZI/0M/csvC6dfIchFh7JEosbgw4zW1aFqGAN+0K1ieffDJ1yEDVPgwXETLzqzKVCSj/n0eBtcDqETgGQcgcpknH0Y3J1OSAf8gFSF+b9WdU2jDT/IX0hfnZwCf7uJ8cVDoy3Y/C3agFAyNZLxsFPoOKkKXjk8BXM3M4mae7EEug2g9cwO7dux2fOLN8dNQ19YamKff8rjY73fG43RntDpAwLU7X2U19c0I+xhVkjbiw1TSNeCJBpUMtW9DnYfK4POKJgZUNmJaF3+fB77X/6GwPx4jGEwP2EIvFE8yeXMzMycW2ufb2dp577rnU4T2oNN7FzFtQN5CPjfSBCMJwobk8xFvOkIi0wMBLGxagCvWd+OVAdzoEfAu1QtOJ1Sjj0t74L1IW4XVjK3ADDgGYEeKb9CzGvoW6rl10pBY2bU/d4MCBA7S1tZGdfWE93dwp4wiMgrqm3tFImKZjREzXtYwvNjh1zh5tAtXuaDR0K9CAQyedF8lMn1jI81sHVlZlWpAT8uPz2Fc5NbVFME1zwJ9F3Ehw5YIpjvYf27Zt4+DBg6nDz9G/JdhDgYW6KJ5F/d2l1n7pDmPd68G6j+moEoJClEv1TJzTDgHgV6j0xv8O6dkIwmhA00jEIoRP7iDnkhswzQH9UEznuH6GkWs11PX6DwFfcpibizKa7ckH8XbSp/OOouqvRlsz7m+iFkx83mHOgzLYfQtqsdVFQ+qXbycqbfPGeFVVFUePHuXSSy8U1ZNKcinMDVLfEsY9wkakPZNeKJqmmdH2QrqmcbbB1mIHgAmFOaOioMel65w814xpWTY7iaWzyvANsGDfsiyyAl7HBuxNbREGmlYwLYuQ38tVlzqbTz/11FO2pwC2wQxgoZafnxiGfU8BrkfVjsx3mP8fVC2GrBIVLjp0l5f2o+vxFpTjK5mJleh3rVg6N/nDqNqkkeR54IvYL5BulOVFOiGWA3w3zVw78D6UKeto5MuoVOo7HOYWolKU38joEQ0zqSGESlL8UQzDYO9e24JKivJClI/PJ26M/joxFflyMBjNsPLRdY2G1jBxw/6rrTgvxGhoOulxuzhR3cSZWnsKdeH0CZQW5WAMMD2pIn5De47RmMHMyUXMKrenJSORSLq0pC0FnyGcVkENBSeA+4HlKP+dVPzJ+eAwvf6bjSDKh6nrMYNR2sPuTYGmqVqxYxsHunLSfvFQpEsLZpLXUJExJ+b08LxPA9PTzP07Ixvp6w0Ddfwn0szfiXLtv2hIFWJNONhY7NjhXE4za3LRgG/KGcMCXUsXb8ms8NF1jaa2iKOdRmFeAN2lj3hUzO3SaWgNs+Ow3a8wN8vP4lllxNIY5PaEhrKYcKrVc4qS9RUjYXLt0ul4HNKSW7dudTIlfo6L1yAwjPr1/G2HuXmo1UfC4FmCEvNdj430vU2MMAxobi/RumPE6o6iufvteTguzfhoEGLNpBckzu7Y6nyc0pkAG3D+sTbaqEGlJ52UdR4qanbR4FTduCV1YNeuXY5Pnl8xYVDeT5lC13THXFqmA1C6phHpjDv2vizIDuJzu0dFnZhlwfrdJxznVsybPDCxqEHCMDEdF00M7DuUME3yswJcs6TCcf6pp55yej9HIi2Zaf4VdcFN5bNI5GYo8KJWrnU98lGNmoURxaL92Cbof1Qs3QXI3ittZEhn3ppuxdz7gBKHcRN1bRgS99sM8ETy4cSHgNIMHsuw4vQFtKVtDh8+THV1tW3DS6aUkBPyOUY5RgsWydSk05xlZTQCpTzNDFo67L50Ib8Xj1sfDdlJfB4Xu45W09gasc1dfskkSvL7v8JTQ8MwnYWYb4ARsc6oweLZZcmWWxcSDod54gnb3/BW3hx1UgbO9SFLUAW+wtBiIJ5tI47m8hKrq6Sz9kh/o2L2m5vCuU1H5knXYigf+8pJP+lXSj8FvDxUB5Uh/gNlb5FKLimdgMYyTkJsLykffHV1tWMD8EnFuZSPz8NwqHkaTWiac27SsgbhPDOg41CptIhDA22vx4VL1xgN13OP28XZ+lb2HbcvqJlQmM2qBeVpuxWkQ9Mg3Bl3tL/IDfnQNa3/Z67BTctnOk69+OKLHDhwIHX4UcbOr8HB8gLKobs7bmDZCBzLxcZoXp305saCcOUmME368THVpBmfQPpoWSb5Nqow/6puj6tR3lqpF9SVOC/YAdXrcayxg/Q+bh/gIonwO33JTuNQJ7Zhgz3T4XbrzCkvGbC3VKbQNeeImJnh8JMGGIbpKGJ8Hjcu1+iIiIESjC9tdzaTvuWK2f2O3umaRkdnzDEtm5sVwO/rX1o2biSYWJzLqoXO9j9//OMfU4fagL/2/YjHPJ04F+RenukDuQgRITZK0dweovXHiNYeQXf3uXNKulqwOagm2SNNJaoP5SvdHmtREf7Um++tafaxh7EXDevi12nGF5BedI4p0ql9W/rGyWEf1Eq60YxpWQT9HsdVk+FoZmu2uwxTnVouedw6HvfoKTPxedy8svMY9S0dtrmlsycya3Ix0Xjfg0uaphGNJ2hoCdvmcrP8+D39E2KdMYMrF0yhINtexnH69GmeffbZ1OGXgUN9foGLA5svIKMn3SIIw0bHsU3Kbb9vPjv7cS4K96KiLmMFP8ol34m/4pziGwv8DWfTWRcqUjjmSSfENqYO7Nu3j8ZGe83g3KnjyAr4HGt/RgOWqfyrnGjtiI7IT1vT4U9e05S57Ggo1gclDM/Ut/HyjmO2Ob/XzQ2XzSDWj5R0V/P1hla7EMsJ+ZIRsb7ty7IsfF532rTkk08+SUODzf7HFiJ7E2Bf+pp+pZXQdyQiNorRXB46aw/TdmQ9uqdP9fbbSd9L8qOMnXT+bJSdSiomI9vCaLBESB/NSyc8xxTphNhuUsK1J06ccHIoZ/K4XMqKc0ZtelJFxNILsUxb62uahq47reC0kkapo+ca79I1nnnVOYh084rZlOSH+uwjp2ka8Xgiad56IVl+L3lZgT73seyMGSysmMCyOZMc5x999NHUoSqUMeKbDac2Duka/wp9ZzTUDQk9oLt9dBzbRLSuEs3t1Df7AsKkFyp5KHf70Z36UczDuWaqCmXoPJaxGUImmQdkZfJAhoN0F5SzONSJbd682bZh0O9l1uTiUWvsagEhv3OtQFs4sxGxroBPqmM9qIUDoy2q6PO42Xmkmn3H7EX7k0pyueGymY4LD9JhYdHokJr0ed0U5YZIOIUKHUgkTN6+ak5yccOF7Nixg/Xr16cOrwHq+3ygFw9OX6iL1UNNEM6j6ZjRMG2HXlJO+1qv2vkR0q+Umomq0bp2KA9xGLgszfgBVI3sWGY7zqnVYi6CleA9rTh4lZT8q5MQA2VpsGaDbYXaqEAD8nOcDcXbI9HMRqAsC5eu4XbwzUqYJolRkpbsQtc12sJRnth4gHnT7J6Hf3fVfP66/gAJ03QURXbSt3gqyAn0yQYlbiSYPD6f65bNcJz//e9/Tyx2gdYweXOmJUEtb09lMIK0KLnPLNQFsACVNqhHRd8iqBVodrU9PARQ/TYLUC1dslC+XqBuPG2onnR1qJ56Q/UH5iRm7Z40gyMbZcwZQL3nhaiamGagBZWxqGFk635KUMcWQh2vF/UenwP20f/32436LP2o885CvdcdqO9WGHXufUL3+IjWHqZl12PkLXkvltHjR7QOeAzVn9GJ2cCzwC9Q/VtHozP93DTjTrWiY41zqDqxS1LGPajPZjR+Hn2mJyG2KXVg586dtLa2kpOTc8H4/GnjyQ74MPp8Q84MFir6NKEw2zYXNxK0dsQc04TDdjyWcpHPDthD5ZFoHMNIZLwJeW8EvB6e2XyIj9y8xPY+XjK1hFULynnmtUNkOZxTKroGtU3OQmxcQd+iy50xgxsvm0G+Q5F+bW0tjzzySOrwBt4c3mFOOBkeNvVzH4uA1ahowEKUOEhn0hQGjqHSIC+h3nd7PcPA8aC80FYDq1D96EpRIqUnqlHu5AdR0dH19K2HoIaqucniwmLueQ7bLUQJo64G7Xry4UVlGI734fUuQVkTrE7ubwqqYbsTLaj3eh9KQLyCs/Hn1OSj+/PS3ZincD517UOdT+pxL0E1i16V3N7J4mEfqpF2X8LlM5P7vAq4FPV5hlDCumu/Yc6L6uOo79ZaVNamR9Gvu/10Vu8ncmYPwYkLMeP20ohufBkVVUq3oMUF/APwCWAz8CIqpbmXfgjEYSKAs4krqMUIY52ua0uqEIOLoN1RT0JsO+oP8Y2GqJWVlezbt48rrrjigg2nlRZQPiGPg1V1uLyjyNbDsnC5dAodImLtkRhNbeGMdgawLAufx0VW0H5tDXfGiRsJnI02Rg63W+dsfRtrNrzOp95udz5433ULeXF7pWOT8FRcLp2GljCmadkEcGlhTq/1eqZpkRvycduVzi3WHn/8cU6dOpU6/BucV0S9GXCyqjjcx+euBu4GbqTvNVFBlEiZh1ptFgH+DPwA5Qc0UPyooumPo27w/WVC8rEiuZ8q4AHgXtK7loO6Pj6EEgo94eN8x4YuAdadX6Ju3ulYBnwB1YLK38trdZGLEi6XAh9ECZQfonqKdg/9fAz4l27/v5P07+GPgLd1+/9foLyqQNVK/QB4P+mFeBd9KRi+DNXC5u30XuMTTD7Gofp6Xp8cfx34GeqzdP6Fp2lYlkbLjkfRNAiU9SjGTqBc6dfgHE3uwoXy61qJcqqvRKX/XkV9zw/RN+E9lOSR3mnfqVZ0LJLux1NZRo9iGOjpAltLSrjPsixHPzGvx8XC6RMcm1mPJKYFAZ+Hghx79KSlo5O2cDSjETHTUnVXuQ5CrD0SxUiYoy4iBuDzunh8/QFaw/YsyPK5k7lyQTkRB3+wVLp6bTrZXuTnBOjNzjYSjbNiXjmzJtt79BqGwQMPPJA6fBx1UX0zkoWzEHNqfdSdyahU7kvAzQyuMD2AEmSbUF5A6W4UPVGCivjcR88izESlsE4DJ1Hp0nRpu3Lg31DvxepeXr+v5+9OPpy2T/dDIBslnDYCf0/fRZgTU1FC6gkufJ9TL8o95edSi2m7npuNsj/4CL2LMOj5PSsFfo967/8eZxFmoiIgNagIbrobyyUoMf1qcl+OaJoOWDRt/xPh07vRvT2upNyAEqN9/cECUIHy7/oWynx0G0qQ3Y/68bAcFeEbTnJwjgxbQPswv3amSPejyXnV1hiit/DVy6QYxK1bt467777btuGy2RN5+G+7sBg9a7tNS1lXFOWGbHP1zR1E45lNBZqWSUFukKDD4oG65PGMJi+xLnweN5Wn63nutcP83dV2/7wP3riYDXuqsCyrx5o7XdNoj8QIR+MEfBe+B1kBL163K9nuwHkxg65r3L46NSukWLduHa++astAPsKbs0gfVPpoWspYA/BaD89ZAjyMijqkEkWlHNejBG4D6sLoR6WzClBppstQN8juosKHuokvREUc+urnFgQeR0WyUtmBSg1tRd2w61Gpqwjq5uNBCcEKlIC7EeVG3l0kzEnu/92kXzWXKgLSXeK6ttO6/dv1306/LypQ0dqVaV63DnVD3wacQb3fLSjhUojKVCxC3eS7RwSuRUXnbk3uoz9COvVcuwTkD4G3OGwfRQmlOlQtV1fdYDqxtxwlyJ2Kq3ej0o2voCJd7cn9uFHfg7LkMVyDSmN2v1DORUUuZ6EiVHZ0F5qZoHnHn9CAQM9pyg3AlcA/Ah+m99R3Kl1/D5eiIqEJVI3TftT3dT/qb+k46vs6FASxC2lQ7+FYL9TvIp0Q6yl6OSboTYi9gvpjfOOPedu2bdTW1lJScmE6en7FePKzg4Q7Y7hco2N1t2UqURI5PwAAIABJREFUM9fcLPsPzbrmMLG4gd/bZ/flQZNIWEwoyMLnkL49XdvKaGhvlA6XS+ePL+7mtpVz8Kcc/8r55Vy5sJyXtx8jlMazDZS+isUTtHZ02tLFuVl+fF43iTRRwUgszqUzSlm1cIrjvn/9a5v5cgR1cX4zUgz8k8P4n0h/MbsO+F3yud1pQaXWfgkcofe0kwcVnfkIKg04vtvcpSjx9Hf0rW7vX7GLsCOoc1tD32qQqlDRvf8GrkD1ruu+CCkPeBAl1lJ7DhrAp1DRhq4/zgRKsP6w23ZRlPCt5nxUrHuN2OmU/U5DtaCa4nC821BRnqfoOW3aRXbyfL7IebF0Geq7fxODa+kVRr3/qb0Ln0UJ2LWoc+5E3Sf8KKEYwv49eVvymFILdjehUp5r6HlF73GUQPpP1Od4Nyqt2Z1voG7KX8ApCqm7wEzQtONPgEVg0iLMWFodVIeqGfsx6rv8LtQPjIH8dHehIoGlnPe96kT9gNiNShevTf73QNOIzivS1HXwYhFi6VKTvRcoj3J6U0yvowov3+DcuXPs2GEv95hYnEPFxAKioyg9qSJiPjwOqxRbOjozngo0LYuppc42Tqdqm0ddfVh3Aj4PeyvP8exm54j9B29YjMft6tGQVkO567e0238w54b8+NK461soUf3+6xbidhD5R48e5amnnkodfpqU7+6bhBAq0pLqdhtGiREnKlDpolQR9gwqvfkVVKF7X/6446i0zteBpcBvU+bLkq/ltJAgdbvPpoztRUVE/kzfRFgqm1Dp1tRjGo9KVaZioSJvaznfWmYD9qiihYp0bE/OvYpKN65HCc/uEcAQSvhNSdlHDPgSKkL2W/omwkDdZB9HpVg/xflo1PXA93GOkvQVHSXwujiJarR8E/Bz1Hm1Jo/dQEWxalA1U92F0HxUHVeqCPsWKkr5KP2zVdkEvAMl9FOL9e8kXVQM0HQVSGva8SjhU7v64jF2ArgH9SPiKlTfxz2oNPhg8KO+A29P7n8t6vv9J9Q5TO/n/uxpH0UE9RldDKTLblz0QiyCw+pJpzoxTdNYPLOsz6acmcC0LPKy/I4F+U1tmVphfx4NmDHRXiaTMC2qalsyWq82EHRd47fP7XD0Dls5v5xrlkyjo4daMU1Tq1VbOuylO1kBH163yzEmGI0ZzJlSwrVLna9NDz74IE1NtsWAv+rhVC5WlqIiLTc5zH0f5zYhPlS0K/WL+XPgnQyuLdQZ4ENcWCwO6gb0c3qOyN/MhfVDUZTQSI0u9ZcYqgB9d8r4u7kwetcTTrVcfa3v+jb2dGQN6nx/wOB83u5H3di7Igd3oWqU+krqn98qzkdwjqG+V/21gilCRVq7p48SnP9eDOZ8H0ClYFN7Rf4TzqlU4LwYa97+CNHaI2iuPmnVOMri4usoUXY5qi7tftR3aSjqsCaiIm8/RqUun0K9T/aiWDvpTiLO2G1tlEq697hrpfKYpS85xLWpA+vWrXPccNnsicmoxiCPaqiwLFsarYv2cCyz0TDTIjvk45Ip9hXGdU3tnDrXPCrrw7oT8HnYd/wcz6SJin38tssI+T09+IFpmJaF4dCFQeteUZNC3Ejwrqvn2+rKQEVoHYr0X2N0OukPtdcUqOL6m1A3u7WoOpxUHkOl5Jz4DOqXfnceRS3TH6oL+LeA/00ZuxW1Ai8dqW1lNjN0NiSdwHdTxvJRwmM4mcP5VYhdxFA32xeH6DWeB+7gfPSyr+LSiWWo1G0EeA8qQ9JfvoK9MfN/YI9KDpSXUatGu39XvcBPSR8lAg10XxauYD6W1e/ggYmq8/o96sfBYtR7dRsqsvo4Kho/mPqvEEqc/waVrv4yaqVsOtK9lp+e3oexRbrIl8ForuvpA33xmtiMCpO/kVPbs2cPlZWVVFRUXLDhohkTKC3O4Wx9qyq8HnE04mkidCqNlrkjiRkJZpcXM2WCva7wVG0LzW0Rx7TbaMOl6zz0/E5uWj7TJowWVIzntpVzePiF3WQ7rAw9T98VcDRuUFFWyG1XOJsn/+53v3OyrLiPvqXRMomGioY0MLhfbxoqxZOPWlE4mZ5XI3bdmJ1qhULY03+VwOcGcXzpuBtVb7So29jnUTczp2NLFRCpEazB8jLqs+heiL0ElRoaLj6L/WZyD0PfB/CvwP8AX+3n89JdEX/EwAwzS7HbdmxCCfOh5HnUud7bbWweKqLrWCdqGTGCFVfiyS7pzVusL5io1P1B4MnkWAAV4ZqB+t4vRC0qmEr///4no8oKPsb5+shU0qV4AqgaR3t7lLFHuuWuQ7XgYcToixDr6lN1TddAS0sLmzZtsgmx7KCPxTNLOVHdODqEmAZGGiHm9WT2+OJGgqWzJzqKrddeP0VnzOhFvIwO/F43+ypreGzdft5/3SLb/MduXcrfth6hPRIbkghfNJbgnasvcVxw0dLy/7d35vFRFHb/f+9udnMnEELCfcoRBAW5FBAVLFoP1FqvR7Fq0dqnttUq2latVlsfax9r609bD56qVAVtVRRPRBTBA7lE7vuO4UhIQs49Zn5/fBNIdmaTTbJX8Pv2tS/cmdnd2SMzn/ken28ZzzzzTPDitUhEJ9FwIEXqseRRJJUSKv1zGVIf1pAHkVRZpKkAHkGEVz0jkW7Gt222D273j/TBtghpRGgoxPqG2DYS5CEdow3ZhqQjo8GfkEhRWyJiIGm/1u7jzTSebWoCfyA6F0lPIlG7hmnf6cjvrfFJwDRxJCXjye2HaUTteq0aaSzZgtSrgkS0eiLRs1M4Js7Cnf86BIm2/Q75HBsSSoilEX3rjFhhdWYX2r0QCzcEsyB4wYcf2l/EnTa0V8IMrnbioKbWZ1sAnp3eFsuelmEiEbjThvayXb9swx6SXAkgXMPE43bx/HsrbQd49+nSkcsmnUR1bVPNWuGFIn3+AD3zsvnBRHvLildffZVNmywlTM8QuxE7iYiJFNmfh6SFmqrB+VHQ/S1IIXy0eLPuNRpyeYhtDwbdt3PUbivPA3MQy445SMF9tBiF9YT7BNFJV4NE+yytxM1g94e5AGsNVjgkIfVODVlO6OHNbcVAUp4N38PpWFPcmGaApLQcPB17YBqt6floNWXIheJzSNT5DMTKo76xYh3Nm087kIul4LrLSuwbCNyEFjDtjVANPi2dFpJwhCvEPiSoS2nRokWUlFgbe8YU9JQBzglQtO90Oiguq6baaxUF+TkZUhweg/ykzyeCYmhf67zGXUWH2bj7UMwjdG3B405i+74SXp7/te36aeeMoE+XDnh9Vgsmp9NhGy01TNPyXVR7/Vxx9kl07mAtcaipqeHpp58OXrwDqZX6LhFAuok+Bx5GDu7nIWKsKbpgFTeziK75YxViONqQUdibhAbnmycReqhxa3kQiVL9V92/obpKI0FwgX4tEt2IJnNpm30FtF6YD8bqY/dvojvl4hPE4b4eJ9b6R8yAj5Qug3C6U4lzQbOJXHB8iFw0jUCaDP5A8878D9DY47MU68VLPeHNj0t8Qhm37orpXkSBcOcRrUbU+tFc1O7du1m+fDlTpkxptGHXTpmc2DefT7/eQVqca56cTgflVTUcKq2kV36HRuu65WaR7EnCMM2ot1vU+vxMOqW/bXptxaZCSo9UN+m/lYikpriZ/dE3TD19CD3zGteQdu6QzjXnjOCPsz5uJDBNE5KTXHTMtFrelFfW4m0wa9PrD9C3a0eumHSS7evPnTuXFSssI/P+Sfht/7HGBO5GLADaqrpNRNSUI/YFe2l5N+EQGs+mM7HpkI4CXwbdPwFJj24IWv4Bja0T0hGRPc3mOdoDo4Luf4N0lUaTdXWvEe4svmBVUoX1ewmXsTSuh6tG/MeiiRdpemh4gRE0jcHEmZRMct7AaKYlW4sPsT35DImW/glr1LoeR936T5CLp1LkgqyPzbahZme2N0KNMtoZy52IBuEKMR9yYGxUFDR//nyLEAM49cSefLzSrlM+tjidDo5U1rC/pMIixHrndyA/J4M9+8uiGo0yDJP0VA/nhyg2X/LNznbZeOt2OSkqPsJz7yznd9dPtqy/fNIw3vh0HVv2Fh/tXDVNk+RkD52yrUKstKKaGq/vqJdardfP1VOG2w739vl8PPnkk8GL99PyVEwsMZEU2M4470c9wSmbg4g4iDZfI+m4+qsSNxIJCD7hf1y3bcNjzglIqmwWMjVhMzJQO9HxILMuG/I1rfNCawmVyHfa2qHI+5ELh9YQPJ9zHy0bG9RaVgXdPwURhLUAht9LatcT8eT2xfTHNC3ZUvYjRrIbkSYfO4YA5yOWIgEkihws+AmxrL2Rhf3ED2i7pU3caUnIynI189FHH+H1WktQTh3Si4zUZIw4+1g4HQ6qvX627LH6wKWnehjcKw9vlA1oa+oc4Yf2s0tLlvL52l0hLTYSnfQUN28u2cCGndYSkrQUD9edN7KRVYXfMOicnUaOzRD2Q2WV1NT6cTgd1Pr8DOyZy6Uhxhm99tprdl52/yL6EYa24CCxUgTB9RZ7iM04qGKsHVx2XZ9exFojuO4lHfgpItRWIgarj9dtewEi3Foz0zKauLEWTLem7qo1tKRbLviAvYfWG5cGe1+tJTZ+VsHCPJ+Gv3XTJDm339H5k+2Ah5ELuFA0HNIeqrP1ZNo2MzYR6Ib9BUUNsRH4UaUlCmA58oaPOnavWbOG9evXM3x44+65AT07MaBHJ9bu2B93keFwOFi5pZD/mmLt8DttaE/e+by1kffwMEyTqRMKbNfNX7aZ4rKqdtEtaYfL5aS8soaZby/j0VvOt6y/cHwBr3y0mtVbi0hNduMPGPTMyybZJgK5s7BUJh0AXr/BNeeMsP1cqqur+ctf/hK8+DBiEJroJFLsM9hHJVYpXS/Wk3uorq4vkNqtJ5AW/mDy624N669qkN/DIaQrcVPdvzsRU9JCYt9llYzVAypWn3dbXqctRdDB8xlHI5MJovk3YGL9nD2IFxoYftyZeaT0OBnT3xYf2ZhzG1LQbzfzcjLSBFJCaCFWX6+3NSp7FxvGYl/SsZfvmBCrQPLvR4VYIBDgww8/tAgxd5KLcSf1ZtWWwrgLMU+Siw27DlBV6yMtyPdq4vB+5OVkUF5ZGxUPr1qvnwE9cvneaGtE1ecP8P6XWxLexLU50lM8zF+2leUb9zJqcONShCSXk+vOG8Vtj4s7QcAwOXlAcIZG2LL3EA4c1Hj9nNgnL6R4nT17NsuWWZrbnqV9HGQSSYgFH9RbO+OupdRgbQhoamjvPCSNNwOxuuhH0zV2KUgasCtWI9H6WpoliGv5AqJj1WG3T8FuxNFsimhIS7oyg0NEbdnHDkH3uxO6xieaJFMn9E3TJK3fOJzJ6Zi+GpDfSD6N37cDidxF9wq9ZexH/g6us1mXj5g4v4vUBDby/KwjA2niaQ/HyFCcG2L5Sto2nSEhaKn6sAz0mz/f3sB80in9SUvxxD096U5ysuvbUr7ZEjzPF7rkZDBuaG/bkT2RwOsPMPX0IWTYFOJ/uW43G3cdsI0OtSecTgder59n59l3/k8ZPYCxQ3pSWe0lLdnNKQOtx+Jan58te4tJSnLiNwyuP28k6SnWz6yyspLHHrNYGhUhBq5KywgON8ZqDIofa21Uc14yexDz15OACcCvkRqxNUhtW7gHmQykcPlKJJW9FhnvFE3/MJAIXPDJIlaWAk25sTdHa9OSdnMyTOKXC5TP2uHE07EHHCvS/xFiWbK8wW0ZUoaTaJYPrzaxrv6gug/rHNR6Lo7s7sSUDoiQtGNRLHckWrQ0XLUUOSgebSNdunQpW7ZsYcCAxlGfIX3yKOjdmW+2FcU1KuZwSM3R+19t5lQbH6+rzj6ZD77ajGGaOCPof+YPGHTJyQjpCP/vj9fiCxgkt9P6sIakpbhZvHonH6/czlmnNO5YdzodXD1lOIu+3sHQvvkM62f1l9y2r4RdRaX4/AHGD+vNBePtP7MXXniBtWstc7yfpv20LydSRCw4AhYr00cPYjLZkLIwH1uDdEw27JrsgnRd9kVGCJ1Udz8P+1ROQzohUwfOQ0bINFWL0xa8yHtsGPkLjhhFi7YIsdYW0JpYB03PRbyyYvk3UC8IZTSTaWAGGunhMuzPgdnI93MkyvvXEjYivyO79vqGv/O3sJ81OxkYRNtmx8aL87E2u4B09TZn09MuaKkKOAQspsGMuCNHjvDOO+9w6623Nn5il5MzhvdlxaZ9cU9PpniSWLJ6J8VlVZaOvREDuzF5ZH/mfbaJrDRPxC7Zqmt9XDzxRLrlWs9v63bsZ8k3O21nJ7ZHHA6ZIfl/by/j9JP7WNK8Z47oR0GfPMaf1Me2Q3XV5kLKKqtJT/Hwsx+cajukvaysjMcffzx48S6sMwyV8CgOuh8rYZCCVYi1JS1aVHf7rMEyFxL56omIsmFIh1lPpNYs+I+yK8c81IJ9ziKBF6swiVVDQUusC4IPf20RTcG1aeU0/o5iihnw4+7QjaSsLpjGUWu14L+BetyIGLPMTosjZchnaPe7adgJ9n7ddsG/8VTgeiSa3N64PsTyz2jeb61d0JrCqDeDF8yda+9LeMbwvtI9GXIIdGxwJ7nYfaCM95ba1/T95KKxdMxMCTmXsqUYpklqspuLQtQ5vfbJWsqranE5EylA0jbSkt0s37iXBcusZQjuJBe/umIC548bZPvYj5ZvpabWz4XjCxhdYO/ZN3PmTDsX/SdpXzPUEukLDz5R5tHyC7PWkIpV9EU68hBARPoSZGjyHUjUq360zO1AcK1CElJraG1vbjs+rN18JxL9TraOyMzF1tKW32uwyGnrqKU2YpBxwkSc7rSGJq6hmhFSiN2FSbjUEFo4NhRdO7GfRQkyq7K9eYqNI3RaMloR7JjTmgPBAoJSQV999RXr1q2zbFjQJ48hffKo9bXV3LntuJOczFmwmiNV1lKYQb06M/3C0VRWR6bmr8brZ+SgbowcZK2HKjxUzofLt5J6HKQkg3HgYPaC1bZ1gWePOoFBvYI72mHznkMs37SPXvkduGmqZRoJALt27bLrlNyC1Pe0JxJJiAWr2l6IT1e06YNV7OyMweuCnMy2IQOxz677/4bkA1dH6bWDO9pOwmrxEGmG0di0N5YEe9L1pflawCjiIFBTBmajbGsoJ3on4m2XSLgIPfQ6WFA+g309XmfgzkjuVAy4F/sLxK3IpIbjgtYIsRJkJMNRqqureffddy0bOhwOJp3SL+Tg7ViS7E5i855DvLXEvhnmuu+PZPKo/pRXtr1m2TBMvj/WPvrzwVdbKCo+0u67Je1ISU5i2aa9LF4dfrR43pIN7D9cwY++fwq9u9g3z/3pT3+isNDi2/k32teMsUQSYQAraFygn4aIg2gT5HROGdL5FGvWAz/BOgLoYqLzXX0RdD8bGWcTTS6hZcf4SKYml9G4xqwPoQ05I0k6EiHKRD7jdACHK4nydR/gKyvE4Tp6Xt9FaO/Bc6K9oy0kmdDdxcGedIsB+y46uBHpsmwPXETobskniV3ncdRpbWjcMn/srbfesp3bOOHkPmSlpxAw4i/GPG4Xz85bxr5DweUasu7BG6cwoGcnKqu9rT4C+QMGXTpmcMaI4DFr0h349mcbcbejAd8tweFwYAZMnntnRVjp6P0lFbyycA0jBnRj2jn2F6Bffvklzz77bPDilcg4o/ZGIomxzVgjURfYbBdpzg66vwbrieQG4HfAfYih5S+jtC8fYe0yyyc6xrsrsF44/CwKr1NPPnBNCx8TSSG2hsbpXw82cx8jzBDEwmFj3W0rR387DjDNuvqwo2/rMGKNYsdomm/2iCW5hI4o2hkx34f9nNEUpK7W6qqdWHQGLC3ydWwC/i+G+xJ1WivEFlPfiVLH0qVLWbnSemE7qFdnhg/oSq3N4O1Y40lyse9gGU/8x36kXn7HDP72ywvpnpdFZY2vVUehGq+fccN6k59jPZav3FQolhWe41OIAaSkuPl87W7e+NSaqg7m35+sYd+hMn552TjbWZumafLAAw/g91t+Ow8Se1POSJBIQqwWa+v3xUTXymEg1o6uT7EKgBuA3wP3A3fV3aLlehycQsshOh2k+7HWtEwk9BV/W5lB2xsC2vJ7rSAocwLcRHTTk5ch7utdESf2XBqOPHLYuWqEnFuaV/d8icIorF509dh54S1FLFrsGA78NRI7FUX+Ruhj0e0kVkdrm2mtEKskqLvI5/Px3nv2naQXjh8c5yH3x0hP9fDmkg28+4V9F+/Anrk8edtF9MjLtq0na44kl5NzTrWPwM//ajM+fwBHBG0yEg0HUo/31JtL2V8SOnK8Ze8hnp67lEvPGMr3T7VP486ZM8fuN/Ua0gqvtJ2naexvlYmMD4oWt9C4zqUSKaYPJviKLpno1TpVBd2voXUGkeEc4Z6kcTrYgUQn7KYGtIWLgVub3Sr6PEFjz7ihRE/cZAPXBi3bjgQNmuLTJtbdRdNmw7Hk9BDLDwJfhVj3W0Jb+9xYtz4RuR+ZqGHHc9j4mbZ32tK1MxdolG+cO3euXfSCM0f0p1d+B3xRnusYDk6HA6fDwYPPL2TjLvtazYI+ebxwz2WcOrQXZZU1YadVvb4AvfKzbU1LS8qr+HT1zuPCN6w5kt1J7Pz2MI+8HPoYd6hUrERuv3KC7frS0lL++Mc/Bi+uRKJh7ZVEU+ArsdaS/BIxTY00U7CKvDewH08SPLg5h+gNLg5u0z1M81fbwd+ji/A6TtdjHUzfB3iZyLnOn4c0sdSH3VtSExLJ1CTI7yv4SuphWj+EvCl+jkxdaEg4dURLCS1k+iBGwvGmM6HLBhYRekZsEXLxE+oi4Q/Ar9q2axHnFiStascyEm9/I0JbhFi9E/FRVqxYwSeffGLZsENGCpNG9qcmAdKTAMluFyVHqvjt0x9w+Ih9hqt7bhb/uONifvaD03A4HFRUe5udEuD1+RlT0JPsdGv0fck3u9h7sOy4LNK3IyPVw7wl65n9oX0JxtghPXnx3itCFug/8cQTdp24/wBWR3RHlYdpHLXwIF1X9rOoWseguudsKFaqEINPOz7GKoZuIfJCtiPWgvn1ND8WKDhi5iZ824vfYK1LGg98gphutpYkZCbhXI7VNq1HRF48uZ/GYqgbUt8TyfRv/bSFhmwnvDrSWkL/DkG+rx+0cr8ixS9oOLi8Mc0Zmr5N6ItXB/Le72/dbkWcB4D/F2JdIdLRHKtRbDGlLULMD7wevPDFF1+03fj8cYNJT/XYFvTHGhOZkbhmexG//Ns8yirsj7vpKR5+dcUE/nXP5Zw9sj/+gMGRqlp8fsNyiWEiacmzTulv+1wLVwZ3yh/fOBwOkj1u/vLqZ6zdYbX6cjod9MizN/3+5ptvePRRy7FxK/C/bdilNGT47feRbrn7kdboq4lNNxckXkQMxBTxgaBlBcAHyOfVVsYgJpPBURA7QVLPTkSMNWQScHcE9qch92H1t3oljMeVYo002Xuv2D/2eqyeUCcgn/nrwPcIbVUQTBqSivwUseWoryMqA6YhY5zCJdIRMZDo5m1ByyYjXleREPsjgZeo646sw0AaIcI9ac8l9AVeMmL2G68uygmEjsrtJbRnWEPuo2lReh8yQileXm89gf8gx2M7DiAp7S0x26MY01ZDwbkEXbm+/fbb7NplTUuf1L8LIwZ0o7o2MaJiAJlpyXy+dje/+Os8DpaGHqs2rH8X/n7HxTz3mx/ygzNOJCczhapqL+VVtVTX+vD6AlTVeOmam2U71PpAaQUrN+8j2X38pyUb4klyUl5Zy+//uSBsjzbTNPntb39LaanlGDqTps1bXchJKQ/pnpqC1EE8jNQUrKi7vQs8hRx8HgBeRATB/xEdM8+GJKIQA/gfrFfWwxDPwOm0rlA+B6mxeR9J8TRkNmAZkxDE77HOpHwQ6aRqq9lmMvBHrN2YXxG67b8h+7B2et6ONCOEw9dI92hwo4ALsZyYjwioV5BIz7WI2Dqz7nFXICfnF+q2ewM4rcHzHKrbZiVt6wCN1O91JtZ5sGcgv69L2/C805DfV3CN3e/rloeLl9AiAETkvYJcwMWSMYhACRU9vJvQaclgfoZN4KQBlyFR2UvC3bkIcRWSXg31O9iEjDiy77A7TmirMtiE/OCPFmAWFxfz+uuvc9ttwRdBcP5pg/hsTWKNBcxOT2bB8q088doX/P7HwZ31jRld0IPRBT04cLiCFZv2sWZ7EZt2H+JQWRUHD1cydkhPcjKtF7JL1+2hqLiC9JTjY6RRuEjk0c2qLd/yx1kf89BPmr+onDlzJu+8Y1uL+Qvk5FKGpDqqkd+vG+nEykCKzTsgYqwlH3Ya0qk3Cvmj39uCx7aERBViAeSkNgupMaqnO+I2/1NEsH6ERCaDC9zr6Yw4xk9CxqDZhYefQ+p5mmMlErUMLhS8Fek0/BcSDdhGeB20DiQqNwXp3hsZtL4CSX+GM+i6FIkkNjx59EJOFv9GoiuFSIrz5Lp9DD4J1ouxx4HLsV4U96u7XR7G/jTkY+R91He1t8U3KJK/118gv5s7GiwbggiNj5Df2ec0P1YoH4mo3Yi9HcZDWCO84TAPSdPdHmJ9NnIBdxESzY1miUQq8nn9mtAXHR8ikcBwqUGi/08hw87tGIT8Tt9Asg/RFD+TkffX9ElXUpXBZsitxSRBvcci8Yd2PpKHPsro0aP57LPPcLsbnwuLy6u4/N6XOHC4MiFqpRwOqKjyMqx/F5741VS65GS26nl8/gClFTUku11k2dSH3fr427y5eD2Zacn4/AEChkmy25UQn0Es8PoCFJdX8ccbp3DDBaFrrrdv387EiRPZty+Ux2JMmEvdVWFr0+jdu3d/Bqn7GRK06lSsvlWJRDIiDG4Ksd5ATvDfIvPsDiMitgMigvsRuujcQKKQf2jhPj2IdHfZRe99iF/UbkQgFiMn+yokipFXd+uIiMRh2EeI9gPX0bIoyngkHRhOVuEpmu5GHYeI06kfyUi3AAAgAElEQVS03t/pK6Q4/WUa+0fdR+MaoC/qXs+O2cCVDe4/T+g5f63lF8CfsR9eXYoI8B1IxPEA8l46IGnMgYjQt0tpliKRsJC2DKYRoNP4H+Pp2BMzEBxsBeTC7jma91+rQCLrs4GFWOeItpa+SAr0J4jFRCg2I8X7rUnVOZEI+AyaPv8byN/DC0jEKhKj5LoDZyFR9lBji4I5jAi2Z1rwOnnI8SD4hF6DHH8qSZyLYiewLxI7k4L8cTf64SxYsIDJk621p4/OWcw/5i4lKy1atkDh4QAqarz0796Jp2dcQs8Q9UptJWCYLNuwh9RkN06ng937S/lq/V4+W7OTPfvL8BzHgixgGFTX+ujdpSNnjejHuacOtO0orefHP/4x//xn5Hxas7Oz6dGjB126dKFjx474fD527tzJxo0bqa0NaU1iIFfai9sgxJ5H2s2Du7jG0z5C7Dcgo1DsfUVazvvIyXdhKx//fSQyFumxMwZy9X8vYD9yo2l+iryv9Ga2+wfw32E83xBErE9Cphx0rXvuYMuPUiQy/C3ye/oAOQbbRb9+hwiUepoSYq/TODU1h9A2Am3hNOTkOjVCzzcPiVI1aV4YhhADEYiPIlHFcNiCREeXIxcpO5BuxeYaPrI4NoR+EPKdT6B5u4y1SPNAW+ulLkO8usKp09uLvMdFSCR3JyKSm7JByEKiiL2Rv9uzkO+9tXVojyK/mXBqm0IJsURlZSSKlmqQEGkjIfbiiy/aCrHLJ53Ea5+spaLaS5Ir2jNv7XEAVbU+uudm8fitF4YUYV6vF4fDYYnstQSX08GpJx4rYRjWrwvnnzaY8soa5i7ewMx5y9h/+PhKWzqAaq+fFE8Sv7xsPFdPGUGHjOZ9HG+99VaSk5NZsGAB27dvJxAIz+4kKyuL/Px88vLyKCgooKCggJNOOokTTjiB/Px8UlOPncf8fj8rVqzgrrvuYtGiYD9TQK5QzkOiLK3No29BTp6HkAOHgRy02kvHzz+RFNv1SBpjGC1L9YKk5r5ErmQ/aOP+vIecBC7iWK1UW3zFNtc934s07SPVHP9AhM2NSPdlT+Tg3/DA5sc6YD0U6+tu/0R+Pzl1/6YhkbwqJPpSgQiycNKowSKxqTTuSkQImMifcbTSb18g3+U5iJgdR8vnbn4LvImkqCN5ceNFopOrkOhJc0JlQN3turr7JXW3GuSzLkO+syTkt5HJsVKKPFoWAf0UKSHY3YLHhOLfiHh8kObnq/ZAykKuqLu/H4lUFdX9W4VEp+sjzx2Q95VO5Oap3o58ztMJPSO0vVIZqfBcH+RLPToSIjc3l2XLltGnTx/Lxg/N+pjn3llBZnp8omK1Xj9ZGSk8PeMSTupvL9D9fj/XXnst5eXl3HPPPYwZMwanM/LC8dvicn7z1Ad8tmYXmXGOEkYCEWE+8jpk8OjPz7cdfN4clZWVbNmyhR07drBnzx7Ky8upqqrC4XDgcrnIyMggNzeXTp06kZeXR35+Pp07dyY9PT3s76iyspIf/OAH/vnz59tdjLwDPGaa5kct3nmge/fuLo6Fvg3kxBb/duHW4UFSJuORaE0X5Gq3Y92/1cjBuBQ5AdWLnHVYOwMjRR7S0TkA6TbsUbcv9aIlFRG+lXX7V4qI6q1IRGEdka8VSUMiABnIZ5SDnIR3IyesUHV10eYZRCjW8xrwwzjtSyjykBmkk5Hvs2PdLQdpYKiPABYhEZnFiEhs0e8rzIhYQ/pwzFzULpUaK3YjTUczsTawRIIpSOF/tGefNsUBJBV+JtKkEIrVSOq4qW7g9hYRWxTJPOk/CaonuPfee3ngAWvd5LZ9xVx532xqfYGYR8V8/gAul5PHb72QiSeHnuZy88038/TTTwOQlJTEqFGjuPTSS5k6dSoDB4bbHBUeFdVebnv8bRZ9vYMMm1E/7QmfP0B6qodn7vxBSJGbKCxZsiQwceJEl00KchHwqGma82we1izdu0fKmzNhcSARMg8S8fHStqLwSOJETt4m4aUxjnfm0dgM9FlC1wAmCg7kt+Wp+38vIkDa5AjeCiFWzwikbutiot9Z3ZDdSLfmYzSe2xkNHIhtyo1IKUBz6fZIUS/A/o5cLOUigvOiZh5zA6Ed9vORzytR6sCa46tI7ugZSPvrUXr27MlXX31Fly7WE/LvZn7I7AWrYxoFChgGPr/BQz85h4tPD66jPsadd97Jn//8Z9t16enpjB49mjFjxjBs2DD69+9PXl4ebrebHj16tDpqdrC0kmv/8Cq7ikpJaafu+yZQXePjwelnc9mkk5re1jQxkUkH8aKyspIxY8awfv364FWvAH8zTfOL1jzvd0CIKa2jvnHAhQhZP83UNbWRdCTV2dDe4bdIsfZ3jjYIsXpykajdBUi9Uy9anrJvCgNJ6X+ApF0XEblGgJYwEOlmvADpLo70eLE9iFZ4H+nyDRaZSUgEMFQHK4gwvxP75oysuuWpWC8Qg7MTZtC/dv/f1Lq2bu8ANkTyLOhAPtxG4c2HH36Yu+66y7Lx+p0HmPbAK/gNA1cUUn7BGKZJdY2Pu645gxvOD92599BDD3H33S33jZwxYwaPPPJIyPVFJUdw4LAdBl7Pp1/v4Gd/eROXyxlXgdJaqmt9jBrcg+fv/mHI73TPgTIWfb2dj1duJ79jBrf88DS6dYrGjOXm8Xq9nHrqqaxaFTxRh7uBZ03TbFUtggoxJQR3An9qcP8IUqgdrWjHWGAJx2yKTKRo2rY48ngnAkKsIcnI7MwCJE0+BEmRp9TdUoP+DSB1Y7UNbhVI4fs3SLPIzrp/E6mWtCvSqXoykjLsg9SA5SDpeDfHxKiJvC9vg38PI8JrI/LetiNlTGVhvPZPkIaCpqI1MxFLm3DqJROWSIZeTMQUs5EQe/bZZ5k+fTqdOnVqtPGQPnlMGnUCcz9dF/WomImk/35y0ZgmRdgzzzzTKhE2ceJE7r3X3g/QNOGpN79k1vurSHI6GTesNz+9eCx9ulqbYyYO78vE4f34cNmW9pmiNOHSM4bairDyqhr+MmcJ7325mZLyKlxOBwETFn+zk6u/N5yppxdEVJCVHqlma2EJ3XIzQz7vwYMHKSwstFu1lOOvIFSJP8HDzDORk9ubUXq9a2h8jC/CaiKrtI5ajplEN8RF41rFhjWL1Rwr4q9FhHii145+W3db0GBZOhIdTEdEWDLyO6sXYA0FZwmtr2t7GhGnzxO627Iv7ScFGZJI58D+g/iTDK1fsG3bNl566SV+8QvrlIYfnXsKHy3fSiDKUbHyyhouO2sYv7oi1AB7GVh+yy3hdiwfo3///syaNYvMTPu6wEdeXsTTb35FeqoHB/Cfj9fw5brdPD3jEgb3tjaUXDl5GItWbcc0TRztKCrmDxjkdkzntKHBJteShrzn6fm8+dkGOmSkkJWWfPToU3akhr/MWcysD1YyclAPThnYjRP75JHXMYOc7DQyUj220cFar5+KGi+V1V7KKmrYf7iCvQfLKDxYzoZdB9m2r4RzTx3A7Vc2/Z3v32+xx9mO9eCqKJFgHXJiymmw7HKiI8T6YPXDWohEKJToEUAiXQlpHBohwu3YjQQfIOngfyENHQ1ZjDSetPvPOhpn+p8BTzRcUFBQwJdffklWljUy8YcXFvL8uyvJilIHZXlVLWcN78fjt00lNdledy5evJgLL7yQsrJwoqXHyM7ONt59913nuHH2tjwvvLeSP7ywkPQGYsJRt08jBnZj1j2XW+rBqmt9XHrPS+wuKsXjbj/+YtW1PsYN683//do6qWLx1zuY/sjrpCW7Q4pLf8Cg1ufHMGQoe0aah5wsEWLJbhfJ7iQChknAMPAHDKprfFTW+Kis8VJR5cXnD+D1B6isrqVLpyxuv+p0rv7eySFfb8+ePUyYMIHduy2d4P+LXEy0xdC1VY9TvhO8QmO3/EokhRjJWjEHIu4ubLDMi3S9WvLw3xUinJpUYksnpNGk3uduNTJhoyhuexRBolEV/jJSZHe0JXHDhg3MmTOHm26yNuv8+ILRLFi+lUOlVREVHg4kHXlin3weuvmckCJs7dq1XHXVVS0WYampqYHnn38+MG7cONsc4sKV23h09qdi5NpADJjIjMtVmwt5f+kmLj79xMbPm+zmxL75bN1b3K6EWMAwbdOtAItW78Qwmo7wJbmcJLnko6yv59tdVYphmMh/ja8aHA4HTqcDp0NuBiZOJ/zgjKHcefUZ9O4SehxhdXU106dPtxNhVUgYXFGixT9pLMTSkQvX84mcxcUjNBZhIALwOyvClHZPMRL9egzp7ryY40SEQduHfttxGJtxBI899hiHD1uj4l07ZXLjhaOp9UW207za6yc/J4NHbzmPzh3sO3H37t3LVVdd1eKROoMHD+add95xXnzxxbYibNPug9z77IcEDDOkPYfDAYtW7bBdN7RfXqujMfHCAXQNUYu189uSFtmUOB0OXC4nHreLlOQkUpPdpCW7SW148yThTnLhDxhU1Xo5sW8+f/3lhfy/X01tUoQFAgFuvvlm5s+3ne38PNHtYlOU+Yibf0POrFsWupU7PPoj7vh3BC1fT12UV1HaMQbwS2QCwc747kpkiVZh1kyCPqiNGzfyxBNP2G58xeSTmXBSHyqrvRHJlfr8BsnuJB6++VxO6NHJdpuysjKuueYa1q5tyhfuGCkpKUyYMIGZM2fy5ZdfctZZZ9nuakl5Nb9+6n2Ky6qatKFwuVzsL6nAMKyCKzM1mXZUHnaUnEyre351rY/DR6pxOiPzhkwkjXmkqpZar4+BPXP5w43n8NLvruC8Uwc12W1aVlbGFVdcwaxZs+xWFyFjNBQlmpjAr5BROA2ZgoyReRwRZvYHLit5yInpKWTe5CVB6/ch42wiMStQURKBcCdVtBuiZVh1CGk7fazhwr/97W9cc8019O3b2Eg1yeXkjqtO50fb9+P1+dtk8moYJv5AgPtumMy4Yb1tt/F6vdxwww2hRtwAIrz69OnDySefzFlnncUZZ5zBwIEDm/QJ8wcM7nl2Pmu3729UkG67nwGDtFSPrUAxTOm2PB4IGCYV1d5WvR8TMA0Tv2Hg8wcwDRO3O4n8jhmcNrQX3z91EKMGdw/Ld23Lli1MmzaNpUtDztz+PVKoryjRZidiWPkfxLOpng7IeJ2fI+aWezg2ALsKqSfzIF5kHZA5fgMR2wQ7PkFqdi1GeYqiJA7RdA59DnFwLqhfUFxczIMPPmg72PnEvvncdvl4fv/cAtJTPK3qGDRNqKzx8osfjuOHZw4Nud2MGTN4/fXXGy3zeDwUFBQwbtw4TjvtNEaOHEmfPn1ISwtvFJhhmDzw3EI+XLaFzGZEmGlK0fm5YweEeK5EMSkPHxNsh5enJidxysBuFBYfqRNkJk6HQ75fBzhwACamidSCmfL5uBxOXElO0lLc5GdmcEKPTgzr14WTT+jK4N6d6ZiZanmtEARefvllx4wZM5whrCpA0kJPteZ9K0orWYNEsn6DHCeD6yd6190mtOK59yK/5/9FLAQURUlgoinEyoA/I8WpR3nuueeYOnUqF198seUBV08ZzprtRby6cE1YQ6KDKa+q4fJJJ3HLpaeF3Oavf/0rjz/+OADJycmcddZZXHDBBebEiRMZOHCgIzm55d2blTVefv/Pj3h9UXieaOVVtVw0YQg/PHOY7fqATboy0XE6HKQmW02mXU4nf7zpHK47byRfb/mWnd8e5mBZJTVeH9W1fqprfbgcDjLSkklP9ZCe4qFDRgpdO2XRKz+bLp0y6dwhvTVec+b+/fuP3Hnnnc5Zs2Y1Na5jI9By3xJFaTsHkTTlTCSleC4wmqYNLENRDiwDZiMdk4citI+KokSZaM/SmYVMdp/ccOGvf/1rJk6cSE5OjuUBv5l2JnsOlLF0/R6yWnDyLaus4Yzhfbn3R5NCRtNef/11ZsyQmtULLriA+++/n5EjR0IbbDy+XLeHR15exNptRWSmeZqt7aqoqmX4CV2550eTQm7T3gr1DdMk2ZNETpZ99NDpdDCoV2cG9bL6phmGCY6Ijjoya2try2fPnl1+3333Ze/evTv0KANpLLkOGSuiKPFifd3tIaTbfEDdrR9SK5ZWd0tHfKrKETPQMiTNuRJxLT9uusgU5btEtIVYAHgAGatxtLhq06ZN3HPPPfz973+3PCA7PYW/3HI+N//5DdZs3x+Wv1h5VS1jC3ry6C3nk5ZiP/rriy++4Prrr8fv94ccuxQuPr/Bso17+M/Ha1mwfCs+f4CMZkSjAzhS7WVAz1we+8UF5GSFTq21t4iYaZqketxNvqdQRKqIH6C2tjbw5ptvFv/5z3/2LV++vAtNz4E7AvwX4qIfUVrahasodZhIneJ2xMhSUZTvALGYLv0pkp6c3nDhP/7xD8aMGcN1111neUB+TgZP3n4RM558jy/X7yYzLdk2YmKaJuVVtYwe3IO//fLCkHVDO3bsYNq0aZSXl3P77be3SoRVVHtZt2M/n6/Zxedrd7Nh5wG8/sBRW4XmKK+qFYuFX1xAr/zQ9gogw8nbE4ZhkpriJjM1dgPcG3Lw4EHeeOMN85lnnjFXrFjRCRkz0hRliAh7P/p7pyiKoiihiYUQA+lIOxsZu3GU22+/neHDhzN8+HDLA7rlZvGPOy7if19ezOufrsXrN0jxJOFyOjAMk5o637ErJp3EXVefQXaImrKysjKuvfZatm3bRn5+PrfddluzO2ticuBwJdv2FbN2exHrdx5k466D7DtYRo3XjztJnN7DMVz1+8Xn6pwxA7n/x2eH9DRriJ2lRSITMEw6ZaWRHsP5mIWFhSxZsoR3332XDz74gKKiIgfh/Z53IOnyL6K7h4qiKIrSPLESYnuBXwNzGi4sKSlh2rRpvPfee/ToYe3AzkpP4YEbv8eUsQN4+cPVrN1RRGW1l/RUD6N69uC/vncyk0b2Dz02x+/npptuYsmSJQCMGjUq5PiZg6WVbN1bzNdbvmX5xr1s3nuIkvIqvL4ATqcDd5ILT5LLtjPQjoBhUFnto1N2GrddOYFp54wI25aj/Qkxg05ZaWHZSLSG8vJytm/fzjfffMOqVatYtmwZGzdupLi4uKVPNR+4EbBY6iuKoihKPIiVEAMZsXEecG3DhfUjht5++22ys7NtHzjhpD6MH9aHQ2WVlB6pITPdQ+cOGbiaqC8yDIOf/exnvPrqq0eXpaeHjkZ9smo7//OvT9h3sJzU5CTSUjx46mYchothmHj9AXz+AFnpKVx5dgHTLxgdcvRPKNpbatI0oUOItPCSJUu47777SE9PZ9CgQfTq1YsuXbqQm5tLUlIShmEQCATw+/0EAgHKy8vZs2cPhYWF7N69m3379lFUVERhYSFer7e1u1gKPIiYZUZ2hIOiKIqitIFYCjGAO5H27IKGC5csWcKVV17JSy+9ZNtJCTISqHOH9LBSeyBpz2eeaTxpac2aNRw5coTMzEzL9pedNYwxBT34YOkWPl29ne2Fhzl8pBp/QESRy+k8WlheL/8M05SbYeLAQVqqm8G9O3PG8H5cMG4w/bvbv5fmCATaV0QMpK7PjpdeeomFCxcCMG/evEbrHA5HtDtEq5HZpw8DW6P5QoqiKIrSGmItxPYDP0GKpBt5Hbz//vucffbZvPzyywwePLjVL1BTU8Mdd9zBk08+aVm3YcMG3n77ba666irbx/bu0pGbLhrD9AtHs+9QOdv2FbNtXwmFh8rZd6ic8ooafP6AiDOHdHh2yk4jNzudE3p0YkifPAb0zMUTRvqyvLyc999/n4suuohg7zIRdu0Jk66drOIWYNu2baEfFR0RZiKt/K8hUVidHakoiqIkLLEWYgCLkaG0Fu+KVatWMXnyZJ588klbw9fm2Lx5M9OnT2fx4sUht5kxYwYjRoxoUuw5nQ565mXTMy+bM0f0a7TONI+lDls7iunAgQNMmzaNqqoqLr/8csv6gGk06cyfSJiA0+Ekv6M1IlZeXt6kEIsgtYif0qfI2JjFSDRMURRFURKaaA39bo5/IOM3LBQWFnLJJZdw2WWXsW5deMGMkpISHnvsMcaPH9+kCAPxeLrsssvYsGFDi3caJEWa5HK2WoTNnTuXsWPHMn/+fLKysmy3CQSMdjP02zRNkj0u2xqx6upqSktLI/2SPsSAdTkyxuV6JN09HBkVMx8VYYqiKEo7IR4RsXpmIE7RP7Vb+Z///If33nuPyZMnc9lllzF27FhycnLo0KEDgUCAwsJC9uzZwwcffMCsWbPYs2dP2C+8du1axo8fz0MPPcT06dNJSor+x7B27Voeeugh5syZczQl53LZpzCla7J9KLGjZq42QuzgwYNUVVUFL34M2AwMAXoCGUia2lN3A6hBhhyXIp5fJcgA5M3IMOSDyAiXQITfjqIoiqLElHgKMYCfA6nImBkLlZWVvPXWW7z11ltkZGTQsWNHOnTogGEYfPvttxw+fDhUndFG4B3g9lAvfPjwYX7605/y/PPP8/Of/5ypU6faFvG3BcMwWL58Oc8++yyzZ8+msrKy0fpQQixgmLSX3KRhmKSnemxng+7YsYOamprgxZ8AbwUtcyAmrPW/Rx8qshRFUZTvAPEWYgHgBsRn7Lc0kSqtqKigoqIinMjXDmAakrrKQnyjQrJ06VKWLl1Kv379mDJlCueddx5Dhw6lZ8+erYqUeb1eNm7cyMKFC3njjTf4/PPP8fvtHRNCCzEDHO1DiQUMk5zMNNJSrGauNmnJANKwEYyJ2EqotYSiKIrynSLeQgzkJHwvEsV6HGid54PwHtKVWa/W/hvYB/wGaHL+zvbt23nqqad46qmnyM7OZsCAAQwePJh+/frRu3dvevXqRXZ2Nh6PB7fbjdPppKKigqKiIvbv38+BAwdYt24da9euZdOmTXaRIAtGCL8wh9PRbiJiAcOgY1aK7ZSBw4cPBy+qAL6NxX4piqIoSnsgEYRYPS8hA5jvB66iZY0EZYhX1KNIWqsePzJe6TXgFuByoFl31bKyMpYvX87y5cst6xwOB06nE5fLhc/na5MFg8/ns13udrnaS4kYhmHSMTPNdt369euDF5Uhw7YVRVEURSF+XZOh2Apcg8ylnI0UZTfFbuAPSMfcwzQWYQ1ZC9wMDEXq0d4ELOGacDBNk0AggNfrbYkImwM8H7wwpBBLchFdn9PI4QC6dLI3c7VJTR4AKm02VRRFUZTvJIkUEWvIx3W3rsBZSIddR6ATElXZCnwDLEM66sKlEHih7tYTEXwjgBOBvkAPwB2RdyDeVu8hfmkfIt5pjQgdEWsn4TAkg9o1x77JwSY1eRBo9ZwiRVEURTneSFQhVs+3yIiaaLAHeK7uBtABEWdD627DgP6IGOxAeMnCfUit2/vA23X/X4+liKo+tRk8tDwpzMHi8cY0xVPNbuxUdXU127dvD158ICY7piiKoijthEQXYrGktO62psGyNKBz3a0b0BvIRkSZA0ntViJdnzuRSN0h7EvtLZX5Xq8XwzAs3ZPupETLGNtjmiZpyR7ybOZM7t+/n2+/tdTl747JjimKoihKO0GFWNNUIQaiuyLwXBYh5vf7bYVYUghbi0TDME0yU9y244127txp8U1DUsOKoiiKotTRPkIvxweWKFmogv/Wjk+KNdIxmUp2utXM1SYaBs03XyiKoijKd4r2ccY/PrAUqft8PgIBq4G809k+ivX9AYPOHdNJ9lgDqzbGuwb2Zq6KoiiK8p1FhVjssDi8+nw+W1NXVzuZ+B0wTTpnWwv1QcYbBaFmroqiKIoShAqx2GHxqghlCOtyOmkXWsw06d45y3aVTWryMGI9oiiKoihKHSrEYoclNWmapm1ELCnJicPRPr6arrlWIeb3++1SkweQrlRFURRFUepoH2f744Pa4AWGYdjWiCUluXAmeEjMNE087iRbD7Hy8nIKCy0NknvRod6KoiiK0ggVYrGjOnhBIBDA77dqE7fLidNBQo85MkxIS3HbuuoXFRVRXl4evFg9xBRFURQlCBViscNSrG8Yhq0Qc7mcJHqRmGmapKd46NzRGhHbu3cvVVVVwYu3xWTHFEVRFKUdoUIsdtQAjfKQfr8fr9c6ejHFk4TL6cDeoD8xCBgGnbLSSEvxWNaF8BDbG/WdUhRFUZR2hgqx2FFBUMG+1+u1ixyRkeIhyeVMYBkmHmL5ORkku61TAGxmTPqROZyKoiiKojRAhVjsqCbIwsLr9dqNASItxS3u+gmsxEzDpEfnbNt1Nh5iZaiZq6IoiqJYUCEWO2oJ6pwMFRFLT/HgcjkxE1iJmUDvLh1s1+3ebanLL0U9xBRFURTFggqx2FGDTeekXUTMneTCk+RK2K5JE3AnOemaa+2YPHz4MDt37gxeXIh6iCmKoiiKBRViscNWiNlFxNxJLlI8Sbau+4mAaUjHpF1q8uDBgxw+fDh4sRbqK4qiKIoNKsRiRw1SsN+I0lJroMjtdpKe4sFITB1GwDDJTEu2NXPdu3evnYfYlpjsmKIoiqK0M1SIxQ4fcCR44f791hr2FI+brPRk2/FHiUDAMMjPySQzLdmybts2W7swFWKKoiiKYoMKsdhiydkdOHDAspEDyExPxkjQ1GTAMOiWmymdnUFs3rw5eJEJWPwsFEVRFEVRIRZrioIXlJSU2G6Yk5mWuMX6pknPvLCtK0pQDzFFURRFsUWFWGyx5CGLi4ttN+yUnZbAwyYd9MrvaFnq8/nsOiYPAPZvUlEURVG+46gQiy2WiNiBAwfw+XyWDTtmpiaki5hhmqSnuBnUK9ey7tChQxQWFgYv3oFNk4KiKIqiKCrEYo0lD1lcXGzrJdalYwZul3V8ULyR0UaZ9LBJTW7bts1uzqTF3VVRFEVRFEGFWGw5GLygpKSEQ4cOWTbsmd+BlOQkjATzsPD7A/TvnkN2eopl3ddff233EEv1vqIoiqIoggqx2FJEUJqurKyMffusteydstPITEu8zsmAAUP75mFYk78AAAhkSURBVNuuW7p0qd1iFWKKoiiKEgIVYrGlBJtRPzadhnTISCE/JwN/IHG8xAzTJD3VzenD+1rWVVdXs3r16uDFpcC6WOyboiiKorRHVIjFlmLAUkS1ceNGy4buJBdD+uThDwRisV9hUev1U9A7j4JenS3rNm/ezJYtFt/WDcCuWOyboiiKorRHVIjFlgA2nlohaqsYXdATh8MR7X0KG5/f4Mzh/XDZGLm+88471NTUBC9eBQnZ/KkoiqIoCYEKsdhjiRCtXr3azvaBUYO6k98xA18CpCd9/gBdO2Vw/vhBlnWBQIB58+bZPeyrqO+YoiiKorRjVIjFHksesqioiBUrVlg2zM/JYNLIE6iptfqMxZqqWh+XnjmMHp2tthWrVq1i+fLlwYtrgWWx2DdFURRFaa+oEIs9a7FJ182dO9d24ysmDSMzLZlAHAeA13j99M7vwH9972Tb9S+++CJ+vz948RfA+mjvm6IoiqK0Z1SIxZ7t2PiJzZs3j127dlkEWkGfPM47dRAV1V7iUS0WMEwCAYNbLx9PXscMy/qNGzfywgsv2D3UNlepKIqiKMoxVIjFniJgW/DCgwcP8tprr9VgEy277vyRdMpKw+uPbQelYZpUVNVy88VjmTphiO02f/3rXykttThylABvRHv/FEVRFKW9o0Is9hhIetLCc889V1JdXW0ZDH5C90789JJTqfFa0n9Rwx8wqKjycuPU0dx2xQTbbb7++mv+9a9/2a2ai8yYVBRFURSlCVSIxYf5dgvXrl2b+u6771qq3gGu+/4pnD3qBMoqLRYREcU0TSqqa/G4Xfzuhkn8+pozbbfzer3MmDGDqqqq4FXVwFNR3UlFURRFOU5QIRYflmBTJwbkPPbYYy6v1/tN8AqHw8ED07/HySd05UhVbcR3yDBNKmu81PoCfH/sIF6+70quPeeUkNs/+OCDLFiwwG7VS2i3pKIoiqKEhSveO/AdpQI4DSgIXrFnz55O6enpr0+YMGEY4Gm4Lj3Fw+kn92Ht9iK27yvBneTC2QbDV9M08foDVNf6SHYnMaqgB3dfexY/veRUOmWnhXzczJkzmTFjht2qg8D1wOFW71QCcf/998d7FxRFUZTjnMSxbf/u8X3gXbsVqampn3300Uc7TzvttKvt1h+pquXxf3/Oqwu/oarWR2qyG5fL2eyXaZom/oCBzx8gYJgku5Po3aUDk0eewLmnDmRw787NCrtZs2Zx0003UVtrG5X7GfD3Znaj3WAm2MB1RVEU5fhDhVh8+QiYZLdi7Nixb3z44YfdMjMzx4Z68Ddbi3hpwdd8tnonB8sqCQRMXE4HDocDh0PaL03DxDBNHA4H7iQneR0yGNSrM6MGd2f4Cd0o6NOZ9FRPqJdoxCOPPMLdd99t5xkGMBu4muNopJEKMUVRFCXaqBCLL99DomJJNuuMc8899+NXX321Z2Zm5sCmnqSo+AirthSycddBCg+Vc6Tai9cXIMXjIjMtmdzsdPp2y6FXXjb9uueQm53eop3ct28fd9xxB3PmzAm1yTLgXMS24rhBhZiiKIoSbVSIxZ//BW4PsS4wZcqU5S+99FJebm5u31juFEBVVRXPPPMM//M//8OBAwdCbbYBSbNaZmi2d1SIKYqiKNFGhVj8SQcWAKeGWG8WFBR8+9RTTyVPnDixUyx2qKamhnfeeYcHH3yQ1atXN7XpGuBSYEss9ivWqBBTFEVRoo0KscTgJCRF2T3UBqmpqd5bb73VcccddyTl5ORE5XvbuHEj//73v3nllVdYt25dc5t/CFwDhAyVtXdUiCmKoijRRoVY4jAGGQvUramN+vfvz2233cYVV1xBbm5um16wpqaGjRs3snTpUubNm8fChQuprq5u7mF+4GHgj0B03WXjjAoxRVEUJdqoEEssRiNiLGRkrJ7u3btz4YUXcu6553LKKafQrVs3XK7QtnCGYXDo0CEKCwtZs2YNn3zyCUuXLmXr1q2hrCjsWArcBSwK9wHtGRViiqIoSrRRIZZ4FACzgFHhPqBjx47069ePHj160L17d9LS0khLS6Ompobi4mJKSkooKipi9+7dFBUVEQi0eHj4FuAvwPMc51GwhqgQUxRFUaKNCrHEJBv4PWKQamdtEQv8wArgn4hH2JE47UfcUCGmKIqiRBsVYonNeOA+4Gxi911tR9Kj/waWAy0Onx0vqBBTFEVRoo0KscTHAUwG/hsRZJkRfv4KYB3wJbAQ+AQoj/BrtEtUiCmKoijRRoVY+6IvcAEizEYAPWnZd2gARcBe4Guk6H4pYsZqO7fou4wKMUVRFCXaqBBrv+QgwmwQMAzIA3KRiFkAEVbVHBNeO5Gi+11AMd/hlGO4qBBTFEVRoo1DTzaKoiiKoijxwRnvHVAURVEURfmuokJMURRFURQlTqgQUxRFURRFiRMqxBRFURRFUeKECjFFURRFUZQ4oUJMURRFURQlTqgQUxRFURRFiRMqxBRFURRFUeKECjFFURRFUZQ4oUJMURRFURQlTqgQUxRFURRFiRMqxBRFURRFUeKECjFFURRFUZQ4oUJMURRFURQlTqgQUxRFURRFiRMqxBRFURRFUeKECjFFURRFUZQ4oUJMURRFURQlTqgQUxRFURRFiRMqxBRFURRFUeKECjFFURRFUZQ4oUJMURRFURQlTqgQUxRFURRFiRMqxBRFURRFUeKECjFFURRFUZQ4oUJMURRFURQlTqgQUxRFURRFiRMqxBRFURRFUeKECjFFURRFUZQ4oUJMURRFURQlTqgQUxRFURRFiRMqxBRFURRFUeKECjFFURRFUZQ4oUJMURRFURQlTqgQUxRFURRFiRMqxBRFURRFUeKECjFFURRFUZQ48f8BXXPaSpsBa7QAAAAASUVORK5CYII=;fontSize=18;fontStyle=1" vertex="1" parent="1">
          <mxGeometry x="687.86" y="-390" width="174.29" height="80" as="geometry" />
        </mxCell>
        <mxCell id="INPc3uI3xBPr1Q4v6FXO-41" value="SCHEMAS" style="rounded=1;whiteSpace=wrap;html=1;spacingTop=-149;fontSize=18;fontStyle=1;strokeWidth=2;" vertex="1" parent="1">
          <mxGeometry x="510" y="-290" width="530" height="180" as="geometry" />
        </mxCell>
        <mxCell id="INPc3uI3xBPr1Q4v6FXO-42" value="WIKIJS" style="rounded=1;whiteSpace=wrap;html=1;fontSize=18;fontStyle=1;strokeWidth=2;" vertex="1" parent="1">
          <mxGeometry x="720" y="-230" width="120" height="60" as="geometry" />
        </mxCell>
        <mxCell id="INPc3uI3xBPr1Q4v6FXO-43" value="more.." style="rounded=1;whiteSpace=wrap;html=1;fontSize=18;fontStyle=1;strokeWidth=2;" vertex="1" parent="1">
          <mxGeometry x="880" y="-230" width="120" height="60" as="geometry" />
        </mxCell>
        <mxCell id="INPc3uI3xBPr1Q4v6FXO-44" value="POSTGRES" style="rounded=1;whiteSpace=wrap;html=1;fontSize=18;fontStyle=1;strokeWidth=2;" vertex="1" parent="1">
          <mxGeometry x="560" y="-230" width="120" height="60" as="geometry" />
        </mxCell>
        <mxCell id="INPc3uI3xBPr1Q4v6FXO-45" style="edgeStyle=orthogonalEdgeStyle;rounded=0;orthogonalLoop=1;jettySize=auto;html=1;entryX=0.5;entryY=1;entryDx=0;entryDy=0;fontSize=18;fontStyle=1" edge="1" parent="1" source="INPc3uI3xBPr1Q4v6FXO-30" target="INPc3uI3xBPr1Q4v6FXO-44">
          <mxGeometry relative="1" as="geometry" />
        </mxCell>
        <mxCell id="INPc3uI3xBPr1Q4v6FXO-46" value="Service 3" style="rounded=1;whiteSpace=wrap;html=1;fontSize=18;fontStyle=1;strokeWidth=2;" vertex="1" parent="1">
          <mxGeometry x="610" y="300" width="120" height="60" as="geometry" />
        </mxCell>
        <mxCell id="INPc3uI3xBPr1Q4v6FXO-47" style="edgeStyle=orthogonalEdgeStyle;rounded=0;orthogonalLoop=1;jettySize=auto;html=1;entryX=0.5;entryY=1;entryDx=0;entryDy=0;fontSize=18;fontStyle=1" edge="1" parent="1" source="INPc3uI3xBPr1Q4v6FXO-32" target="INPc3uI3xBPr1Q4v6FXO-42">
          <mxGeometry relative="1" as="geometry" />
        </mxCell>
      </root>
    </mxGraphModel>
  </diagram>
</mxfile>
